<svg width="24" height="24" viewBox="0 0 24 24" fill="none" xmlns="http://www.w3.org/2000/svg">
<path d="M22 17.833C22 18.9381 21.7814 20.2186 21 21C20.2186 21.7814 18.9381 22 17.833 22H6.16699C5.06192 22 3.7814 21.7814 3 21C2.2186 20.2186 2 18.9381 2 17.833V8.66699H22V17.833ZM8.25 15.2002C7.91848 15.2002 7.60063 15.3478 7.36621 15.6104C7.13194 15.8728 7.00009 16.2285 7 16.5996C7 16.9709 7.1318 17.3273 7.36621 17.5898C7.60063 17.8524 7.91848 18 8.25 18C8.58152 18 8.89937 17.8524 9.13379 17.5898C9.3682 17.3273 9.5 16.9709 9.5 16.5996C9.49991 16.2285 9.36806 15.8728 9.13379 15.6104C8.89937 15.3478 8.58152 15.2002 8.25 15.2002ZM12 15.2002C11.6685 15.2002 11.3506 15.3478 11.1162 15.6104C10.8819 15.8728 10.7501 16.2285 10.75 16.5996C10.75 16.9709 10.8818 17.3273 11.1162 17.5898C11.3506 17.8524 11.6685 18 12 18C12.3315 18 12.6494 17.8524 12.8838 17.5898C13.1182 17.3273 13.25 16.9709 13.25 16.5996C13.2499 16.2285 13.1181 15.8728 12.8838 15.6104C12.6494 15.3478 12.3315 15.2002 12 15.2002ZM12 11C11.6685 11 11.3506 11.1476 11.1162 11.4102C10.8818 11.6727 10.75 12.0291 10.75 12.4004C10.7501 12.7715 10.8819 13.1272 11.1162 13.3896C11.3506 13.6522 11.6685 13.7998 12 13.7998C12.3315 13.7998 12.6494 13.6522 12.8838 13.3896C13.1181 13.1272 13.2499 12.7715 13.25 12.4004C13.25 12.0291 13.1182 11.6727 12.8838 11.4102C12.6494 11.1476 12.3315 11 12 11ZM15.75 11C15.4185 11 15.1006 11.1476 14.8662 11.4102C14.6318 11.6727 14.5 12.0291 14.5 12.4004C14.5001 12.7715 14.6319 13.1272 14.8662 13.3896C15.1006 13.6522 15.4185 13.7998 15.75 13.7998C16.0815 13.7998 16.3994 13.6522 16.6338 13.3896C16.8681 13.1272 16.9999 12.7715 17 12.4004C17 12.0291 16.8682 11.6727 16.6338 11.4102C16.3994 11.1476 16.0815 11 15.75 11ZM17.833 2C18.9381 2 20.2186 2.2186 21 3C21.7814 3.7814 22 5.06192 22 6.16699V7H2V6.16699C2 5.06192 2.2186 3.7814 3 3C3.7814 2.2186 5.06192 2 6.16699 2H17.833Z" fill="#151515"/>
</svg>
