<svg width="24" height="24" viewBox="0 0 24 24" fill="none" xmlns="http://www.w3.org/2000/svg">
<path d="M12 2C17.5229 2 22 6.47708 22 12C22 17.5229 17.5229 22 12 22C6.47708 22 2 17.5229 2 12C2 6.47708 6.47708 2 12 2ZM12 3.66667C7.3975 3.66667 3.66667 7.3975 3.66667 12C3.66667 16.6025 7.3975 20.3333 12 20.3333C16.6025 20.3333 20.3333 16.6025 20.3333 12C20.3333 7.3975 16.6025 3.66667 12 3.66667ZM12.6375 7.35708C14.4596 7.35708 15.6458 8.61625 15.6458 10.3196C15.6458 12.0154 14.4333 13.2612 12.5908 13.2612H10.8412V14.5471H13.4987V15.2958H10.8412V16.7404H9.37708V15.2958H8.07083V14.5471H9.37667V13.2617H8.07083V12.5062H9.37667V7.35708H12.6375ZM12.2333 8.59625H10.8417V12.0688H12.2262C13.5121 12.0688 14.1546 11.3929 14.1546 10.3258C14.1546 9.26583 13.5121 8.59667 12.2329 8.59667" fill="#F2ECE4"/>
</svg>
