<svg width="24" height="24" viewBox="0 0 24 24" fill="none" xmlns="http://www.w3.org/2000/svg">
<path d="M20.125 12C20.125 14.1549 19.269 16.2215 17.7452 17.7452C16.2215 19.269 14.1549 20.125 12 20.125C9.84512 20.125 7.77849 19.269 6.25476 17.7452C4.73102 16.2215 3.875 14.1549 3.875 12C3.875 9.84512 4.73102 7.77849 6.25476 6.25476C7.77849 4.73102 9.84512 3.875 12 3.875C14.1549 3.875 16.2215 4.73102 17.7452 6.25476C19.269 7.77849 20.125 9.84512 20.125 12ZM2 12C2 14.6522 3.05357 17.1957 4.92893 19.0711C6.8043 20.9464 9.34784 22 12 22C14.6522 22 17.1957 20.9464 19.0711 19.0711C20.9464 17.1957 22 14.6522 22 12C22 9.34784 20.9464 6.8043 19.0711 4.92893C17.1957 3.05357 14.6522 2 12 2C9.34784 2 6.8043 3.05357 4.92893 4.92893C3.05357 6.8043 2 9.34784 2 12ZM11.0625 6.6875V12C11.0625 12.3125 11.2188 12.6055 11.4805 12.7812L15.2305 15.2812C15.6602 15.5703 16.2422 15.4531 16.5312 15.0195C16.8203 14.5859 16.7031 14.0078 16.2695 13.7188L12.9375 11.5V6.6875C12.9375 6.16797 12.5195 5.75 12 5.75C11.4805 5.75 11.0625 6.16797 11.0625 6.6875Z" fill="#F2ECE4"/>
</svg>
