<svg width="49" height="60" viewBox="0 0 49 60" fill="none" xmlns="http://www.w3.org/2000/svg">
<path d="M0.503066 58.663C0.872323 55.8751 1.40774 53.0318 2.07241 50.2439C2.51551 48.3977 2.92169 46.5329 3.78945 44.8159C5.48803 41.4926 8.05435 38.9262 10.8792 36.5814C12.4116 35.3075 12.3931 35.3629 11.3223 33.7012C8.90365 29.9348 8.3313 25.7622 9.05135 21.4235C9.66062 17.7124 11.7839 14.7584 14.1656 12.0074C17.9135 7.65018 22.2523 3.99455 27.3665 1.28051C28.2527 0.800481 29.1943 0.431224 30.1544 0.0804307C30.6529 -0.104198 31.059 0.0435006 31.4283 0.375831C31.7422 0.671237 31.7791 1.02203 31.6314 1.39129C30.5051 3.90223 31.4283 6.13624 32.5914 8.29639C34.0316 10.992 35.9332 13.3737 37.7795 15.7738C42.3952 21.7558 41.509 29.1778 36.4871 34.329C35.6378 35.2152 35.6378 35.1967 36.6348 35.9537C39.1457 37.8185 41.5644 39.794 43.6138 42.1941C45.257 44.0958 46.1432 46.2929 46.6786 48.6931C47.3617 51.8133 47.7679 54.9704 48.2664 58.1276C48.3587 58.7368 48.2664 59.2353 47.7125 59.5677C47.1771 59.8815 46.7155 59.6415 46.2724 59.3092C44.4815 57.9245 42.6352 56.6136 40.6597 55.4689C38.2965 54.0842 36.044 54.0103 33.6438 55.4504C31.6868 56.6321 29.6374 57.6844 27.5696 58.6999C25.1325 59.9 22.88 59.5492 20.6275 58.3491C18.7997 57.3706 16.935 56.429 15.1441 55.3766C13.2424 54.2504 11.433 54.2504 9.49445 55.3027C7.22353 56.5213 5.02645 57.8691 2.92169 59.3646C2.64475 59.5676 2.36781 59.7707 2.07241 59.9C1.14927 60.2323 0.447678 59.7154 0.503066 58.663ZM24.8371 33.7012C26.0556 33.7197 27.2188 33.4428 28.3819 33.1843C28.8989 33.0735 29.3605 32.8335 29.8405 32.6489C34.3823 30.8395 37.1333 24.9868 33.7361 20.168C31.2991 16.7154 28.1604 14.0014 24.8186 11.4905C24.4309 11.1951 24.0985 11.3058 23.7478 11.6012C20.7752 14.0753 17.9504 16.697 15.8457 20.0018C13.6486 23.4544 13.8701 27.4054 16.3996 30.3041C18.652 32.8335 21.6245 33.572 24.8371 33.7012Z" fill="#151515"/>
</svg>
