<svg width="61" height="60" viewBox="0 0 61 60" fill="none" xmlns="http://www.w3.org/2000/svg">
<path d="M60.501 22.442C60.4494 34.1774 52.3222 44.6757 37.9408 44.9163C25.8617 45.1225 15.6383 34.8132 15.6211 22.7685C15.6039 10.3286 25.6555 -0.169742 37.8033 0.00207972C52.2879 0.225448 60.4322 10.7238 60.501 22.442ZM38.1469 4.899C29.3153 4.86464 20.6899 10.9815 20.4837 22.631C20.3119 32.2187 28.4047 40.1225 38.0954 40.1397C47.769 40.1568 55.879 32.2702 55.7415 22.6654C55.604 11.1877 47.1504 4.899 38.1469 4.899Z" fill="#151515"/>
<path d="M0.691406 55.1929C0.691406 53.4747 1.15533 52.2719 2.13471 51.2926C7.10036 46.2926 12.1004 41.3097 17.066 36.3269C17.3753 36.0176 17.5471 35.9661 17.822 36.3784C19.5403 38.9042 21.6537 41.052 24.1966 42.753C24.8667 43.1998 24.4028 43.406 24.1279 43.6981C20.0042 47.8218 15.8976 51.9283 11.7739 56.052C10.8976 56.9111 10.0729 57.8218 9.16222 58.6293C7.56428 60.0555 5.72579 60.3991 3.74983 59.5228C1.7567 58.6293 0.777317 57.0142 0.691406 55.1929Z" fill="#151515"/>
<path fill-rule="evenodd" clip-rule="evenodd" d="M37.5524 9.00167C42.6356 8.5457 47.0256 12.8774 46.9999 18.8303C46.9229 21.5407 45.1515 23.9979 42.1992 25.6444C40.8128 26.379 39.6576 27.0883 39.5035 28.8362C39.4265 29.6721 38.6307 30.1027 37.7578 29.9507C36.9106 29.7987 36.4229 29.2162 36.4485 28.3296C36.4999 26.1511 37.5524 24.5805 39.4522 23.5166C39.6704 23.3899 39.9079 23.2886 40.1454 23.1873C40.1602 23.1809 40.175 23.1746 40.1899 23.1683C40.4124 23.0732 40.6339 22.9767 40.8385 22.8579C43.2004 21.566 44.33 18.805 43.5598 16.2465C42.8153 13.7133 40.2737 11.9654 37.6295 12.1681C34.9082 12.3707 32.726 14.372 32.3153 17.0064C32.3024 17.0951 32.296 17.1774 32.2896 17.2597C32.2832 17.3421 32.2768 17.4244 32.2639 17.513C32.1099 18.8556 31.5194 19.4889 30.5439 19.4129C29.517 19.3116 28.8495 18.4503 29.0292 17.1584C29.6197 12.6747 32.649 9.4323 37.5524 9.00167Z" fill="#151515"/>
<path fill-rule="evenodd" clip-rule="evenodd" d="M40.2994 34.2143C40.2737 35.4302 39.1955 36.4688 37.9889 36.4688C36.7823 36.4434 35.7297 35.4048 35.704 34.1889C35.704 32.9224 36.8336 31.8331 38.0916 31.8837C39.3238 31.9091 40.3251 32.9984 40.2994 34.2143Z" fill="#151515"/>
</svg>
