<svg width="70" height="46" viewBox="0 0 70 46" fill="none" xmlns="http://www.w3.org/2000/svg">
<path d="M69.9922 32.4412C69.0446 36.249 66.3073 38.4599 63.0611 40.2146C58.6392 42.5835 53.8488 43.8293 48.9356 44.6365C38.2319 46.4087 27.5632 46.2333 16.9648 43.7942C12.4025 42.7414 7.98064 41.2674 4.15536 38.4248C3.13763 37.6702 2.24273 36.8105 1.50575 35.7752C-0.494624 33.0027 -0.51218 29.7565 1.4531 26.9665C3.03234 24.7381 5.24327 23.2816 7.62968 22.0709C9.73534 21.0005 11.9463 20.1582 14.245 19.5616C14.9644 19.3686 15.2627 19.0879 15.3504 18.3158C16.5612 8.33147 24.7381 0.680912 34.6523 0.20714C44.7243 -0.266633 53.533 6.45392 55.7439 16.333C55.9369 17.1577 56.0773 17.9999 56.1124 18.8422C56.13 19.5265 56.4283 19.7722 57.0424 19.9652C58.8673 20.4916 60.622 21.2111 62.3066 22.0709C65.816 23.8782 68.8692 26.1067 69.9922 30.1776C69.9922 30.9146 69.9922 31.6867 69.9922 32.4412ZM36.3719 32.1429C37.6879 32.1605 39.7409 32.0903 41.7589 31.8797C44.7419 31.5814 47.7249 31.1603 50.55 30.0548C51.287 29.774 51.6905 29.388 51.6028 28.5106C51.5151 27.6684 51.5677 26.8261 51.5852 25.9839C51.6028 25.5277 51.48 25.4399 51.0237 25.5803C50.2517 25.8435 49.4796 26.1067 48.6724 26.2647C39.1268 28.1246 29.6338 28.2124 20.1934 25.5979C19.7372 25.475 19.5617 25.4925 19.5793 26.019C19.6144 26.949 19.6144 27.879 19.5793 28.809C19.5442 29.3705 19.7723 29.6688 20.2636 29.8793C21.2287 30.318 22.2289 30.6163 23.2466 30.862C27.3351 31.8446 31.4762 32.1254 36.3719 32.1429Z" fill="#151515"/>
</svg>
