<svg width="71" height="42" viewBox="0 0 71 42" fill="none" xmlns="http://www.w3.org/2000/svg">
<path d="M70.5 22.0641C69.834 22.2393 69.7815 22.9229 69.4134 23.361C66.6794 26.6559 63.8226 29.8106 60.4576 32.492C55.8132 36.2251 50.6781 38.9942 44.9296 40.5365C42.4409 41.2025 39.8646 41.553 37.2707 41.6757C33.3975 41.8685 29.5943 41.4653 25.8788 40.4664C21.8128 39.3622 18.0447 37.5921 14.4869 35.2962C10.9116 32.9828 7.73937 30.2312 4.86511 27.1291C3.39292 25.5342 1.93827 23.8868 0.799081 22.029C0.378456 21.3455 0.395982 20.5393 0.886711 19.8208C2.65684 17.297 4.68985 14.9661 6.8806 12.8104C11.2972 8.48143 16.2921 5.02878 22.0581 2.78545C25.8437 1.31326 29.7696 0.472041 33.8707 0.314307C38.6202 0.121521 43.1945 0.769966 47.6636 2.31225C52.8513 4.11743 57.4081 6.93915 61.5793 10.4443C64.4886 12.898 66.9598 15.7372 69.3783 18.6465C69.7639 19.1197 69.9392 19.7331 70.465 20.1012C70.5 20.7847 70.5 21.4156 70.5 22.0641ZM35.0624 35.6467C42.7739 36.1024 49.7668 29.6879 50.2049 21.9589C50.6781 13.8269 44.3863 6.65873 36.0088 6.32574C28.2448 6.02779 21.3396 12.2145 20.8664 20.0311C20.3756 28.1631 26.6675 35.4539 35.0624 35.6467Z" fill="#151515"/>
<path d="M27.6686 21.0999C27.616 17.0163 30.7883 13.441 35.2399 13.1606C39.6038 12.8802 43.3369 16.2978 43.3544 20.7319C43.3719 25.3412 40.41 28.4784 35.8182 28.8464C31.4192 29.1969 27.8439 25.6917 27.6686 21.0999Z" fill="#151515"/>
</svg>
