<svg width="48" height="60" viewBox="0 0 48 60" fill="none" xmlns="http://www.w3.org/2000/svg">
<path d="M12.5355 24.3856C12.5355 16.6473 12.5572 8.90888 12.5139 1.14883C12.5139 0.260111 12.709 0 13.6411 0C24.0461 0.0433523 34.4512 0.0216708 44.8779 0.0216708C46.8939 0.0216708 47.5008 0.650276 47.5008 2.68783C47.5008 17.1025 47.5008 31.4954 47.5008 45.91C47.5008 48.0126 46.9156 48.5979 44.7912 48.5979C34.4512 48.5979 24.1112 48.5762 13.7711 48.6195C12.8173 48.6195 12.4922 48.4461 12.4922 47.4057C12.5572 39.7323 12.5355 32.059 12.5355 24.3856ZM32.6737 17.4059C33.2806 17.3626 33.7358 17.1025 33.8876 16.4955C34.061 15.7802 33.7142 15.3033 33.0855 15.0432C30.1591 13.8294 27.2327 12.6155 24.2846 11.4233C23.6343 11.1632 23.049 11.3149 22.7021 11.9435C22.377 12.5721 22.5504 13.1791 23.179 13.5259C23.6126 13.7643 23.7426 13.9594 23.5259 14.4363C22.5721 16.6906 21.64 18.9666 20.7078 21.2209C20.5778 21.5027 20.5344 21.8712 20.0358 21.6978C19.2121 21.3943 18.5835 21.6761 18.3667 22.5215C18.1499 23.3452 18.7352 23.7354 19.4289 24.0171C21.9218 25.0359 24.4146 26.0764 26.9075 27.1168C27.3411 27.2902 27.7746 27.507 28.2081 27.6154C28.7934 27.7671 29.2703 27.5287 29.5521 26.9868C29.8556 26.4232 29.7039 25.8163 29.1836 25.5778C28.3382 25.166 28.62 24.7108 28.8801 24.1255C29.6605 22.2614 29.6605 22.2614 31.5248 23.0417C35.2532 24.5807 38.9817 26.0981 42.7102 27.6371C43.4689 27.9405 44.0975 27.8105 44.4227 27.0735C44.7695 26.2931 44.3793 25.7512 43.6423 25.4478C43.4039 25.3394 43.1871 25.2527 42.9486 25.1443C39.2202 23.6053 35.5134 22.0229 31.7415 20.5706C30.701 20.1588 30.4409 19.7036 31.0695 18.8365C31.5248 18.2079 31.1996 16.7773 32.6737 17.4059ZM26.1055 34.9636C23.0923 34.9636 20.0575 34.9636 17.0444 34.9636C16.1773 34.9636 15.4836 35.202 15.4836 36.1774C15.4836 37.1529 16.199 37.3913 17.0661 37.3913C23.0707 37.3913 29.0969 37.3913 35.1015 37.3913C36.207 37.3913 36.814 36.9144 36.7273 36.1341C36.6189 35.1587 35.9252 34.9853 35.0798 34.9853C32.0884 34.9636 29.0969 34.9636 26.1055 34.9636ZM25.9537 32.9911C27.9263 32.9911 29.9206 32.9911 31.8933 32.9911C32.7387 32.9911 33.454 32.7526 33.454 31.7772C33.454 30.7801 32.717 30.585 31.8716 30.585C28.0131 30.585 24.1762 30.585 20.3177 30.585C19.4722 30.585 18.7786 30.7584 18.6919 31.7338C18.6268 32.5142 19.2338 32.9694 20.3393 32.9911C22.2036 32.9911 24.0678 32.9911 25.9537 32.9911Z" fill="#151515"/>
<path d="M0.832031 50.3332C0.832031 49.6829 0.832031 49.3578 0.832031 49.0326C0.832031 34.4446 0.832031 19.8566 0.832031 5.29021C0.832031 1.757 2.54453 0.0445926 6.05623 0.0229165C7.14009 0.0229165 8.22395 0.066274 9.28613 0.00124566C9.95813 -0.0204305 10.1966 0.239683 10.1315 0.868291C10.1099 1.02002 10.1315 1.15008 10.1315 1.30181C10.1315 16.6485 10.1099 31.9735 10.1532 47.3202C10.1532 48.3607 9.91477 48.7509 8.85259 48.5991C8.33234 48.5124 7.76873 48.5991 7.2268 48.5774C5.03741 48.5341 2.84801 48.5774 0.832031 50.3332Z" fill="#151515"/>
<path d="M24.5913 59.9778C18.37 59.9778 12.127 59.9778 5.90561 59.9778C3.32602 59.9778 1.54849 58.7206 1.00656 56.5747C0.334571 53.9518 2.09042 51.4591 4.93014 51.0689C5.42871 51.0039 5.92729 51.0039 6.44754 51.0039C18.8035 51.0039 31.1595 51.0039 43.5155 51.0039C45.1196 51.0039 45.1196 51.0039 44.7078 52.5429C44.1658 54.6021 44.2092 56.683 44.7945 58.7423C45.1196 59.8694 45.0329 59.9995 43.8624 59.9995C37.4242 59.9778 31.0078 59.9778 24.5913 59.9778Z" fill="#151515"/>
<path d="M29.4669 16.4517C29.3802 16.6685 29.2935 16.8636 29.2068 17.0587C28.3614 19.1179 27.4943 21.1555 26.6706 23.2364C26.3888 23.9734 26.107 24.3202 25.3049 23.8433C24.6979 23.4965 24.0043 23.2581 23.3106 23.0196C22.7687 22.8245 22.7036 22.5644 22.9204 22.0442C23.8525 19.8332 24.763 17.6006 25.6734 15.3679C25.8685 14.8694 26.107 14.696 26.6272 14.9561C27.4076 15.3246 28.2096 15.6064 29.0117 15.9532C29.2718 16.0616 29.5536 16.1266 29.4669 16.4517Z" fill="#151515"/>
</svg>
