<svg width="24" height="24" viewBox="0 0 24 24" fill="none" xmlns="http://www.w3.org/2000/svg">
<path d="M21.625 3.5H2.375C2.01033 3.5 1.66059 3.64926 1.40273 3.91493C1.14487 4.18061 1 4.54094 1 4.91667V19.0833C1 19.4591 1.14487 19.8194 1.40273 20.0851C1.66059 20.3507 2.01033 20.5 2.375 20.5H21.625C21.9897 20.5 22.3394 20.3507 22.5973 20.0851C22.8551 19.8194 23 19.4591 23 19.0833V4.91667C23 4.54094 22.8551 4.18061 22.5973 3.91493C22.3394 3.64926 21.9897 3.5 21.625 3.5ZM20.5662 19.0833H3.51625L8.32875 13.955L7.33875 12.9704L2.375 18.2617V5.99333L10.9206 14.7554C11.1782 15.0193 11.5267 15.1674 11.89 15.1674C12.2533 15.1674 12.6018 15.0193 12.8594 14.7554L21.625 5.77375V18.1696L16.565 12.9563L15.5956 13.955L20.5662 19.0833ZM3.27562 4.91667H20.5112L11.89 13.7496L3.27562 4.91667Z" fill="#151515" stroke="#151515" stroke-width="0.2"/>
</svg>
