<svg width="24" height="24" viewBox="0 0 24 24" fill="none" xmlns="http://www.w3.org/2000/svg">
<path d="M21.1276 5.1671L18.4651 2.50744C18.1401 2.18248 17.7051 2 17.2451 2C16.7851 2 16.3501 2.17998 16.0251 2.50744L13.1575 5.36958C12.8325 5.69454 12.65 6.13198 12.65 6.59193C12.65 7.05437 12.83 7.48681 13.1575 7.81427L15.3976 10.0565C14.8873 11.2453 14.1541 12.3255 13.2375 13.2386C12.32 14.161 11.2475 14.8884 10.0575 15.4033L7.81753 13.1611C7.49252 12.8361 7.05752 12.6537 6.59752 12.6537C6.37063 12.6528 6.14585 12.6973 5.93636 12.7844C5.72686 12.8715 5.53687 12.9996 5.37751 13.1611L2.5075 16.0232C2.1825 16.3482 2 16.7857 2 17.2456C2 17.708 2.18 18.1405 2.5075 18.4679L5.16751 21.1276C5.72252 21.6825 6.48752 22 7.27252 22C7.43502 22 7.59252 21.9875 7.75253 21.96C11.0625 21.4151 14.3476 19.6528 17.0001 17.0031C19.6501 14.3485 21.4101 11.0639 21.9601 7.75178C22.1176 6.8119 21.8026 5.84452 21.1276 5.1671ZM20.1876 7.45432C19.7001 10.4015 18.1151 13.3411 15.7276 15.7283C13.34 18.1155 10.4025 19.7003 7.45502 20.1877C7.08502 20.2502 6.70502 20.1252 6.43502 19.8578L3.82251 17.2456L6.59252 14.4734L9.58753 17.4731L9.61003 17.4956L10.15 17.2956C11.7874 16.6937 13.2742 15.743 14.5075 14.5094C15.7409 13.2758 16.6912 11.7888 17.2926 10.1515L17.4926 9.61155L14.4726 6.59443L17.2426 3.82227L19.8551 6.43445C20.1251 6.70441 20.2501 7.08436 20.1876 7.45432Z" fill="#151515"/>
</svg>
