<svg width="69" height="60" viewBox="0 0 69 60" fill="none" xmlns="http://www.w3.org/2000/svg">
<path d="M0.0413675 41.5013C0.331011 41.0462 0.537909 40.5496 1.03444 40.3014C1.40684 40.0945 1.77922 40.0117 2.15162 40.0117C23.4611 40.0117 44.7706 40.0117 66.08 40.0117C67.3627 40.0117 68.1903 40.8393 68.1903 42.122C68.1903 43.4047 68.1903 44.6874 68.1903 45.9287C68.1903 47.1287 67.3214 47.9976 66.1628 47.9976C64.5904 47.9976 63.0181 47.9976 61.4457 47.9976C61.032 47.9976 60.9906 48.0804 61.1147 48.4528C62.1078 51.3492 63.0595 54.2456 64.0111 57.1421C64.5077 58.6317 63.556 60.0385 62.0664 59.9557C61.1975 59.9144 60.5354 59.3764 60.2044 58.4248C59.2114 55.4456 58.2183 52.4664 57.2252 49.4872C57.0597 48.9907 57.0597 48.37 56.6459 48.0804C56.2735 47.8321 55.6942 47.9976 55.1977 47.9976C40.7983 47.9976 26.4403 47.9976 12.0409 47.9976C11.5857 47.9976 11.3788 48.1217 11.2133 48.5769C10.1375 51.8457 9.06168 55.1559 7.94448 58.4248C7.40657 60.0385 5.62734 60.535 4.51014 59.3351C3.93086 58.7144 3.84812 57.9696 4.13776 57.1834C5.08945 54.3284 6.04112 51.5147 6.9928 48.6596C7.03418 48.5769 7.03418 48.4941 7.07556 48.4114C7.24107 48.0804 7.15831 47.9976 6.78591 47.9976C5.42045 47.9976 4.01361 47.9562 2.64815 48.039C1.40682 48.0804 0.455154 47.708 0 46.4666C0.0413776 44.8115 0.0413675 43.1564 0.0413675 41.5013Z" fill="#151515"/>
<path d="M56.4006 24.0419C57.6006 24.0419 58.635 24.0419 59.7108 24.0419C60.497 24.0419 61.2832 24.0419 62.0694 24.0419C63.2279 24.0419 64.0969 24.9108 64.0969 26.0694C64.0555 29.8347 62.7314 33.0622 60.166 35.7517C59.9591 36 59.7108 36 59.4212 36C53.4214 36 47.4631 36 41.4633 36C38.6083 36 35.7118 36 32.8568 36C32.5671 36 32.3602 35.9173 32.112 35.7104C29.5879 33.0208 28.2639 29.8761 28.1811 26.1935C28.1397 24.8281 29.0087 24.0005 30.3327 24.0005C37.0773 24.0005 43.8632 24.0005 50.6078 24.0005C51.0215 24.0005 51.3112 23.8764 51.5595 23.5453C54.4973 19.9869 57.4765 16.4284 60.4556 12.8699C61.4901 11.6286 63.2693 11.7527 63.89 13.1596C64.2624 13.9871 64.0969 14.7319 63.5176 15.4353C61.2418 18.1663 58.9247 20.9385 56.6489 23.6695C56.6075 23.7522 56.5248 23.835 56.4006 24.0419Z" fill="#151515"/>
<path d="M14.149 24.043C17.0454 24.043 19.9419 24.043 22.7969 24.043C23.1693 24.043 23.3348 24.0843 23.2935 24.4981C22.9624 28.1393 22.6728 31.7806 22.3831 35.4632C22.3418 35.9597 22.1763 36.0425 21.7211 36.0425C16.673 36.0425 11.625 36.0425 6.53552 36.0425C6.08037 36.0425 5.95624 35.9183 5.91486 35.5046C5.62521 31.822 5.33557 28.1394 5.00455 24.4567C4.96317 24.043 5.21142 24.0843 5.45969 24.0843C8.35612 24.043 11.2526 24.043 14.149 24.043Z" fill="#151515"/>
<path d="M36.333 8.06863C35.6295 8.06863 34.8847 8.06863 34.1813 8.06863C33.0228 8.11001 32.1538 8.97893 32.1538 10.0961C32.1538 11.1719 33.0641 12.0409 34.1813 12.0409C36.8709 12.0409 39.5604 11.9995 42.25 12.0409C45.4774 12.0823 48.1256 14.7718 48.1256 17.9579C48.1256 19.0751 47.298 19.944 46.2222 19.9854C45.105 20.0268 44.2361 19.1992 44.1533 18.0406C44.0706 16.7579 43.2844 15.9717 42.0017 15.9717C39.4363 15.9717 36.8295 15.9717 34.2641 15.9717C30.747 15.9304 28.0988 13.1581 28.2229 9.72374C28.3471 6.66179 30.9125 4.09636 33.9331 4.01361C35.2572 3.97223 36.5812 4.01361 37.9053 4.01361C39.3121 4.01361 40.0569 3.3102 40.1811 1.90336C40.2638 0.827542 41.1741 0 42.25 0C43.3258 0.0413776 44.1533 0.95167 44.1533 2.02749C44.1533 5.17219 41.5465 7.86173 38.4018 7.94448C37.657 8.06861 36.995 8.06863 36.333 8.06863Z" fill="#151515"/>
<path d="M14.0655 20.0288C11.1277 20.0288 8.18991 20.0288 5.2521 20.0288C4.75556 20.0288 4.63144 19.8633 4.59006 19.4082C4.46593 17.7531 4.30042 16.098 4.17629 14.4015C4.05215 12.9533 4.8797 12.043 6.3693 12.043C11.5829 12.043 16.7551 12.043 21.9687 12.043C23.3755 12.043 24.2031 12.9119 24.1203 14.3601C23.9962 16.098 23.8307 17.8772 23.7065 19.6151C23.6651 20.0288 23.4582 20.0702 23.1272 20.0702C20.1067 20.0289 17.0861 20.0288 14.0655 20.0288Z" fill="#151515"/>
</svg>
