<svg width="56" height="60" viewBox="0 0 56 60" fill="none" xmlns="http://www.w3.org/2000/svg">
<path d="M46.3136 0C46.7138 0.291067 47.114 0.58213 47.5506 0.836814C47.6598 0.90958 47.8417 0.909583 47.9508 0.873199C48.8604 0.582132 49.6608 0.800434 50.3885 1.34618C51.007 1.81917 51.6255 2.32853 52.2077 2.8379C52.7898 3.34727 53.1536 3.96579 53.19 4.76622C53.19 4.91176 53.2992 5.05729 53.4083 5.16644C53.8085 5.45751 54.2088 5.71219 54.609 6.00326C55.0456 6.33071 55.1547 6.73093 54.8637 7.13114C54.609 7.49498 54.2088 7.56774 53.7358 7.24029C53.3356 6.98561 52.9717 6.73093 52.5351 6.43986C52.0257 7.05838 51.5164 7.67689 50.9706 8.3318C51.3345 8.58648 51.6983 8.84117 52.0258 9.09585C52.426 9.38692 52.4987 9.78713 52.2804 10.151C52.0621 10.5148 51.6255 10.5876 51.1889 10.3329C50.7887 10.0782 50.3885 9.78713 49.9883 9.49606C49.4789 10.1146 48.9695 10.7331 48.4238 11.388C48.7876 11.6427 49.1515 11.861 49.4789 12.1157C49.9519 12.4795 49.9883 12.9525 49.5881 13.3163C49.3334 13.571 49.0059 13.571 48.7149 13.4255C48.5693 13.3527 48.4238 13.2436 48.3146 13.1708C47.7325 12.7706 47.2595 12.334 46.4227 12.625C45.8042 12.8433 45.1493 12.5523 44.6035 12.1157C43.985 11.6063 43.3665 11.1333 42.7844 10.624C42.1658 10.1146 41.802 9.45968 41.7656 8.62286C41.7656 8.47733 41.6565 8.29541 41.5109 8.18626C41.2199 7.93158 40.856 7.74966 40.5286 7.49498C40.1648 7.20391 40.092 6.80369 40.3103 6.47624C40.5286 6.11241 40.9652 6.00326 41.329 6.25794C41.6929 6.47624 42.0203 6.69454 42.3842 6.94923C42.8935 6.33071 43.4029 5.71219 43.9486 5.05729C43.6576 4.87537 43.4029 4.69346 43.1846 4.51154C42.748 4.18409 42.6025 3.74749 42.8571 3.38365C43.1118 2.98343 43.5484 2.94705 44.0214 3.23812C44.3125 3.42004 44.6035 3.60196 44.8946 3.82026C44.8946 3.82026 44.931 3.82026 45.0038 3.82026C45.4767 3.23812 45.9861 2.6196 46.5318 2.00109C46.3135 1.85555 46.0953 1.71002 45.9133 1.56448C45.1493 1.01873 45.1129 0.618518 45.7678 0C45.9497 0 46.1316 0 46.3136 0Z" fill="#151515"/>
<path d="M27.5426 25.2519C26.7058 26.1615 25.869 27.1074 25.0321 28.017C23.9043 29.254 22.74 30.5275 21.6121 31.7645C21.4666 31.91 21.2847 32.0556 21.1027 32.0556C18.1921 32.4194 15.9727 34.8207 15.8272 37.7678C15.718 40.4237 17.1006 42.6431 19.5746 43.6983C21.794 44.6442 24.6683 43.9893 26.4147 42.0974C27.6881 40.7148 28.2339 39.1139 27.9428 37.222C27.9064 37.0765 27.9792 36.8946 28.052 36.7854C29.7256 34.6024 31.4356 32.383 33.1093 30.2C33.1456 30.1636 33.182 30.1273 33.2548 30.0545C33.7642 30.8549 34.128 31.6917 34.3827 32.5649C35.3287 36.2397 34.6737 39.5142 31.7994 42.1338C31.1082 42.7523 30.3077 43.2253 29.5437 43.8074C29.289 43.9893 29.0343 44.2076 28.7796 44.3895C27.4698 45.4447 26.9969 46.8272 27.2152 48.4645C27.4698 50.3564 27.4698 52.2484 26.7422 54.0675C25.6143 56.9418 23.4677 58.6518 20.557 59.4887C17.3553 60.3982 14.1899 60.0708 11.2065 58.7246C6.98598 56.869 3.82063 53.8492 1.89231 49.6287C0.764428 47.1547 0.327819 44.5715 1.0191 41.8791C1.96507 38.168 4.91213 35.5484 8.73239 35.0026C9.35091 34.9299 9.96941 34.8571 10.5879 34.7479C12.1888 34.4205 13.2075 33.4381 13.8624 32.0192C14.2263 31.2551 14.5173 30.4547 14.8812 29.6907C16.1546 26.9255 18.3376 25.2883 21.2847 24.6334C23.3221 24.1604 25.3232 24.3787 27.2515 25.1063C27.3243 25.1427 27.3971 25.1791 27.4698 25.1791C27.5062 25.1791 27.5062 25.2155 27.5426 25.2519Z" fill="#151515"/>
<path d="M41.837 11.9688C42.5283 12.5145 43.1468 13.0239 43.8381 13.5696C38.3078 20.7735 32.7775 27.9047 27.2473 35.145C26.3377 33.6896 25.1006 32.7073 23.3906 32.1979C29.5758 25.4306 35.6882 18.7361 41.837 11.9688Z" fill="#151515"/>
<path d="M17.3911 38.1319C17.3547 35.6942 19.2831 33.7295 21.7935 33.6567C24.304 33.6204 26.3051 35.6214 26.3778 38.1683C26.4142 40.424 24.3404 42.4251 21.9391 42.4979C19.4286 42.5343 17.4275 40.606 17.3911 38.1319Z" fill="#151515"/>
</svg>
