<svg width="71" height="71" viewBox="0 0 71 71" fill="none" xmlns="http://www.w3.org/2000/svg">
<g clip-path="url(#clip0_1637_21291)">
<path d="M42.5012 7.41406C42.5012 9.15455 41.8097 10.8237 40.579 12.0545C39.3483 13.2852 37.6791 13.9766 35.9387 13.9766C34.1982 13.9766 32.529 13.2852 31.2983 12.0545C30.0676 10.8237 29.3762 9.15455 29.3762 7.41406C29.3762 5.67358 30.0676 4.00438 31.2983 2.77367C32.529 1.54297 34.1982 0.851563 35.9387 0.851562C37.6791 0.851563 39.3483 1.54297 40.579 2.77367C41.8097 4.00438 42.5012 5.67358 42.5012 7.41406ZM29.1137 17.2666C29.4211 16.9203 29.7984 16.6431 30.2206 16.4531C30.6429 16.2631 31.1006 16.1646 31.5637 16.1641H37.8855C41.1318 16.1641 43.6605 18.9772 43.3237 22.2016L41.4424 40.0647C41.3794 40.6534 41.2503 41.2331 41.0574 41.7928L39.6662 45.7566L40.598 46.8153C40.797 47.0476 40.9647 47.305 41.0968 47.5809L49.8468 66.1747C50.0434 66.5662 50.1596 66.993 50.1885 67.4301C50.2175 67.8672 50.1587 68.3057 50.0155 68.7196C49.8723 69.1336 49.6477 69.5148 49.3549 69.8406C49.0621 70.1664 48.707 70.4302 48.3106 70.6166C47.9141 70.803 47.4844 70.9081 47.0467 70.9258C46.609 70.9434 46.1722 70.8733 45.7621 70.7194C45.3519 70.5656 44.9768 70.3312 44.6587 70.03C44.3405 69.7289 44.086 69.3671 43.9099 68.9659L35.3524 50.7922L28.0024 42.3878C27.4367 41.7451 27.1447 40.9067 27.1887 40.0516L27.7924 28.6197L25.8893 30.7591L23.8593 42.9478C23.7166 43.8065 23.2386 44.5732 22.5305 45.0795C21.8225 45.5857 20.9423 45.7899 20.0837 45.6472C19.225 45.5045 18.4582 45.0265 17.952 44.3184C17.4458 43.6104 17.2416 42.7302 17.3843 41.8716L19.5718 28.7466C19.6743 28.1364 19.9473 27.5676 20.3593 27.1059L29.1093 17.2622L29.1137 17.2666Z" fill="#151515"/>
<path d="M28.2824 52.2355V46.0317L33.5499 52.0473L34.6917 54.3398C34.5731 54.7031 34.3957 55.0445 34.1667 55.3505L23.2292 69.5692C22.699 70.2596 21.9162 70.7111 21.053 70.8243C20.1899 70.9375 19.3171 70.7032 18.6267 70.173C17.9363 69.6427 17.4849 68.8599 17.3716 67.9968C17.2584 67.1336 17.4927 66.2609 18.023 65.5705L28.2824 52.2355ZM46.7449 33.7948L44.5836 31.6336L45.4805 23.5705L45.5067 23.2773L50.4242 28.1948H56.7242C57.5945 28.1948 58.4291 28.5405 59.0444 29.1559C59.6598 29.7713 60.0055 30.6059 60.0055 31.4761C60.0055 32.3463 59.6598 33.1809 59.0444 33.7963C58.4291 34.4116 57.5945 34.7573 56.7242 34.7573H49.0636C48.6321 34.7575 48.2048 34.6726 47.8062 34.5075C47.4075 34.3423 47.0454 34.1001 46.7405 33.7948H46.7449Z" fill="#151515"/>
</g>
<defs>
<clipPath id="clip0_1637_21291">
<rect width="70" height="70" fill="white" transform="translate(0.9375 0.851562)"/>
</clipPath>
</defs>
</svg>
