<svg width="61" height="60" viewBox="0 0 61 60" fill="none" xmlns="http://www.w3.org/2000/svg">
<path d="M8.4991 0C9.67855 0.717953 9.88365 1.94873 10.14 3.12823C10.7041 5.58978 12.0888 7.43594 14.2938 8.718C15.6784 9.53852 15.7296 10.9231 14.345 11.7949C12.9604 12.6667 11.7297 13.5898 11.0118 15.1283C10.6015 16.0001 10.3452 16.9232 10.0375 17.8463C9.88367 18.3078 9.78109 18.7181 9.62724 19.1796C9.37084 19.9488 8.85811 20.3591 8.03763 20.4617C7.37098 20.5129 6.65296 20.0514 6.39655 19.2822C6.14015 18.6668 5.98639 18.0514 5.83254 17.3847C5.26846 15.0257 3.93514 13.2308 1.83265 12.0001C1.57625 11.8462 1.3711 11.6924 1.16598 11.5385C0.191649 10.6667 0.29421 9.5898 1.42238 8.82057L1.47371 8.76929C3.98645 7.53851 5.371 5.48721 5.93508 2.82053C6.19148 1.69232 6.49921 0.666671 7.52482 0C7.78122 0 8.14014 0 8.4991 0Z" fill="#151515"/>
<path d="M60.4973 50.0493C60.087 50.716 59.4718 51.1775 58.8051 51.5878C57.0616 52.5622 56.0359 54.1006 55.4206 55.9468C55.1642 56.716 55.0103 57.434 54.8052 58.2032C54.7539 58.3571 54.7026 58.5622 54.6514 58.6648C54.2924 59.3314 53.8309 59.8955 53.0104 59.8955C52.3438 59.8955 51.6259 59.3314 51.3695 58.5622C51.0618 57.6904 50.8567 56.8186 50.6003 55.9468C49.9849 53.8442 48.6516 52.357 46.8568 51.2801C46.4465 51.0237 45.985 50.6134 45.8312 50.1519C45.5235 49.4339 45.7799 48.716 46.4978 48.2544C46.6004 48.1519 46.7542 48.0493 46.8568 47.998C49.2669 46.716 50.4976 44.6134 51.0104 41.998C51.113 41.4852 51.2669 40.9724 51.472 40.5108C52.0361 39.2287 53.6257 39.0749 54.3436 40.2544C54.7026 40.8185 54.8565 41.4339 55.0103 42.1006C55.5744 44.6647 56.959 46.6647 59.2666 47.998C59.7281 48.2544 60.087 48.7673 60.4973 49.1262C60.4973 49.4852 60.4973 49.7929 60.4973 50.0493Z" fill="#151515"/>
<path d="M45.3159 23.3333C45.3159 24.9231 45.3159 26.359 45.3159 27.8462C45.3159 28.1539 45.162 28.2564 44.8543 28.2564C42.5979 28.2051 40.3417 28.1539 38.1366 28.2051C37.6238 28.2051 37.0597 28.4615 36.7008 28.8205C36.2905 29.1795 35.9829 29.7436 36.2393 30.4103C36.547 31.1795 37.111 31.7436 37.9828 31.7436C38.7007 31.7436 39.4186 31.7436 40.1365 31.7436C41.7262 31.7436 43.3673 31.6923 44.9569 31.6923C45.1108 31.6923 45.3671 31.8975 45.3671 32C45.3671 33.4359 45.3671 34.8206 45.3671 36.2565C45.3671 36.718 45.0082 36.5642 44.7518 36.5642C42.598 36.5642 40.4443 36.5129 38.2905 36.5642C37.829 36.5642 37.3674 36.718 37.0085 36.9744C36.3418 37.3847 36.0342 38.2052 36.2393 38.7693C36.547 39.6411 37.2135 40.1026 38.0853 40.1026C40.4955 40.1026 42.8544 40.1026 45.3671 40.1026C45.4184 41.2309 45.3671 42.3591 45.0082 43.436C43.9825 46.4617 41.1108 49.4873 36.5469 49.4873C32.2393 49.4873 27.9318 49.5386 23.6242 49.3848C19.5218 49.2309 16.0347 45.5386 15.7783 41.4873C15.7783 41.0257 15.7783 40.6155 15.7783 40.1539C18.1885 40.1539 20.5475 40.1539 22.9064 40.1539C23.4192 40.1539 23.932 40.1026 24.2909 39.6411C24.6499 39.1796 25.06 38.7693 24.8549 38.1026C24.5985 37.3334 24.1883 36.7693 23.3678 36.6154C23.0602 36.5642 22.8038 36.5642 22.4961 36.5642C20.4449 36.5642 18.3937 36.5642 16.3425 36.5642C16.1373 36.5642 15.9835 36.5642 15.7271 36.5642C15.7271 35.6411 15.7271 34.8206 15.7271 34C15.7271 33.3847 15.7271 32.7693 15.6758 32.1539C15.6758 31.7949 15.7783 31.6923 16.1886 31.6923C18.4962 31.7436 20.7525 31.7436 23.0601 31.7436C24.0344 31.7436 24.9063 30.8718 24.9576 30C24.9576 29.1282 24.0345 28.2051 23.0089 28.2051C20.7526 28.2051 18.4962 28.2051 16.2911 28.2564C15.9834 28.2564 15.7271 28.3077 15.7271 27.8974C15.7271 26.4103 15.7271 24.9231 15.7271 23.3846C15.9835 23.3846 16.1885 23.3333 16.3937 23.3333C18.5987 23.3333 20.7525 23.3333 22.9576 23.3333C23.6755 23.3333 24.1883 23.0769 24.5985 22.5128C24.9575 22 25.1627 21.4871 24.8037 20.8718C24.3935 20.2564 24.0345 19.7435 23.1628 19.7948C20.9577 19.8461 18.8039 19.7948 16.5989 19.7948C16.3937 19.7948 16.1373 19.7948 15.8809 19.7948C15.727 18.1538 15.9322 16.6666 16.7014 15.282C18.3424 12.2563 20.8551 10.5127 24.2909 10.4614C28.701 10.4102 33.1624 10.3589 37.5725 10.5127C41.7775 10.7178 45.162 14.3076 45.3671 18.5128C45.3671 18.923 45.4184 19.282 45.4184 19.7948C45.0082 19.7948 44.6492 19.7948 44.3415 19.7948C42.2903 19.7948 40.1878 19.7948 38.1366 19.7948C37.2136 19.7948 36.2393 20.6153 36.2393 21.4359C36.188 22.3077 37.1623 23.3333 38.1366 23.3333C39.7263 23.3333 41.3672 23.3333 42.9569 23.3333C43.6236 23.3333 44.4441 23.3333 45.3159 23.3333ZM32.2394 30C32.2394 26.9744 32.2394 23.9487 32.2394 20.923C32.2394 20.3077 32.1881 19.6923 31.624 19.2307C31.06 18.7692 30.4445 18.6153 29.7266 18.923C28.9574 19.282 28.6498 19.9487 28.6498 20.7692C28.6498 26.9231 28.6498 33.0257 28.6498 39.1796C28.6498 40.3591 29.4189 41.1796 30.3932 41.1796C31.4701 41.1796 32.188 40.4103 32.188 39.1796C32.188 39.077 32.188 38.9744 32.188 38.8719C32.2393 35.8975 32.2394 32.9744 32.2394 30Z" fill="#151515"/>
<path d="M24.9112 53.0781C28.6547 53.0781 32.2956 53.0781 36.0904 53.0781C36.0904 53.6422 36.0904 54.1551 36.0904 54.6679C36.0904 55.7448 36.0904 56.7705 36.0904 57.8474C36.0391 59.232 35.2185 60.0012 33.834 60.0012C31.5264 60.0012 29.2701 60.0012 26.9624 60.0012C25.9881 60.0012 25.0138 59.2833 24.9626 58.3089C24.86 56.5653 24.9112 54.8217 24.9112 53.0781Z" fill="#151515"/>
<path d="M8.70353 40.3588C10.8573 40.6152 11.6266 41.0255 11.5753 42.0511C11.4727 43.846 10.0881 43.8973 8.70353 43.846C8.70353 44.2563 8.70353 44.564 8.70353 44.8716C8.65225 45.8973 7.93437 46.6665 6.96005 46.6665C6.13956 46.6665 5.31905 45.8973 5.26777 44.9229C5.16521 43.846 5.16528 43.846 4.19095 43.7947C3.16535 43.7434 2.44739 42.9742 2.49868 41.9998C2.54996 41.0768 3.42175 40.3588 4.44736 40.4101C5.26784 40.4101 5.26782 40.4101 5.3191 39.5383C5.3191 38.6665 5.67809 38.0511 6.49857 37.6921C7.06266 37.4357 7.83181 37.5896 8.24206 38.1024C8.49846 38.4614 8.60102 38.9742 8.75486 39.4357C8.80614 39.7434 8.70353 40.0511 8.70353 40.3588Z" fill="#151515"/>
<path d="M51.5718 16.9738C52.1871 17.1789 52.2897 16.82 52.2384 16.2559C52.1872 15.1277 52.7512 14.3071 53.623 14.2559C54.6486 14.1533 55.469 14.8712 55.6229 15.8456C55.6741 16.2046 55.5716 16.7174 55.7767 16.9225C55.9819 17.1277 56.4947 17.0251 56.8537 17.0251C57.5716 17.1277 58.2382 17.6918 58.3921 18.3584C58.5459 19.0251 58.3407 19.7943 57.6741 20.102C57.2638 20.3072 56.7511 20.461 56.2895 20.4097C55.6742 20.3072 55.5204 20.5123 55.5717 21.0764C55.5717 21.3328 55.5716 21.5892 55.5203 21.8456C55.3152 22.7687 54.546 23.3841 53.7255 23.3328C52.905 23.2815 52.2385 22.5636 52.1359 21.6405C52.0333 20.5636 52.0332 20.5636 51.0076 20.5123C50.0333 20.461 49.3154 19.7431 49.2641 18.82C49.2129 17.9995 49.982 17.2302 50.9051 17.0764C51.1615 16.9738 51.3666 16.9738 51.5718 16.9738Z" fill="#151515"/>
</svg>
