<svg width="45" height="60" viewBox="0 0 45 60" fill="none" xmlns="http://www.w3.org/2000/svg">
<path d="M37.4896 45.0081C37.2833 46.7276 37.077 48.447 36.8706 50.0976C36.5267 52.9174 36.1828 55.8061 35.839 58.6259C35.7014 59.8639 35.4263 60.0014 34.2571 60.0014C26.4164 60.0014 18.5757 60.0014 10.7351 60.0014C9.97852 60.0014 9.56586 59.7951 9.49708 59.1073C9.29075 57.8006 9.1532 56.4938 8.94687 55.1183C8.5342 51.8858 8.12154 48.6533 7.70887 45.4208C7.70887 45.2833 7.64009 45.2145 7.57131 45.0081C7.02109 45.0081 6.47085 44.9394 5.92063 45.0081C5.16407 45.0769 4.68262 44.733 4.40751 44.0453C4.1324 43.3575 3.78852 42.601 3.51341 41.9132C2.68807 39.9187 1.93152 37.8554 1.10618 35.8609C0.693517 34.8292 1.10621 34.1415 2.20665 34.0727C4.20121 34.0039 6.19573 34.0039 8.19029 34.0039C19.2635 34.0039 30.268 34.0039 41.3412 34.0039C41.6851 34.0039 42.029 34.0039 42.3728 34.0039C44.1611 34.0727 44.505 34.5541 43.8172 36.2048C42.9231 38.5432 42.029 40.8128 41.0661 43.1512C40.3095 44.9394 40.3095 44.9394 38.3837 44.9394C38.1086 45.0081 37.8335 45.0081 37.4896 45.0081Z" fill="#151515"/>
<path d="M38.932 31.4571C27.9964 31.4571 17.1295 31.4571 6.19384 31.4571C6.12507 29.8065 6.40017 28.3622 7.08795 26.9867C8.80739 23.4791 11.5585 21.2782 15.5476 21.1407C20.2245 21.0031 24.8326 21.0719 29.5095 21.0719C33.4986 21.0719 37.8316 24.4419 38.7257 29.3251C38.8633 30.0128 38.8633 30.7006 38.932 31.4571Z" fill="#151515"/>
<path d="M22.4938 18.5263C17.6105 18.6639 13.3463 14.4685 13.14 9.51659C13.0024 4.90857 17.2666 0.369317 21.6684 0.0254342C27.4458 -0.387225 31.71 4.28958 31.8475 9.10393C31.9851 14.1934 27.5145 18.8014 22.4938 18.5263Z" fill="#151515"/>
</svg>
