<svg width="76" height="60" viewBox="0 0 76 60" fill="none" xmlns="http://www.w3.org/2000/svg">
<path d="M57.2407 59.9348C54.5712 59.9348 51.9585 59.878 49.289 59.9348C46.1651 59.9916 43.6659 58.742 41.6212 56.4133C39.0085 53.4598 38.4405 49.9951 39.69 46.36C40.9964 42.6113 43.7795 40.3962 47.6986 39.6578C48.4938 39.4874 49.3458 39.5442 50.1409 39.5442C55.0824 39.5442 60.0238 39.5442 64.9653 39.5442C69.2819 39.5442 72.4626 41.4754 74.3937 45.2809C77.5177 51.4151 73.7122 58.6284 67.01 59.878C66.2148 60.0484 65.306 59.9916 64.4541 59.9916C62.0685 59.9348 59.683 59.9348 57.2407 59.9348Z" fill="#151515"/>
<path d="M18.7302 59.9356C15.9471 59.9356 13.164 59.8788 10.4377 59.9356C6.46178 60.0492 1.57714 56.6981 0.725169 51.4159C-0.126804 45.7929 3.50825 40.681 9.07448 39.6587C9.92645 39.4883 10.7785 39.4883 11.6873 39.4883C16.5719 39.4883 21.5133 39.4883 26.3979 39.4883C30.2034 39.4883 33.157 41.0218 35.3153 44.1457C37.8712 47.8376 37.644 53.5742 33.8953 57.0957C31.9642 58.9133 29.7491 59.9924 27.0796 59.9924C24.2396 59.9356 21.4565 59.9356 18.7302 59.9356Z" fill="#151515"/>
<path d="M18.7912 37.3272C13.4522 37.384 9.13547 33.0673 9.07867 27.6715C9.02187 22.4461 13.3954 18.0158 18.564 17.959C24.471 17.8454 28.1629 22.6165 28.4469 26.9899C28.8445 33.0105 23.6759 37.5544 18.7912 37.3272Z" fill="#151515"/>
<path d="M57.2385 37.3257C52.4107 37.4961 47.81 33.2362 47.5828 28.1244C47.2988 22.6718 51.8995 17.9007 57.1817 17.9575C62.5775 18.0143 66.8942 22.2174 66.951 27.4996C67.0646 33.3498 62.0663 37.5529 57.2385 37.3257Z" fill="#151515"/>
<path d="M38.5556 0.011281C43.1563 0.238474 47.0186 1.71523 50.3697 4.55513C50.8808 5.00952 51.392 5.5207 51.7896 6.08868C52.4712 7.11105 52.244 8.19022 51.2784 9.09899C50.4264 9.83736 49.2337 9.95096 48.3249 9.26938C47.5298 8.6446 46.7913 7.96303 45.9962 7.33825C41.1683 3.81676 33.3302 4.10075 28.7863 8.47421C28.1048 9.15579 27.3664 9.78057 26.2872 9.72377C24.6401 9.66697 23.5041 7.79263 24.1857 6.37267C24.4129 5.97509 24.6969 5.5775 25.0377 5.23671C28.8999 1.60163 33.4438 -0.159114 38.5556 0.011281Z" fill="#151515"/>
<path d="M38.1565 11.3683C35.9981 11.2547 34.351 11.9931 32.8742 13.3563C31.6814 14.4354 30.4319 14.549 29.4095 13.6403C28.2736 12.6179 28.1032 11.4251 29.1255 10.2324C30.4887 8.64203 32.2494 7.61966 34.2374 6.99488C38.7244 5.51813 42.7003 6.5973 46.3354 9.494C46.6762 9.77799 47.017 10.1756 47.2442 10.5732C47.9826 11.6523 47.7554 12.7315 46.733 13.6403C45.881 14.4354 44.5746 14.4354 43.7226 13.7539C43.3251 13.4131 42.9275 13.0155 42.4731 12.7315C41.11 11.8227 39.69 11.198 38.1565 11.3683Z" fill="#151515"/>
<path d="M37.9847 17.3921C37.1327 18.0169 36.3943 18.8121 35.2015 18.6985C33.4976 18.5281 32.4185 16.597 33.2704 15.177C34.236 13.5299 36.8487 12.4507 38.8934 12.8483C40.427 13.1323 41.7902 13.7002 42.6989 15.0634C43.3805 16.0858 43.2669 17.1649 42.3582 18.0169C41.5062 18.8121 40.2566 18.9825 39.3478 18.3577C38.8366 18.0737 38.439 17.7329 37.9847 17.3921Z" fill="#151515"/>
</svg>
