<svg width="65" height="60" viewBox="0 0 65 60" fill="none" xmlns="http://www.w3.org/2000/svg">
<path d="M44.3202 18.1395C44.3202 15.0728 44.8469 12.1216 45.9003 9.28597C46.9537 6.45029 48.481 3.80475 50.4824 1.34935C51.0618 0.633785 51.8255 0.199336 52.7735 0.0460005C53.7215 -0.107334 54.5115 0.122668 55.1436 0.736008C55.7229 1.29824 56.0263 2.00153 56.0537 2.8459C56.081 3.69026 55.804 4.4692 55.2226 5.18272C53.7478 7.07386 52.6155 9.11832 51.8255 11.3161C51.0354 13.5139 50.6404 15.7884 50.6404 18.1395C50.6404 20.4907 51.0354 22.7784 51.8255 25.0028C52.6155 27.2272 53.7478 29.2839 55.2226 31.173C55.8019 31.8886 56.0789 32.6685 56.0537 33.5129C56.0284 34.3573 55.725 35.0595 55.1436 35.6197C54.5115 36.2331 53.7215 36.4631 52.7735 36.3097C51.8255 36.1564 51.0618 35.722 50.4824 35.0064C48.5337 32.553 47.019 29.8952 45.9382 27.033C44.8575 24.1707 44.3181 21.2062 44.3202 18.1395ZM56.9606 18.0629C56.9606 16.5806 57.185 15.1362 57.6337 13.7296C58.0824 12.323 58.7271 11.0074 59.5677 9.78277C60.0417 9.06721 60.7401 8.65832 61.6628 8.55609C62.5856 8.45387 63.3619 8.70943 63.9918 9.32277C64.5712 9.885 64.9008 10.6006 64.9809 11.4695C65.061 12.3384 64.8893 13.1306 64.4658 13.8462C64.0971 14.5106 63.8075 15.2006 63.5968 15.9162C63.3861 16.6317 63.2808 17.3473 63.2808 18.0629C63.2808 18.8295 63.3735 19.5707 63.5589 20.2862C63.7443 21.0018 64.0202 21.6918 64.3868 22.3562C64.8082 23.0718 64.9925 23.864 64.9398 24.7329C64.8872 25.6018 64.5712 26.3174 63.9918 26.8796C63.3598 27.493 62.5961 27.7485 61.7007 27.6463C60.8054 27.5441 60.0944 27.1352 59.5677 26.4196C58.725 25.1929 58.0793 23.864 57.6305 22.4329C57.1818 21.0018 56.9585 19.5451 56.9606 18.0629ZM25.2807 35.4664C21.8046 35.4664 18.8289 34.2653 16.3535 31.863C13.8781 29.4608 12.6404 26.573 12.6404 23.1996C12.6404 19.8262 13.8781 16.9384 16.3535 14.5362C18.8289 12.1339 21.8046 10.9328 25.2807 10.9328C28.7568 10.9328 31.7326 12.1339 34.208 14.5362C36.6834 16.9384 37.9211 19.8262 37.9211 23.1996C37.9211 26.573 36.6834 29.4608 34.208 31.863C31.7326 34.2653 28.7568 35.4664 25.2807 35.4664ZM6.32018 60C4.58213 60 3.09373 59.3989 1.85498 58.1968C0.616222 56.9946 -0.00210136 55.5512 5.36518e-06 53.8666V51.4132C5.36518e-06 49.7266 0.447684 48.1421 1.34304 46.6598C2.2384 45.1776 3.4761 44.0532 5.05615 43.2865C7.74222 41.9576 10.7706 40.8331 14.1414 39.9131C17.5122 38.9931 21.2253 38.5331 25.2807 38.5331C29.3362 38.5331 33.0493 38.9931 36.42 39.9131C39.7908 40.8331 42.8192 41.9576 45.5053 43.2865C47.0853 44.0532 48.323 45.1776 49.2184 46.6598C50.1137 48.1421 50.5614 49.7266 50.5614 51.4132V53.8666C50.5614 55.5533 49.942 56.9977 48.7033 58.1998C47.4645 59.402 45.9772 60.002 44.2412 60H6.32018Z" fill="#151515"/>
</svg>
