<svg width="69" height="60" viewBox="0 0 69 60" fill="none" xmlns="http://www.w3.org/2000/svg">
<path d="M0 32.4314C0.0392161 32.5491 0.0784896 32.7059 0.156922 32.8236C1.3334 25.9216 5.52946 22.3138 12.3531 21.451C7.41184 21.0981 3.96082 16.9805 4.11769 12.4314C4.27455 7.88243 7.84319 4.23538 12.4315 4.0393C17.1374 3.84322 20.9021 7.25498 21.4512 11.5687C22.0002 16.0001 19.3335 20.6667 13.4511 21.4903C13.8041 21.5295 14.1963 21.5687 14.5492 21.5687C16.7061 21.5295 18.7453 22.1177 20.6668 23.0981C24.3532 24.9412 28.0395 26.7451 31.7259 28.5883C32.6278 29.0197 32.6278 29.0589 33.0592 28.1569C34.3141 25.6863 35.5298 23.1765 36.7847 20.7059C37.0984 20.0393 37.569 19.5687 38.3533 19.451C39.9612 19.255 41.0592 20.6275 40.471 22.1177C40.0004 23.255 39.4122 24.353 38.8632 25.451C37.8043 27.5687 36.7063 29.7255 35.6475 31.8432C35.569 32.0393 35.5298 32.2353 35.5298 32.4706C35.5298 32.8236 35.5297 33.1765 35.569 33.5294C35.9611 36.902 32.1964 40.353 28.1572 38.7059C26.0003 37.804 23.961 36.6667 21.8826 35.6079C21.6865 35.5294 21.4904 35.451 21.2551 35.3334C21.2551 35.9216 21.2551 36.3922 21.2551 36.8628C21.2551 43.7647 21.2551 50.6667 21.2551 57.5686C21.2551 59.2157 20.4708 60 18.7846 60C14.7845 60 10.8237 60 6.82365 60C6.11776 60 5.49029 59.8431 4.94126 59.3333C4.50989 58.902 4.31377 58.4314 4.31377 57.8039C4.31377 54.3137 4.31377 50.8235 4.31377 47.3333C4.31377 46.8628 4.19616 46.6275 3.76478 46.4314C2.39222 45.8432 1.37262 44.8628 0.745163 43.5294C0.588298 43.1765 0.470593 42.8236 0.392161 42.4314C0.352945 42.0785 0.392161 41.6863 0.392161 41.2941C0.274512 41.5687 0.156903 41.8432 0.0392544 42.0785C3.82964e-05 38.8628 0 35.6471 0 32.4314Z" fill="#151515"/>
<path d="M52.1541 36.2352C52.5463 37.2941 52.8993 38.2352 53.2522 39.2156C55.2915 44.745 57.3307 50.2744 59.3307 55.8431C59.5268 56.3921 59.7229 56.9019 59.9189 57.4509C60.2327 58.3529 59.7621 59.294 58.8209 59.8038C58.0366 60.196 57.0561 59.9607 56.5463 59.2156C56.311 58.9019 56.1542 58.5097 55.9973 58.1176C53.4483 51.2156 50.9385 44.3137 48.3895 37.4509C47.9189 36.196 47.9188 36.196 46.5855 36.2745C46.5463 36.2745 46.507 36.2745 46.4678 36.3137C44.8992 40.6666 43.3306 45.0195 41.7227 49.3725C40.6247 52.3529 39.5658 55.3333 38.4678 58.3136C38.2717 58.9019 37.958 59.4509 37.3697 59.7254C36.6246 60.1176 35.9579 60.0391 35.2912 59.5685C34.6638 59.098 34.3893 58.4313 34.5853 57.6862C34.8991 56.5882 35.2912 55.5293 35.6834 54.4705C37.8011 48.5882 39.958 42.745 42.0756 36.8627C42.1541 36.6666 42.1932 36.5098 42.2325 36.2745C41.2521 36.2745 40.3502 36.2745 39.3698 36.2745C39.409 36.0392 39.4481 35.8431 39.4873 35.6862C39.5658 34.9411 39.6442 34.196 39.7227 33.4902C39.8011 33.0588 39.8403 32.5882 40.0364 32.196C41.2913 29.5686 42.6246 26.9804 43.9188 24.3921C44.9776 22.2745 45.0169 20.1568 43.6835 18.1568C41.2129 14.4314 35.958 14.3529 33.4874 18.2353C32.5854 19.647 31.9187 21.2157 31.1344 22.7059C31.0952 22.7451 31.0951 22.7843 31.0559 22.8235C30.6637 23.6078 30.6637 23.6078 29.8794 23.1764C28.7421 22.5882 27.5657 22 26.3892 21.4509C25.9578 21.2549 25.7617 21.0196 25.7617 20.5098C25.8009 16.2353 25.7618 11.9608 25.801 7.68627C25.801 6.90195 25.8794 6.07842 25.9971 5.29411C26.3892 2.54902 28.703 0.392158 31.4873 0.0784331C32.0363 0.0392174 32.5462 0 33.0952 0C42.6639 0 52.1934 0 61.7621 0C63.8797 0 65.7621 0.666666 67.1347 2.35294C68.1935 3.64705 68.5857 5.17646 68.5857 6.78431C68.625 14.4314 68.625 22.0784 68.5857 29.6862C68.5465 33.1764 66.468 35.5294 63.2131 36.196C63.017 36.2352 62.7817 36.2352 62.5857 36.2352C59.2915 36.2352 55.9974 36.2352 52.7032 36.2352C52.5464 36.2352 52.3894 36.2352 52.1541 36.2352ZM47.3306 8.54901C43.7227 8.54901 40.0756 8.54901 36.4677 8.54901C35.4481 8.54901 34.5461 9.41175 34.3893 10.4706C34.2716 11.2941 35.0559 12.3529 35.9579 12.549C36.3501 12.6274 36.7423 12.6666 37.1736 12.6666C43.8796 12.6666 50.6247 12.6666 57.3306 12.6666C57.6052 12.6666 57.8405 12.6667 58.115 12.6274C59.2915 12.5098 60.115 11.647 60.115 10.5098C60.115 9.56861 58.8993 8.47058 57.9581 8.50979C54.3895 8.58822 50.86 8.54901 47.3306 8.54901ZM53.4876 20.2353C54.9778 20.2353 56.4679 20.2353 57.9581 20.2353C58.8993 20.2353 59.9189 19.4117 60.0758 18.5098C60.2326 17.4902 59.6836 16.549 58.7032 16.2353C58.1542 16.0784 57.6052 16 57.017 16C54.6248 15.9608 52.2326 16 49.8404 16C49.4875 16 49.1737 16.0392 48.8208 16.0784C47.409 16.2745 46.3894 17.8039 47.213 19.1764C47.6444 19.9215 48.311 20.2745 49.1345 20.2745C50.5855 20.2353 52.0366 20.2353 53.4876 20.2353ZM53.4876 27.6862C53.4876 27.647 53.4876 27.647 53.4876 27.6862C54.9778 27.6862 56.4287 27.647 57.9189 27.6862C58.664 27.7255 59.1739 27.4117 59.6445 26.9019C60.1543 26.2745 60.2327 25.6078 59.9189 24.9019C59.6052 24.196 59.0562 23.6862 58.2326 23.6862C55.0954 23.647 51.9581 23.647 48.8208 23.6862C47.8012 23.6862 46.86 24.7451 46.8992 25.7647C46.9384 26.549 47.7228 27.7647 48.9384 27.7254C50.4679 27.6078 51.9973 27.6862 53.4876 27.6862Z" fill="#151515"/>
</svg>
