<svg width="46" height="60" viewBox="0 0 46 60" fill="none" xmlns="http://www.w3.org/2000/svg">
<path d="M12.2383 27.5956C12.2383 18.3708 12.2383 9.2248 12.2383 0C12.7902 0 13.2633 0 13.8152 0C19.8862 0 26.0361 0 32.1071 0C32.9744 0 33.2109 0.236534 33.2109 1.10382C33.2109 9.2248 33.2109 17.2669 33.2109 25.3879C33.2109 26.0975 33.2109 26.886 33.2109 27.6744C26.1938 27.5956 19.2554 27.5956 12.2383 27.5956ZM24.6957 7.41138C24.7746 7.33253 24.8534 7.33254 24.9322 7.25369C25.7207 8.12098 26.5091 9.06711 27.2187 9.9344C28.4014 11.5113 28.4014 11.5901 27.2976 13.167C26.9822 13.6401 26.9034 14.0343 27.3764 14.4285C27.8495 14.8228 28.1649 15.217 28.8745 14.6651C30.3725 13.4824 31.0033 11.3536 29.8995 9.85555C28.2437 7.64791 26.2726 5.59795 24.3803 3.548C24.1438 3.31147 23.3553 3.31147 22.8823 3.46916C22.6457 3.548 22.3304 4.17876 22.3304 4.49414C22.3304 7.41138 22.3304 10.4075 22.3304 13.3247C22.3304 13.6401 22.3304 13.9555 22.2515 14.2708C20.8323 14.2708 19.492 14.2708 18.1516 14.2708C17.8362 14.2708 17.5209 14.2708 17.2055 14.4285C15.6286 15.0593 14.3671 17.2669 14.6825 18.765C15.0767 20.5784 16.6536 22.3918 18.5458 22.313C19.3343 22.313 20.1227 22.313 20.9112 22.313C23.1188 22.1553 24.6957 20.5784 24.6957 18.2919C24.6957 14.7439 24.6957 11.0382 24.6957 7.41138Z" fill="black"/>
<path d="M40.6231 27.6758C38.8097 27.6758 37.0751 27.6758 35.2617 27.6758C35.2617 19.3972 35.2617 11.1185 35.2617 2.83984C37.0751 2.83984 38.8097 2.83984 40.6231 2.83984C40.6231 11.0397 40.6231 19.3183 40.6231 27.6758Z" fill="black"/>
<path d="M45.51 30.0398C45.51 30.7494 45.5889 31.459 45.51 32.0897C45.51 32.3263 45.1158 32.5628 44.8793 32.6417C44.2485 32.7205 43.6178 32.6417 42.9082 32.6417C29.1892 32.6417 15.4703 32.6417 1.67251 32.6417C0.88407 32.6417 0.489858 32.484 0.647547 31.6167C0.726391 31.1436 0.647547 30.5917 0.647547 29.9609C15.628 30.0398 30.6084 30.0398 45.51 30.0398Z" fill="black"/>
<path d="M5.61328 27.5938C5.61328 19.3151 5.61328 11.0365 5.61328 2.75781C7.03248 2.75781 8.37285 2.75781 9.79205 2.75781C9.79205 10.9576 9.79205 19.2363 9.79205 27.5938C8.45169 27.5938 7.11133 27.5938 5.61328 27.5938Z" fill="black"/>
<path d="M21.5391 34.6914C22.6429 34.6914 23.589 34.6914 24.614 34.6914C24.614 41.2355 24.614 47.8584 24.614 54.4814C23.7467 54.4814 22.8794 54.4814 22.091 54.4814C21.3814 54.4814 21.6179 53.9295 21.6179 53.5352C21.6179 49.593 21.6179 45.7296 21.6179 41.7874C21.5391 39.5009 21.5391 37.1356 21.5391 34.6914Z" fill="black"/>
<path d="M22.9604 60.0004C20.8316 60.0004 18.7816 60.0004 16.6528 60.0004C15.3913 60.0004 15.3125 59.8427 15.3125 58.6601C15.3125 56.5313 15.3125 56.5312 17.5201 56.5312C21.5412 56.5312 25.6411 56.5312 29.6622 56.5312C30.6871 56.5312 30.9237 56.8466 30.9237 57.7928C30.9237 60.0004 30.9237 60.0004 28.7161 60.0004C26.7449 60.0004 24.8527 60.0004 22.9604 60.0004Z" fill="black"/>
<path d="M22.4082 16.3984C22.4082 17.0292 22.4082 17.4234 22.4082 17.8176C22.4082 18.6849 22.487 19.5522 21.462 19.9464C20.3582 20.4195 19.1756 20.656 18.0717 19.8676C17.441 19.4734 16.8891 18.9215 17.0467 18.0542C17.2833 17.1869 17.914 16.635 18.7813 16.5561C19.8852 16.3984 21.0678 16.3984 22.4082 16.3984Z" fill="black"/>
</svg>
