<svg width="61" height="60" viewBox="0 0 61 60" fill="none" xmlns="http://www.w3.org/2000/svg">
<path d="M30.5712 37.2874C28.2094 37.2874 25.8476 37.2874 23.4858 37.2874C23.1224 37.2874 22.9862 37.1512 22.9862 36.7878C22.9862 33.6539 23.0316 30.5199 23.0316 27.386C23.0316 27.1135 23.0316 26.8409 23.077 26.523C23.1679 25.4329 22.8045 24.57 22.1232 23.7524C20.3519 21.7085 18.5805 19.6192 16.8091 17.5299C14.9923 15.3952 13.1302 13.2605 11.3134 11.0804C10.4958 10.0812 9.95079 8.99109 10.5412 7.67392C11.2225 6.17508 13.4027 4.85791 15.2194 6.72011C16.7183 8.26437 18.0809 9.99031 19.4889 11.6708C20.579 12.9426 21.669 14.2597 22.7591 15.5769C23.5312 16.5307 24.485 16.8941 25.6659 16.8487C28.5274 16.8032 31.4342 16.8032 34.2956 16.8032C34.8407 16.8032 35.3403 16.8487 35.8853 16.8487C36.8391 16.8941 37.6567 16.6216 38.2925 15.8494C39.6097 14.3052 40.8815 12.7609 42.1986 11.2166C43.425 9.76321 44.6513 8.26437 45.923 6.85636C46.7406 5.99339 47.7398 5.58463 48.9207 6.08424C50.1016 6.58385 50.9192 7.44682 50.9192 8.76399C50.9192 9.35444 50.6921 9.99031 50.4196 10.4899C50.0108 11.1712 49.3749 11.7617 48.8753 12.3975C46.6951 14.9865 44.4696 17.5754 42.2895 20.1643C41.2448 21.3906 40.2002 22.6623 39.1101 23.8887C38.4742 24.57 38.2017 25.3875 38.2017 26.2959C38.2471 29.7024 38.2471 33.1542 38.2925 36.5607C38.2925 37.242 38.2471 37.242 37.6112 37.242C35.2494 37.2874 32.933 37.2874 30.5712 37.2874Z" fill="#151515"/>
<path d="M38.2969 54.0946C38.8873 51.7783 39.4324 49.4619 40.0682 47.1455C40.6133 45.147 42.0667 44.0569 43.9289 43.4211C44.7465 43.1486 45.5186 42.6944 46.2453 42.1948C47.5625 41.3318 48.8342 40.3326 50.1514 39.4696C50.8781 39.0154 51.6048 39.2425 52.2407 39.9692C52.7403 40.6051 52.7403 41.4226 52.1953 42.0131C52.0136 42.2402 51.7411 42.4218 51.514 42.6035C49.6063 44.0115 47.6987 45.4195 45.7457 46.7821C45.019 47.2817 44.9736 48.0993 45.8365 48.5535C45.9728 48.6443 46.2907 48.6443 46.427 48.5535C48.6071 47.0092 50.7872 45.4649 52.9674 43.8753C54.7387 42.6035 54.8296 39.9238 53.4216 38.5612C53.1036 38.2433 53.1036 37.9707 53.2853 37.6074C54.2391 35.4727 55.1021 33.3379 56.0559 31.2032C56.4193 30.3857 56.9189 29.5681 57.4185 28.796C57.8273 28.2055 58.4177 27.7514 59.1898 27.8876C59.962 28.0239 60.3253 28.6597 60.5979 29.3865C60.825 29.9769 60.7795 30.5219 60.5979 31.1124C59.417 34.7459 58.236 38.3795 57.0097 42.0131C56.6009 43.3302 56.1013 44.602 55.6017 45.8737C55.1929 46.9184 54.4662 47.7359 53.5124 48.3718C52.059 49.3256 50.651 50.3248 49.243 51.2786C48.2438 51.9599 47.4262 52.7321 46.972 53.8675C46.9266 54.0038 46.6541 54.1855 46.5178 54.1855C43.8381 54.1855 41.1583 54.1855 38.4786 54.1855C38.4331 54.1401 38.3877 54.0946 38.2969 54.0946Z" fill="#151515"/>
<path d="M22.989 54.1411C21.7627 54.1411 20.6273 54.1411 19.4918 54.1411C17.9475 54.1411 16.3578 54.1411 14.8135 54.1411C14.4956 54.1411 14.3139 54.0956 14.1777 53.6869C13.8143 52.6876 13.0876 51.9609 12.2247 51.3705C10.8621 50.4167 9.49947 49.4629 8.09146 48.5545C6.72888 47.6915 5.8205 46.556 5.32088 45.0572C4.45791 42.5137 3.59494 39.9248 2.73197 37.3813C2.05068 35.2465 1.32397 33.1573 0.642683 31.0225C0.324746 30.0687 0.551821 29.2058 1.18769 28.4336C1.82357 27.6615 2.64112 27.5707 3.32242 28.2519C3.91287 28.8424 4.4125 29.5237 4.73044 30.2504C5.68425 32.2943 6.54722 34.429 7.45561 36.4729V36.5183C8.00064 37.4267 8.1823 38.1988 7.31933 39.198C6.27468 40.4244 6.7743 42.5137 8.09146 43.6037C8.95443 44.3304 9.90826 44.9663 10.8621 45.6476C12.1338 46.556 13.4056 47.4644 14.7227 48.4182C15.2223 48.7816 15.404 48.6907 15.9036 48.1457C16.2216 47.7823 16.1761 47.419 15.9036 47.101C15.6311 46.8285 15.3132 46.6014 14.9952 46.3289C13.4055 45.1934 11.8613 44.0579 10.2716 42.9224C9.95366 42.6953 9.63572 42.4683 9.3632 42.1957C8.31855 41.1965 8.59108 39.7885 9.90824 39.2435C10.3624 39.0618 10.8166 39.1526 11.18 39.4251C12.4517 40.2881 13.7235 41.1965 14.9498 42.1049C15.722 42.6499 16.5395 43.1495 17.4479 43.4221C19.4918 44.0125 20.8089 45.3297 21.3085 47.419C21.8536 49.6899 22.3986 51.8701 22.989 54.1411Z" fill="#151515"/>
<path d="M36.8434 6.26846C36.8434 9.67492 33.9819 12.4909 30.5755 12.4909C27.2144 12.4909 24.3984 9.58408 24.3984 6.17761C24.3984 2.68031 27.2145 -0.04486 30.848 0.000559541C34.1182 0.000559541 36.8434 2.862 36.8434 6.26846Z" fill="#151515"/>
<path d="M49.3344 55.9141C49.3344 57.2766 49.3344 58.5938 49.3344 59.9564C49.1527 59.9564 48.9711 60.0018 48.7894 60.0018C44.5654 60.0018 40.3413 60.0018 36.1173 60.0018C35.5723 60.0018 35.3906 59.8656 35.3906 59.3205C35.436 58.4576 35.3906 57.5492 35.3906 56.6862C35.3906 56.232 35.5723 55.9595 36.0265 55.9595C40.4322 55.9141 44.8379 55.9141 49.3344 55.9141Z" fill="#151515"/>
<path d="M11.9062 59.9549C11.9062 58.6832 11.9062 57.4569 11.9062 56.2306C11.9062 56.0943 12.1333 55.9126 12.2696 55.9126C12.8146 55.8672 13.3142 55.8672 13.8593 55.8672C17.5383 55.8672 21.2172 55.8672 24.8962 55.8672C25.6683 55.8672 25.8046 56.0034 25.85 56.7756C25.85 57.6385 25.85 58.5469 25.85 59.4099C25.85 59.6824 25.8046 59.9095 25.3958 59.9095C20.9447 59.955 16.4482 59.9549 11.9062 59.9549Z" fill="#151515"/>
</svg>
