<svg width="61" height="60" viewBox="0 0 61 60" fill="none" xmlns="http://www.w3.org/2000/svg">
<path d="M0.601562 24.9585C0.601562 23.4336 0.601562 21.9087 0.601562 20.3838C0.632683 20.3216 0.694922 20.2905 0.726042 20.2282C1.03725 19.2635 1.78414 18.9212 2.71775 18.89C2.96671 18.89 3.24679 18.89 3.49575 18.8589C6.88787 18.2365 9.19077 15.0934 8.81733 11.6701C8.75509 11.0788 8.53724 10.4875 8.41276 9.89626C8.25716 9.33609 8.38164 8.83817 8.75509 8.37137C9.37749 7.6556 10.0933 7.62448 10.9335 7.90456C14.3256 8.99377 17.7489 7.37551 19.1182 4.10788C19.4605 3.29875 19.4916 2.4585 19.585 1.61825C19.6783 0.684642 20.4563 0 21.3899 0C22.6036 0 23.8484 0 25.0621 0C25.6223 0 26.1202 0.186722 26.4937 0.622407C26.7115 0.871369 26.9605 1.12033 27.1783 1.33817C29.0455 3.08091 31.2551 3.51659 33.6825 2.89419C34.9584 2.58298 35.9854 1.80498 36.8256 0.80913C37.2302 0.342326 37.7281 0.093361 38.3505 0.155602C39.2219 0.248963 39.7198 0.809125 39.9377 1.80498C40.4667 4.23236 41.9605 5.88174 44.2634 6.69087C46.1306 7.3444 47.9978 7.15767 49.7406 6.16182C51.6078 5.10373 53.475 4.04564 55.3733 2.98755C56.058 2.61411 56.7426 2.73859 57.3339 3.29876C57.863 3.8278 58.0186 4.51244 57.7074 5.19709C57.5518 5.53941 57.365 5.85062 57.1783 6.19294C56.2447 7.84232 55.28 9.4917 54.3775 11.1722C53.0082 13.6618 53.475 16.7739 55.4667 18.7967C56.4937 19.8236 57.7074 20.4461 59.1389 20.7261C59.8235 20.8506 60.2904 21.2552 60.446 21.9398C60.6327 22.6245 60.4771 23.2158 59.948 23.7137C59.7302 23.9004 59.5123 24.1182 59.3256 24.3361C57.6762 26.0477 57.2406 28.0705 57.6762 30.3423C57.9563 31.805 58.7966 32.9876 59.9169 33.9523C60.4771 34.4502 60.7572 35.0415 60.726 35.7884C60.6949 36.8465 60.726 37.9357 60.726 38.9938C60.726 40.332 59.9791 41.0788 58.641 41.11C58.2675 41.11 57.8941 41.1411 57.5206 41.2344C54.3464 41.9502 52.1991 44.9378 52.5103 48.1743C52.5725 48.8278 52.7592 49.4502 52.946 50.1037C53.1016 50.695 52.9771 51.2241 52.5725 51.6909C51.9812 52.3444 51.3277 52.4066 50.5497 52.1265C45.9439 50.6016 41.8671 54.0871 41.8671 58.0394C41.8671 58.8797 41.4937 59.5643 40.6223 59.8444C40.5289 59.8755 40.4667 59.9378 40.4045 60C38.8484 60 37.2924 60 35.7675 60C35.2074 59.5021 34.6472 59.0353 34.087 58.5373C31.6908 56.2656 27.7074 56.2033 25.28 58.444C24.9999 58.6929 24.7509 59.0041 24.4709 59.2531C23.4128 60.2801 21.8879 59.8444 21.5144 58.4129C21.3899 57.9772 21.3277 57.5415 21.1721 57.1369C19.8339 53.4025 15.2592 51.722 11.7738 53.7137C9.87542 54.7718 7.97708 55.8299 6.07874 56.9191C4.95841 57.5726 3.77584 56.7012 3.55799 55.7365C3.43351 55.1452 3.68248 54.6784 3.96256 54.2116C4.92729 52.5311 5.89202 50.8506 6.85675 49.139C8.22604 46.7116 8.22604 44.2842 6.6389 41.9502C5.64305 40.4876 4.24264 39.5539 2.46878 39.2427C1.75301 39.1183 1.19285 38.7759 0.975005 38.0602C0.757163 37.3133 0.912764 36.6598 1.50405 36.1307C1.87749 35.7884 2.25094 35.4149 2.56214 35.0104C4.52272 32.4585 4.24264 28.6307 1.84638 26.2967C1.34845 25.9543 1.00613 25.4253 0.601562 24.9585ZM16.1306 27.7282C16.0995 27.7282 16.0684 27.7282 16.0372 27.7282C16.0061 27.6349 15.975 27.5415 15.975 27.417C15.8194 26.3589 15.6638 25.2697 15.5082 24.2116C15.3526 23.278 14.6057 22.6245 13.7343 22.6245C12.863 22.6245 12.085 23.2469 11.9605 24.0871C11.8982 24.5228 11.9605 24.9896 12.0538 25.4253C12.5206 28.2573 12.9875 31.0581 13.4854 33.89C13.6099 34.668 13.7032 35.4461 13.8899 36.2241C14.0767 37.0021 14.8547 37.5622 15.6327 37.5311C16.4418 37.5 17.0642 37.0021 17.3443 36.1307C17.6555 35.0726 17.9667 34.0456 18.2779 32.9875C18.309 32.8631 18.3713 32.7697 18.4335 32.6141C18.807 33.8589 19.1493 35.0104 19.4916 36.193C19.7406 37.0332 20.4874 37.5622 21.3588 37.5311C22.1368 37.5 22.8526 36.8465 22.9771 36.0373C23.1949 34.7614 23.4128 33.4855 23.6306 32.1784C24.0352 29.8133 24.4397 27.4792 24.8132 25.1141C24.9065 24.5851 24.9688 23.9938 24.6265 23.4958C24.1908 22.8423 23.4439 22.5 22.7592 22.6556C22.0123 22.8423 21.4833 23.3402 21.3277 24.1183C21.2343 24.5539 21.1721 24.9896 21.1099 25.4253C20.9854 26.2033 20.8609 26.9502 20.7364 27.7282C20.5808 27.6037 20.5186 27.4481 20.4874 27.2614C20.3318 26.7635 20.2385 26.2344 20.0829 25.7365C19.8339 24.9896 19.1182 24.4917 18.4024 24.4917C17.6866 24.4917 16.9709 24.9896 16.7219 25.7054C16.5663 26.1411 16.4729 26.6079 16.3484 27.0436C16.2551 27.2614 16.1928 27.4793 16.1306 27.7282ZM42.8941 32.583C42.9563 32.6763 42.9874 32.7386 42.9874 32.7697C43.3298 33.9523 43.641 35.1349 44.0144 36.2863C44.419 37.5 45.8816 37.8734 46.8464 37.0954C47.3754 36.6597 47.4999 36.0685 47.5933 35.4461C47.9978 32.9875 48.4024 30.529 48.807 28.0394C48.9937 26.8568 49.2115 25.7054 49.336 24.5228C49.4294 23.5581 48.7136 22.7178 47.8111 22.6245C46.8464 22.5311 45.975 23.1846 45.8194 24.1494C45.726 24.6473 45.6638 25.1763 45.5704 25.6743C45.4771 26.3589 45.3526 27.0436 45.2592 27.6971C45.1036 27.5415 45.0725 27.417 45.0103 27.2614C44.8547 26.7635 44.7613 26.2344 44.5746 25.7365C44.2945 24.9585 43.6099 24.4606 42.863 24.4606C42.1161 24.4606 41.4003 25.0208 41.1825 25.7676C41.0269 26.2656 40.9024 26.7635 40.7779 27.2614C40.7468 27.417 40.6534 27.5726 40.5912 27.7905C40.5289 27.666 40.4978 27.6037 40.4978 27.5726C40.3733 26.6701 40.2489 25.7987 40.0933 24.8963C40.031 24.4606 39.9688 23.9938 39.7821 23.5892C39.4397 22.8112 38.5061 22.4066 37.7592 22.6245C36.919 22.8734 36.3588 23.6514 36.4522 24.5539C36.6078 25.7365 36.8256 26.9191 37.0123 28.1017C37.448 30.7158 37.8837 33.3299 38.3194 35.944C38.4439 36.7531 39.1908 37.4066 39.9065 37.4689C40.809 37.5311 41.5559 37.0332 41.8049 36.1618C42.1161 35.0726 42.4273 33.9834 42.7385 32.8942C42.7696 32.8008 42.8318 32.7075 42.8941 32.583ZM26.058 30.0934C26.0269 30.0934 26.0269 30.0934 25.9957 30.0934C25.9957 30.9958 25.9646 31.9294 25.9957 32.8319C26.058 34.5436 26.7115 36.0062 28.2675 36.8465C29.8858 37.7178 31.5352 37.749 33.1223 36.7842C34.6472 35.8506 35.2385 34.388 35.2385 32.7075C35.2696 30.9336 35.2696 29.1909 35.2385 27.417C35.2074 24.6784 33.4646 23.1535 31.504 22.7801C28.7343 22.2822 26.2447 24.056 26.0269 26.8257C25.9957 27.8838 26.058 28.973 26.058 30.0934Z" fill="#151515"/>
<path d="M29.5742 30.0602C29.5742 29.2199 29.5742 28.4108 29.5742 27.5705C29.5742 27.3527 29.6053 27.1037 29.6676 26.8859C29.8232 26.4502 30.29 26.139 30.6634 26.1701C31.068 26.2012 31.5037 26.5747 31.597 27.0104C31.6282 27.1348 31.6593 27.2904 31.6593 27.446C31.6593 29.1888 31.6593 30.9315 31.6593 32.6742C31.6593 32.9543 31.5659 33.2655 31.4103 33.5145C31.1925 33.8568 30.819 34.0124 30.3833 33.8879C29.9477 33.7635 29.6053 33.4834 29.6053 32.9855C29.5742 32.0207 29.6053 31.0249 29.6053 30.0602C29.6053 30.0602 29.6053 30.0602 29.5742 30.0602Z" fill="#151515"/>
</svg>
