<svg width="64" height="60" viewBox="0 0 64 60" fill="none" xmlns="http://www.w3.org/2000/svg">
<path d="M0.626983 0.879384C1.7995 -0.293128 2.48345 -0.293128 3.70482 0.879384C6.24527 3.37097 8.688 5.96028 11.3262 8.3053C17.3841 13.6305 24.4192 16.9526 32.3825 18.2228C34.1413 18.5159 35.9001 18.5648 37.6588 18.7602C38.0985 18.8091 38.2939 18.6625 38.4894 18.2717C40.0527 15.145 41.6161 12.0183 43.1794 8.94041C44.4985 6.35111 46.5504 4.5435 49.4328 4.0061C54.6603 3.029 58.3244 6.39998 59.4969 10.4549C59.9854 12.116 59.8877 13.8259 59.8389 15.4869C59.8389 15.9755 59.9854 16.3175 60.2785 16.6106C61.2068 17.49 62.0862 18.3694 62.9656 19.2488C63.6007 19.8839 63.6984 21.5449 63.1121 22.1312C62.477 22.7663 61.2557 22.7174 60.474 21.9846C59.4969 21.0564 58.6175 20.0793 57.6404 19.1511C57.445 18.9556 57.1518 18.7602 56.8587 18.7602C55.3931 18.7114 53.9763 18.7602 52.413 18.7602C52.413 19.2488 52.413 19.7373 52.413 20.177C52.3641 27.7495 49.8237 34.3449 44.6939 39.9143C40.4924 44.4578 35.265 47.2425 29.207 48.3173C27.7413 48.5616 26.178 48.7081 24.7123 48.757C23.1978 48.8058 22.465 49.6852 22.5139 51.0532C22.5627 53.2516 22.5139 55.499 22.5627 57.6974C22.6116 59.0653 21.6834 60.0913 20.2666 59.9936C18.117 59.8959 15.9674 60.1401 13.8666 59.6027C8.19946 58.0882 4.29108 53.3005 3.9491 47.3891C3.85139 45.9723 4.68193 45.0929 6.09871 45.044C7.27123 45.044 8.39487 45.044 9.56738 45.044C13.2803 44.9463 15.7231 41.5753 14.5017 38.0089C14.062 36.7387 13.4758 35.5662 12.8895 34.3448C12.7918 34.1494 12.5475 33.954 12.3521 33.8075C7.27122 31.0227 3.75369 26.8701 1.65293 21.4472C1.40866 20.8121 1.21324 20.1281 1.11553 19.4442C1.01782 18.8091 0.968966 18.1251 0.871256 17.4411C0.773547 17.9785 0.675834 18.5159 0.578125 19.0533C0.62698 12.9465 0.626983 6.93737 0.626983 0.879384Z" fill="#151515"/>
<path d="M33.6482 14.508C31.1566 14.1171 28.665 13.6286 26.3199 12.6515C24.2192 11.821 22.1673 10.795 20.1154 9.81794C19.92 9.72023 19.7734 9.37822 19.7734 9.1828C20.262 6.44694 21.1414 3.80879 22.5581 1.46377C23.4375 -0.00187203 25.0009 0.144692 25.7337 1.70804C25.9291 2.09888 26.0268 2.53859 26.1734 2.97828C27.3948 7.17979 29.6421 10.7462 32.8665 13.6774C33.1596 13.8729 33.4039 14.2148 33.6482 14.508Z" fill="#151515"/>
</svg>
