<svg width="61" height="60" viewBox="0 0 61 60" fill="none" xmlns="http://www.w3.org/2000/svg">
<path d="M13.1805 59.9225C13.2579 59.8838 13.3738 59.8065 13.5285 59.7292C13.2579 59.6905 13.0646 59.6519 12.8326 59.6132C11.441 59.304 10.3199 58.4922 9.43083 57.4485C7.88457 55.6702 7.11145 53.5054 6.76354 51.2247C5.83578 44.8076 7.38205 38.9318 11.0158 33.6358C12.4074 31.5869 14.147 29.9634 16.4664 28.9969C19.2496 27.7986 22.2262 28.3784 24.2363 30.6205C25.1254 31.6256 26.0532 31.9735 27.3675 31.9349C29.7643 31.8189 32.1223 31.8962 34.519 31.9349C35.2922 31.9349 35.8333 31.6643 36.2972 31.1231C37.1477 30.0793 38.1914 29.2675 39.4671 28.8036C41.5159 28.0692 43.4487 28.3784 45.3042 29.3835C47.469 30.5432 49.1312 32.2828 50.4069 34.3316C53.1515 38.6225 54.5045 43.3773 54.4659 48.4414C54.4272 51.2247 53.8474 53.9307 52.3397 56.3661C51.3733 57.9123 50.059 59.072 48.2808 59.6132C48.0875 59.6519 47.8942 59.6519 47.7009 59.7292C47.6623 59.7292 47.6623 59.8838 47.6236 59.9612C46.6572 59.9612 45.6908 59.9612 44.7244 59.9612C44.879 59.9225 45.0336 59.8452 45.2269 59.8065C45.1496 59.7679 45.1109 59.7292 45.0723 59.7292C43.4101 59.6132 42.0184 58.7628 40.8201 57.719C39.8923 56.9073 39.0805 55.9408 38.2687 55.0131C37.8048 54.4719 37.3023 54.0853 36.5292 54.1239C32.7408 54.1626 28.9138 54.2013 25.1255 54.1239C23.7725 54.0853 22.922 54.5492 22.1102 55.5929C20.448 57.719 18.4378 59.3813 15.6159 59.8065C15.7319 59.8838 15.8865 59.9225 16.0025 59.9998C15.1134 59.9225 14.147 59.9225 13.1805 59.9225ZM42.7529 48.2094C45.6908 48.2481 48.1262 45.89 48.0875 42.9521C48.0489 39.8982 45.7295 37.7334 42.9075 37.6561C40.0083 37.5788 37.4183 39.7436 37.4183 42.9907C37.4569 46.2379 40.1242 48.2867 42.7529 48.2094ZM19.9068 41.0966C19.9068 40.3234 19.9841 39.6662 19.9068 39.0477C19.7908 38.2359 18.9404 37.5788 18.1286 37.6174C17.2008 37.6561 16.4277 38.4679 16.389 39.5116C16.389 39.8982 16.3891 40.3234 16.4277 40.71C16.4664 41.0579 16.3117 41.1739 16.0025 41.1352C15.6159 41.0966 15.2293 41.0966 14.8428 41.0966C13.7604 41.1352 12.794 42.0243 12.8326 42.9521C12.8713 43.9572 13.7604 44.6917 14.9201 44.6917C15.3067 44.6917 15.6546 44.653 16.0025 44.653C16.3117 44.6143 16.4664 44.7303 16.4277 45.0396C16.3891 45.4648 16.389 45.8514 16.389 46.2766C16.389 46.9338 16.621 47.5136 17.2008 47.8615C18.4379 48.6733 19.8681 47.9388 19.9841 46.4699C20.0228 45.9673 19.9841 45.4648 19.9841 45.0009C19.9841 44.7303 20.1001 44.6143 20.3707 44.6143C20.7959 44.653 21.2598 44.6917 21.7237 44.653C22.5354 44.6143 23.0766 44.2278 23.4246 43.4546C23.7338 42.7588 23.4246 42.2176 22.9993 41.7151C22.5741 41.2125 21.9556 41.0579 21.2984 41.0579C20.8346 41.0966 20.4093 41.0966 19.9068 41.0966ZM28.6432 42.9521C28.6432 43.6866 28.6432 44.4597 28.6432 45.1942C28.6819 46.6632 30.0735 47.5136 31.3492 46.8178C32.0836 46.4312 32.2769 45.6967 32.2769 44.9236C32.2769 43.9185 32.2383 42.8748 32.2383 41.8697C32.2383 41.3672 32.2769 40.8646 32.2383 40.4007C32.1996 39.6662 31.6971 39.2024 31.0786 38.8931C30.4601 38.6225 29.9189 38.8158 29.4163 39.2024C28.8751 39.5889 28.6819 40.1688 28.6819 40.7873C28.6432 41.5218 28.6432 42.2176 28.6432 42.9521Z" fill="#151515"/>
<path d="M0.5 19.3711C0.538657 19.5257 0.615965 19.6803 0.615965 19.835C0.615965 20.9947 0.615965 22.1931 0.615965 23.3528C0.615965 23.5074 0.538657 23.662 0.5 23.778C0.5 22.3477 0.5 20.8401 0.5 19.3711Z" fill="#151515"/>
<path d="M39.3118 25.7086C33.3973 25.7086 27.5602 25.7086 21.6457 25.7086C21.6457 25.5926 21.607 25.438 21.607 25.322C21.607 23.7757 21.5684 22.2295 21.607 20.7218C21.723 17.8612 22.8054 15.4258 25.1248 13.5703C26.0912 14.2661 27.1736 14.7687 28.3719 15.0006C30.9233 15.5032 33.32 15.2326 35.5234 13.6863C35.7554 13.5317 35.91 13.609 36.0646 13.7636C37.6496 15.1552 38.6933 16.8175 39.0798 18.905C39.4664 21.1857 39.1958 23.4278 39.3118 25.7086Z" fill="#151515"/>
<path d="M42.7148 25.7128C42.9081 23.2001 42.4442 20.7647 43.0627 18.368C43.5266 16.5511 44.5317 15.0435 45.8847 13.8064C46.078 13.6132 46.2713 13.6132 46.5032 13.7678C49.5957 15.7006 52.7656 15.7393 55.9741 14.1544C56.0514 14.1157 56.1287 14.077 56.2447 13.9997C56.9405 13.5745 56.9018 13.6132 57.4817 14.1544C59.4145 15.9326 60.2263 18.1747 60.3036 20.7647C60.3036 21.7698 60.3036 22.8135 60.3036 23.8186C60.265 25.0556 59.5305 25.7514 58.2935 25.7514C53.3068 25.7514 48.3587 25.7514 43.372 25.7514C43.1787 25.7128 42.9854 25.7128 42.7148 25.7128Z" fill="#151515"/>
<path d="M18.1661 25.7082C17.9342 25.7082 17.7796 25.7082 17.6249 25.7082C12.6382 25.7082 7.65152 25.7082 2.62615 25.7082C1.31182 25.7082 0.616005 24.8577 0.693318 23.5434C0.770631 22.2677 0.770636 21.0307 0.770636 19.755C0.731979 17.6289 1.65973 15.928 3.05137 14.4204C3.36062 14.1111 3.63123 13.7632 3.86317 13.5312C4.75227 13.9565 5.52539 14.4204 6.33718 14.691C9.15912 15.5801 11.8651 15.3481 14.3778 13.7245C14.6484 13.5312 14.803 13.5699 15.0349 13.7632C17.0451 15.6187 18.0888 17.8608 18.1275 20.6055C18.1661 22.3064 18.1661 23.9686 18.1661 25.7082Z" fill="#151515"/>
<path d="M51.4864 11.6393C48.3165 11.6393 45.7266 9.01062 45.7266 5.80209C45.7266 2.94148 47.8527 0.158175 51.4477 0.00354735C54.5789 -0.112424 57.3622 2.63222 57.3622 5.72478C57.3622 9.04928 54.7722 11.6393 51.4864 11.6393Z" fill="#151515"/>
<path d="M9.35401 11.6397C6.10685 11.6397 3.55553 8.97232 3.59418 5.64782C3.59418 2.7099 6.33879 0.00390625 9.35401 0.00390625C12.6398 0.00390625 15.2298 2.59392 15.2298 5.87977C15.1912 9.08829 12.5625 11.6397 9.35401 11.6397Z" fill="#151515"/>
<path d="M36.2577 5.84299C36.2963 8.9742 33.6677 11.6029 30.4592 11.6415C27.328 11.6802 24.6993 9.05151 24.6607 5.9203C24.622 2.98237 26.8254 0.121757 30.3432 0.0444431C34.0156 -0.0328708 36.2963 2.94371 36.2577 5.84299Z" fill="#151515"/>
<path d="M42.7517 44.6514C41.8239 44.6514 41.0508 43.8396 41.0508 42.9505C41.0508 42.1 41.9012 41.2109 42.7903 41.2109C43.6408 41.2109 44.5299 42.0614 44.5299 42.9505C44.4912 43.8396 43.6794 44.6514 42.7517 44.6514Z" fill="#151515"/>
</svg>
