<svg width="40" height="60" viewBox="0 0 40 60" fill="none" xmlns="http://www.w3.org/2000/svg">
<path d="M21.1741 42.7487C21.1741 39.8049 21.1741 36.9025 21.1741 34.0001C21.1741 33.5854 21.2155 33.1708 21.2155 32.7562C21.1741 31.305 20.0545 30.4757 18.6447 30.8489C17.8154 31.0977 17.1104 30.9318 16.4884 30.3099C15.7835 29.6465 15.6591 28.6513 16.1567 27.8221C16.6129 26.9928 17.608 26.5782 18.4788 26.827C19.2252 27.0758 19.8886 27.1172 20.5521 26.5367C21.0082 26.0806 21.2155 25.5831 21.2155 24.9197C21.2155 23.5099 21.1741 22.1417 21.1741 20.7319C21.1741 20.4832 21.1741 20.2344 21.5058 20.2344C22.8327 20.2344 24.1596 20.2344 25.5694 20.2344C25.2377 21.9344 25.5694 23.3856 26.8548 24.5465C27.7256 25.3343 28.7623 25.7075 29.9233 25.666C31.2917 25.6246 32.4112 25.0441 33.2405 23.9246C33.9869 22.8465 34.3186 21.6441 33.9455 20.3173C35.7699 20.3173 37.553 20.3173 39.4189 20.3173C39.2945 21.188 39.2116 21.9758 39.0457 22.8051C38.2993 26.827 36.3505 30.2269 33.5308 33.1293C32.9503 33.7098 32.2868 34.2074 31.6649 34.7464C29.4257 36.6952 28.1817 39.1415 27.7671 42.0853C27.6841 42.8317 27.6842 42.7902 26.9793 42.7902C25.2792 42.7902 23.5376 42.7902 21.8375 42.7902C21.5473 42.7902 21.3399 42.7487 21.1741 42.7487Z" fill="#151515"/>
<path d="M19.0183 24.7117C17.3183 24.38 15.8669 24.7532 14.7059 25.9971C13.9181 26.8678 13.5449 27.9458 13.5863 29.1068C13.7107 31.4702 15.867 33.6677 18.9354 33.0872C18.9354 33.4604 18.9354 33.8336 18.9354 34.2067C18.9354 36.9433 18.9769 39.6799 18.9769 42.3749C18.9769 42.6237 18.8939 42.7481 18.6451 42.7481C16.7377 42.7481 14.7889 42.7481 12.8814 42.7481C12.4253 42.7481 12.5082 42.4164 12.4253 42.1262C12.135 41.0067 11.9277 39.8872 11.5131 38.8091C10.7667 36.9018 9.52272 35.4092 7.94703 34.1238C4.00781 30.9312 1.72721 26.7849 0.980829 21.8093C0.939364 21.4776 0.897888 21.1459 0.814957 20.8557C0.69056 20.3996 0.814972 20.2752 1.27109 20.2752C2.68092 20.2752 4.09073 20.2752 5.50056 20.3167C5.87375 20.3167 6.24694 20.3581 6.62013 20.3167C7.94703 20.2752 8.77635 19.2386 8.44463 17.9533C8.19583 16.9996 8.32023 16.2118 9.06661 15.507C9.73006 14.885 10.6423 14.8021 11.4301 15.2582C12.218 15.7143 12.6326 16.585 12.4253 17.4143C12.3009 17.9533 12.0521 18.4923 12.3424 19.0728C12.757 19.8606 13.3376 20.3167 14.2498 20.2752C15.6182 20.2752 16.9865 20.2752 18.3549 20.2337C18.811 20.2337 18.9354 20.3581 18.8939 20.8142C18.8525 21.8923 18.8939 23.0118 18.8939 24.0898C19.0183 24.3386 19.0183 24.5044 19.0183 24.7117Z" fill="#151515"/>
<path d="M21.2144 0C25.361 0.414629 29.0929 1.7829 32.2443 4.39507C35.8518 7.3804 38.0909 11.195 39.0032 15.7974C39.1276 16.4193 39.169 17.0413 39.3349 17.6632C39.4178 18.0778 39.2934 18.2022 38.8787 18.1608C37.1787 18.1193 35.5201 18.0778 33.82 18.1193C33.3224 18.1193 32.7419 18.2437 32.3272 18.5339C31.5394 19.0729 31.4564 19.8607 31.7052 20.7315C32.0369 21.851 31.4564 22.9705 30.3783 23.3022C29.5905 23.5924 28.8856 23.3851 28.305 22.8046C27.766 22.2656 27.4343 21.6022 27.7245 20.8144C27.9733 20.151 28.0148 19.5705 27.6001 18.9486C27.1855 18.3681 26.605 18.0778 25.9 18.0778C24.5317 18.0778 23.1633 18.0778 21.795 18.1608C21.2974 18.1608 21.173 18.0364 21.2144 17.5388C21.2559 16.3364 21.2144 15.0925 21.2144 13.7657C23.1633 14.0974 24.822 13.5998 25.9415 11.8999C26.5635 10.9462 26.7708 9.86817 26.5635 8.74868C26.1074 6.34383 24.117 5.05848 21.2974 5.34872C21.2144 3.60727 21.2144 1.82437 21.2144 0Z" fill="#151515"/>
<path d="M14.6259 18.2052C14.8747 16.6296 14.6259 15.2199 13.5478 14.1004C12.76 13.2711 11.7648 12.8565 10.6452 12.8151C9.19394 12.7736 7.94998 13.2711 7.07921 14.3906C6.20843 15.5101 5.8767 16.754 6.24989 18.1223C4.38395 18.1223 2.64239 18.1223 0.859375 18.1223C1.77162 7.46634 10.1891 0.54203 18.9798 0.0859375C18.9798 0.293252 19.0213 0.500567 19.0213 0.666419C19.0213 2.28347 19.0213 3.94199 18.9798 5.55904C18.9798 7.21756 20.0579 8.04682 21.6751 7.59073C22.5873 7.34195 23.4166 7.63219 23.9971 8.46145C24.4533 9.12486 24.4533 10.0785 23.9971 10.7834C23.4996 11.5297 22.5458 11.9443 21.7165 11.5712C20.1823 10.9492 18.8969 12.3175 18.9798 13.6443C19.1042 14.9711 19.0627 16.3394 19.0627 17.6662C19.0627 17.9565 19.0213 18.1638 18.6896 18.1638C17.3627 18.2052 16.0357 18.2052 14.6259 18.2052Z" fill="#151515"/>
<path d="M20.178 53.4883C22.9562 53.4883 25.6929 53.4883 28.4711 53.4883C29.2175 53.4883 29.7565 54.0688 29.6736 54.7322C29.5907 55.2297 29.3004 55.52 28.8028 55.6029C28.554 55.6444 28.2638 55.6858 27.9735 55.6858C22.7074 55.6858 17.4827 55.6858 12.2166 55.6858C11.9678 55.6858 11.719 55.6858 11.4288 55.6444C10.8483 55.5614 10.4751 55.1883 10.4336 54.6492C10.4336 54.1932 10.8483 53.6956 11.3458 53.6127C11.6361 53.5712 11.9263 53.5712 12.2166 53.5712C14.9119 53.4883 17.5657 53.4883 20.178 53.4883Z" fill="#151515"/>
<path d="M20.0136 44.9492C22.5845 44.9492 25.1139 44.9492 27.6848 44.9492C28.0165 44.9492 28.3897 44.9492 28.7214 44.9907C29.3019 45.0736 29.6751 45.4882 29.6751 46.0273C29.6751 46.5663 29.3019 46.9809 28.7214 47.0638C28.4311 47.1053 28.0994 47.1053 27.8092 47.1053C22.7089 47.1053 17.6086 47.1053 12.5084 47.1053C12.1352 47.1053 11.8035 47.1053 11.4303 47.0638C10.8498 47.0224 10.4766 46.6077 10.4766 46.0687C10.4766 45.5297 10.8498 45.0736 11.4303 45.0321C11.8449 44.9907 12.3011 44.9907 12.7157 44.9907C15.1622 44.9492 17.5672 44.9492 20.0136 44.9492Z" fill="#151515"/>
<path d="M20.0529 51.3748C17.2747 51.3748 14.4965 51.3748 11.7183 51.3748C10.8061 51.3748 10.2256 50.5456 10.6402 49.7992C10.7646 49.5919 11.0549 49.4261 11.3037 49.3017C11.511 49.2187 11.7598 49.2188 12.0086 49.2188C17.2747 49.2188 22.4994 49.2188 27.7655 49.2188C28.0557 49.2188 28.3875 49.2187 28.6777 49.2602C29.2997 49.3017 29.7144 49.7578 29.6729 50.3382C29.6729 50.8358 29.1753 51.3334 28.5948 51.3334C28.0557 51.3748 27.5167 51.3334 26.9362 51.3334C24.6556 51.3748 22.3335 51.3748 20.0529 51.3748Z" fill="#151515"/>
<path d="M25.4881 57.9681C23.9538 59.2535 22.2123 59.9584 20.1805 59.9998C18.1072 60.0413 16.2413 59.295 14.707 57.8438C18.2731 57.8438 21.8806 57.8438 25.4466 57.8438C25.4466 57.8438 25.4466 57.8852 25.4881 57.9681Z" fill="#151515"/>
</svg>
