<svg width="59" height="66" viewBox="0 0 59 66" fill="none" xmlns="http://www.w3.org/2000/svg">
<path d="M38.0577 65.5016C37.8852 65.3291 37.7127 65.1566 37.5403 64.9841C37.2384 64.6823 36.9797 64.3373 37.1522 63.8199C37.3246 63.3456 37.6265 62.9144 38.144 62.8281C38.4027 62.785 38.7046 62.7419 39.0064 62.7419C41.5506 62.785 44.0948 62.785 46.6822 62.8281C46.8115 62.8281 46.8978 62.785 47.1565 62.7419C46.9409 62.5694 46.8547 62.44 46.7253 62.3969C42.1543 59.7666 37.5403 57.1793 32.9693 54.549C32.7537 54.4196 32.4518 54.3765 32.15 54.3765C28.7864 54.3765 25.3798 54.3765 22.0162 54.3765C21.4988 54.3765 21.1107 54.204 20.7657 53.816C20.1189 53.0829 20.4207 51.9618 21.3694 51.7031C21.7144 51.6168 22.0594 51.6168 22.4475 51.6168C25.2935 51.6168 28.1396 51.6168 30.9857 51.6168C31.4169 51.6168 31.5463 51.5306 31.5463 51.0994C31.5463 46.0112 31.5463 40.9661 31.5463 35.8779C31.5463 35.5761 31.5463 35.3173 31.5463 35.0155C31.5031 34.3256 31.5031 34.3256 32.2362 34.3256C33.7886 34.3256 35.3841 34.4118 36.9365 34.3256C38.3165 34.2393 39.567 34.5843 40.7744 35.2311C43.3186 36.6541 45.8197 38.077 48.3208 39.5C49.5282 40.1899 50.6925 40.8799 51.9 41.5267C52.1587 41.656 52.4606 41.7854 52.7193 41.9147C53.5817 42.2597 53.7973 42.5184 53.7973 43.4671C53.7973 46.4424 53.7973 49.3746 53.7973 52.3499C53.7973 56.1876 53.7974 60.0253 53.8405 63.863C53.8405 64.6392 53.4093 65.0704 52.8918 65.5016C47.8896 65.5016 42.9737 65.5016 38.0577 65.5016ZM34.3061 38.3789C34.3061 38.5514 34.263 38.6376 34.263 38.767C34.263 42.9928 34.3061 47.1754 34.263 51.4012C34.263 51.9618 34.4355 52.2636 34.9098 52.5224C40.1276 55.4977 45.3023 58.473 50.5201 61.4483C50.6926 61.5345 50.865 61.6639 51.1238 61.7932C51.1238 61.4914 51.1238 61.3189 51.1238 61.1464C51.1238 57.0069 51.1238 52.8242 51.1238 48.6846C51.1238 48.2103 50.9944 47.9516 50.6063 47.6929C48.2346 46.3561 45.8197 44.9763 43.448 43.5964C40.3863 41.8716 37.3678 40.1468 34.3061 38.3789Z" fill="#151515"/>
<path d="M27.0608 13.9694C26.2415 13.9694 25.5084 13.9263 24.8184 13.9694C24.5597 13.9694 24.301 14.185 24.0422 14.3143C21.4118 16.0823 18.7382 17.8502 16.1077 19.6181C14.3397 20.8255 12.3561 19.6181 11.9249 17.9796C11.7093 17.1172 11.8817 16.341 12.4855 15.6942C12.7442 15.3924 13.0892 15.1336 13.4342 14.8749C16.3233 12.9345 19.2557 10.9941 22.1448 9.05366C22.7917 8.62246 23.4385 8.40686 24.2147 8.40686C27.7076 8.40686 31.2005 8.40686 34.6503 8.40686C36.0733 8.40686 37.367 8.75182 38.4451 9.70047C38.4882 9.74359 38.5313 9.74359 38.7469 9.78671C37.6257 8.32062 37.0651 6.81141 37.4101 5.08659C37.712 3.4049 38.6607 2.11129 40.1268 1.24888C42.4554 -0.0878485 45.2153 0.386476 47.0264 2.49937C48.7513 4.48291 48.8375 7.28573 47.1989 9.39863C46.2502 10.6491 44.9565 11.3822 43.4041 11.5546C41.8517 11.7271 40.4718 11.2528 39.2644 10.261C39.2213 10.3042 39.2213 10.3473 39.1781 10.3473C39.3075 10.5198 39.3506 10.7354 39.5231 10.9078C40.8168 12.417 40.9462 15.5648 39.2644 17.3759C37.5395 19.2732 35.6852 21.0411 33.831 22.8522C33.6154 23.0678 33.1842 23.1109 32.8392 23.1109C30.6831 23.1109 28.5269 23.0678 26.3708 23.0678C25.9396 23.0678 25.4221 23.2403 25.034 23.499C24.4735 23.8008 24.4303 24.4045 24.5597 24.9651C24.6459 25.3963 25.379 25.9568 25.8534 25.9568C26.3708 26 26.8883 25.9568 27.4058 25.9568C31.3299 25.9568 35.254 25.9137 39.1781 25.9568C39.9112 25.9568 40.7305 26.1293 41.4205 26.388C45.5602 28.0697 49.6569 29.7945 53.7535 31.4762C55.1334 32.0368 55.8665 32.9855 55.8233 34.2791C55.7802 35.9176 54.0553 37.2975 52.4598 36.8232C51.0368 36.3488 49.6569 35.7451 48.2769 35.1846C45.474 34.0203 42.7142 32.8561 39.9112 31.735C39.5231 31.6056 39.135 31.5194 38.7038 31.5194C33.6154 31.5194 28.4838 31.5625 23.3954 31.5625C20.5062 31.5625 18.2207 29.8808 17.5739 27.2504C17.1427 25.4394 17.5308 23.7577 18.7813 22.3778C20.42 20.5668 22.1448 18.8851 23.8266 17.1603C24.8184 16.1685 25.8102 15.2199 26.8021 14.2281C26.9314 14.185 26.9745 14.0987 27.0608 13.9694Z" fill="#151515"/>
<path d="M17.3163 32.082C18.6962 33.4188 20.3349 34.1518 22.2754 34.2812C22.146 34.6261 22.0166 34.9711 21.8441 35.3161C21.0248 37.2996 20.2055 39.2831 19.3862 41.2235C18.8687 42.474 17.8769 43.1208 16.497 43.1208C12.271 43.1208 8.08814 43.1208 3.86215 43.1208C2.18038 43.1208 0.886719 41.9135 0.886719 40.3611C0.886719 38.7657 2.13726 37.5583 3.86215 37.5583C7.39818 37.5583 10.9342 37.5583 14.4702 37.5583C14.8583 37.5583 15.0308 37.429 15.2033 37.0409C15.8501 35.4023 16.497 33.8068 17.1869 32.2114C17.1869 32.2114 17.2732 32.1683 17.3163 32.082Z" fill="#151515"/>
<path d="M43.4487 14.5703C43.8799 14.9584 44.3112 15.3034 44.6561 15.7346C45.648 16.9851 46.8985 17.5456 48.4509 17.8043C51.0382 18.1924 53.5824 18.7961 56.1698 19.3136C57.5497 19.5723 58.4553 20.6072 58.4984 21.9008C58.5415 23.1944 57.7222 24.4017 56.4285 24.6605C55.8679 24.7898 55.2211 24.7036 54.6174 24.5742C51.2538 23.9274 47.8903 23.2806 44.5699 22.5907C44.0524 22.4613 43.4918 22.2457 43.0606 21.9008C42.3707 21.3402 41.7669 20.6934 41.1201 20.0466C41.0339 19.9604 41.077 19.7016 41.1201 19.6154C42.4569 18.2355 43.1469 16.597 43.3193 14.6997C43.4056 14.6566 43.4056 14.6134 43.4487 14.5703Z" fill="#151515"/>
</svg>
