<svg width="73" height="60" viewBox="0 0 73 60" fill="none" xmlns="http://www.w3.org/2000/svg">
<path d="M72.9053 38.9841C72.8535 38.5701 72.75 38.1561 72.75 37.742C72.75 26.5113 72.75 15.2805 72.75 4.04975C72.75 3.73922 72.8535 3.37693 72.9053 3.06641C72.9053 15.0217 72.9053 27.0288 72.9053 38.9841Z" fill="#151515"/>
<path d="M40.7138 30.3425C37.6602 26.9784 34.6585 23.7697 31.7084 20.5091C30.7251 19.474 29.8453 18.3354 28.8619 17.3003C27.9303 16.317 26.6882 16.4205 25.7566 17.4038C25.5496 17.6108 25.3425 17.8696 25.1872 18.0766C20.788 23.9767 16.3889 29.8767 11.9379 35.7767C11.3686 36.5013 10.5923 37.1224 9.86769 37.6917C8.52205 38.7267 7.17642 39.7101 5.72727 40.5899C4.69216 41.211 3.60534 41.7803 2.46672 42.1943C1.53513 42.5566 0.551755 41.7285 0.5 40.6934C0.5 40.5899 0.5 40.4347 0.5 40.3311C0.5 27.5995 0.5 14.8678 0.5 2.08445C0.5 1.67041 0.65524 1.15286 0.862262 0.790581C1.48332 -0.0892486 1.94912 -0.192758 2.93247 0.273034C3.76056 0.687071 4.53688 1.10111 5.26146 1.61866C9.29837 4.51692 13.7493 6.12131 18.6143 6.79412C23.6346 7.46693 28.6548 8.03623 33.6751 8.13974C38.0225 8.24325 42.37 8.1915 46.7175 7.67395C50.0816 7.25991 53.3938 6.84588 56.7579 6.38009C60.7948 5.81078 64.3143 4.05112 67.6783 1.82567C68.5582 1.25637 69.438 0.738827 70.3696 0.22128C71.1977 -0.192757 72.0258 0.066017 72.3881 0.945846C72.5951 1.46339 72.6468 2.03269 72.6468 2.55024C72.6468 14.195 72.6468 25.7881 72.6468 37.4329C72.6468 38.261 72.6986 39.0373 72.6986 39.8653C72.6986 40.3311 72.5951 40.7969 72.3881 41.211C71.9223 42.1943 70.8354 42.6083 69.852 42.0908C69.0757 41.6768 68.3511 41.211 67.5748 40.7969C65.8669 39.8136 64.1072 38.9338 62.451 37.9504C61.8817 37.6399 61.3124 37.1741 60.8984 36.6566C57.6378 32.1539 54.429 27.5995 51.2201 23.0968C50.9614 22.7346 50.7026 22.424 50.3921 22.1135C49.564 21.2854 48.3219 21.2337 47.5455 22.1135C46.6657 22.9933 45.9411 23.9767 45.1648 24.96C43.9744 26.4091 42.8358 27.8583 41.6454 29.3074C41.3349 29.6179 41.0243 29.9285 40.7138 30.3425Z" fill="#151515"/>
<path d="M23.3225 52.5987C23.0119 51.6671 23.1155 50.8908 23.7365 50.2179C24.6164 49.2864 25.962 49.2864 26.8419 50.3215C27.9287 51.6671 28.912 53.0645 29.8436 54.4618C30.5164 55.4969 30.1542 56.532 28.9121 57.3083C27.5664 58.1882 26.2208 58.9645 24.8751 59.7926C24.6681 59.9478 24.3576 59.9996 24.0988 59.9996C22.8567 60.0513 21.8216 58.9127 21.9769 57.6706C22.0286 57.2566 22.1321 56.8943 22.2356 56.532C18.975 56.0662 15.8697 55.2382 12.9714 53.8408C11.7293 53.2197 10.5389 52.4434 9.65907 51.3565C8.31344 49.7004 8.31349 47.5785 9.71088 45.9223C11.16 44.1627 13.075 43.2828 15.1452 42.5065C18.2505 41.3679 21.4593 40.7986 24.6681 40.3328C30.1024 39.5565 35.5367 39.246 40.971 39.5565C46.3536 39.867 51.6844 40.4881 56.8599 42.1442C58.6713 42.7135 60.4828 43.3863 61.9837 44.5767C62.6048 45.0942 63.2258 45.6635 63.6916 46.3364C64.8302 47.9925 64.6232 49.8557 63.3293 51.3565C61.9837 52.9609 60.1722 53.8408 58.309 54.5653C55.3072 55.7039 52.202 56.2732 49.0449 56.7908C45.4738 57.4118 41.9026 57.5671 38.3315 57.6189C37.6587 57.6189 37.0894 57.4119 36.6236 56.8943C35.692 55.8592 35.8472 54.4618 37.0894 53.789C37.5034 53.5303 38.0727 53.4267 38.5385 53.375C40.4535 53.2715 42.3684 53.2715 44.2316 53.0645C48.4755 52.6504 52.7712 52.2364 56.7564 50.632C57.8432 50.218 58.8266 49.6486 59.8099 49.0276C60.3792 48.6653 60.3275 48.4065 59.8099 47.9925C58.5678 47.0092 57.1704 46.4399 55.6695 45.9741C52.823 45.0942 49.9765 44.5767 47.0264 44.2662C42.7307 43.8004 38.435 43.4898 34.0876 43.6451C28.705 43.8521 23.3742 44.2144 18.1469 45.7153C16.3355 46.2328 14.6276 46.8539 13.075 47.9925C12.6092 48.3548 12.5574 48.5618 13.075 48.8723C14.0066 49.3899 14.8864 50.0109 15.8697 50.425C18.2504 51.6671 20.7347 52.1846 23.3225 52.5987Z" fill="#151515"/>
<path d="M27.5152 22.168C30.517 25.532 33.5188 28.8443 36.4688 32.1566C36.4688 32.2084 36.4171 32.2601 36.4171 32.3636C30.4652 32.2084 24.5651 32.4154 18.6133 34.0715C21.6151 30.0347 24.5651 26.1531 27.5152 22.168Z" fill="#151515"/>
<path d="M54.1723 34.7427C50.9635 34.0699 47.703 33.3971 44.3906 32.6725C45.8398 30.9129 47.2889 29.1014 48.7898 27.2383C50.653 29.826 52.4644 32.3102 54.1723 34.7427Z" fill="#151515"/>
</svg>
