<svg width="70" height="60" viewBox="0 0 70 60" fill="none" xmlns="http://www.w3.org/2000/svg">
<path d="M0.628906 32.4314C0.668122 32.549 0.707395 32.7059 0.785827 32.8236C1.9623 25.9216 6.15833 22.3138 12.9819 21.451C8.04068 21.0981 4.5897 16.9805 4.74656 12.4314C4.90342 7.88243 8.47204 4.23538 13.0603 4.0393C17.7662 3.84322 21.5309 7.25498 22.0799 11.5687C22.6289 16.0001 19.9623 20.6667 14.0799 21.4902C14.4329 21.5295 14.825 21.5687 15.178 21.5687C17.3349 21.5295 19.374 22.1177 21.2956 23.0981C24.9819 24.9412 28.6682 26.7451 32.3545 28.5883C33.2565 29.0196 33.2564 29.0589 33.6878 28.1569C34.9427 25.6863 36.1584 23.1765 37.4133 20.7059C37.727 20.0393 38.1976 19.5687 38.9819 19.451C40.5898 19.255 41.6878 20.6275 41.0995 22.1177C40.6289 23.2549 40.0408 24.353 39.4917 25.451C38.4329 27.5687 37.3349 29.7255 36.2761 31.8432C36.1976 32.0392 36.1584 32.2353 36.1584 32.4706C36.1584 32.8236 36.1584 33.1765 36.1976 33.5294C36.5897 36.902 32.8251 40.353 28.7858 38.7059C26.629 37.8039 24.5897 36.6667 22.5113 35.6079C22.3152 35.5294 22.1191 35.451 21.8838 35.3334C21.8838 35.9216 21.8838 36.3922 21.8838 36.8628C21.8838 43.7647 21.8838 50.6667 21.8838 57.5686C21.8838 59.2157 21.0996 60 19.4133 60C15.4133 60 11.4525 60 7.4525 60C6.74662 60 6.11915 59.8431 5.57013 59.3333C5.13875 58.9019 4.94264 58.4314 4.94264 57.8039C4.94264 54.3137 4.94264 50.8235 4.94264 47.3333C4.94264 46.8627 4.82503 46.6275 4.39366 46.4314C3.0211 45.8431 2.00151 44.8628 1.37406 43.5294C1.2172 43.1765 1.0995 42.8235 1.02106 42.4314C0.981848 42.0784 1.02106 41.6863 1.02106 41.2941C0.903416 41.5686 0.785808 41.8431 0.66816 42.0784C0.628945 38.8628 0.628906 35.6471 0.628906 32.4314Z" fill="#151515"/>
<path d="M52.7828 36.2352C53.175 37.2941 53.528 38.2352 53.8809 39.2156C55.9201 44.745 57.9593 50.2744 59.9593 55.843C60.1554 56.3921 60.3515 56.9019 60.5476 57.4509C60.8613 58.3528 60.3907 59.294 59.4495 59.8038C58.6652 60.196 57.6848 59.9607 57.175 59.2156C56.9397 58.9019 56.7829 58.5097 56.626 58.1175C54.077 51.2156 51.5672 44.3136 49.0182 37.4509C48.5476 36.196 48.5476 36.196 47.2142 36.2744C47.175 36.2744 47.1358 36.2744 47.0966 36.3137C45.5279 40.6666 43.9594 45.0195 42.3515 49.3725C41.2535 52.3529 40.1946 55.3332 39.0966 58.3136C38.9005 58.9019 38.5868 59.4509 37.9985 59.7254C37.2534 60.1175 36.5867 60.0391 35.9201 59.5685C35.2926 59.0979 35.0181 58.4313 35.2142 57.6862C35.5279 56.5881 35.9201 55.5293 36.3122 54.4705C38.4299 48.5882 40.5868 42.745 42.7044 36.8627C42.7828 36.6666 42.822 36.5097 42.8612 36.2744C41.8808 36.2744 40.979 36.2744 39.9986 36.2744C40.0378 36.0392 40.0769 35.8431 40.1161 35.6862C40.1946 34.9411 40.273 34.196 40.3515 33.4901C40.4299 33.0588 40.4691 32.5882 40.6652 32.196C41.9201 29.5686 43.2534 26.9803 44.5475 24.3921C45.6064 22.2745 45.6456 20.1568 44.3123 18.1568C41.8417 14.4313 36.5868 14.3529 34.1162 18.2353C33.2142 19.647 32.5476 21.2157 31.7633 22.7058C31.724 22.7451 31.724 22.7843 31.6848 22.8235C31.2926 23.6078 31.2926 23.6078 30.5083 23.1764C29.371 22.5882 28.1946 22 27.0181 21.4509C26.5867 21.2549 26.3906 21.0196 26.3906 20.5098C26.4298 16.2353 26.3907 11.9608 26.4299 7.68626C26.4299 6.90195 26.5083 6.07842 26.626 5.29411C27.0181 2.54902 29.3318 0.392158 32.1162 0.078433C32.6652 0.0392174 33.175 0 33.724 0C43.2927 0 52.8221 0 62.3907 0C64.5084 0 66.3907 0.666665 67.7632 2.35294C68.8221 3.64705 69.2143 5.17646 69.2143 6.7843C69.2535 14.4313 69.2535 22.0784 69.2143 29.6862C69.1751 33.1764 67.0966 35.5294 63.8417 36.196C63.6456 36.2352 63.4104 36.2352 63.2143 36.2352C59.9201 36.2352 56.626 36.2352 53.3319 36.2352C53.1751 36.2352 53.0181 36.2352 52.7828 36.2352ZM47.9593 8.54901C44.3514 8.54901 40.7044 8.54901 37.0965 8.54901C36.0769 8.54901 35.175 9.41175 35.0181 10.4706C34.9004 11.2941 35.6848 12.3529 36.5867 12.549C36.9789 12.6274 37.3711 12.6666 37.8024 12.6666C44.5083 12.6666 51.2534 12.6666 57.9593 12.6666C58.2338 12.6666 58.4691 12.6666 58.7436 12.6274C59.9201 12.5098 60.7437 11.647 60.7437 10.5098C60.7437 9.56861 59.528 8.47057 58.5868 8.50979C55.0182 8.58822 51.4887 8.54901 47.9593 8.54901ZM54.1162 20.2353C55.6064 20.2353 57.0966 20.2353 58.5868 20.2353C59.528 20.2353 60.5475 19.4117 60.7044 18.5098C60.8613 17.4902 60.3122 16.549 59.3319 16.2353C58.7828 16.0784 58.2339 16 57.6457 16C55.2535 15.9608 52.8613 16 50.4692 16C50.1162 16 49.8024 16.0392 49.4495 16.0784C48.0377 16.2745 47.0182 17.8039 47.8417 19.1764C48.2731 19.9215 48.9397 20.2745 49.7633 20.2745C51.2142 20.2353 52.6653 20.2353 54.1162 20.2353ZM54.1162 27.6862C54.1162 27.647 54.1162 27.647 54.1162 27.6862C55.6064 27.6862 57.0573 27.647 58.5475 27.6862C59.2926 27.7254 59.8025 27.4117 60.2731 26.9019C60.7829 26.2745 60.8613 25.6078 60.5476 24.9019C60.2339 24.196 59.6848 23.6862 58.8613 23.6862C55.724 23.647 52.5868 23.647 49.4495 23.6862C48.4299 23.6862 47.4888 24.7451 47.528 25.7647C47.5672 26.549 48.3515 27.7647 49.5672 27.7254C51.0966 27.6078 52.626 27.6862 54.1162 27.6862Z" fill="#151515"/>
</svg>
