<svg width="54" height="60" viewBox="0 0 54 60" fill="none" xmlns="http://www.w3.org/2000/svg">
<path d="M45.6478 0.0475791C45.9809 0.142739 46.2664 0.237902 46.5994 0.333061C50.8342 1.23708 53.5939 4.75799 53.4988 9.08776C53.4036 13.2748 50.3108 16.8433 46.1236 17.5094C42.3647 18.1279 40.1283 15.7014 39.7001 13.3224C39.6049 12.8466 39.605 12.3708 39.6526 11.895C39.7002 11.4192 39.7953 10.991 39.8905 10.4676C31.4686 10.4676 23.0942 10.4676 14.6723 10.4676C14.7674 10.9434 14.815 11.4192 14.8625 11.8474C15.1956 15.178 12.3408 17.6046 9.58106 17.557C4.72774 17.4618 0.96875 13.5127 0.96875 8.70712C0.96875 4.71041 4.06153 0.856438 8.20113 0.237899C8.39145 0.190319 8.53425 0.0951597 8.72457 0C21.0006 0.0475799 33.3242 0.0475791 45.6478 0.0475791Z" fill="#151515"/>
<path d="M43.0316 20.8867C43.0316 30.4026 43.0316 39.9186 43.0316 49.4346C32.5161 49.4346 22.0006 49.4346 11.4375 49.4346C11.4375 49.2443 11.4375 49.0539 11.4375 48.816C11.4375 39.7283 11.4375 30.6881 11.4375 21.6004C11.4375 21.1246 11.5803 20.8867 12.0561 20.7439C15.1013 19.8875 17.1473 17.9367 18.0989 14.8916C18.2892 14.2255 18.5747 14.0352 19.2408 14.0352C23.5708 14.0352 27.9483 14.0352 32.2783 14.0352C33.4202 14.0352 34.5145 14.0352 35.6565 14.0352C36.0847 14.0352 36.2751 14.1779 36.4178 14.6537C37.2743 17.7464 39.3203 19.6972 42.3179 20.6963C42.5082 20.8391 42.7461 20.8391 43.0316 20.8867ZM35.942 44.2008C35.942 35.9219 35.942 27.6906 35.942 19.4117C34.8001 19.4117 33.6581 19.4117 32.5637 19.4117C32.5637 19.5544 32.5162 19.6496 32.5162 19.7447C32.5162 27.7382 32.5162 35.684 32.5162 43.6774C32.5162 44.1056 32.6113 44.2484 33.0395 44.2008C33.9911 44.2008 34.9428 44.2008 35.942 44.2008ZM18.5271 44.2008C19.5263 44.2008 20.478 44.2008 21.4296 44.2008C21.8579 44.2008 22.0006 44.0581 22.0006 43.6298C22.0006 36.4929 22.0006 29.3083 22.0006 22.1713C22.0006 21.2673 22.0006 20.3633 22.0006 19.4117C20.811 19.4117 19.6691 19.4117 18.5747 19.4117C18.5272 27.6906 18.5271 35.9219 18.5271 44.2008ZM25.5692 19.4117C25.5692 19.5544 25.5217 19.6972 25.5217 19.8399C25.5217 26.2156 25.5217 32.6389 25.5217 39.0146C25.5217 40.5847 25.5216 42.1549 25.4741 43.725C25.4741 44.0105 25.4265 44.2484 25.8547 44.2484C26.854 44.2484 27.8531 44.2484 28.8999 44.2484C28.8999 35.9695 28.8999 27.6906 28.8999 19.4593C27.758 19.4117 26.7112 19.4117 25.5692 19.4117Z" fill="#151515"/>
<path d="M27.1832 59.9996C20.9976 59.9996 14.8119 59.9996 8.67385 59.9996C8.10287 59.9996 7.91254 59.8568 7.96013 59.2859C8.00771 58.3343 8.00771 57.3827 7.96013 56.3835C7.96013 54.3376 10.0062 52.9102 11.5764 52.9102C13.5272 52.9102 15.4781 52.9102 17.4289 52.9102C25.7557 52.9102 34.0824 52.9102 42.4568 52.9102C43.5512 52.9102 44.5028 53.1481 45.3117 53.9093C46.0254 54.5754 46.4536 55.3843 46.5012 56.3835C46.5012 57.3827 46.5013 58.4294 46.5488 59.4286C46.5488 59.9044 46.3109 59.952 45.9303 59.952C42.9802 59.952 40.0301 59.952 37.08 59.952C33.7493 59.9996 30.4663 59.9996 27.1832 59.9996Z" fill="#151515"/>
</svg>
