<svg width="69" height="60" viewBox="0 0 69 60" fill="none" xmlns="http://www.w3.org/2000/svg">
<path d="M1.64175 14.8213C1.90365 15.188 2.1132 15.4499 2.32272 15.7118C6.35605 20.6356 11.5941 23.3594 17.7227 24.5118C23.537 25.5594 28.4607 28.2308 32.5464 32.526C33.4369 33.4689 34.1179 34.5165 35.0607 35.6689C35.7941 34.8308 36.6321 34.0975 37.2607 33.207C39.8798 29.3308 41.3465 25.0356 41.7655 20.3737C42.0798 17.2308 41.9227 14.1404 40.9798 11.1023C39.6703 6.91181 37.4179 3.45467 34.0131 0.678488C33.8036 0.521346 33.6464 0.364204 33.3322 0.1023C36.2131 -0.107223 38.8321 -0.0548417 41.4512 0.835633C46.6369 2.5642 50.3036 6.07372 52.9226 10.7356C54.3893 13.3023 55.4893 15.9737 56.2226 18.8546C56.275 18.9594 56.3273 19.1165 56.3797 19.2213C56.4321 19.2737 56.4845 19.2737 56.6416 19.4308C58.0559 15.0832 58.2131 10.8404 56.5893 6.388C56.8512 6.54514 57.0083 6.6499 57.1131 6.70228C60.6226 9.21657 62.3512 12.8308 63.2417 16.9165C63.975 20.5308 63.975 24.1451 63.5559 27.8118C63.3464 29.4356 63.1369 31.007 62.875 32.6308C62.8226 33.1022 62.6131 33.5213 62.456 33.9927C62.5083 34.0451 62.5607 34.0451 62.6131 34.0975C64.2892 32.4213 66.0178 30.7975 67.7988 29.0165C67.9035 29.9594 68.0607 30.7451 68.0607 31.4784C68.1131 34.3594 68.1655 37.2927 68.2178 40.1736C68.2702 42.8451 67.7988 45.4641 67.1178 47.9784C65.913 52.3784 63.1369 55.4688 59.2083 57.5641C54.2845 60.2355 49.0464 60.6022 43.7036 59.1879C42.1322 58.7688 40.5607 58.1403 39.0417 57.5641C36.2131 56.4641 33.4369 56.4117 30.6607 57.6688C28.0941 58.8212 25.4227 59.6069 22.6989 59.8688C12.8513 60.7593 3.99892 55.626 1.74655 45.1498C0.646548 40.0689 0.384618 34.9356 0.541761 29.7499C0.646522 25.8737 0.960833 21.9975 1.22274 18.1213C1.22274 17.1261 1.43222 16.0785 1.64175 14.8213ZM20.3417 48.9212C22.2798 48.9736 24.1132 48.5022 25.3179 47.5593C26.9417 46.2498 27.3084 44.3641 26.1036 42.6879C25.5274 41.8498 24.7417 41.1165 23.9036 40.5403C21.7036 39.0213 19.137 38.6022 16.4655 38.6546C15.156 38.707 13.8465 39.0213 12.6942 39.7546C10.7561 41.0117 10.2846 43.2117 11.6989 45.0451C12.2751 45.8308 13.0084 46.4593 13.7941 47.0355C15.7322 48.345 17.9846 48.8689 20.3417 48.9212ZM52.2941 38.4974C52.2941 38.5498 52.2941 38.6022 52.2941 38.6546C49.8322 38.6546 47.5274 39.3355 45.5369 40.7498C44.5417 41.4308 43.7036 42.2689 43.2321 43.4213C42.7083 44.7308 42.9179 46.0927 43.9655 46.9832C44.6988 47.5593 45.4845 48.1355 46.375 48.4498C49.2036 49.3403 51.9798 48.9212 54.6512 47.7165C56.2226 46.9831 57.5845 46.0403 58.4226 44.4689C58.9988 43.4213 59.0512 42.3213 58.475 41.326C57.8988 40.3308 57.1131 39.4927 55.9607 39.1784C54.8083 38.9165 53.5512 38.707 52.2941 38.4974Z" fill="#151515"/>
</svg>
