<svg width="61" height="60" viewBox="0 0 61 60" fill="none" xmlns="http://www.w3.org/2000/svg">
<path d="M16.5888 36.2715C14.3614 42.0626 12.1897 47.5753 10.018 53.1437C9.68392 53.9789 9.40547 54.7585 9.01568 55.5381C8.5702 56.3734 7.7906 56.8188 6.84396 56.7631C5.953 56.7075 5.22915 56.2063 4.95073 55.371C4.78368 54.8699 4.78368 54.2017 4.95073 53.7005C6.84401 46.8514 8.79298 39.9466 10.7976 33.0975C11.1317 31.8724 10.9646 30.7587 10.7419 29.5894C10.3521 27.4734 9.96233 25.3574 9.51686 23.2414C9.46117 23.0744 9.40547 22.8516 9.2941 22.5175C9.01568 23.0744 8.79297 23.5198 8.62591 23.9096C7.23379 26.8052 5.89733 29.7564 4.5609 32.652C4.44953 32.9304 4.28246 33.2088 4.05972 33.4873C3.44719 34.2668 2.61192 34.4896 1.83233 34.0998C0.885687 33.5986 0.440263 32.819 0.774372 31.8724C1.66533 29.1439 2.61197 26.4154 3.55861 23.6869C4.11546 22.1277 4.67225 20.6243 5.17342 19.0651C5.56321 17.8401 6.34282 17.0605 7.56789 16.6707C9.46117 16.0025 11.4101 15.4457 13.2477 14.6104C14.8069 13.9422 16.2547 12.9956 17.6468 12.0489C18.7048 11.325 18.6492 11.158 18.148 10.0443C17.1457 7.76128 16.0877 5.42255 15.0297 3.13951C14.3614 1.63604 14.9183 0.522362 16.4218 0.076891C17.1457 -0.145845 17.7582 0.132574 18.2037 0.689413C18.6491 1.24625 19.0389 1.91446 19.3174 2.58267C20.5981 5.08845 21.8232 7.64991 23.0483 10.2114C23.9392 12.1046 23.6608 13.5524 22.1573 15.0559C21.2106 16.0025 20.3197 17.0605 19.373 18.0071C19.1503 18.2299 18.8719 18.3969 18.5935 18.4526C17.2571 18.564 16.3104 19.2878 15.9206 20.5129C15.5308 21.5709 15.6422 22.7403 16.5888 23.6312C17.8695 24.8562 19.0947 26.137 20.3197 27.4177C20.8766 27.9745 21.0993 28.5871 21.322 29.311C22.1016 31.9838 22.8255 34.7123 23.7721 37.3294C24.9415 40.6148 24.9973 43.8445 23.6051 47.0741C22.4358 49.747 21.322 52.4198 20.1526 55.0926C19.9856 55.4824 19.7629 55.8165 19.4844 56.1506C18.6492 57.1529 17.7025 57.3757 16.6445 56.7631C15.5308 56.1506 15.141 55.1483 15.5865 53.9233C16.9229 50.2481 18.2037 46.6287 19.5401 42.9535C19.7072 42.5081 19.7072 42.1183 19.4288 41.6728C18.5378 40.1136 17.7025 38.5545 16.8672 36.9953C16.7559 36.6612 16.7002 36.4942 16.5888 36.2715Z" fill="#151515"/>
<path d="M31.5092 43.6779C31.3978 43.9006 31.2864 44.1234 31.2307 44.3461C29.7272 49.0792 28.2794 53.8124 26.776 58.5455C26.5532 59.3251 26.1078 59.9376 25.3282 59.9933C24.827 60.049 24.1588 59.7149 23.8804 59.3808C23.602 58.991 23.4905 58.3228 23.5462 57.7659C23.6576 56.5966 23.936 55.4272 24.1031 54.2022C24.827 49.6361 25.4952 45.1257 26.1634 40.5596C26.2748 39.8357 26.2191 39.1118 26.2191 38.3322C26.2191 36.2719 26.2748 34.2116 26.2748 32.0956C26.2748 31.4831 26.1634 30.9263 25.7179 30.4251C23.9917 28.6432 22.2655 26.917 20.595 25.1352C19.6483 24.1328 18.6459 23.1862 17.6993 22.1839C16.864 21.2373 17.1982 20.1236 18.4232 19.7338C18.7573 19.6224 19.1472 19.6781 19.4813 19.8452C19.9267 20.0679 20.3165 20.4577 20.7063 20.8475C22.2098 22.1839 23.7133 23.5203 25.2168 24.9124C26.1077 25.7477 27.1101 25.9704 28.3352 25.859C30.5625 25.692 32.7899 25.692 35.0173 25.859C36.3538 25.9704 37.3561 25.6363 38.247 24.801C39.4164 23.6874 40.5858 22.5737 41.7552 21.46C42.3677 20.9032 43.0359 20.3463 43.7041 19.8452C44.3724 19.3997 44.8735 19.5111 45.486 20.1236C46.0986 20.7361 46.1543 21.1816 45.7088 21.8498C45.486 22.1839 45.2633 22.4623 44.9849 22.7407C42.8131 24.9124 40.6415 27.0841 38.4698 29.2558C38.1357 29.5899 37.8016 29.924 37.5231 30.2581C37.022 30.8149 36.7435 31.4831 36.7992 32.2627C36.8549 32.7082 36.7992 33.2093 36.7992 33.6548C36.5765 37.6084 37.189 41.5619 37.8016 45.4598C38.4698 49.469 39.0266 53.534 39.6391 57.5989C39.7505 58.3228 39.8619 59.0467 39.138 59.5478C38.1356 60.2717 36.9663 59.9376 36.5208 58.7126C36.0753 57.5989 35.7412 56.3738 35.4071 55.2602C34.2377 51.6407 33.124 48.0212 31.9547 44.4575C31.8433 44.1791 31.7876 43.9006 31.7319 43.6222C31.6205 43.7336 31.5648 43.6779 31.5092 43.6779Z" fill="#151515"/>
<path d="M41.1997 19.8474C40.977 19.0679 40.8099 18.2883 40.5872 17.5087C40.3645 16.7848 40.086 16.5064 39.3064 16.5621C38.6382 16.6178 38.0257 16.6734 37.4131 16.7848C35.6869 17.0632 34.4618 16.5621 33.5709 15.0029C32.4015 12.8869 31.3435 10.7153 30.2298 8.59928C29.84 7.81971 29.3945 7.09581 29.0604 6.31624C28.5592 5.20256 28.9491 4.31161 30.0071 3.81046C30.9537 3.3093 31.789 3.53204 32.4015 4.59003C33.5152 6.4276 34.5732 8.32086 35.6312 10.2141C35.7426 10.4368 35.9096 10.7153 36.0767 10.938C36.7449 11.996 37.1347 12.1631 38.3598 11.6619C39.1951 11.3278 40.0303 10.9937 40.8099 10.6039C43.4271 9.37885 46.0443 9.37886 48.6615 10.5482C49.6081 10.938 50.4991 11.3835 51.4457 11.7176C52.5594 12.1074 52.8379 12.0517 53.3947 11.0494C54.5084 9.15612 55.5664 7.26286 56.68 5.36961C56.8471 5.03551 57.0699 4.7014 57.2926 4.3673C57.9609 3.53204 58.7961 3.36499 59.7427 3.92183C60.578 4.42298 60.9678 5.36961 60.5223 6.26055C59.9655 7.42992 59.4086 8.48791 58.7961 9.65727C57.9051 11.4392 57.0142 13.1654 56.0675 14.8916C55.2323 16.4507 54.0629 17.0076 52.3367 16.8405C51.8355 16.7848 51.2786 16.7291 50.7775 16.7291C49.7195 16.7291 49.3297 17.0632 49.441 18.0655C49.6081 19.2906 49.8865 20.5713 50.2763 21.7407C50.6104 22.743 51.0559 23.6896 51.6127 24.6363C53.0605 27.0307 54.0629 29.5364 55.0095 32.1536C55.455 33.323 56.1789 34.4366 56.7358 35.606C56.8472 35.8287 57.0698 36.2742 56.9585 36.3856C56.7914 36.6083 56.4016 36.7197 56.1232 36.7197C53.6174 36.8867 51.1116 36.6083 48.7172 35.8844C45.5988 34.9378 42.7589 35.3833 39.9746 36.8867C39.8076 36.9981 39.6406 37.1095 39.4735 37.1095C39.2508 37.1651 38.8609 37.2208 38.8052 37.1095C38.6939 36.9424 38.6382 36.6083 38.6939 36.3856C39.3064 34.4366 40.0303 32.5434 40.6429 30.5944C40.9213 29.6478 41.3111 28.8682 42.035 28.2C43.5385 26.6966 45.0419 25.1374 46.6011 23.6896C48.216 22.1305 47.6592 19.7918 45.9329 18.7894C44.8192 18.1212 43.3157 18.2883 42.3134 19.2349C41.9793 19.5133 41.7566 19.9031 41.5338 20.2372C41.3668 20.0145 41.2554 19.9031 41.1997 19.8474Z" fill="#151515"/>
<path d="M44.5449 36.7188C44.5449 39.1688 44.4336 41.5076 44.4892 43.902C44.5449 45.127 44.879 46.3521 45.1018 47.5771C45.2688 48.3567 45.2688 49.1363 44.5449 49.6931C43.2642 50.8068 41.6493 50.417 41.1482 48.7465C40.647 47.0203 40.2015 45.2384 39.8674 43.4565C39.589 42.0644 39.5332 40.6166 39.4219 39.2245C39.4219 39.0018 39.589 38.612 39.756 38.5006C41.4266 37.8881 42.9857 37.3313 44.5449 36.7188Z" fill="#151515"/>
<path d="M44.818 8.98349C42.3678 8.98349 40.5859 7.14592 40.5859 4.69583C40.5859 2.41279 42.4792 0.519531 44.7623 0.519531C47.2124 0.519531 48.9943 2.3571 48.9943 4.80719C48.9943 7.03455 47.0454 8.98349 44.818 8.98349Z" fill="#151515"/>
<path d="M9.56913 6.20312C11.9079 6.20312 13.8012 8.0407 13.8012 10.3237C13.8012 12.7181 11.9636 14.5557 9.51346 14.5557C7.23038 14.5557 5.28142 12.6068 5.3371 10.3237C5.3371 8.09638 7.28606 6.20312 9.56913 6.20312Z" fill="#151515"/>
<path d="M47.2148 37.1055C48.8297 37.3839 50.4446 37.6623 52.1151 37.9964C52.1151 38.0521 52.1708 38.1635 52.1708 38.3305C51.9481 41.4488 52.672 44.4557 53.6743 47.3513C54.0641 48.5207 53.897 49.1332 52.9504 49.8014C51.8924 50.6367 50.5559 50.4139 49.9991 49.1332C49.3309 47.6297 48.7183 46.1263 48.3285 44.5671C47.8274 42.5068 47.6604 40.3351 47.3263 38.2748C47.3263 37.9407 47.2705 37.6066 47.2148 37.1055Z" fill="#151515"/>
<path d="M35.072 21.5179C35.072 23.4111 33.4571 24.9703 31.5082 24.9703C29.7263 24.9703 28 23.2441 28 21.4622C28 19.6803 29.7263 17.8984 31.5082 17.8984C33.4571 17.9541 35.072 19.569 35.072 21.5179Z" fill="#151515"/>
</svg>
