<svg width="62" height="60" viewBox="0 0 62 60" fill="none" xmlns="http://www.w3.org/2000/svg">
<path d="M0.190165 56.1616C0.231902 56.2868 0.27366 56.4537 0.315397 56.579C1.44231 50.8607 2.56919 45.1843 3.73784 39.466C3.40394 39.466 3.07002 39.466 2.77786 39.466C2.19354 39.4243 1.94312 39.0904 2.11007 38.5478C2.40223 37.6295 2.69443 36.7113 3.02833 35.793C3.40396 34.7913 3.52916 33.7895 3.48743 32.7461C3.44569 29.24 3.4457 25.7757 3.4457 22.2696C3.4457 21.6435 3.57091 20.934 3.86307 20.3914C4.40566 19.2644 5.44907 18.7636 6.65946 18.7636C8.4959 18.7218 10.3323 18.7636 12.1688 18.7636C13.087 18.7636 14.047 19.2644 14.5478 19.974C13.88 20.1409 13.2122 20.2662 12.5444 20.4331C12.5444 20.4749 12.5444 20.5166 12.5444 20.5166C12.8783 20.5583 13.1705 20.5583 13.5044 20.6001C14.2557 20.6418 15.0069 20.6418 15.7164 20.7253C16.0921 20.767 16.3425 20.6836 16.5095 20.3079C17.2607 18.8053 18.0537 17.3444 18.8467 15.8836C19.1806 15.2575 19.6398 14.7149 20.3911 14.5479C21.7684 14.214 23.1457 15.5497 22.7701 16.9271C22.6866 17.261 22.5614 17.5949 22.3944 17.887C21.4345 19.7236 20.4745 21.6018 19.5146 23.4383C18.9303 24.5653 18.0955 25.1079 16.8017 24.9409C15.5495 24.774 14.2974 24.7322 13.0453 24.607C12.7949 24.607 12.5444 24.607 12.2523 24.7322C12.9618 24.9409 13.6296 25.1496 14.3391 25.3583C15.2156 25.6087 15.2156 25.567 15.2156 26.527C15.1739 29.0313 15.1739 31.5356 15.1739 34.04C15.1739 34.5408 15.3408 35.0835 15.5078 35.5843C15.7999 36.5026 16.0921 37.4208 16.3843 38.3391C16.6764 39.2156 16.4677 39.466 15.5913 39.5495C15.5495 39.5495 15.5078 39.5912 15.3826 39.5912C15.4243 39.7582 15.5078 39.9252 15.5495 40.0921C15.9669 41.2608 16.4678 42.346 16.8017 43.5564C17.219 45.059 17.5112 46.5616 17.7616 48.106C18.2207 51.0694 18.5963 54.0329 18.972 56.9963C19.1807 58.4989 18.2207 59.7094 16.7182 59.9598C15.466 60.1685 14.2139 59.2085 14.0052 57.8311C13.6296 55.7024 13.3375 53.6155 13.0453 51.4868C12.7949 49.7755 12.6279 48.106 12.3775 46.3947C12.2522 45.6434 11.9601 44.9338 11.7097 44.2243C11.2088 42.8051 10.6663 41.4278 10.1654 40.0086C9.99846 39.5078 9.66457 39.5912 9.28893 39.5912C8.91329 39.5912 8.91329 39.8834 8.87156 40.1339C8.32897 42.7634 7.8281 45.3929 7.28552 47.9808C6.65946 51.1112 5.99167 54.2416 5.36561 57.3303C5.28213 57.8311 5.11515 58.332 4.86473 58.7494C4.36388 59.5841 3.57087 60.0433 2.56917 59.9598C1.52574 59.8763 0.816225 59.2502 0.398852 58.332C0.315377 58.165 0.231912 57.9981 0.148438 57.8311C0.190175 57.205 0.190165 56.7042 0.190165 56.1616Z" fill="#151515"/>
<path d="M46.4347 37.418C46.3513 38.7119 46.3095 39.9223 46.226 41.1745C46.1426 42.7188 46.1426 44.2632 46.0174 45.7658C45.9339 46.4753 45.6417 47.1849 45.3913 47.8944C44.4313 50.2736 43.4714 52.6527 42.5114 55.0318C42.094 56.0753 41.6766 57.1187 41.1758 58.1205C40.9254 58.6213 40.5497 59.0805 40.1323 59.4144C39.2559 60.0822 38.2542 60.0404 37.2942 59.3726C36.376 58.7465 36.0004 57.7448 36.2925 56.7013C36.5012 56.0335 36.7934 55.3657 37.0438 54.7396C38.2125 51.8596 39.4229 49.0214 40.5915 46.1414C40.8419 45.5571 40.9254 44.931 40.9671 44.3049C41.0923 41.9258 41.1758 39.5049 41.301 37.1258C41.301 36.8336 41.4262 36.4997 41.5932 36.2493C44.2226 32.6598 46.8521 29.112 49.4815 25.5224C49.5233 25.4807 49.565 25.4389 49.6485 25.3555C50.0659 25.7729 50.4415 26.1902 50.8172 26.6076C51.4432 27.2337 52.0275 27.8598 52.9457 28.0685C53.071 28.1102 53.2379 28.3607 53.2379 28.5276C53.2379 31.1989 53.2379 33.8285 53.2379 36.4997C53.2379 36.9589 53.3214 37.418 53.4466 37.8771C54.0726 39.6302 54.8239 41.3414 55.3248 43.1362C55.7839 44.7223 56.0343 46.3918 56.2847 48.0614C56.7021 50.7327 57.036 53.404 57.3699 56.0753C57.4116 56.4509 57.4534 56.7848 57.4951 57.1605C57.6203 58.4961 56.7021 59.7065 55.3248 59.957C54.1561 60.2074 52.737 59.3309 52.4449 58.0787C52.1527 56.7848 51.9858 55.4074 51.8188 54.1135C51.4432 51.2753 51.151 48.4371 50.6502 45.6405C50.3998 44.2632 49.7737 42.9275 49.2728 41.5919C48.8555 40.4232 48.3964 39.2545 48.0207 38.0858C47.8538 37.5432 47.5616 37.2928 47.019 37.4597C46.8521 37.418 46.6852 37.418 46.4347 37.418Z" fill="#151515"/>
<path d="M48.022 23.3963C45.7682 26.485 43.5561 29.5319 41.2606 32.7041C41.2606 32.1615 41.2606 31.7858 41.2606 31.3684C41.2606 28.1545 41.2606 24.9406 41.2606 21.7267C41.2606 21.2259 41.2188 20.7668 41.344 20.2659C41.6779 18.8885 42.9301 17.8868 44.4326 17.8868C46.2273 17.845 48.022 17.845 49.8168 17.8868C50.4428 17.8868 51.0271 18.1372 51.7784 18.3042C51.2775 19.0137 51.0271 19.8068 50.0672 19.8902C51.1106 20.5163 52.1123 21.1424 53.1557 21.7267C53.281 21.8102 53.5313 21.7267 53.6983 21.6015C55.2426 20.6415 56.7451 19.6398 58.2477 18.6381C59.4163 17.8868 60.7102 18.2207 61.2528 19.4311C61.5867 20.1824 61.5032 20.9337 60.9606 21.5598C60.7102 21.852 60.3763 22.1024 60.0424 22.3111C58.2477 23.5215 56.453 24.6485 54.7 25.8589C53.7818 26.485 52.947 26.5267 52.0288 25.9006C50.6515 25.0659 49.3159 24.2311 48.022 23.3963Z" fill="#151515"/>
<path d="M30.9083 17.0075C30.3239 19.2197 29.0719 20.1797 26.818 20.1797C25.6494 20.1797 24.4807 20.1797 23.3121 20.1797C23.1451 20.1797 23.0199 20.138 22.7695 20.138C23.0616 19.5953 23.3121 19.0945 23.6042 18.6354C23.6877 18.5519 23.8964 18.5101 24.0633 18.5101C25.065 18.5101 26.1085 18.5101 27.1102 18.5101C28.1536 18.5101 28.9049 17.9675 29.2805 17.0493C27.611 17.0493 25.9833 17.0493 24.3555 17.0493C24.2721 16.4649 24.1886 15.9223 24.1051 15.338C25.6911 15.338 27.2771 15.338 28.9884 15.338C28.8214 15.1293 28.7797 14.9206 28.6544 14.8789C28.1953 14.7119 27.6945 14.4615 27.1936 14.4615C26.2337 14.4197 25.232 14.5032 24.2303 14.4615C23.9381 14.4615 23.5208 14.3363 23.3121 14.1276C22.1852 12.8754 19.5974 12.8754 18.4288 14.2528C18.3036 14.378 18.0532 14.5032 17.8445 14.5032C16.8845 14.5032 15.9246 14.5032 14.9229 14.4615C14.589 14.4615 14.3803 14.5449 14.2133 14.8789C13.2534 16.5484 11.3752 17.5084 9.49703 17.2162C7.70233 16.9658 6.11628 15.5049 5.65717 13.7102C5.53195 13.251 5.61542 13.0424 6.11627 12.9171C8.74572 12.2076 11.3335 11.4563 13.9212 10.705C14.2551 10.6215 14.422 10.6632 14.5055 10.9971C14.6307 11.5815 14.7559 12.1241 14.9229 12.7919C15.0481 12.7919 15.215 12.8337 15.4237 12.8337C19.2636 12.8337 23.1034 12.8337 26.9432 12.8337C28.6545 12.8337 29.99 13.4597 30.7413 15.0876C30.8248 15.2545 31.0752 15.3797 31.2839 15.4215C31.7848 15.4632 32.2856 15.4215 32.7865 15.4632C33.5795 15.5467 34.2472 15.338 34.915 14.8789C35.4994 14.4615 36.1672 14.0858 36.7932 13.6684C37.2941 13.3763 37.628 13.5015 37.7532 14.0858C37.7949 14.4197 37.7949 14.7536 37.7949 15.1293C37.7949 16.0058 37.8367 16.8823 37.7949 17.7588C37.7949 18.0093 37.7115 18.2597 37.5862 18.4684C37.4193 18.7606 37.1689 18.8441 36.835 18.6354C36.1255 18.1762 35.4577 17.7171 34.7481 17.2997C34.456 17.1328 34.0803 17.0493 33.7464 17.0075C32.8699 16.9658 31.9934 17.0075 31.117 17.0075C30.9917 16.9658 30.9917 16.9658 30.9083 17.0075Z" fill="#151515"/>
<path d="M48.6883 3.98564C48.4797 3.10913 48.2292 2.31609 48.0623 1.52305C47.9371 0.980445 48.1875 0.563057 48.6466 0.437841C49.064 0.312624 49.4814 0.521319 49.6483 1.02219C49.857 1.64827 50.024 2.31609 50.1909 2.94217C50.2744 3.27608 50.4413 3.52651 50.817 3.65173C51.1091 3.77695 51.443 4.1526 51.4848 4.44477C51.6517 5.61346 51.7352 6.78215 51.8186 7.95083C51.8186 8.07605 51.6517 8.32648 51.5265 8.36822C48.8136 9.16126 46.0589 9.91256 43.346 10.7056C43.0121 10.7891 42.8451 10.7473 42.7199 10.4552C42.2608 9.45343 41.76 8.49344 41.3008 7.53344C40.9252 6.74041 41.1339 6.32302 41.9686 6.03085C42.7199 5.78041 43.5129 5.52998 44.3059 5.32128C45.5998 4.94563 46.8937 4.61172 48.1875 4.23607C48.3127 4.11086 48.4797 4.02738 48.6883 3.98564Z" fill="#151515"/>
<path d="M13.9642 9.0382C13.839 9.12168 13.672 9.28863 13.4634 9.33037C11.4182 9.91472 9.33134 10.4991 7.28621 11.0417C6.70188 11.2086 6.0758 11.3756 5.49148 11.5843C5.15758 11.7095 4.99064 11.6677 4.82369 11.3338C4.36458 10.3738 3.9055 9.41385 3.44639 8.45386C3.11249 7.70256 3.27943 7.15995 4.11418 6.95126C6.82711 6.15822 9.58176 5.36518 12.2947 4.61388C12.9208 4.44693 13.4633 4.82258 13.5468 5.44866C13.7138 6.57561 13.839 7.70256 13.9642 9.0382Z" fill="#151515"/>
<path d="M47.9365 16.4673C45.7661 16.3839 43.7627 14.7143 43.3454 12.6274C43.2619 12.2934 43.3871 12.1265 43.721 12.043C46.3922 11.2917 49.1051 10.5404 51.7763 9.78912C52.0684 9.70564 52.1937 9.78912 52.2772 10.0395C53.1119 12.1682 52.2771 14.9647 49.8981 15.9247C49.272 16.1334 48.6043 16.2586 47.9365 16.4673Z" fill="#151515"/>
<path d="M57.246 17.5938C57.1625 17.1347 57.079 16.759 56.9956 16.3834C56.2026 12.9191 55.4096 9.41301 54.6166 5.94868C54.4079 5.03043 54.2409 4.11217 54.0322 3.23566C53.9905 2.98522 53.8235 2.73479 53.6149 2.56784C52.9888 1.98349 52.8636 1.23219 53.3227 0.606112C53.7818 0.0217679 54.5331 -0.186926 55.1591 0.188723C55.9104 0.647851 56.1191 1.31567 55.7852 2.10871C55.7017 2.3174 55.6183 2.56784 55.66 2.77653C56.62 7.11737 57.6217 11.4582 58.5816 15.7991C58.6651 16.133 58.8738 16.5504 58.7486 16.8425C58.6651 17.0512 58.206 17.1347 57.9138 17.2599C57.7051 17.3434 57.4964 17.4686 57.246 17.5938Z" fill="#151515"/>
<path d="M58.7891 24.8574C59.2899 24.5235 59.7907 24.1479 60.3333 23.7305C60.4585 24.2731 60.5838 24.7739 60.709 25.2748C60.9594 26.4018 61.2098 27.5704 61.4603 28.6974C61.5855 29.3652 61.4185 29.7826 60.8759 29.9496C60.3751 30.1165 59.9994 29.8243 59.8325 29.1565C59.5403 27.9878 59.2899 26.8191 58.9977 25.6505C58.956 25.4 58.8725 25.1496 58.7891 24.8574Z" fill="#151515"/>
</svg>
