<svg width="53" height="60" viewBox="0 0 53 60" fill="none" xmlns="http://www.w3.org/2000/svg">
<path d="M49.4309 0.410156C49.5725 0.480944 49.7494 0.587126 49.891 0.657913C50.5281 1.01185 50.8112 1.54275 50.8466 2.21523C50.8466 4.76357 50.882 7.27652 50.8466 9.82486C50.7758 12.3732 49.5371 14.2491 47.2365 15.3109C44.9713 16.3727 42.7415 16.0541 40.7594 14.5322C40.5471 14.3906 40.3701 14.2137 40.1578 14.0367C38.919 15.2401 37.4678 15.9126 35.6981 15.9126C33.9639 15.9126 32.4773 15.2401 31.2032 14.0367C29.9644 15.2755 28.4779 15.9126 26.7082 15.9126C24.9385 15.9126 23.5227 15.1693 22.2131 14.0013C20.9744 15.2401 19.5232 15.8772 17.7889 15.9126C16.0546 15.9126 14.5682 15.2401 13.3294 14.0367C12.9755 14.2845 12.6569 14.5676 12.3029 14.8154C8.5158 17.3637 3.48996 15.2401 2.7113 10.7451C2.60512 10.2142 2.6051 9.6479 2.6051 9.11699C2.6051 7.09955 2.64049 5.11751 2.6051 3.10007C2.56971 1.89669 2.7821 0.870273 4.05627 0.410156C19.1694 0.410156 34.3178 0.410156 49.4309 0.410156Z" fill="#151515"/>
<path d="M4.8353 45.6794C3.95046 45.6794 3.1718 45.6794 2.35774 45.6794C1.40211 45.644 0.658865 45.0423 0.517291 44.2282C0.375716 43.2018 1.11897 42.2816 2.18077 42.2462C2.6055 42.2108 3.03017 42.2462 3.45489 42.2462C19.2051 42.2462 34.9907 42.2462 50.7408 42.2462C51.7672 42.2462 52.4043 42.6355 52.6875 43.4142C53.0414 44.4406 52.369 45.5732 51.3071 45.6794C50.5993 45.7502 49.856 45.7148 49.1481 45.7148C48.9711 45.7148 48.7587 45.7502 48.5818 45.7502C48.5818 46.0687 48.5818 46.3873 48.5818 46.6704C48.5818 50.3513 48.6172 53.9969 48.6172 57.6778C48.6172 58.8458 47.8385 59.5891 46.6351 59.5891C42.3171 59.5891 37.9991 59.5891 33.7164 59.5891C24.7973 59.5891 15.8427 59.5891 6.92349 59.5891C5.79089 59.5891 5.08303 59.0936 4.90607 58.1733C4.87067 57.9964 4.87064 57.784 4.87064 57.607C4.87064 53.8553 4.87064 50.1036 4.87064 46.3519C4.83524 46.0687 4.8353 45.9271 4.8353 45.6794ZM26.6731 52.5811C31.0974 52.5811 35.4861 52.5811 39.9103 52.5811C40.866 52.5811 41.68 51.8025 41.68 50.8822C41.68 49.962 40.9014 49.148 39.9458 49.148C39.2025 49.1126 38.4592 49.148 37.7159 49.148C29.9293 49.148 22.1427 49.148 14.3561 49.148C14.0022 49.148 13.6837 49.148 13.3298 49.148C12.5511 49.1834 11.8432 49.8558 11.7724 50.6345C11.6308 51.6609 12.4095 52.5811 13.4713 52.5811C17.8955 52.5811 22.2843 52.5811 26.6731 52.5811Z" fill="#151515"/>
<path d="M27.2733 31.3427C30.3172 31.5551 32.8301 32.8293 34.7768 35.1652C35.6616 36.1917 36.2634 37.395 36.6881 38.74C30.0341 38.74 23.4509 38.74 16.7969 38.74C17.434 36.6518 18.6019 34.9883 20.2654 33.6433C21.9289 32.263 23.8755 31.5551 26.0346 31.3427C24.3357 31.0242 22.9199 30.2455 21.8935 28.8298C20.8671 27.414 20.5839 25.8213 20.9025 24.1578C21.4334 21.1848 24.2295 19.1673 27.3088 19.4151C30.2464 19.6274 32.6532 22.1404 32.724 25.1488C32.8302 28.3697 30.388 31.0242 27.2733 31.3427Z" fill="#151515"/>
<path d="M4.86719 18.6719C6.03518 18.955 7.16779 19.2028 8.33578 19.4859C8.33578 19.7691 8.33578 20.123 8.33578 20.5123C8.33578 26.2107 8.33578 31.8737 8.33578 37.5721C8.33578 38.7755 8.33576 38.7401 7.16777 38.7401C6.42451 38.7401 5.64585 38.7401 4.86719 38.7401C4.86719 32.0507 4.86719 25.3613 4.86719 18.6719Z" fill="#151515"/>
<path d="M48.5792 18.6719C48.5792 18.955 48.5792 19.2736 48.5792 19.6275C48.5792 25.6798 48.5792 31.7675 48.5792 37.8198C48.5792 37.9968 48.5792 38.1384 48.5792 38.3153C48.5792 38.6339 48.4731 38.7401 48.1192 38.7401C47.2697 38.7047 46.4556 38.7047 45.6062 38.7401C45.2169 38.7755 45.0753 38.6693 45.1107 38.2799C45.1461 36.8996 45.1107 35.5192 45.1107 34.1389C45.1107 29.3608 45.1107 24.5826 45.1107 19.8045C45.1107 19.5567 45.1107 19.3797 45.4292 19.3444C46.491 19.132 47.5174 18.9196 48.5792 18.6719Z" fill="#151515"/>
</svg>
