<svg width="56" height="56" viewBox="0 0 56 56" fill="none" xmlns="http://www.w3.org/2000/svg">
<path d="M27.3314 55.4475C27.1334 55.4475 26.9354 55.4475 26.7869 55.4475C20.2529 55.4475 13.719 55.4475 7.18506 55.4475C5.00708 55.4475 3.1261 54.6555 1.78962 52.923C0.849127 51.6855 0.453125 50.25 0.453125 48.666C0.453125 35.7466 0.453125 22.8272 0.453125 9.95722C0.453125 5.79924 3.07661 3.07675 7.28406 2.92825C8.32355 2.87875 9.36304 2.92825 10.4025 2.92825C10.749 2.92825 10.947 3.07675 11.0955 3.37375C13.719 8.67022 16.3425 13.9172 19.0154 19.2137C19.2134 19.6097 19.5104 20.0057 19.8569 20.3522C20.2529 20.6987 20.6984 20.7482 21.0944 20.3522C21.4904 20.0057 21.7379 20.1047 22.0349 20.5007C22.5794 21.2927 23.2229 22.0847 23.7674 22.8766C23.9654 23.1736 24.0644 23.5696 24.0644 23.8666C23.7674 25.8466 23.4704 27.8761 23.1239 29.8561C22.4309 34.4101 21.6884 38.9641 20.9954 43.518C20.8469 44.508 20.5994 45.498 20.5499 46.488C20.5004 46.8345 20.6489 47.3295 20.8964 47.577C22.9259 50.2005 25.1039 52.7745 27.3314 55.4475Z" fill="#151515"/>
<path d="M28.5234 55.4489C30.4044 53.5184 32.2854 51.6374 34.1664 49.7564C34.9089 49.014 35.6514 48.2715 36.4434 47.4795C36.7899 47.133 36.8888 46.737 36.7403 46.1925C35.7008 41.3415 34.6614 36.4905 33.6219 31.6395C33.0774 29.0656 32.5329 26.5411 31.9884 23.9671C31.8894 23.5216 31.9389 23.1256 32.2359 22.7791C32.8299 21.9871 33.4239 21.1951 34.0179 20.3536C34.2654 20.0566 34.4634 20.0071 34.8099 20.2546C35.5029 20.7496 36.0474 20.6506 36.5424 19.9081C36.8394 19.4626 37.0374 19.0171 37.2849 18.5716C39.8093 13.5721 42.2843 8.57266 44.7593 3.57319C45.0068 3.07819 45.2543 2.92969 45.7988 2.92969C47.3827 3.02869 49.0162 2.78119 50.6002 3.22669C53.5207 4.01868 55.5007 6.54317 55.5007 9.61215C55.5007 17.2351 55.5007 24.8086 55.5007 32.4315C55.5007 37.827 55.5007 43.173 55.5007 48.5685C55.5007 52.7264 52.7287 55.4984 48.5707 55.4984C42.0863 55.4984 35.6514 55.4984 29.1669 55.4984C28.9194 55.4489 28.7214 55.4489 28.5234 55.4489ZM44.1158 29.2636C45.6503 29.2636 47.1847 29.2636 48.7192 29.2636C48.9667 29.2636 49.2142 29.2636 49.4617 29.2141C50.0557 29.1151 50.5012 28.6696 50.5012 28.1746C50.5012 27.7786 50.2042 27.2836 49.9072 26.9866C49.7092 26.7886 49.2637 26.7391 48.9172 26.7391C45.7493 26.7391 42.5318 26.7391 39.3638 26.7391C38.5223 26.7391 37.8789 27.3331 37.8789 28.0261C37.8789 28.7191 38.5223 29.2636 39.3143 29.2636C40.8983 29.2636 42.4823 29.2636 44.1158 29.2636Z" fill="#151515"/>
<path d="M28.023 52.177C26.439 50.296 24.855 48.415 23.3205 46.534C23.1225 46.2865 23.1225 45.8905 23.172 45.544C23.568 42.9206 24.0135 40.2971 24.4095 37.6736C25.1025 33.4661 25.746 29.2586 26.439 25.0512C26.4885 24.8037 26.4885 24.5067 26.4885 24.1602C27.3795 24.1602 28.221 24.1602 29.0625 24.1602C29.211 24.1602 29.3595 24.4572 29.409 24.6552C29.8545 26.6846 30.3 28.7141 30.7454 30.7436C31.7849 35.6936 32.8244 40.6931 33.8639 45.643C33.9134 45.8905 33.8639 46.2865 33.6659 46.4845C31.8344 48.3655 29.9535 50.2465 28.0725 52.078C28.122 52.177 28.0725 52.177 28.023 52.177Z" fill="#151515"/>
<path d="M27.9778 8.81596C24.8594 6.04397 21.7409 3.32149 18.5234 0.5C24.8594 0.5 31.0468 0.5 37.4322 0.5C34.2148 3.32149 31.0963 6.04397 27.9778 8.81596Z" fill="#151515"/>
<path d="M35.1533 16.8849C33.3218 14.7564 31.5893 12.7269 29.7578 10.6479C30.7973 9.70739 31.8863 8.7669 32.9258 7.8264C35.2028 5.84641 37.4302 3.86642 39.7072 1.88643C40.0537 1.58943 40.3012 1.49043 40.6972 1.73793C41.0437 1.98543 41.4397 2.18343 41.8357 2.33193C42.2317 2.52993 42.2317 2.72793 42.0337 3.12393C39.8062 7.5294 37.5787 11.9349 35.3512 16.3404C35.3017 16.4889 35.2523 16.6374 35.1533 16.8849Z" fill="#151515"/>
<path d="M26.1958 10.6043C24.3148 12.7823 22.5824 14.8118 20.8004 16.8908C20.5529 16.4453 20.3549 16.0988 20.2064 15.7523C18.0779 11.5448 15.9989 7.33732 13.8704 3.12984C13.6724 2.73384 13.7714 2.58534 14.1179 2.43684C14.6129 2.18934 15.0089 1.89234 15.5039 1.69434C15.6524 1.64484 15.9494 1.69434 16.0979 1.84284C18.2264 3.67434 20.3054 5.55532 22.4339 7.43631C23.5229 8.37681 24.6118 9.36681 25.7008 10.3073C25.7998 10.3568 25.9978 10.4558 26.1958 10.6043Z" fill="#151515"/>
<path d="M27.9256 16.6924C28.9651 16.6924 30.0046 16.6924 31.0441 16.6924C31.3906 16.6924 32.4796 17.4844 32.4796 17.8309C32.4796 17.9794 32.4301 18.1279 32.3311 18.2764C31.5391 19.3159 30.7966 20.3554 29.9551 21.3454C29.7571 21.5434 29.4106 21.6919 29.1136 21.6919C28.2721 21.7414 27.3811 21.7414 26.5396 21.6919C26.2921 21.6919 25.9951 21.5434 25.8466 21.3454C25.0051 20.3059 24.2131 19.2664 23.4212 18.1774C23.3222 18.0784 23.3716 17.7814 23.4706 17.6329C23.9656 16.9399 24.6091 16.5934 25.5001 16.6924C26.3416 16.7419 27.1336 16.6924 27.9256 16.6924Z" fill="#151515"/>
<path d="M27.9264 12.5312C28.4709 13.1252 28.9164 13.6202 29.4114 14.2142C28.4214 14.2142 27.4809 14.2142 26.4414 14.2142C26.9859 13.6202 27.4314 13.0757 27.9264 12.5312Z" fill="#151515"/>
</svg>
