<svg width="36" height="60" viewBox="0 0 36 60" fill="none" xmlns="http://www.w3.org/2000/svg">
<path d="M17.8183 26.6007C12.9989 26.6007 8.17947 26.5694 3.36004 26.6007C2.13954 26.6007 0.512198 25.7245 0.230543 23.8468C0.199248 23.5651 0.167969 23.3148 0.167969 23.0331C0.167969 17.5252 0.167969 12.0173 0.167969 6.47806C0.167969 4.85072 1.16938 3.47374 2.64024 3.16079C2.98449 3.0982 3.36002 3.06691 3.73556 3.06691C5.61326 3.06691 7.49096 3.0982 9.36866 3.0982C9.65031 3.0982 9.77552 3.00432 9.86941 2.75396C10.0259 2.28453 10.2136 1.8464 10.4327 1.37698C10.8082 0.438129 11.528 0 12.5295 0C16.0032 0 19.4769 0 22.9507 0C24.046 0 24.8284 0.500719 25.2665 1.53345C25.4543 1.94029 25.6108 2.37842 25.7672 2.78525C25.8611 3.00432 25.955 3.0982 26.2367 3.0982C28.1456 3.06691 30.0859 3.0982 31.9949 3.03561C34.1543 2.97302 35.5 4.69424 35.5 6.54065C35.5 12.1112 35.5 17.6817 35.5 23.2522C35.5 25.2863 33.81 26.5694 32.1827 26.5694C27.3946 26.5694 22.6064 26.6007 17.8183 26.6007ZM25.642 14.7086C25.8924 10.3899 22.0431 6.79101 17.7244 6.79101C13.5309 6.79101 9.93197 10.6716 9.99456 14.7399C10.0571 19.3403 13.9065 22.4698 17.8496 22.5011C22.1057 22.5637 25.8924 18.6518 25.642 14.7086Z" fill="#151515"/>
<path d="M14.0011 34.078C13.4691 34.078 12.9997 34.078 12.5303 34.078C11.8731 34.078 11.435 33.6711 11.435 33.0452C11.4037 32.0438 11.4349 31.0423 11.4036 30.0409C11.4036 29.6341 11.4036 29.2272 11.4036 28.7891C11.5601 28.7891 11.7479 28.7578 11.9044 28.7578C15.9101 28.7578 19.9159 28.7578 23.9216 28.7578C24.2033 28.7578 24.2972 28.8517 24.2972 29.1334C24.2659 29.9783 24.2972 30.792 24.2659 31.6369C24.2659 31.9186 24.3598 31.9812 24.6101 31.9812C25.5177 31.9812 26.4252 31.9812 27.3328 31.9812C28.0213 31.9812 28.522 32.4193 28.522 33.0452C28.522 33.6398 28.0526 34.1092 27.3641 34.1092C25.549 34.1092 23.7339 34.1092 21.9188 34.1092C21.7623 34.1092 21.6058 34.1092 21.3867 34.1092C21.5119 34.3596 21.6058 34.5474 21.6997 34.7351C25.0795 40.9316 28.4594 47.128 31.8393 53.3244C32.6216 54.7326 33.3727 56.1409 34.1551 57.5492C34.5932 58.3941 34.4993 59.0826 33.8734 59.6146C33.1849 60.2092 32.1522 60.1154 31.6202 59.333C31.2447 58.7697 30.9317 58.1751 30.6188 57.5805C27.0824 51.0711 23.5148 44.5618 19.9785 38.0524C19.7907 37.7082 19.6029 37.3326 19.4152 36.9571C19.3839 36.9571 19.3526 36.9571 19.3213 36.9571C19.29 37.0823 19.2587 37.1762 19.2587 37.3013C19.29 39.2729 19.3526 41.2132 19.3526 43.1848C19.3839 47.7539 19.3839 52.3542 19.4152 56.9233C19.4152 57.3927 19.4465 57.8621 19.4465 58.3316C19.4465 59.1452 18.9458 59.7711 18.1634 59.9589C17.4436 60.1154 16.6925 59.7398 16.4108 59.0513C16.3169 58.801 16.2857 58.5193 16.2857 58.269C16.2544 53.9503 16.2231 49.6628 16.1918 45.3441C16.1605 42.997 16.1605 40.6812 16.1292 38.3341C16.1292 38.0524 16.1605 37.8021 16.1605 37.5204C16.1605 37.3639 16.1292 37.2387 16.1292 36.9884C15.5659 38.0211 15.0652 38.96 14.5645 39.8988C12.4051 43.9359 10.277 47.9416 8.11766 51.9787C6.89716 54.2945 5.64538 56.579 4.42488 58.8949C4.14322 59.4269 3.76769 59.8337 3.14179 59.9589C2.04647 60.178 1.045 59.1139 1.38924 58.0499C1.48313 57.7057 1.67091 57.3927 1.82738 57.0485C5.14465 50.8521 8.43064 44.6244 11.7479 38.428C12.4677 37.1136 13.1562 35.7679 13.8759 34.4535C13.8759 34.3596 13.9385 34.2344 14.0011 34.078Z" fill="#151515"/>
<path d="M17.7513 20.3417C14.7157 20.3104 12.1182 17.619 12.1808 14.5834C12.2121 11.5165 14.8722 8.88772 17.9078 8.95031C21.006 8.98161 23.6348 11.7043 23.5096 14.8025C23.3844 17.9946 20.9747 20.2478 17.7513 20.3417Z" fill="#151515"/>
</svg>
