<svg width="61" height="60" viewBox="0 0 61 60" fill="none" xmlns="http://www.w3.org/2000/svg">
<path d="M30.5355 0C35.8602 0 41.1517 0 46.4764 0C46.8425 0 47.2085 -5.08303e-07 47.5413 0.0332791C48.8725 0.0665588 49.7711 0.931831 49.7711 2.26302C49.7378 5.85722 49.9375 9.45142 49.5381 13.0123C48.806 19.5684 46.6761 25.5588 42.5827 30.7837C40.3197 33.6457 37.5907 35.942 34.296 37.5394C33.1978 38.0719 32.033 38.5045 30.835 38.5378C30.1694 38.5711 29.4372 38.4713 28.8049 38.3049C25.0443 37.1733 22.0159 34.9103 19.4533 32.015C15.3932 27.4224 12.9971 21.9978 11.8989 16.0075C11.4662 13.6114 11.2 11.2152 11.2333 8.78582C11.2333 6.68921 11.2333 4.55931 11.2333 2.46269C11.2333 1.83038 11.3664 1.23135 11.8323 0.765433C12.2982 0.266238 12.8972 0.0665595 13.5628 0.0665595C15.2934 0.0665595 17.0239 0.0665595 18.7877 0.0665595C22.7147 2.52912e-07 26.6417 0 30.5355 0Z" fill="#151515"/>
<path d="M30.4998 59.9982C26.3398 59.9982 22.1799 59.9982 18.0532 59.9982C16.722 59.9982 15.8567 59.4324 15.5905 58.3675C15.5572 58.1678 15.5239 58.0014 15.5239 57.8017C15.5239 56.3374 15.4907 54.8731 15.5572 53.4088C15.6238 52.2107 16.6222 51.4453 17.8868 51.4453C23.2115 51.4453 28.5696 51.4453 33.8943 51.4453C36.9893 51.4453 40.0843 51.4453 43.1793 51.4453C44.6103 51.4453 45.5089 52.3106 45.5089 53.7083C45.5422 55.0728 45.5089 56.4373 45.5089 57.8017C45.4756 59.0331 44.6436 59.9316 43.4123 59.9649C42.4139 59.9982 41.4155 59.9649 40.4171 59.9649C37.1224 59.9982 33.8277 59.9982 30.4998 59.9982Z" fill="#151515"/>
<path d="M48.707 29.6874C49.4059 28.2564 50.0715 26.8919 50.7371 25.4942C50.8036 25.3611 50.8369 25.2279 50.9035 25.0948C51.1364 24.3959 51.5691 23.8635 52.1681 23.3976C54.4977 21.6005 55.8954 19.2043 56.1617 16.2757C56.3281 14.4453 56.1949 12.615 56.1949 10.7846C56.1949 10.7846 56.1949 10.7513 56.1617 10.718C55.6292 10.718 55.0634 10.6847 54.4977 10.718C54.2314 10.718 54.1316 10.6515 54.1316 10.3852C54.1316 9.15387 54.1316 7.88925 54.1316 6.6579C54.1316 6.55806 54.298 6.42495 54.3979 6.42495C55.7623 6.42495 57.1601 6.39167 58.5245 6.42495C59.656 6.45823 60.5213 7.45662 60.5213 8.58812C60.5213 11.0175 60.5879 13.4469 60.488 15.8764C60.4215 18.0728 59.7559 20.1362 58.6909 22.0664C56.6941 25.7937 53.5659 28.1898 49.539 29.4212C49.2395 29.521 48.94 29.6208 48.707 29.6874Z" fill="#151515"/>
<path d="M12.3623 29.7166C12.0628 29.6168 11.7633 29.517 11.4638 29.4504C9.03437 28.7515 6.90448 27.5535 5.10738 25.8229C2.81108 23.5932 1.38006 20.8975 0.781024 17.7692C0.614626 16.8041 0.548071 15.839 0.514791 14.8406C0.481511 12.8106 0.514791 10.7472 0.514791 8.71718C0.514791 7.48584 1.38006 6.52073 2.6114 6.48745C4.04243 6.45417 5.44018 6.48745 6.90448 6.48745C6.90448 6.92008 6.90448 7.28616 6.90448 7.65223C6.90448 8.58406 6.90448 9.51589 6.90448 10.4144C6.90448 10.714 6.83792 10.8138 6.50512 10.7805C5.97265 10.7472 5.44018 10.7805 4.84114 10.7805C4.84114 10.9136 4.84114 11.0468 4.84114 11.2132C4.84114 12.5776 4.87442 13.9088 4.84114 15.2733C4.77458 17.8025 5.67313 19.999 7.27055 21.8959C7.80303 22.5615 8.46862 23.094 9.13421 23.6597C9.50029 23.9593 9.76652 24.2588 9.93292 24.7247C10.5985 26.3887 11.3972 28.0526 12.3623 29.7166Z" fill="#151515"/>
<path d="M37.7539 40.7638C38.3196 42.9935 39.1516 45.1234 40.2831 47.1534C33.7603 47.1534 27.3041 47.1534 20.7812 47.1534C21.8462 45.0901 22.7447 42.9935 23.2772 40.7305C28.0695 43.526 32.8618 43.526 37.7539 40.7638Z" fill="#151515"/>
</svg>
