<svg width="70" height="58" viewBox="0 0 70 58" fill="none" xmlns="http://www.w3.org/2000/svg">
<path d="M33.2878 21.4626C33.2878 20.4857 33.366 19.5479 33.2878 18.6492C33.1706 17.2816 32.1156 16.4611 30.748 16.422C29.4195 16.3829 28.091 16.4611 26.8015 16.2266C23.9491 15.6796 22.0736 13.2179 22.1517 10.3265C22.1908 7.51312 24.2617 5.09053 27.1141 4.62164C27.5048 4.5435 27.9346 4.50442 28.3254 4.50442C32.4672 4.50442 36.57 4.50442 40.7119 4.50442C42.0795 4.50442 43.0563 3.64479 43.2126 2.23813C43.2517 1.84739 43.408 1.41757 43.6034 1.06591C44.0332 0.401646 44.7365 0.128127 45.4008 0.323498C46.1432 0.557942 46.6511 1.2222 46.6511 2.00368C46.612 4.46535 45.518 6.30183 43.2908 7.3959C42.5874 7.74757 41.7669 7.98201 40.9854 7.98201C36.8435 8.02109 32.7017 8.02109 28.5599 8.02109C27.8956 8.02109 27.2704 8.13831 26.7233 8.56812C25.8637 9.27146 25.5121 10.2483 25.8247 11.2252C26.1373 12.2411 27.1922 13.0226 28.2863 13.0226C29.2241 13.0616 30.1228 13.0226 31.0606 13.0226C32.0765 13.0226 33.0143 13.3352 33.8739 13.8431C35.8276 15.0544 36.8045 16.8127 36.8435 19.079C36.8826 19.8996 36.8435 20.6811 36.8435 21.5798C37.0389 21.5798 37.2343 21.5798 37.4296 21.5798C42.6265 21.5798 47.8234 21.5407 53.0202 21.6189C55.1693 21.6579 57.2011 22.3222 59.1157 23.26C64.9769 26.0733 68.4545 30.7622 69.4313 37.1313C70.2909 42.6016 68.728 47.4859 65.0159 51.6277C62.3589 54.5974 59.0376 56.3948 55.1693 57.2935C50.1678 58.4266 45.5961 57.3716 41.4152 54.5192C40.8291 54.1285 40.2821 53.9331 39.5787 53.9722C36.4137 54.0112 33.2487 53.9722 30.1228 53.9722C29.8102 53.9722 29.4585 54.0503 29.2241 54.2457C26.9187 55.8868 24.418 57.059 21.6047 57.4498C15.47 58.3875 10.195 56.512 5.77966 52.2138C2.30207 48.8535 0.543731 44.6726 0.543731 39.8664C0.465583 31.0748 6.40487 23.9633 14.4932 21.9705C15.978 21.6189 17.5019 21.5016 19.0258 21.5016C23.6756 21.5016 28.2863 21.5016 32.9361 21.5016C32.9752 21.5016 33.0924 21.4626 33.2878 21.4626ZM17.4628 41.4294C18.5178 41.4294 19.5337 41.4294 20.5887 41.4294C21.253 41.4294 21.7219 41.1168 22.0735 40.5698C22.4252 40.0227 22.4252 39.4366 22.0735 38.8896C21.6437 38.2253 21.0576 37.9127 20.2761 37.9127C19.3384 37.9127 18.3615 37.9127 17.4628 37.9127C17.4628 36.8577 17.5019 35.8027 17.4628 34.7868C17.4628 34.4351 17.3456 34.0835 17.1502 33.81C16.6813 33.1457 15.9389 32.9113 15.1965 33.1066C14.4541 33.3411 13.9071 34.0053 13.9071 34.865C13.868 35.7246 13.9071 36.5451 13.9071 37.4048C13.9071 37.5611 13.907 37.7564 13.868 37.8737C13.7898 37.8737 13.7899 37.9127 13.7508 37.9127C12.7739 37.9127 11.758 37.9127 10.7812 37.9127C9.80431 37.9127 8.98372 38.7333 8.98372 39.7101C8.98372 40.6088 9.84338 41.4294 10.7812 41.4294C11.7971 41.4294 12.813 41.4294 13.8289 41.4294C13.8289 41.6248 13.868 41.7811 13.868 41.8983C13.868 42.7579 13.8289 43.5785 13.8289 44.4381C13.868 45.4931 14.7276 46.3918 15.6654 46.3918C16.7204 46.3527 17.3846 45.6103 17.3846 44.4381C17.4628 43.4222 17.4628 42.4453 17.4628 41.4294ZM51.3791 30.8013C49.9333 30.8013 48.8393 31.8563 48.8393 33.2239C48.8393 34.5914 49.9333 35.7637 51.3009 35.7637C52.7076 35.7637 53.9189 34.6305 53.8798 33.2629C53.8407 31.7781 52.6294 30.7622 51.3791 30.8013ZM51.3791 43.6175C49.9724 43.6175 48.8393 44.6725 48.8393 46.0401C48.8393 47.4077 49.9334 48.5409 51.2619 48.5409C52.6685 48.58 53.9189 47.4077 53.8798 46.0401C53.8407 44.7116 52.6685 43.5394 51.3791 43.6175ZM44.8928 42.1718C46.2213 42.1718 47.3545 41.0387 47.3935 39.7492C47.3935 38.3426 46.2994 37.1313 44.9318 37.1313C43.6033 37.0922 42.392 38.3035 42.353 39.6711C42.353 40.9214 43.6033 42.1718 44.8928 42.1718ZM57.67 42.1718C58.9985 42.1718 60.1707 41.0777 60.1707 39.7883C60.2098 38.4207 58.9985 37.1313 57.67 37.1313C56.3806 37.1313 55.1693 38.3426 55.1302 39.6711C55.1302 40.8824 56.4197 42.1718 57.67 42.1718Z" fill="#151515"/>
</svg>
