<svg width="61" height="60" viewBox="0 0 61 60" fill="none" xmlns="http://www.w3.org/2000/svg">
<path d="M14.3607 32.0502C16.3263 32.0502 18.2919 32.0502 20.2575 32.0502C22.2898 32.0502 24.1554 32.6832 25.6879 34.0158C27.1871 35.3151 28.0533 36.9475 28.2865 38.9131C28.6863 42.4778 28.7863 46.0426 28.553 49.6073C28.4531 51.0066 28.3865 52.4391 28.1533 53.805C27.5869 56.87 25.0549 59.2687 21.89 59.8351C21.257 59.9351 20.624 60.0017 19.991 60.0017C16.3597 60.0017 12.695 60.0017 9.06361 60.0017C5.09909 60.0017 1.80088 57.3031 1.16789 53.4053C0.868049 51.5396 0.80141 49.6073 0.701464 47.7083C0.601518 44.8765 0.768103 42.0781 1.00131 39.2796C1.33446 35.3817 4.4661 32.2834 8.39731 32.0835C10.3962 31.9835 12.3618 32.0835 14.3607 32.0835V32.0502ZM11.9954 47.8416C11.8621 47.5751 11.7288 47.3752 11.6289 47.1753C11.1958 46.4091 10.8293 45.6428 10.3296 44.9099C9.62997 43.8771 8.29736 43.7105 7.39785 44.4768C6.6316 45.1098 6.43169 46.0426 6.86479 46.9421C7.49778 48.1748 8.16409 49.3741 8.8304 50.5735C9.19687 51.2398 9.53003 51.9394 9.96313 52.6057C10.796 53.8384 12.2286 53.9383 13.228 52.8389C13.4279 52.639 13.5945 52.4058 13.7611 52.2059C14.8938 50.74 16.0265 49.3075 17.1925 47.8416C18.8916 45.6761 20.5907 43.5106 22.2898 41.3118C22.8895 40.5122 22.8228 39.4462 22.2231 38.7132C21.5235 37.9137 19.9244 37.6804 18.9249 38.9797C17.1592 41.2785 15.3602 43.5773 13.5612 45.876C13.0281 46.509 12.5284 47.142 11.9954 47.8416Z" fill="#151515"/>
<path d="M14.6648 27.9811C12.5327 27.9811 10.4005 28.0478 8.30164 27.9811C4.7369 27.8812 1.50531 24.8162 1.10553 21.2514C0.739058 18.1864 0.572478 15.0881 0.705739 11.9898C0.805685 9.99088 0.905647 7.99196 1.30543 6.02636C1.93842 2.86141 4.7369 0.496028 7.96848 0.12956C8.46821 0.0629299 8.96794 0.0629289 9.46767 0.0296136C13.1657 0.0296136 16.8303 -0.037017 20.5283 0.0296136C24.3596 0.0962441 27.4579 2.69484 28.1575 6.12631C28.3907 7.25903 28.4574 8.42506 28.5573 9.5911C28.6239 10.6572 28.6906 11.7233 28.6906 12.7894C28.6573 15.1214 28.5906 17.4535 28.4907 19.7856C28.3907 21.5513 28.0243 23.2504 26.9582 24.7162C25.4923 26.7151 23.4934 27.8479 21.0281 27.9478C18.8626 28.0478 16.7637 27.9811 14.6648 27.9811ZM11.9996 16.3541C11.6998 15.7877 11.4 15.2547 11.1334 14.755C10.8669 14.2886 10.6337 13.7888 10.3339 13.3557C9.73419 12.4895 8.56816 12.2563 7.73527 12.7561C6.76913 13.3224 6.40266 14.4218 6.90239 15.4213C7.23554 16.1209 7.63532 16.8205 8.0351 17.4868C8.60146 18.5529 9.16782 19.619 9.7675 20.6851C10.1006 21.2514 10.4671 21.8178 11.2001 21.9844C12.0996 22.1843 12.8325 21.9177 13.3989 21.1848C14.4316 19.8522 15.4977 18.5196 16.5305 17.187C18.4628 14.7217 20.4284 12.223 22.3274 9.75768C23.0936 8.75822 22.7271 7.25903 21.5944 6.72598C20.7949 6.35951 19.7621 6.39283 18.9292 7.49224C17.1635 9.79099 15.3645 12.0897 13.5654 14.3885C13.0324 15.0215 12.5327 15.6545 11.9996 16.3541Z" fill="#151515"/>
<path d="M46.1467 51.0391C50.2112 51.0391 54.2756 51.0391 58.3734 51.0391C59.2396 51.0391 59.9059 51.3056 60.3723 52.0385C61.2385 53.4044 60.0059 54.9703 58.7399 55.0369C58.6733 55.0369 58.64 55.0369 58.5733 55.0369C50.4111 55.0369 42.2155 55.0369 34.0533 55.0369C33.387 55.0369 32.7873 54.837 32.3209 54.3706C31.7545 53.8042 31.5879 53.1046 31.8545 52.3717C32.121 51.6054 32.6874 51.0724 33.5536 51.0724C35.8856 51.0391 38.251 51.0391 40.5831 51.0391C42.4154 51.0391 44.2811 51.0391 46.1467 51.0391Z" fill="#151515"/>
<path d="M46.1815 22.0192C42.217 22.0192 38.2525 22.0192 34.2879 22.0192C33.9548 22.0192 33.6549 22.0192 33.3551 21.9859C32.4223 21.8193 31.7227 20.9864 31.7227 20.0536C31.7227 19.1541 32.4223 18.2879 33.3551 18.1213C33.6216 18.0547 33.8882 18.0547 34.1214 18.0547C42.1837 18.0547 50.2459 18.0547 58.3082 18.0547C59.1744 18.0547 59.8741 18.3212 60.3405 19.0875C61.1067 20.3201 60.2738 21.9526 58.808 22.0525C58.2083 22.0858 57.6086 22.0858 57.0422 22.0858C53.4109 22.0192 49.7795 22.0192 46.1815 22.0192Z" fill="#151515"/>
<path d="M40.6515 8.03092C38.3861 8.03092 36.0873 7.99761 33.8219 8.06424C32.4893 8.09755 31.1567 6.63168 31.9562 5.19913C32.3893 4.43287 33.089 4.06641 33.9551 4.06641C37.4199 4.06641 40.8514 4.06641 44.3162 4.06641C45.3823 4.06641 46.4817 4.06641 47.5478 4.06641C48.1807 4.06641 48.7471 4.33293 49.1469 4.79934C49.68 5.39902 49.8465 6.09864 49.4801 6.86489C49.1136 7.63114 48.5472 8.03092 47.681 8.03092C45.349 8.03092 42.9836 8.03092 40.6515 8.03092Z" fill="#151515"/>
<path d="M40.7206 37.0763C43.0526 37.0763 45.418 37.0763 47.7501 37.0763C48.483 37.0763 49.0493 37.4761 49.3825 38.1091C50.0488 39.2418 49.3492 40.7077 48.0166 40.9742C47.7167 41.0408 47.4169 41.0408 47.1171 41.0408C42.7528 41.0408 38.4218 41.0408 34.0908 41.0408C33.4911 41.0408 32.9248 40.9409 32.4584 40.5411C31.8254 40.008 31.5588 39.2418 31.8254 38.4755C32.0586 37.6426 32.6582 37.1762 33.5244 37.0763C33.691 37.0763 33.8243 37.043 33.9909 37.043C36.223 37.043 38.4551 37.043 40.7206 37.0763Z" fill="#151515"/>
</svg>
