<svg width="70" height="60" viewBox="0 0 70 60" fill="none" xmlns="http://www.w3.org/2000/svg">
<path d="M0.5 32.4314C0.539216 32.5491 0.57849 32.7059 0.656922 32.8236C1.8334 25.9216 6.02946 22.3138 12.8531 21.451C7.91184 21.0981 4.46082 16.9805 4.61769 12.4314C4.77455 7.88243 8.34319 4.23538 12.9315 4.0393C17.6374 3.84322 21.4021 7.25498 21.9512 11.5687C22.5002 16.0001 19.8335 20.6667 13.9511 21.4903C14.3041 21.5295 14.6963 21.5687 15.0492 21.5687C17.2061 21.5295 19.2453 22.1177 21.1668 23.0981C24.8532 24.9412 28.5395 26.7451 32.2259 28.5883C33.1278 29.0197 33.1278 29.0589 33.5592 28.1569C34.8141 25.6863 36.0298 23.1765 37.2847 20.7059C37.5984 20.0393 38.069 19.5687 38.8533 19.451C40.4612 19.255 41.5592 20.6275 40.971 22.1177C40.5004 23.255 39.9122 24.353 39.3632 25.451C38.3043 27.5687 37.2063 29.7255 36.1475 31.8432C36.069 32.0393 36.0298 32.2353 36.0298 32.4706C36.0298 32.8236 36.0297 33.1765 36.069 33.5294C36.4611 36.902 32.6964 40.353 28.6572 38.7059C26.5003 37.804 24.461 36.6667 22.3826 35.6079C22.1865 35.5294 21.9904 35.451 21.7551 35.3334C21.7551 35.9216 21.7551 36.3922 21.7551 36.8628C21.7551 43.7647 21.7551 50.6667 21.7551 57.5686C21.7551 59.2157 20.9708 60 19.2846 60C15.2845 60 11.3237 60 7.32365 60C6.61776 60 5.99029 59.8431 5.44126 59.3333C5.00989 58.902 4.81377 58.4314 4.81377 57.8039C4.81377 54.3137 4.81377 50.8235 4.81377 47.3333C4.81377 46.8628 4.69616 46.6275 4.26478 46.4314C2.89222 45.8432 1.87262 44.8628 1.24516 43.5294C1.0883 43.1765 0.970593 42.8236 0.892161 42.4314C0.852945 42.0785 0.892161 41.6863 0.892161 41.2941C0.774512 41.5687 0.656903 41.8432 0.539254 42.0785C0.500038 38.8628 0.5 35.6471 0.5 32.4314Z" fill="#151515"/>
<path d="M52.6541 36.2352C53.0463 37.2941 53.3993 38.2352 53.7522 39.2156C55.7915 44.745 57.8307 50.2744 59.8307 55.8431C60.0268 56.3921 60.2229 56.9019 60.4189 57.4509C60.7327 58.3529 60.2621 59.294 59.3209 59.8038C58.5366 60.196 57.5561 59.9607 57.0463 59.2156C56.811 58.9019 56.6542 58.5097 56.4973 58.1176C53.9483 51.2156 51.4385 44.3137 48.8895 37.4509C48.4189 36.196 48.4188 36.196 47.0855 36.2745C47.0463 36.2745 47.007 36.2745 46.9678 36.3137C45.3992 40.6666 43.8306 45.0195 42.2227 49.3725C41.1247 52.3529 40.0658 55.3333 38.9678 58.3136C38.7717 58.9019 38.458 59.4509 37.8697 59.7254C37.1246 60.1176 36.4579 60.0391 35.7912 59.5685C35.1638 59.098 34.8893 58.4313 35.0853 57.6862C35.3991 56.5882 35.7912 55.5293 36.1834 54.4705C38.3011 48.5882 40.458 42.745 42.5756 36.8627C42.6541 36.6666 42.6932 36.5098 42.7325 36.2745C41.7521 36.2745 40.8502 36.2745 39.8698 36.2745C39.909 36.0392 39.9481 35.8431 39.9873 35.6862C40.0658 34.9411 40.1442 34.196 40.2227 33.4902C40.3011 33.0588 40.3403 32.5882 40.5364 32.196C41.7913 29.5686 43.1246 26.9804 44.4188 24.3921C45.4776 22.2745 45.5169 20.1568 44.1835 18.1568C41.7129 14.4314 36.458 14.3529 33.9874 18.2353C33.0854 19.647 32.4187 21.2157 31.6344 22.7059C31.5952 22.7451 31.5951 22.7843 31.5559 22.8235C31.1637 23.6078 31.1637 23.6078 30.3794 23.1764C29.2421 22.5882 28.0657 22 26.8892 21.4509C26.4578 21.2549 26.2617 21.0196 26.2617 20.5098C26.3009 16.2353 26.2618 11.9608 26.301 7.68627C26.301 6.90195 26.3794 6.07842 26.4971 5.29411C26.8892 2.54902 29.203 0.392158 31.9873 0.0784331C32.5363 0.0392174 33.0462 0 33.5952 0C43.1639 0 52.6934 0 62.2621 0C64.3797 0 66.2621 0.666666 67.6347 2.35294C68.6935 3.64705 69.0857 5.17646 69.0857 6.78431C69.125 14.4314 69.125 22.0784 69.0857 29.6862C69.0465 33.1764 66.968 35.5294 63.7131 36.196C63.517 36.2352 63.2817 36.2352 63.0857 36.2352C59.7915 36.2352 56.4974 36.2352 53.2032 36.2352C53.0464 36.2352 52.8894 36.2352 52.6541 36.2352ZM47.8306 8.54901C44.2227 8.54901 40.5756 8.54901 36.9677 8.54901C35.9481 8.54901 35.0461 9.41175 34.8893 10.4706C34.7716 11.2941 35.5559 12.3529 36.4579 12.549C36.8501 12.6274 37.2423 12.6666 37.6736 12.6666C44.3796 12.6666 51.1247 12.6666 57.8306 12.6666C58.1052 12.6666 58.3405 12.6667 58.615 12.6274C59.7915 12.5098 60.615 11.647 60.615 10.5098C60.615 9.56861 59.3993 8.47058 58.4581 8.50979C54.8895 8.58822 51.36 8.54901 47.8306 8.54901ZM53.9876 20.2353C55.4778 20.2353 56.9679 20.2353 58.4581 20.2353C59.3993 20.2353 60.4189 19.4117 60.5758 18.5098C60.7326 17.4902 60.1836 16.549 59.2032 16.2353C58.6542 16.0784 58.1052 16 57.517 16C55.1248 15.9608 52.7326 16 50.3404 16C49.9875 16 49.6737 16.0392 49.3208 16.0784C47.909 16.2745 46.8894 17.8039 47.713 19.1764C48.1444 19.9215 48.811 20.2745 49.6345 20.2745C51.0855 20.2353 52.5366 20.2353 53.9876 20.2353ZM53.9876 27.6862C53.9876 27.647 53.9876 27.647 53.9876 27.6862C55.4778 27.6862 56.9287 27.647 58.4189 27.6862C59.164 27.7255 59.6739 27.4117 60.1445 26.9019C60.6543 26.2745 60.7327 25.6078 60.4189 24.9019C60.1052 24.196 59.5562 23.6862 58.7326 23.6862C55.5954 23.647 52.4581 23.647 49.3208 23.6862C48.3012 23.6862 47.36 24.7451 47.3992 25.7647C47.4384 26.549 48.2228 27.7647 49.4384 27.7254C50.9679 27.6078 52.4973 27.6862 53.9876 27.6862Z" fill="#151515"/>
</svg>
