<svg width="61" height="60" viewBox="0 0 61 60" fill="none" xmlns="http://www.w3.org/2000/svg">
<path d="M60.047 58.5823C59.9053 58.8185 59.7636 59.0075 59.5746 59.2437C59.1494 59.7161 58.6769 59.9996 58.0155 59.9996C39.4012 59.9996 20.7397 59.9996 2.12544 59.9996C1.74749 59.9996 1.32226 59.9051 1.0388 59.7161C0.471864 59.3382 -0.047824 58.8185 0.0939092 58.0153C0.282887 57.1177 0.94432 56.5507 1.93645 56.5035C2.21992 56.5035 2.50338 56.5035 2.88134 56.5035C2.88134 56.3618 2.92857 56.1728 2.92857 55.9838C2.92857 55.2279 2.92856 54.5192 2.97581 53.7633C3.02305 52.8657 3.68448 52.2042 4.58213 52.1097C5.33804 52.0625 6.09397 52.0625 6.84988 52.0625C22.4878 52.0625 38.1256 52.0625 53.7635 52.0625C54.0942 52.0625 54.3777 52.0625 54.7084 52.1097C55.5116 52.2042 56.0313 52.7239 56.0785 53.5271C56.1258 54.3302 56.1257 55.1806 56.1257 55.9838C56.1257 56.409 56.2203 56.5507 56.6455 56.5035C56.8817 56.4562 57.1179 56.5035 57.3541 56.5035C58.5825 56.409 59.5746 56.7397 60.0943 58.0153C60.047 58.2043 60.047 58.3933 60.047 58.5823Z" fill="#151515"/>
<path d="M54.658 0C54.7525 0.141734 54.847 0.283469 54.9888 0.377958C55.6974 0.755914 55.8864 1.37009 55.8391 2.12601C55.7919 2.92916 55.8391 3.77957 55.8391 4.62997C38.5477 4.62997 21.3035 4.62997 3.96484 4.62997C3.96484 3.63783 3.96484 2.6457 3.96484 1.70081C4.01209 0.80316 4.67347 0.425201 5.28765 0C21.7759 0 38.217 0 54.658 0Z" fill="#151515"/>
<path d="M6.14208 48.6643C6.14208 45.3099 6.14208 41.9556 6.14208 38.554C5.71688 38.554 5.2917 38.554 4.91374 38.554C3.87436 38.5067 3.21294 37.798 3.26019 36.8531C3.26019 35.861 3.96883 35.1996 5.00821 35.1523C5.1027 35.1523 5.19717 35.1523 5.29166 35.1523C21.8272 35.1523 38.3627 35.1523 54.8983 35.1523C55.9849 35.1523 56.5518 35.5303 56.788 36.4279C57.0715 37.4201 56.5046 38.3177 55.4652 38.5067C55.3235 38.5539 55.1345 38.554 54.9928 38.554C54.0007 38.6012 53.9534 38.6012 53.9534 39.6406C53.9534 42.4753 53.9534 45.3099 53.9534 48.1446C53.9534 48.3336 53.9061 48.4753 53.9061 48.6643C38.032 48.6643 22.1107 48.6643 6.14208 48.6643Z" fill="#151515"/>
<path d="M48.4683 11.9529C48.0903 14.0789 46.7675 15.1656 44.7832 15.1656C42.7517 15.1656 41.7123 13.7482 40.9564 11.9529C41.0037 12.9451 40.5785 13.6537 39.9171 14.2207C39.2556 14.8348 38.4525 15.1183 37.6021 15.1656C35.854 15.26 34.6257 14.1734 33.7753 11.8584C33.3029 13.9372 32.1217 15.2128 29.9957 15.1656C27.9642 15.1183 26.8304 13.8427 26.4052 11.9057C26.2162 12.9451 25.6965 13.7482 24.8933 14.4096C24.0902 15.0711 23.1926 15.3073 22.1532 15.1656C20.7831 14.9766 19.0351 13.701 19.1295 11.9529C18.9878 12.2364 18.8461 12.5199 18.7043 12.8033C18.1846 14.0317 17.287 14.8348 15.9641 15.1183C14.0744 15.5435 12.2791 14.4096 11.7121 12.5671C11.6649 12.4254 11.6177 12.2364 11.5232 11.9529C11.4287 12.1419 11.3342 12.2364 11.3342 12.3309C11.1925 13.323 10.5783 14.0317 9.82236 14.5986C9.63338 14.7403 9.49167 15.0238 9.49167 15.26C9.49167 20.4569 9.53891 25.6538 9.53891 30.8507C9.53891 31.6067 9.53892 31.6067 8.78301 31.6067C7.93261 31.6067 7.08222 31.6067 6.13734 31.6067C6.13734 31.3704 6.13734 31.1815 6.13734 30.9925C6.13734 25.7956 6.13734 20.5514 6.13734 15.3545C6.13734 14.9766 6.04283 14.7403 5.71212 14.5041C4.86173 13.9372 4.2948 13.0868 4.24756 12.0474C4.20032 10.7246 4.24756 9.35447 4.24756 7.98438C21.4918 7.98438 38.6415 7.98438 55.9329 7.98438C55.9329 8.17335 55.9329 8.36233 55.9329 8.55131C55.9329 9.54345 55.8856 10.4883 55.8856 11.4805C55.9329 12.8033 55.4132 13.8427 54.3266 14.6459C54.1376 14.7876 53.9959 15.0238 53.9959 15.26C53.9959 20.5042 54.0431 25.7483 54.0431 31.0397C54.0431 31.5122 53.9486 31.7011 53.4289 31.6539C52.5313 31.6067 51.6336 31.6539 50.6888 31.6539C50.6888 31.4649 50.6415 31.3232 50.6415 31.1342C50.6415 25.8901 50.6415 20.6459 50.6415 15.3545C50.6415 15.1655 50.547 14.8348 50.4053 14.7403C49.4604 14.1262 48.8935 13.2758 48.6573 12.1891C48.6573 12.1891 48.61 12.1419 48.4683 11.9529Z" fill="#151515"/>
<path d="M20.8362 31.6042C19.1826 31.6042 17.5291 31.6042 15.8755 31.6042C15.4503 31.6042 15.3086 31.4624 15.3086 31.0845C15.3558 29.2892 15.3558 27.5411 15.4031 25.7458C15.4031 24.8482 15.8755 24.3285 16.7732 24.3285C18.8047 24.2812 20.8834 24.2813 22.9149 24.2813C23.6708 24.2813 24.4267 24.2812 25.1826 24.3285C25.8913 24.3757 26.3165 24.8009 26.3165 25.5096C26.3637 27.3994 26.3637 29.2892 26.3637 31.179C26.3637 31.5097 26.222 31.6042 25.8913 31.6042C24.1905 31.6042 22.537 31.6042 20.8362 31.6042Z" fill="#151515"/>
<path d="M33.8242 31.558C33.8242 30.2351 33.8242 29.0068 33.8242 27.7312C33.8242 27.2115 34.3439 26.739 34.9109 26.6918C35.4306 26.6445 35.9502 26.6445 36.4699 26.6445C38.6431 26.6445 40.8164 26.6445 42.9896 26.6445C44.2652 26.6445 44.6904 27.0697 44.7377 28.3453C44.7377 29.243 44.7849 30.0934 44.7849 30.991C44.7849 31.369 44.7377 31.558 44.2652 31.558C40.8636 31.558 37.4148 31.558 34.0132 31.558C33.966 31.6052 33.9187 31.6052 33.8242 31.558Z" fill="#151515"/>
</svg>
