<svg width="52" height="60" viewBox="0 0 52 60" fill="none" xmlns="http://www.w3.org/2000/svg">
<path d="M15.0057 28.5587C15.0057 28.9493 15.0057 29.2283 15.0057 29.5073C15.0057 33.3019 15.0614 37.0965 15.0614 40.8352C15.0614 41.2816 14.8383 41.449 14.4477 41.6164C10.1509 43.4021 5.79842 45.1878 1.50168 47.0293C1.05527 47.1967 0.608799 47.4757 0.0507812 47.6989C0.0507812 47.3083 0.0507812 46.9735 0.0507812 46.6945C0.0507812 40.1656 0.0507812 33.6925 0.0507812 27.1636C0.0507812 25.1548 0.329736 23.2017 1.38997 21.3602C3.62204 17.6214 8.03038 16.1706 11.9923 17.9005C14.1128 18.7933 16.1776 19.7977 18.2422 20.8022C19.2467 21.3044 20.251 21.5276 21.367 21.4718C24.1571 21.416 26.8915 21.416 29.6816 21.416C32.0253 21.416 33.6993 22.6437 34.1457 24.6525C34.7596 27.2752 32.6948 29.9538 30.0163 29.9538C26.5566 29.9538 23.1527 30.0654 19.693 29.898C18.3537 29.8422 17.0145 29.1725 15.6753 28.7819C15.5637 28.7819 15.3963 28.6703 15.0057 28.5587Z" fill="#151515"/>
<path d="M37.6612 40.6691C41.2325 40.6691 44.8596 40.6691 48.4309 40.6691C48.9331 40.6691 49.4353 40.7249 49.9375 40.8365C50.942 41.1155 51.5 42.0641 51.5 43.3476C51.5 46.919 51.5 50.4345 51.5 54.0058C51.5 55.1777 51.5 56.2937 51.5 57.4656C51.5 59.1955 50.7189 59.9767 49.0448 59.9767C44.2458 59.9767 39.4469 59.9767 34.6479 59.9767C33.0855 59.9767 32.3043 59.1955 32.3043 57.633C32.3043 53.671 32.2485 49.6533 32.3043 45.6913C32.3043 45.1333 32.1926 44.9101 31.5788 44.9101C29.6815 44.9659 27.7843 44.9101 25.8871 44.9101C24.8268 44.9101 23.7108 43.9056 23.655 42.957C23.5992 42.0083 24.4362 40.9481 25.4965 40.7249C25.9987 40.6133 26.5009 40.6133 27.0031 40.6133C30.5186 40.6691 34.0898 40.6691 37.6612 40.6691Z" fill="#151515"/>
<path d="M2.0625 51.5508C2.73212 51.2718 3.29011 51.1044 3.84813 50.8812C8.14487 49.0955 12.4974 47.3099 16.7941 45.4684C17.5195 45.1894 17.966 45.1894 18.6356 45.5242C20.3655 46.4728 22.1511 47.3099 23.9368 48.2027C26.7269 49.542 28.0103 51.8299 28.0661 54.8432C28.0661 55.7918 28.0661 56.7405 28.0661 57.6891C28.0103 58.9726 27.1175 59.977 25.8898 59.977C23.7136 60.0328 21.5373 59.977 19.3052 59.977C18.9704 59.977 18.5798 59.8654 18.245 59.698C12.9439 57.0753 7.69845 54.4526 2.45309 51.8299C2.34148 51.7182 2.28571 51.6624 2.0625 51.5508Z" fill="#151515"/>
<path d="M34.3115 38.6036C31.633 38.6036 28.8987 38.6036 26.2202 38.6036C25.3832 38.6036 24.6579 38.3804 24.0998 37.655C23.207 36.4832 23.8207 34.8091 25.2716 34.4743C25.6064 34.4185 25.8854 34.3627 26.2202 34.3627C31.1308 34.3627 35.9855 34.4185 40.8961 34.4185C41.4541 34.4185 41.5657 34.0837 41.7331 33.693C43.0724 30.1217 44.4116 26.6061 45.7508 23.0348C46.3088 21.5281 46.8669 19.9657 47.4807 18.459C47.8713 17.5662 48.7641 17.0639 49.657 17.1755C50.5498 17.2872 51.3311 18.0126 51.4427 18.9612C51.4985 19.5192 51.3311 20.0773 51.1079 20.6353C49.8244 24.1508 48.4851 27.6664 47.1459 31.1819C46.4762 32.9676 45.8067 34.7533 45.1371 36.539C44.5791 38.1014 43.9653 38.5478 42.2354 38.6036C39.6127 38.6036 36.9899 38.6036 34.3115 38.6036Z" fill="#151515"/>
<path d="M15.1162 7.52233C15.1162 9.69863 14.614 11.5959 12.9957 13.1584C9.53604 16.4507 3.67687 14.8882 2.56084 10.2008C2.00282 7.85715 1.89127 5.40184 3.17471 3.22555C4.56976 0.770249 7.41559 -0.457402 10.0941 0.156424C12.8284 0.770249 14.8372 3.16975 15.0604 6.01567C15.0604 6.51789 15.0604 7.02011 15.1162 7.52233Z" fill="#151515"/>
</svg>
