<svg width="77" height="60" viewBox="0 0 77 60" fill="none" xmlns="http://www.w3.org/2000/svg">
<path d="M76.4989 48.9872C75.8729 48.9872 75.2469 48.9872 74.7461 48.9872C50.3326 48.9872 26.0442 48.9872 1.63068 48.9872C1.25509 48.9872 0.879499 48.9872 0.503906 48.9872C0.503906 48.862 0.503906 48.7368 0.503906 48.7368C0.503906 47.4848 0.503906 46.2328 0.503906 45.1061C0.503906 44.7305 0.629103 44.7305 0.879498 44.7305C13.1489 44.7305 25.4182 44.7305 37.8128 44.7305C50.2074 44.7305 62.7271 44.7305 75.1217 44.7305C75.6225 44.7305 76.1233 44.7305 76.4989 44.7305C76.4989 46.1076 76.4989 47.4848 76.4989 48.9872Z" fill="#151515"/>
<path d="M6.63672 53.6133C27.7951 53.6133 48.9535 53.6133 70.1119 53.6133C69.9867 53.8637 69.8615 54.2393 69.7363 54.4897C68.86 56.2424 67.9836 57.87 67.1072 59.6228C66.982 59.8732 66.7316 59.9984 66.356 59.9984C48.7031 59.9984 31.0503 59.9984 13.3974 59.9984C12.3958 59.9984 11.269 59.9984 10.2674 59.9984C10.0171 59.9984 9.76666 59.8732 9.64146 59.6228C8.63988 57.7448 7.6383 55.7416 6.63672 53.8637C6.76192 53.7385 6.76192 53.7385 6.63672 53.6133Z" fill="#151515"/>
<path d="M32.1828 25.3231C30.1796 25.3231 28.1764 25.3231 26.1733 25.3231C23.5441 25.1979 21.4158 23.4451 20.7898 20.816C20.1638 18.4372 21.1654 15.9332 23.2937 14.5561C24.1701 13.9301 25.1717 13.6797 26.1733 13.6797C30.1796 13.6797 34.1859 13.6797 38.1922 13.6797C41.0718 13.6797 43.4506 16.0584 43.7009 18.938C43.9513 21.6923 42.0734 24.4467 39.319 25.0727C38.693 25.1979 38.1922 25.3231 37.5663 25.3231C35.8135 25.4483 33.9355 25.4483 32.1828 25.3231Z" fill="#151515"/>
<path d="M19.7847 40.2164C16.78 40.2164 13.9004 40.2164 10.8957 40.2164C10.3949 40.2164 10.0193 40.0912 9.76892 39.7156C8.14135 37.8376 7.76575 35.7093 8.76733 33.4557C9.76892 31.2021 11.5217 29.9502 14.0256 29.9502C17.9068 29.825 21.7879 29.9502 25.5438 29.9502C28.4234 29.9502 30.8021 31.9533 31.3029 34.7077C31.6785 36.7108 31.1777 38.4636 29.6753 39.966C29.4249 40.2164 29.1746 40.3416 28.799 40.3416C25.7942 40.2164 22.7895 40.2164 19.7847 40.2164Z" fill="#151515"/>
<path d="M46.4492 25.3231C47.576 23.5703 48.202 21.5671 48.202 19.4388C48.202 17.3104 47.576 15.4325 46.4492 13.6797C46.5744 13.6797 46.6996 13.6797 46.6996 13.6797C48.202 13.6797 49.5792 13.6797 51.0815 13.6797C53.9611 13.6797 56.3398 15.6829 56.8406 18.5624C57.4666 21.9427 54.8375 25.1979 51.4571 25.3231C49.8296 25.4483 48.202 25.3231 46.5744 25.3231C46.5744 25.4483 46.5744 25.3231 46.4492 25.3231Z" fill="#151515"/>
<path d="M61.3488 40.2164C62.2252 38.4636 62.4756 36.836 62.3504 34.9581C62.2252 33.0801 61.5992 31.4525 60.5977 29.9502C60.7229 29.9502 60.848 29.9502 60.848 29.9502C62.3504 29.9502 63.8528 29.825 65.3552 29.9502C67.7339 30.0754 69.4867 31.3273 70.4883 33.4557C71.4899 35.5841 70.9891 37.7124 69.6119 39.4652C69.2363 39.966 68.7355 40.2164 68.1095 40.0912C65.9812 40.0912 63.978 40.0912 61.8496 40.0912C61.7244 40.2164 61.5992 40.2164 61.3488 40.2164Z" fill="#151515"/>
<path d="M48.2043 40.0916C48.9555 38.464 49.3311 36.7113 49.2059 34.8333C49.0807 33.0805 48.4547 31.3278 47.4531 29.8254C47.5783 29.8254 47.7035 29.7002 47.7035 29.7002C49.2059 29.7002 50.8335 29.575 52.3358 29.7002C54.7146 29.8254 56.5926 31.0773 57.4689 33.4561C58.3453 35.7097 57.9697 37.7128 56.3422 39.4656C55.9666 39.8412 55.591 39.9664 55.0902 39.9664C52.8366 39.9664 50.7083 39.9664 48.4547 39.9664C48.3295 40.2168 48.3295 40.2168 48.2043 40.0916Z" fill="#151515"/>
<path d="M34.9309 40.2193C36.4332 36.5886 36.308 33.2083 34.1797 29.9531C34.3049 29.9531 34.4301 29.9531 34.5553 29.9531C35.9324 29.9531 37.3096 29.9531 38.5616 29.9531C41.4412 29.9531 43.9451 31.8311 44.4459 34.5854C44.8215 36.5886 44.3207 38.3414 42.9435 39.8437C42.6931 40.0941 42.3175 40.2193 41.9419 40.2193C39.8136 40.2193 37.8104 40.2193 35.6821 40.2193C35.4317 40.2193 35.3065 40.2193 34.9309 40.2193Z" fill="#151515"/>
<path d="M43.4492 0.03125C43.6996 0.03125 43.8248 0.03125 43.95 0.03125C45.202 0.03125 46.3288 0.03125 47.5807 0.03125C47.9563 0.03125 47.9563 0.15645 47.9563 0.532043C47.9563 2.7856 47.9563 5.03916 47.9563 7.29271C47.9563 7.7935 47.9563 8.2943 47.9563 8.79509C47.9563 9.04548 47.9563 9.17068 47.5807 9.17068C46.3288 9.17068 45.202 9.17068 43.95 9.17068C43.6996 9.17068 43.5744 9.04548 43.5744 8.79509C43.5744 6.91712 43.5744 5.16435 43.5744 3.28639C43.4492 2.15961 43.4492 1.15803 43.4492 0.03125Z" fill="#151515"/>
<path d="M34.054 0.0313004C34.054 0.281696 34.054 0.406893 34.054 0.657289C34.054 3.41164 34.054 6.04079 34.054 8.79514C34.054 9.17073 34.054 9.29593 33.6784 9.29593C32.4264 9.29593 31.1744 9.29593 29.9225 9.29593C29.6721 9.29593 29.5469 9.17073 29.5469 8.92033C29.5469 6.16598 29.5469 3.28644 29.5469 0.532093C29.5469 0.281698 29.6721 0.156496 29.9225 0.156496C31.0493 0.156496 32.3012 0.156496 33.428 0.156496C33.6784 -0.0938992 33.9288 0.0313004 34.054 0.0313004Z" fill="#151515"/>
</svg>
