<svg width="61" height="60" viewBox="0 0 61 60" fill="none" xmlns="http://www.w3.org/2000/svg">
<path d="M15.4521 59.9455C14.2288 58.7222 13.0055 57.5545 11.7823 56.3312C11.6154 56.1644 11.5042 56.0532 11.3374 55.8864C10.4478 54.7743 9.39127 54.1627 7.83435 53.9403C3.1636 53.3286 0.105364 49.3251 0.327781 44.5988C0.383386 43.6535 1.05064 42.9306 1.99591 42.875C2.27393 42.875 2.60755 42.875 2.88558 42.875C21.1794 42.875 39.4176 42.875 57.7113 42.875C58.879 42.875 59.7687 43.0974 60.2691 44.2095C60.2691 44.9324 60.2691 45.7108 60.2691 46.4337C60.2135 46.6005 60.1023 46.7673 60.0467 46.9341C59.2127 51.2156 55.7096 54.107 51.3725 54.1627C50.872 54.1627 50.5384 54.3295 50.1492 54.6631C48.3142 56.4424 46.4793 58.2218 44.7 60.0011C34.9692 59.9455 25.1829 59.9455 15.4521 59.9455Z" fill="#151515"/>
<path d="M12.2812 28.7482C13.4489 26.8577 15.0059 25.8568 17.1188 25.968C17.7305 25.968 18.0641 25.8012 18.5089 25.412C20.0102 23.9663 21.7896 23.6327 23.7913 24.1887C24.0693 24.2999 24.4586 24.2443 24.7366 24.0775C26.4047 23.1322 28.0729 23.0766 29.7966 23.9107C30.1858 24.0775 30.4638 24.1331 30.8531 23.9107C32.5768 23.0766 34.3005 23.1322 35.9687 24.0775C36.1911 24.1887 36.5803 24.2443 36.8583 24.1887C38.9157 23.577 40.7506 23.9663 42.2519 25.4676C42.5856 25.8012 42.8636 25.9124 43.3084 25.9124C45.3658 25.8012 46.9227 26.6353 48.0904 28.3034C48.2572 28.5258 48.5352 28.6926 48.8132 28.6926C50.7594 28.9706 52.1495 29.9715 53.0392 31.7509C53.206 32.0845 53.5396 32.3625 53.8176 32.4737C56.2086 33.4746 57.4875 35.9212 57.0427 38.4234C56.9314 38.9794 56.709 39.1462 56.153 39.1462C51.9827 39.1462 47.8124 39.1462 43.6976 39.1462C37.6924 39.1462 31.6871 39.1462 25.6819 39.1462C25.1258 39.1462 24.959 38.9794 24.8478 38.479C24.0693 34.9203 21.9008 32.6961 18.4533 31.7509C18.2865 31.6953 18.0641 31.6397 17.9529 31.5285C16.1735 30.472 14.5054 29.1931 12.2812 28.7482ZM37.748 30.75C37.748 29.8047 36.9695 29.0263 35.9687 29.0263C35.0234 29.0263 34.2449 29.7491 34.2449 30.6944C34.2449 31.6397 35.0234 32.4737 35.9687 32.4737C36.9139 32.5293 37.748 31.6953 37.748 30.75ZM45.3658 36.0324C46.311 36.0324 47.1451 35.2539 47.1451 34.253C47.1451 33.3078 46.3666 32.5293 45.3658 32.5293C44.4205 32.5293 43.642 33.3078 43.642 34.1975C43.5864 35.1983 44.4205 36.0324 45.3658 36.0324Z" fill="#151515"/>
<path d="M49.3162 11.2909C50.0391 11.2909 50.8176 11.3465 51.5404 11.2909C52.5969 11.1797 53.2641 10.4012 53.2085 9.45596C53.1529 8.51068 52.3745 7.78781 51.3736 7.7322C50.1503 7.6766 48.8714 7.78783 47.7037 7.50981C44.9791 6.89816 43.311 4.22917 43.7558 1.50456C43.9226 0.61489 44.6455 -0.0523673 45.5352 0.00323696C46.3692 0.00323696 47.0921 0.670481 47.2033 1.56015C47.2033 1.61575 47.2033 1.67136 47.2033 1.67136C47.4257 3.95114 47.7037 4.17355 49.9835 4.17355C51.2624 4.17355 52.5969 4.11795 53.7646 4.7296C55.8775 5.84168 57.1008 8.28825 56.6004 10.5124C56.0444 13.0702 53.987 14.7383 51.2624 14.7939C50.3171 14.8496 49.3718 14.7939 48.4266 14.7939C46.6472 14.7939 46.0356 15.4056 46.0356 17.1293C46.0356 17.9078 46.0356 18.6863 46.0356 19.4647C46.0356 20.6324 45.3127 21.4109 44.3119 21.4109C43.311 21.4109 42.5881 20.6324 42.5325 19.5203C42.5325 18.4638 42.4769 17.463 42.5325 16.4065C42.6993 13.5151 44.8123 11.4021 47.7037 11.2909C48.2598 11.2909 48.7602 11.2909 49.3162 11.2909C49.3162 11.3465 49.3162 11.3465 49.3162 11.2909Z" fill="#151515"/>
<path d="M12.7263 32.5885C10.8914 33.5893 9.66807 34.8682 8.88961 36.5364C8.55599 37.2592 8.33357 38.0377 8.16676 38.8161C8.05555 39.1498 7.88874 39.3166 7.55511 39.3166C6.33182 39.3166 5.10853 39.3166 3.88523 39.3166C3.4404 39.3166 3.21798 39.1498 3.16238 38.7605C3.10677 37.0368 2.93996 35.2575 2.99557 33.5337C2.99557 32.8109 3.60721 32.1992 4.38567 32.1992C6.88786 32.1992 9.39005 32.3105 11.8922 32.3661C12.0591 32.3105 12.2815 32.4216 12.7263 32.5885Z" fill="#151515"/>
<path d="M40.6965 7.89803C41.753 7.84243 42.5871 8.45405 42.6427 9.39932C42.7539 10.4558 42.0866 11.1787 40.9745 11.3455C39.5844 11.5679 39.0284 12.1795 39.0284 13.5696C39.0284 14.2925 39.0284 15.0154 39.0284 15.7382C38.9728 16.7947 38.2499 17.5176 37.3047 17.5176C36.3038 17.5176 35.5253 16.7947 35.5809 15.7382C35.6365 14.2925 35.5809 12.7912 35.9146 11.4011C36.4706 9.39934 38.528 7.95364 40.6965 7.89803Z" fill="#151515"/>
<path d="M21.2346 39.2588C18.0652 39.2588 14.9513 39.2588 11.7819 39.2588C11.6151 37.3683 13.9504 35.3109 16.2858 35.1997C18.788 35.0885 21.2346 37.0903 21.2346 39.2588Z" fill="#151515"/>
<path d="M51.0957 21.0763C50.1505 21.0763 49.3164 20.2979 49.3164 19.3526C49.3164 18.4074 50.0949 17.6289 51.0401 17.6289C51.9854 17.6289 52.7639 18.3518 52.8195 19.297C52.8195 20.2423 52.041 21.0763 51.0957 21.0763Z" fill="#151515"/>
</svg>
