<svg width="47" height="60" viewBox="0 0 47 60" fill="none" xmlns="http://www.w3.org/2000/svg">
<path d="M28.6873 0V0.0771248C28.7644 0.0771248 28.8415 0.154238 28.9187 0.154238C29.3043 0.308478 29.4585 0.462718 29.3814 0.925439C29.2271 1.69664 29.0729 2.46784 28.9187 3.23904C28.9187 3.39328 28.8415 3.47041 28.6873 3.47041C25.3711 3.47041 22.1321 3.47041 18.8159 3.47041C18.5846 3.47041 18.2761 3.54753 18.1219 3.39329C17.9676 3.23905 17.9676 2.93056 17.8905 2.6992C17.7362 2.08224 17.6591 1.46529 17.5049 0.848326C17.4278 0.616966 17.582 0.462721 17.7363 0.385601C17.9676 0.30848 18.199 0.231363 18.4303 0.231363C18.3532 0.231363 18.199 0.154245 18.0447 0.0771248C21.5923 4.70589e-06 25.1398 0 28.6873 0Z" fill="#151515"/>
<path d="M13.2619 46.7348C13.5704 47.6603 13.8018 48.5857 14.0331 49.434C14.573 50.8993 15.267 52.3646 16.0382 53.7527C16.4238 54.3697 16.8094 54.9867 17.1179 55.6036C17.2722 55.835 17.4264 55.9121 17.6578 55.9121C18.1205 55.9121 18.5061 55.9121 18.9688 55.9121C23.3646 55.9121 27.7605 55.9121 32.1563 55.9121C32.2335 55.9121 32.3106 55.9121 32.3877 55.9121C32.6962 55.9121 32.8504 55.835 33.0047 55.5265C33.5445 54.6011 34.0843 53.6756 34.6242 52.6731C35.3954 51.2078 36.0124 49.6654 36.4751 48.0459C37.1692 45.6551 37.2463 43.1873 36.4751 40.7966C35.9352 39.0999 35.164 37.4804 34.3157 35.938C33.7759 35.0126 33.236 34.0871 32.7733 33.1617C32.6191 32.8532 32.3106 32.7761 32.0021 32.699C30.6139 32.4676 29.3029 32.4676 27.9147 32.7761C26.9893 33.0074 26.0638 33.2388 25.1384 33.4702C23.6731 33.8558 22.1307 33.9329 20.5883 33.7015C19.8942 33.6244 19.2002 33.3159 18.5061 33.1617C18.2747 33.0846 18.1205 33.0074 17.8891 33.0074C17.6578 32.9303 17.4264 33.0846 17.2722 33.3159C16.8866 34.01 16.4238 34.7041 16.0382 35.4753C15.4213 36.7863 14.8043 38.0202 14.1102 39.3313C14.0331 39.5626 13.8789 39.6398 13.5704 39.7169C13.1077 39.794 12.645 39.9482 12.1822 40.1025C12.1051 40.1025 11.9509 40.1796 11.8737 40.1796C11.7966 40.1796 11.7195 40.1025 11.7195 40.0254C11.4881 39.1771 11.1026 38.4058 10.6398 37.6346C10.5627 37.4804 10.4856 37.3262 10.6398 37.1719C11.5653 35.4753 12.4136 33.7015 13.339 32.0049C14.1874 30.4625 15.0357 28.9972 15.8069 27.4548C16.8094 25.5268 17.6578 23.5988 18.2747 21.5165C18.5832 20.5911 18.8917 19.6657 19.123 18.6631C19.5086 17.1207 19.8171 15.5783 19.8942 13.9588C19.8942 13.6503 19.9714 13.2647 19.9714 12.9562C20.0485 12.4164 19.8942 11.9537 19.5086 11.6452C18.5832 10.7197 17.6578 9.87141 16.8094 8.94597C16.1925 8.32901 15.6526 7.78916 15.1128 7.1722C14.5729 6.63236 14.8814 5.6298 15.6526 5.47556C15.884 5.39844 16.1154 5.39844 16.4238 5.39844C20.8968 5.39844 25.3698 5.39844 29.8427 5.39844C30.0741 5.39844 30.3826 5.39844 30.6139 5.39844C31.308 5.39844 31.925 6.01541 31.7707 6.86373C31.6165 7.55781 31.308 8.17477 30.9224 8.79173C30.5368 9.40869 30.1512 10.0256 29.997 10.7968C29.9199 11.4138 29.9199 12.0308 29.9199 12.6477C30.0741 14.8842 30.3826 17.0436 30.9224 19.2029C31.6936 22.2106 32.8504 25.0641 34.3157 27.7633C35.3183 29.6913 36.3979 31.5422 37.4776 33.4702C38.0946 34.627 38.7115 35.7838 39.2514 36.9406C39.9455 38.3287 40.4082 39.794 40.7167 41.2593C41.0252 42.6475 41.1023 44.1127 41.0252 45.578C40.8709 47.4289 40.4853 49.2027 39.8684 50.8993C38.8658 53.5985 37.5547 56.0664 36.0123 58.4571C35.8581 58.6884 35.781 58.8427 35.6267 59.074C35.2411 59.691 34.6242 59.9995 33.853 59.9995C28.069 59.9995 22.2078 59.9995 16.4238 59.9995C15.4984 59.9995 14.8043 59.6139 14.3416 58.8427C13.956 58.1486 13.4933 57.4545 13.0305 56.7604C12.9534 56.6062 12.9534 56.452 13.0305 56.2206C13.2619 55.6036 13.4161 55.0638 13.5704 54.4468C13.956 52.2875 13.7246 50.2052 12.7221 48.2772C12.645 48.123 12.5678 48.0459 12.4907 47.8916C12.3365 47.6603 12.4136 47.5831 12.5678 47.4289C12.7992 47.1975 13.0306 46.9662 13.2619 46.7348Z" fill="#151515"/>
<path d="M8.71366 44.8071C7.47974 44.5758 6.47717 44.1131 5.47461 43.4961C3.62372 42.3393 2.31269 40.7198 1.38725 38.7918C0.693169 37.3265 0.384684 35.8612 0.538924 34.2417C0.616045 33.7018 1.00165 33.2391 1.54149 33.3934C2.23557 33.4705 2.92964 33.6247 3.5466 33.8561C4.85765 34.3188 6.01445 35.09 7.01701 36.0154C8.86789 37.7892 10.1018 39.9486 10.4103 42.5706C10.4103 42.6478 10.4103 42.7249 10.4103 42.8791C10.4103 42.9563 10.4103 43.0334 10.4103 43.1876C10.6417 43.0334 10.7959 42.9563 10.873 42.8791C11.6442 42.3393 12.4925 41.9537 13.418 41.7223C14.3434 41.4138 15.2689 41.4138 16.2714 41.491C16.8884 41.491 17.3511 41.9537 17.4282 42.4935C17.5053 43.1876 17.1969 43.7274 16.5799 43.9588C16.4257 44.0359 16.1943 44.0359 15.9629 44.0359C15.4231 44.0359 14.8833 44.0359 14.3434 44.113C13.1095 44.3444 12.1069 44.9614 11.2586 45.8868C10.7188 46.4267 10.2561 47.0436 9.71621 47.7377C9.87045 47.8919 10.0247 47.9691 10.1789 48.1233C10.9501 48.9716 11.49 50.0513 11.6442 51.2081C12.1069 54.37 11.1044 56.9921 8.55941 58.9972C7.71109 59.6142 6.70854 59.9998 5.62886 59.9998C4.16357 59.9998 2.92964 59.3828 2.0042 58.226C1.15588 57.2235 0.770282 56.0667 0.693162 54.7556C0.538922 52.5963 1.07876 50.6683 2.3898 48.9716C3.161 47.9691 4.16357 47.1207 5.47461 46.7351C6.09157 46.5038 6.70853 46.4267 7.40261 46.5809C7.47973 46.5809 7.63397 46.5809 7.63397 46.5038C7.94245 46.0411 8.32806 45.5783 8.63654 45.1156C8.63654 45.0385 8.63654 44.9614 8.71366 44.8071ZM6.9399 56.6836C6.9399 56.2209 6.70853 55.8353 6.24581 55.7582C5.93733 55.6811 5.55174 55.5268 5.24326 55.4497C5.08902 55.3726 4.85765 55.3726 4.70341 55.3726C4.31781 55.3726 3.93221 55.8353 3.85509 56.1438C3.77797 56.6065 3.93221 57.0692 4.39493 57.2235C4.85765 57.3777 5.39749 57.5319 5.93733 57.6862C6.40005 57.7633 6.9399 57.3006 6.9399 56.6836Z" fill="#151515"/>
<path d="M32.4678 16.504C32.3907 15.5786 32.2364 14.7303 32.1593 13.8048C32.1593 13.7277 32.1593 13.6506 32.1593 13.6506C32.0822 13.1879 32.0822 13.1879 32.5449 13.0336C35.8611 12.1082 38.9459 12.648 41.7222 14.7303C43.4189 16.0413 44.5757 17.6608 45.2697 19.6659C46.735 23.8304 46.1952 27.7636 43.8045 31.3882C42.9561 32.6221 41.9536 33.7018 40.7197 34.5501C40.6425 34.5501 40.6425 34.6273 40.5654 34.6273C40.0256 33.6247 39.4857 32.6993 39.023 31.6967C39.4086 31.3111 39.7942 30.9255 40.1798 30.5399C41.0281 29.6916 41.6451 28.6119 42.0307 27.5322C42.5705 26.2212 42.7248 24.9101 42.7248 23.5991C42.6477 21.5168 41.9536 19.6659 40.5654 18.1235C39.2544 16.7354 37.6349 15.9642 35.6297 15.8871C34.7043 15.8871 33.7788 15.9642 32.9305 16.3498C32.7763 16.4269 32.622 16.4269 32.4678 16.504Z" fill="#151515"/>
</svg>
