<svg width="90" height="90" viewBox="0 0 90 90" fill="none" xmlns="http://www.w3.org/2000/svg">
<path d="M44.358 32.8902C47.0335 32.8902 49.5994 31.8273 51.4912 29.9355C53.3831 28.0436 54.4459 25.4777 54.4459 22.8023C54.4459 20.1268 53.3831 17.5609 51.4912 15.669C49.5994 13.7772 47.0335 12.7144 44.358 12.7144C41.6825 12.7144 39.1166 13.7772 37.2248 15.669C35.3329 17.5609 34.2701 20.1268 34.2701 22.8023C34.2701 25.4777 35.3329 28.0436 37.2248 29.9355C39.1166 31.8273 41.6825 32.8902 44.358 32.8902ZM29.2261 24.0633C29.2261 25.2224 28.9978 26.3702 28.5542 27.4412C28.1106 28.5121 27.4604 29.4852 26.6408 30.3048C25.8211 31.1245 24.848 31.7747 23.7771 32.2183C22.7062 32.6619 21.5584 32.8902 20.3992 32.8902C19.24 32.8902 18.0922 32.6619 17.0213 32.2183C15.9503 31.7747 14.9773 31.1245 14.1576 30.3048C13.338 29.4852 12.6878 28.5121 12.2442 27.4412C11.8006 26.3702 11.5723 25.2224 11.5723 24.0633C11.5723 21.7222 12.5022 19.477 14.1576 17.8217C15.813 16.1663 18.0581 15.2363 20.3992 15.2363C22.7402 15.2363 24.9854 16.1663 26.6408 17.8217C28.2961 19.477 29.2261 21.7222 29.2261 24.0633ZM77.1437 24.0633C77.1437 25.2224 76.9154 26.3702 76.4718 27.4412C76.0282 28.5121 75.378 29.4852 74.5584 30.3048C73.7387 31.1245 72.7656 31.7747 71.6947 32.2183C70.6238 32.6619 69.4759 32.8902 68.3168 32.8902C67.1576 32.8902 66.0098 32.6619 64.9389 32.2183C63.8679 31.7747 62.8949 31.1245 62.0752 30.3048C61.2555 29.4852 60.6054 28.5121 60.1618 27.4412C59.7182 26.3702 59.4899 25.2224 59.4899 24.0633C59.4899 21.7222 60.4198 19.477 62.0752 17.8217C63.7306 16.1663 65.9757 15.2363 68.3168 15.2363C70.6578 15.2363 72.903 16.1663 74.5584 17.8217C76.2137 19.477 77.1437 21.7222 77.1437 24.0633ZM27.6549 37.9341C26.2193 39.7215 25.4387 41.9465 25.4432 44.2391V63.1539C25.4432 66.2686 26.1947 69.2067 27.5288 71.7967C25.6067 72.8074 23.4562 73.3045 21.2856 73.24C19.115 73.1755 16.9978 72.5516 15.1391 71.4285C13.2805 70.3055 11.7433 68.7215 10.6766 66.83C9.60982 64.9385 9.04964 62.8035 9.05029 60.6319V44.2391C9.05029 42.5669 9.71456 40.9632 10.897 39.7808C12.0794 38.5984 13.6831 37.9341 15.3552 37.9341H27.6549ZM61.1871 71.7967C62.5592 69.1224 63.2742 66.1596 63.2728 63.1539V44.2391C63.2728 41.8533 62.4456 39.6617 61.061 37.9341H73.3607C75.0329 37.9341 76.6366 38.5984 77.819 39.7808C79.0014 40.9632 79.6657 42.5669 79.6657 44.2391V60.6319C79.6663 62.8035 79.1062 64.9385 78.0394 66.83C76.9727 68.7215 75.4355 70.3055 73.5769 71.4285C71.7182 72.5516 69.601 73.1755 67.4304 73.24C65.2597 73.3045 63.1092 72.8074 61.1871 71.7967ZM35.5311 37.9341C33.8589 37.9341 32.2552 38.5984 31.0728 39.7808C29.8904 40.9632 29.2261 42.5669 29.2261 44.2391V63.1539C29.2261 67.1671 30.8204 71.016 33.6581 73.8538C36.4959 76.6915 40.3448 78.2858 44.358 78.2858C48.3712 78.2858 52.2201 76.6915 55.0578 73.8538C57.8956 71.016 59.4899 67.1671 59.4899 63.1539V44.2391C59.4899 42.5669 58.8256 40.9632 57.6432 39.7808C56.4608 38.5984 54.8571 37.9341 53.1849 37.9341H35.5311Z" fill="#151515"/>
</svg>
