<svg width="954" height="763" viewBox="0 0 954 763" fill="none" xmlns="http://www.w3.org/2000/svg">
<path d="M123.996 9.5H507.996V0.5H123.996V9.5ZM770.832 9.5H608.996V0.5H770.832C871.715 0.5 953.496 82.2815 953.496 183.164C953.496 284.047 871.715 365.828 770.832 365.828H452.996V356.828H770.832C866.744 356.828 944.496 279.076 944.496 183.164C944.496 87.2521 866.744 9.5 770.832 9.5ZM322.996 356.828H128.332C79.9725 356.828 35.5656 373.752 0.710938 402H15.5484C47.3212 379.231 86.2615 365.828 128.332 365.828H322.996V356.828ZM128.332 762.5C83.3021 762.5 41.6993 747.826 8.04432 723H23.9146C54.0519 742.306 89.8848 753.5 128.332 753.5H793.178V762.5H128.332Z" fill="#151515"/>
</svg>
