<svg width="91" height="90" viewBox="0 0 91 90" fill="none" xmlns="http://www.w3.org/2000/svg">
<path d="M73.2714 21.5678C73.2714 18.5756 72.0827 15.7059 69.9669 13.5901C67.8511 11.4743 64.9814 10.2856 61.9892 10.2856H22.0678C19.0756 10.2856 16.2059 11.4743 14.0901 13.5901C11.9743 15.7059 10.7856 18.5756 10.7856 21.5678V24.1714H73.2714V21.5678ZM73.2714 41.6049V29.3785H10.7856V61.4892C10.7856 64.4814 11.9743 67.3511 14.0901 69.4669C16.2059 71.5827 19.0756 72.7714 22.0678 72.7714H42.1049C39.334 68.4389 38.1262 63.2899 38.6816 58.1773C39.2369 53.0646 41.5221 48.295 45.1585 44.6585C48.795 41.0221 53.5646 38.7369 58.6773 38.1816C63.7899 37.6262 68.9389 38.834 73.2714 41.6049ZM80.2142 60.6214C80.2142 55.5576 78.2027 50.7013 74.6221 47.1207C71.0414 43.5401 66.1851 41.5285 61.1214 41.5285C56.0576 41.5285 51.2013 43.5401 47.6207 47.1207C44.0401 50.7013 42.0285 55.5576 42.0285 60.6214C42.0285 65.6851 44.0401 70.5414 47.6207 74.1221C51.2013 77.7027 56.0576 79.7142 61.1214 79.7142C66.1851 79.7142 71.0414 77.7027 74.6221 74.1221C78.2027 70.5414 80.2142 65.6851 80.2142 60.6214ZM61.1214 48.4714C61.5817 48.4714 62.0232 48.6542 62.3487 48.9797C62.6742 49.3052 62.8571 49.7467 62.8571 50.2071V58.8856H69.7999C70.2603 58.8856 70.7018 59.0685 71.0273 59.394C71.3528 59.7195 71.5356 60.161 71.5356 60.6214C71.5356 61.0817 71.3528 61.5232 71.0273 61.8487C70.7018 62.1742 70.2603 62.3571 69.7999 62.3571H61.1214C60.661 62.3571 60.2195 62.1742 59.894 61.8487C59.5685 61.5232 59.3856 61.0817 59.3856 60.6214V50.2071C59.3856 49.7467 59.5685 49.3052 59.894 48.9797C60.2195 48.6542 60.661 48.4714 61.1214 48.4714Z" fill="#151515"/>
</svg>
