<svg width="91" height="90" viewBox="0 0 91 90" fill="none" xmlns="http://www.w3.org/2000/svg">
<path d="M49.3518 75.857C50.3749 75.857 51.356 76.2634 52.0794 76.9868C52.8028 77.7102 53.2091 78.6913 53.2091 79.7143C53.2091 80.7374 52.8028 81.7185 52.0794 82.4419C51.356 83.1653 50.3749 83.5716 49.3518 83.5716C48.3288 83.5716 47.3477 83.1653 46.6243 82.4419C45.9009 81.7185 45.4945 80.7374 45.4945 79.7143C45.4945 78.6913 45.9009 77.7102 46.6243 76.9868C47.3477 76.2634 48.3288 75.857 49.3518 75.857ZM35.8512 71.9997C36.8742 71.9997 37.8554 72.4061 38.5787 73.1295C39.3021 73.8529 39.7085 74.834 39.7085 75.857C39.7085 76.88 39.3021 77.8612 38.5787 78.5845C37.8554 79.3079 36.8742 79.7143 35.8512 79.7143C34.8282 79.7143 33.8471 79.3079 33.1237 78.5845C32.4003 77.8612 31.9939 76.88 31.9939 75.857C31.9939 74.834 32.4003 73.8529 33.1237 73.1295C33.8471 72.4061 34.8282 71.9997 35.8512 71.9997ZM62.8524 71.9997C63.8755 71.9997 64.8566 72.4061 65.58 73.1295C66.3034 73.8529 66.7098 74.834 66.7098 75.857C66.7098 76.88 66.3034 77.8612 65.58 78.5845C64.8566 79.3079 63.8755 79.7143 62.8524 79.7143C61.8294 79.7143 60.8483 79.3079 60.1249 78.5845C59.4015 77.8612 58.9951 76.88 58.9951 75.857C58.9951 74.834 59.4015 73.8529 60.1249 73.1295C60.8483 72.4061 61.8294 71.9997 62.8524 71.9997ZM49.3595 21.8892C61.5795 21.8892 68.515 29.978 69.5218 39.7486H69.8303C71.6983 39.7461 73.5485 40.1116 75.2752 40.8242C77.0019 41.5368 78.5713 42.5826 79.8938 43.9019C81.2163 45.2211 82.2659 46.788 82.9827 48.5129C83.6995 50.2379 84.0695 52.0872 84.0716 53.9551C84.069 55.8228 83.6987 57.6717 82.9816 59.3962C82.2645 61.1207 81.2148 62.6871 79.8924 64.0059C78.57 65.3248 77.0008 66.3702 75.2743 67.0826C73.5479 67.795 71.698 68.1603 69.8303 68.1578H28.8849C27.0172 68.1603 25.1674 67.795 23.4409 67.0826C21.7145 66.3702 20.1452 65.3248 18.8228 64.0059C17.5004 62.6871 16.4507 61.1207 15.7336 59.3962C15.0166 57.6717 14.6462 55.8228 14.6437 53.9551C14.6457 52.0872 15.0157 50.2379 15.7325 48.5129C16.4493 46.788 17.499 45.2211 18.8214 43.9019C20.1439 42.5826 21.7133 41.5368 23.44 40.8242C25.1667 40.1116 27.0169 39.7461 28.8849 39.7486H29.1935C30.208 29.9125 37.1396 21.8892 49.3595 21.8892ZM16.0516 37.9164C16.3198 38.5624 16.3449 39.2837 16.1222 39.9468C15.8996 40.6099 15.4442 41.1698 14.8404 41.523L14.4894 41.6966L10.9136 43.1778C10.2372 43.4535 9.48158 43.4631 8.79837 43.2047C8.11517 42.9464 7.55498 42.4391 7.23028 41.7848C6.90557 41.1305 6.84039 40.3776 7.0478 39.6773C7.25522 38.9769 7.71989 38.3809 8.34852 38.009L8.69953 37.8315L12.2753 36.3503C12.6263 36.2049 13.0025 36.1301 13.3825 36.1301C13.7625 36.1301 14.1387 36.2049 14.4897 36.3504C14.8408 36.4958 15.1597 36.7089 15.4284 36.9776C15.697 37.2464 15.9062 37.5653 16.0516 37.9164ZM41.0779 19.274L40.4183 19.4977C33.533 21.9278 28.6033 27.2316 26.4741 34.2442L26.2041 35.2086L25.9765 36.1266L25.1819 36.2771C22.8729 36.7579 20.683 37.6941 18.7401 39.0312C16.9722 35.9925 16.3118 32.4351 16.8714 28.9643C17.4309 25.4936 19.1759 22.3239 21.8092 19.9948C24.4425 17.6657 27.8016 16.321 31.3147 16.1896C34.8278 16.0582 38.2779 17.1481 41.0779 19.274ZM10.5549 19.3936L10.9599 19.5286L14.5318 21.0098C15.2017 21.2922 15.7407 21.8164 16.0416 22.4782C16.3425 23.1399 16.3832 23.8907 16.1557 24.5811C15.9281 25.2716 15.449 25.851 14.8136 26.2042C14.1782 26.5574 13.4331 26.6584 12.7266 26.4872L12.3177 26.356L8.74582 24.8748C8.07417 24.5933 7.53341 24.0687 7.23152 23.406C6.92963 22.7432 6.8888 21.991 7.11721 21.2995C7.34561 20.6079 7.82643 20.028 8.46367 19.6754C9.10091 19.3228 9.84769 19.2197 10.5549 19.3936ZM25.2706 7.87946L25.4442 8.23048L26.9254 11.8024C27.2051 12.4794 27.2175 13.2373 26.9603 13.9231C26.703 14.6089 26.1951 15.1716 25.5392 15.4976C24.8832 15.8237 24.128 15.8887 23.426 15.6797C22.7239 15.4706 22.1273 15.0031 21.7566 14.3713L21.5791 14.0165L20.0979 10.4446C19.8222 9.76817 19.8126 9.01252 20.071 8.32931C20.3293 7.64611 20.8366 7.08592 21.4909 6.76122C22.1452 6.43652 22.8981 6.37133 23.5984 6.57875C24.2988 6.78616 24.8986 7.25083 25.2706 7.87946ZM42.0576 6.64898C42.6988 6.9141 43.2233 7.4008 43.5355 8.02036C43.8478 8.63991 43.927 9.35105 43.7587 10.0241L43.6237 10.4291L42.1464 14.001C41.8681 14.6771 41.3442 15.2228 40.68 15.5283C40.0158 15.8338 39.2605 15.8765 38.5661 15.6478C37.8717 15.4191 37.2896 14.9359 36.937 14.2955C36.5843 13.6551 36.4872 12.9049 36.6651 12.1958L36.8001 11.7869L38.2775 8.21505C38.4228 7.86398 38.6359 7.54499 38.9045 7.27628C39.1732 7.00758 39.4921 6.79442 39.8432 6.649C40.1942 6.50357 40.5704 6.42871 40.9504 6.42871C41.3304 6.42871 41.7066 6.50355 42.0576 6.64898Z" fill="#151515"/>
</svg>
