<svg width="52" height="60" viewBox="0 0 52 60" fill="none" xmlns="http://www.w3.org/2000/svg">
<path d="M26.2734 25.7526C19.8747 25.6666 13.5447 25.1162 7.43841 23.0177C5.78713 22.45 4.18745 21.7276 2.77698 20.6783C2.43296 20.4203 2.10614 20.1451 1.79652 19.8355C0.0764362 18.0982 0.0592352 16.2061 1.79652 14.486C3.63702 12.6627 6.01074 11.7855 8.40166 10.9943C10.4658 10.3062 12.5815 9.82459 14.7316 9.51498C15.368 9.42897 15.6604 9.15378 15.8841 8.58615C16.8129 6.28123 17.7761 3.99349 18.7394 1.68857C19.4962 -0.134719 20.9583 -0.51313 22.4892 0.708133C23.5728 1.55098 24.6565 2.39382 25.6886 3.28827C26.1014 3.64948 26.3766 3.59787 26.7722 3.27105C27.8387 2.3766 28.9395 1.49935 30.0576 0.639304C31.4853 -0.478754 32.9473 -0.100326 33.6526 1.55096C34.633 3.87308 35.6135 6.178 36.5423 8.51732C36.7831 9.10215 37.0755 9.39456 37.7464 9.49776C41.1178 10.031 44.4203 10.8394 47.5165 12.3359C48.7549 12.9379 49.9418 13.6432 50.8707 14.6752C52.3155 16.2749 52.3155 17.995 50.8879 19.5947C49.7526 20.8504 48.2905 21.6416 46.7596 22.3124C42.597 24.1185 38.1764 24.8926 33.7042 25.357C31.2444 25.6322 28.7675 25.7526 26.2734 25.7526Z" fill="#151515"/>
<path d="M11.841 37.8631C11.2046 37.2611 10.551 36.6763 9.93174 36.057C8.48687 34.6293 7.05919 33.2017 5.63152 31.7568C4.71987 30.8279 4.54787 29.8303 5.1499 28.9014C5.71753 28.007 6.69798 27.7146 7.86764 28.1102C10.2586 28.9015 12.6323 29.6927 15.0232 30.5011C16.6573 31.0516 18.257 31.6364 19.9083 32.118C21.1123 32.462 21.7488 33.2017 22.0584 34.4057C23.314 39.1532 24.6385 43.9006 25.9286 48.6308C25.9974 48.8717 26.0662 49.1297 26.1522 49.4221C26.5134 49.2157 26.4618 48.8717 26.5306 48.6137C27.8551 43.8146 29.1795 39.0328 30.4696 34.2165C30.762 33.1329 31.364 32.5136 32.4133 32.1696C36.3523 30.8967 40.2741 29.5551 44.2131 28.2478C45.7612 27.7318 46.7072 27.9382 47.3437 28.9358C47.9801 29.9335 47.7393 30.8967 46.604 32.032C44.8323 33.8037 43.0435 35.5926 41.2718 37.3643C41.0826 37.5535 40.8933 37.7599 40.6181 38.0695C42.4414 38.1555 44.0927 38.3447 45.7268 38.7919C47.4125 39.2564 49.0122 39.9444 50.5258 40.8217C51.4375 41.3377 52.0911 42.0257 51.9707 43.1438C51.8503 44.2618 51.0935 44.7778 50.0786 45.1047C43.2671 47.3924 36.9715 50.6262 31.5361 55.408C30.246 56.5433 29.0935 57.7989 27.9755 59.1062C26.9778 60.2759 25.5329 60.3103 24.5697 59.1406C19.8395 53.4643 13.7331 49.7317 7.0592 46.8247C5.49392 46.1367 3.87703 45.5175 2.24295 45.0187C1.3141 44.7262 0.677665 44.1586 0.557259 43.1782C0.419652 42.1461 0.935681 41.4409 1.79572 40.9249C4.85748 39.0844 8.17725 38.1555 11.7378 38.0695C11.755 38.0179 11.8066 37.9319 11.841 37.8631Z" fill="#151515"/>
</svg>
