<svg width="62" height="60" viewBox="0 0 62 60" fill="none" xmlns="http://www.w3.org/2000/svg">
<path d="M31.0225 33.0717C22.9309 33.0717 14.8393 33.0717 6.74777 33.0717C3.32227 33.0717 0.730001 30.9238 0.304129 27.7946C-0.214325 24.0173 2.58161 20.8139 6.4515 20.7769C7.11808 20.7769 7.39584 20.6473 7.52545 19.9252C9.34004 8.81547 18.7833 0.464639 29.9856 0.0202505C41.299 -0.442655 51.3718 7.07494 54.1122 18.018C54.2604 18.6476 54.427 19.2771 54.5011 19.9067C54.5751 20.5177 54.7603 20.7769 55.4639 20.7769C59.1116 20.8139 61.815 23.4803 61.7965 26.9428C61.7779 30.4239 59.0561 33.0532 55.3899 33.0717C47.2798 33.0902 39.1511 33.0717 31.0225 33.0717Z" fill="#151515"/>
<path d="M57.9648 41.8837C57.9648 44.1056 58.0388 46.3091 57.4648 48.494C54.4837 59.8259 40.4855 63.8254 32.005 55.7524C31.9865 55.7338 31.968 55.7153 31.931 55.6968C31.0237 54.8265 31.0237 54.8265 30.1349 55.6783C21.5434 63.8809 7.43404 59.8259 4.54551 48.3459C4.08261 46.5128 4.06409 44.6241 4.08261 42.7539C4.10112 41.2171 4.10112 39.6803 4.08261 38.1434C4.08261 37.662 4.19371 37.4769 4.71216 37.5509C6.15643 37.7916 7.60068 37.6991 9.04495 37.6991C24.3023 37.6991 39.5782 37.6991 54.8355 37.6991C55.5947 37.6991 56.3724 37.6805 57.1316 37.5694C57.7796 37.4768 58.0203 37.6065 57.9833 38.2916C57.9277 39.4766 57.9648 40.6801 57.9648 41.8837ZM18.7104 50.753C19.6918 50.753 20.6731 50.7715 21.673 50.753C23.0802 50.716 24.0616 49.7716 24.0801 48.4755C24.0986 47.1608 23.0802 46.1609 21.636 46.1424C19.6733 46.1239 17.692 46.1239 15.7293 46.1424C14.3221 46.1609 13.3407 47.1238 13.3037 48.4014C13.2852 49.716 14.3036 50.6974 15.7478 50.7345C16.7477 50.7715 17.7291 50.753 18.7104 50.753ZM43.2814 50.753C44.2998 50.753 45.3182 50.7715 46.3366 50.753C47.7253 50.716 48.7252 49.7161 48.7252 48.4569C48.7252 47.1793 47.7253 46.1795 46.3366 46.161C44.3368 46.1239 42.3371 46.1239 40.3373 46.161C38.9301 46.1795 37.9673 47.1608 37.9673 48.4569C37.9673 49.7531 38.9486 50.716 40.3373 50.753C41.3187 50.79 42.3001 50.753 43.2814 50.753Z" fill="#151515"/>
</svg>
