<svg width="58" height="60" viewBox="0 0 58 60" fill="none" xmlns="http://www.w3.org/2000/svg">
<path d="M28.9161 47.7674C20.9272 47.7674 12.9383 47.7674 4.94939 47.7674C4.39073 47.7674 4.44657 47.4881 4.50243 47.1529C4.61417 42.6836 5.84328 38.5495 8.18966 34.7506C11.374 29.6667 15.8992 26.1472 21.5976 24.3594C34.0558 20.5047 46.905 26.8734 51.5978 38.6053C52.7151 41.3428 53.2737 44.192 53.3296 47.1529C53.3296 47.5439 53.3296 47.7115 52.8268 47.7115C44.8938 47.7674 36.9049 47.7674 28.9161 47.7674Z" fill="#151515"/>
<path d="M28.863 59.9997C21.0976 59.9997 13.3322 59.9997 5.51087 59.9997C2.49409 59.9997 0.259467 57.6533 0.371199 54.6924C0.427066 52.1226 2.54999 49.9438 5.11984 49.832C5.28744 49.832 5.5109 49.832 5.6785 49.832C21.1535 49.832 36.6284 49.832 52.1593 49.832C54.338 49.832 55.9581 50.7259 56.9637 52.6812C58.6397 56.0332 56.1816 59.9997 52.3827 59.9997C44.5614 59.9997 36.7402 59.9997 28.863 59.9997Z" fill="#151515"/>
<path d="M25.3457 2.90506C26.4631 2.90506 26.4631 2.90504 26.7983 1.84358C26.91 1.56425 26.9659 1.28494 27.0776 1.06147C27.4686 0.391078 28.0273 0 28.8094 0C29.5916 0 30.2061 0.335191 30.5972 1.00559C30.7089 1.17319 30.7648 1.39665 30.8765 1.56425C31.4352 3.18437 30.9883 2.90506 32.776 2.90506C33.8375 2.90506 34.6195 3.40784 34.8989 4.35757C35.1782 5.19556 34.843 6.08943 34.005 6.70396C32.8877 7.54195 32.8877 7.54197 33.2787 8.88276C33.6139 10.0001 33.3905 10.8381 32.5525 11.3967C31.7704 11.9554 30.9324 11.8995 29.9827 11.1733C29.8709 11.0615 29.7033 11.0057 29.5916 10.8939C29.1446 10.447 28.6977 10.447 28.1949 10.8939C27.9156 11.1174 27.5804 11.3409 27.3011 11.5085C26.5189 11.8995 25.7368 11.8437 25.1223 11.2292C24.4519 10.6705 24.2284 9.9442 24.4519 9.1062C24.8988 7.54195 24.8988 7.54196 23.6698 6.53637C22.9435 5.9777 22.6641 5.08384 22.8876 4.30171C23.1669 3.40785 23.8932 2.8492 24.8988 2.8492C25.0664 2.90507 25.1781 2.90506 25.3457 2.90506Z" fill="#151515"/>
<path d="M43.7201 11.0622C45.1168 11.0622 44.7816 11.1739 45.2285 9.83314C45.7313 8.43648 46.7369 7.82192 47.9659 8.26885C48.6363 8.49232 49.0274 8.99512 49.2509 9.66551C49.3626 9.94484 49.4744 10.2242 49.5302 10.5035C49.642 10.9504 49.9212 11.118 50.3123 11.0622C50.6475 11.0622 50.9827 11.0622 51.3738 11.0622C52.2676 11.118 52.938 11.6208 53.2732 12.4588C53.5526 13.1851 53.2733 14.079 52.6587 14.6376C52.3794 14.917 52.0442 15.1404 51.709 15.3639C51.3179 15.5873 51.262 15.9226 51.4296 16.3136C51.5414 16.6488 51.6532 16.984 51.7649 17.3192C51.9883 18.1572 51.7649 18.9393 51.0386 19.498C50.3682 20.0567 49.4185 20.2243 48.8039 19.6097C47.7425 18.6042 46.8486 18.66 45.7871 19.6097C45.1168 20.1684 44.2229 20.0008 43.5525 19.4421C42.8262 18.8835 42.6028 18.1013 42.8821 17.2075C43.3291 15.6991 43.329 15.6991 42.1 14.7494C41.3179 14.1907 41.0385 13.2968 41.262 12.4588C41.5413 11.565 42.2676 11.0063 43.2732 11.0063C43.3849 11.0622 43.5525 11.0622 43.7201 11.0622Z" fill="#151515"/>
<path d="M16.6848 13.0724C16.6848 13.6869 16.4614 14.1897 16.0145 14.6367C15.8469 14.8043 15.6793 14.916 15.4558 15.0836C14.562 15.754 14.4502 15.5305 14.8412 16.8155C15.344 18.3797 14.8971 19.4412 13.6122 19.8881C12.9977 20.1116 12.439 19.944 11.8804 19.6088C11.5452 19.3853 11.2099 19.1618 10.9306 18.9384C10.6513 18.7149 10.4278 18.7149 10.0926 18.9384C9.7574 19.2177 9.36639 19.497 9.03119 19.7205C8.24906 20.1674 7.46688 20.1115 6.74062 19.5529C6.01435 18.9942 5.79092 18.2121 6.07025 17.3182C6.51718 15.8098 6.51718 15.8098 5.23225 14.8042C4.50599 14.2456 4.22665 13.3517 4.45011 12.5696C4.72944 11.6757 5.45569 11.1171 6.46129 11.1171C8.02554 11.0612 8.02558 11.0612 8.52838 9.60869C8.86358 8.65896 9.64569 8.10031 10.5396 8.15617C11.4334 8.15617 12.1597 8.77068 12.4949 9.66454C12.9977 11.0612 12.9977 11.0612 14.4502 11.1171C15.791 11.1171 16.6848 11.8992 16.6848 13.0724Z" fill="#151515"/>
<path d="M35.0082 21.1152C35.0082 21.9532 35.0082 21.9532 34.226 21.7856C30.5947 21.0594 26.9634 21.0594 23.388 21.8415C22.8293 21.9533 22.7734 21.7857 22.7734 21.2829C22.7734 17.9309 25.455 15.1376 28.7511 15.1376C32.2148 15.0817 34.9523 17.7633 35.0082 21.1152Z" fill="#151515"/>
</svg>
