<svg width="35" height="60" viewBox="0 0 35 60" fill="none" xmlns="http://www.w3.org/2000/svg">
<path d="M34.172 19.7877C34.172 24.1547 34.1259 28.5671 34.172 32.934C34.2642 38.1198 33.5263 43.1691 31.9583 48.0819C31.5432 49.4466 31.1742 50.8112 30.7591 52.1759C30.1135 54.2684 30.3902 56.4064 30.3441 58.5444C30.298 59.7271 30.0674 60 28.8682 60C21.0279 60 13.2337 60 5.39336 60C4.24037 60 4.00978 59.7271 3.96366 58.5898C3.91754 56.4519 4.19426 54.3139 3.59471 52.2214C3.13351 50.7202 2.76453 49.2191 2.30334 47.7635C0.827511 43.0781 0.135728 38.3017 0.181848 33.3889C0.227968 22.7445 0.181848 12.1456 0.181848 1.50114C0.181848 0.272934 0.45856 0 1.70379 0C12.0346 0 22.3654 0 32.6962 0C33.8492 0 34.172 0.272934 34.172 1.45565C34.172 7.55118 34.172 13.6922 34.172 19.7877ZM17.2461 2.00152C12.4497 2.00152 7.60711 2.00152 2.81067 2.00152C2.39559 2.00152 2.21112 2.0925 2.21112 2.54739C2.25724 4.36695 2.25724 6.23199 2.21112 8.05155C2.21112 8.50644 2.34946 8.59742 2.76453 8.59742C12.3574 8.59742 21.9964 8.59742 31.5893 8.59742C32.0505 8.59742 32.1427 8.41547 32.1427 8.00607C32.1427 6.18651 32.0966 4.41243 32.1427 2.59287C32.1427 2.04701 31.9583 2.00152 31.4971 2.00152C26.7467 2.00152 21.9964 2.00152 17.2461 2.00152ZM16.047 43.8514C16.0009 45.4435 16.8771 46.5807 18.1685 46.7627C20.0594 47.0356 21.9503 47.3086 23.8412 47.536C25.5476 47.718 26.7006 46.8082 26.9312 45.1251C27.1618 43.442 27.3924 41.7134 27.623 40.0303C27.8536 38.2563 26.9773 37.0735 25.1787 36.8461C23.9334 36.6641 22.6882 36.4822 21.443 36.3457C20.8895 36.2547 20.3822 36.2092 19.8288 36.1183C18.4452 35.9363 17.1077 36.7096 16.8771 38.0288C16.5543 40.0303 16.2776 42.0773 16.047 43.8514ZM12.0807 38.5747C12.8647 38.5747 13.5104 38.3017 14.0177 37.7559C15.3091 36.3002 16.6004 34.8446 17.8456 33.3889C18.8142 32.2517 18.6297 30.7506 17.4767 29.7498C16.0931 28.5671 14.7095 27.3844 13.3259 26.2017C12.0807 25.1554 10.5588 25.2464 9.49801 26.4291C8.25278 27.8393 7.00755 29.2039 5.80844 30.6141C4.83993 31.7058 4.93217 33.2525 6.03904 34.2532C7.46875 35.5269 8.94456 36.7551 10.3743 37.9833C10.8355 38.3472 11.435 38.5747 12.0807 38.5747ZM26.0549 22.972C26.0549 22.9265 26.0549 22.79 26.0549 22.6535C25.5476 20.652 25.0864 18.605 24.4869 16.6035C24.1179 15.4208 22.7804 14.7384 21.5352 15.0114C19.5982 15.4663 17.7073 15.9212 15.8164 16.467C14.4328 16.8309 13.6949 18.1501 14.0177 19.5148C14.4789 21.3798 14.9401 23.1994 15.4474 25.0644C15.8164 26.3836 17.1077 27.2024 18.4452 26.9295C20.4283 26.4746 22.3654 25.9742 24.3024 25.4738C25.3631 25.2009 26.0549 24.2002 26.0549 22.972ZM17.2 53.9045C14.9863 53.9045 12.7725 53.9045 10.5126 53.9045C9.12906 53.9045 7.79158 53.9045 6.40799 53.9045C6.1774 53.9045 5.94679 53.859 5.99291 54.2229C6.03903 55.3601 6.03904 56.4973 6.03904 57.6346C6.03904 57.953 6.13127 58.044 6.4541 58.044C13.6026 58.044 20.7512 58.044 27.8997 58.044C28.2687 58.044 28.3609 57.9075 28.3609 57.5891C28.3609 56.5428 28.3148 55.4966 28.3609 54.4503C28.407 53.95 28.2226 53.859 27.7614 53.859C24.2563 53.9045 20.7051 53.9045 17.2 53.9045ZM11.0661 43.442C11.0661 42.9416 10.6049 42.4412 10.0515 42.3958C9.49802 42.3958 9.08294 42.8052 9.03682 43.351C8.9907 43.8969 9.45188 44.3973 10.0053 44.3973C10.5588 44.4428 11.0661 43.9879 11.0661 43.442ZM9.68247 19.3328C9.68247 18.787 9.2213 18.3321 8.66787 18.3321C8.11443 18.3321 7.65323 18.787 7.65323 19.3328C7.65323 19.8787 8.06829 20.2881 8.62173 20.2881C9.17516 20.2881 9.68247 19.8332 9.68247 19.3328ZM25.317 31.5239C24.7636 31.5239 24.3485 31.9333 24.3024 32.4791C24.3024 33.025 24.7175 33.5254 25.317 33.5254C25.8705 33.5254 26.3317 33.025 26.3317 32.4791C26.2855 31.9788 25.8243 31.5239 25.317 31.5239Z" fill="#151515"/>
</svg>
