<svg width="80" height="60" viewBox="0 0 80 60" fill="none" xmlns="http://www.w3.org/2000/svg">
<path d="M61.7704 51.2453C61.7704 49.7774 61.7503 48.3095 61.7905 46.8416C61.8106 46.3188 61.6497 45.977 61.2274 45.6552C58.915 43.8455 56.6026 42.0157 54.2902 40.206C53.4456 39.5424 52.6212 38.8587 51.9576 38.0142C50.3691 35.9632 50.349 33.9121 51.9174 31.8611C53.4456 29.8704 54.994 27.8998 56.5423 25.9293C57.427 24.7831 57.2662 24.2402 55.8787 23.7375C54.1092 23.094 52.4402 23.456 50.8919 24.3809C49.8865 24.9842 48.9414 25.6678 47.9763 26.3314C46.5888 27.2564 45.1611 27.0754 44.2563 25.8689C43.3715 24.6826 43.653 23.2348 44.9802 22.1892C47.2524 20.3995 49.5849 18.7306 52.5609 18.3083C57.2662 17.6648 61.3682 18.8512 64.7665 22.2495C67.0186 24.5016 67.1593 27.377 65.1284 29.8101C63.8817 31.2981 62.6149 32.766 61.3682 34.2339C60.584 35.1588 60.584 35.6012 61.4486 36.4659C63.0171 38.0544 64.6056 39.6429 66.1941 41.2114C67.4408 42.4178 68.024 43.8656 68.0039 45.615C67.9636 48.8926 68.0039 52.1702 67.9838 55.4478C67.9838 57.4788 66.7773 58.7657 64.9072 58.7657C63.0372 58.7657 61.8106 57.4788 61.7905 55.468C61.7503 54.0604 61.7704 52.6528 61.7704 51.2453Z" fill="#151515"/>
<path d="M30.5659 51.2649C30.5659 49.8372 30.5458 48.3894 30.586 46.9617C30.6061 46.3786 30.4252 45.9764 29.9627 45.5944C27.61 43.7847 25.2976 41.9146 22.945 40.0848C22.1608 39.4614 21.3967 38.818 20.7733 38.0137C19.1848 35.9828 19.1445 33.9116 20.713 31.8606C22.2211 29.8699 23.7895 27.8993 25.3378 25.9287C26.2427 24.7826 26.0818 24.2196 24.6944 23.737C22.9249 23.0935 21.2559 23.4353 19.7076 24.3603C18.6821 24.9837 17.7169 25.6874 16.7115 26.351C15.3441 27.2559 13.8763 27.0146 13.0116 25.7679C12.2073 24.6217 12.4687 23.194 13.6953 22.2289C16.0077 20.399 18.3805 18.6697 21.4369 18.2676C26.1824 17.6442 30.3045 18.8909 33.6827 22.3495C35.7739 24.5011 35.8945 27.3765 33.9843 29.6889C32.7577 31.1769 31.4708 32.6448 30.2241 34.1127C29.3393 35.1583 29.3594 35.5605 30.3447 36.5659C31.8528 38.074 33.3609 39.6022 34.8891 41.0902C36.1559 42.3168 36.7994 43.7847 36.7793 45.5542C36.7391 48.8318 36.7793 52.1094 36.7592 55.387C36.7592 57.438 35.5728 58.7048 33.7229 58.7249C31.8126 58.745 30.6262 57.4581 30.6061 55.3468C30.5659 53.9995 30.5659 52.6322 30.5659 51.2649Z" fill="#151515"/>
<path d="M11.9655 49.8553C10.8394 49.8553 9.69329 49.8754 8.56724 49.8553C6.81784 49.7949 5.57114 48.5482 5.55103 46.8793C5.53092 45.1098 6.71729 43.8228 8.5069 43.7625C10.1759 43.7022 11.8448 43.6821 13.5138 43.7625C14.5393 43.8228 15.2632 43.5413 15.8865 42.6968C16.8316 41.4501 17.9376 40.324 18.9229 39.1176C19.4055 38.5344 19.6468 38.5948 20.0891 39.1578C20.994 40.3441 22.2206 41.1686 23.4271 41.993C23.97 42.3751 23.9901 42.6365 23.5276 43.1392C22.1602 44.6473 20.813 46.1755 19.4859 47.7238C18.2392 49.1917 16.6708 49.9156 14.7404 49.8754C13.8355 49.8552 12.8904 49.8754 11.9655 49.8553C11.9655 49.8754 11.9655 49.8754 11.9655 49.8553Z" fill="#151515"/>
<path d="M43.7548 49.8567C42.8299 49.8567 41.8848 49.897 40.9598 49.8567C39.2305 49.7763 38.0039 48.5095 38.0039 46.8204C38.0039 45.0911 39.1702 43.8444 40.9196 43.764C42.3271 43.7037 43.7347 43.7037 45.1222 43.764C45.9064 43.8042 46.4091 43.5227 46.8917 42.9195C47.9976 41.5722 49.1438 40.2853 50.2899 38.9783C50.491 38.737 50.672 38.3549 51.0339 38.8375C51.9991 40.1446 53.3061 41.0695 54.6333 41.9945C55.1963 42.3766 55.1762 42.6581 54.7338 43.1407C53.4268 44.5683 52.1198 46.0161 50.8932 47.5041C49.5258 49.1731 47.7965 49.9774 45.645 49.8567C45.0216 49.8366 44.3782 49.8768 43.7548 49.8567Z" fill="#151515"/>
<path d="M73.6167 36.5843C73.5161 36.5843 73.4156 36.5642 73.3151 36.5843C69.7358 37.2077 67.0011 35.5186 64.4876 33.2665C64.186 33.0051 64.0453 32.8644 64.367 32.4823C65.3523 31.2758 66.5788 30.2302 67.1419 28.7221C67.2424 28.4406 67.4234 28.5009 67.6044 28.6417C67.7049 28.7221 67.8256 28.8025 67.906 28.9031C69.8565 31.0144 72.2694 31.7182 75.0644 31.4166C75.6677 31.3562 76.2709 31.3965 76.8742 31.4166C78.2817 31.4769 79.3274 32.5426 79.3676 33.91C79.4078 35.3175 78.3823 36.4637 76.9345 36.5843C76.8742 36.5843 76.7937 36.5843 76.7334 36.5843C75.6878 36.5843 74.6623 36.5843 73.6167 36.5843Z" fill="#151515"/>
<path d="M42.3673 36.5845C42.2266 36.5845 42.1059 36.5644 41.9652 36.5845C38.386 37.2078 35.7518 35.4182 33.2383 33.2465C32.7959 32.8645 33.0171 32.6835 33.2584 32.3819C34.1834 31.2156 35.3698 30.2303 35.9127 28.7625C36.0735 28.3201 36.2947 28.5413 36.4958 28.7222C36.9985 29.1445 37.5213 29.5668 38.0441 30.0092C39.1501 30.9743 40.437 31.4167 41.9048 31.3966C43.1113 31.3765 44.3178 31.3765 45.5042 31.3966C47.0525 31.4167 48.1182 32.4623 48.1383 33.9503C48.1584 35.4383 47.1128 36.5242 45.5645 36.5644C44.4988 36.6247 43.4331 36.5845 42.3673 36.5845Z" fill="#151515"/>
<path d="M68.1257 11.5314C70.8001 11.5515 72.9516 13.7232 72.9516 16.3975C72.9516 19.1121 70.7598 21.2838 68.0251 21.2637C65.3508 21.2436 63.1992 19.0719 63.1992 16.3975C63.1992 13.683 65.391 11.5113 68.1257 11.5314Z" fill="#151515"/>
<path d="M32.0117 16.3975C32.0117 13.7031 34.1432 11.5515 36.8175 11.5314C39.5522 11.5113 41.744 13.6628 41.744 16.3774C41.744 19.1121 39.5723 21.2637 36.8376 21.2436C34.1432 21.2235 32.0117 19.092 32.0117 16.3975Z" fill="#151515"/>
<path d="M17.3119 0.0089369C20.0868 0.0089369 22.8617 0.0089369 25.6366 0.0089369C25.9382 0.0089369 26.2399 -0.0111748 26.5415 0.0491493C27.2252 0.169798 27.6273 0.612177 27.6072 1.29585C27.6072 1.93931 27.2051 2.36157 26.5817 2.48222C26.26 2.54255 25.9182 2.52244 25.5763 2.52244C20.1069 2.52244 14.6174 2.52244 9.14804 2.52244C9.00729 2.52244 8.88664 2.52244 8.74588 2.52244C7.70026 2.50233 7.15735 2.05995 7.13724 1.27574C7.11713 0.491527 7.68017 0.0290449 8.70568 0.0089369C9.46978 -0.0111711 10.2339 0.0089369 11.0181 0.0089369C13.0892 0.0089369 15.2006 0.0089369 17.3119 0.0089369Z" fill="#151515"/>
<path d="M9.75102 14.5063C7.74022 14.5063 5.74954 14.5063 3.73874 14.5063C2.57247 14.5063 1.94911 14.0438 1.96922 13.2194C1.98933 12.4351 2.59257 11.9727 3.6784 11.9727C7.74023 11.9727 11.8221 11.9727 15.884 11.9727C16.9899 11.9727 17.5932 12.415 17.6133 13.2194C17.6334 14.0438 17.01 14.5063 15.8438 14.5063C13.8129 14.5264 11.7819 14.5063 9.75102 14.5063Z" fill="#151515"/>
<path d="M7.68134 57.4967C9.10901 57.4967 10.5568 57.4766 11.9845 57.4967C12.9899 57.4967 13.5931 57.9994 13.573 58.7635C13.5529 59.5276 12.9697 59.9901 11.9442 59.9901C9.04867 59.9901 6.13302 60.0102 3.23746 59.9901C2.23206 59.9901 1.62882 59.4874 1.64892 58.7233C1.66903 57.9591 2.25216 57.4967 3.27767 57.4766C4.74556 57.4967 6.21345 57.4967 7.68134 57.4967Z" fill="#151515"/>
<path d="M7.72392 32.8873C9.15159 32.8873 10.5994 32.8873 12.027 32.8873C12.8716 32.8873 13.4748 33.1889 13.5552 34.0938C13.6357 34.8579 12.9922 35.3807 12.0069 35.3807C9.07117 35.4008 6.13538 35.3807 3.19961 35.3807C2.35507 35.3807 1.75184 35.059 1.6513 34.1742C1.57087 33.4101 2.21432 32.8873 3.19961 32.8672C4.70771 32.8672 6.21582 32.8873 7.72392 32.8873Z" fill="#151515"/>
<path d="M25.6994 8.73495C26.7249 8.73495 27.7706 8.71484 28.7961 8.73495C29.7009 8.75506 30.3042 9.27787 30.2438 10.0219C30.1634 10.8664 29.6205 11.2283 28.8162 11.2082C26.7249 11.2082 24.6136 11.2283 22.5224 11.2082C21.5974 11.2082 21.0143 10.6653 21.0746 9.92133C21.155 9.07679 21.6979 8.71484 22.5023 8.71484C23.568 8.73495 24.6337 8.73495 25.6994 8.73495Z" fill="#151515"/>
<path d="M55.6803 11.2306C54.6548 11.2306 53.6092 11.2306 52.5837 11.2306C51.7592 11.2306 51.2163 10.8887 51.1359 10.0442C51.0554 9.32029 51.6788 8.75727 52.5837 8.75727C54.6749 8.73716 56.7862 8.73716 58.8775 8.75727C59.7823 8.75727 60.3856 9.32029 60.3252 10.0442C60.2448 10.8887 59.7019 11.2306 58.8775 11.2306C57.8117 11.2306 56.746 11.2306 55.6803 11.2306Z" fill="#151515"/>
<path d="M5.00709 23.6964C6.07281 23.6964 7.13855 23.6763 8.20427 23.6964C9.00859 23.7165 9.59174 24.0986 9.57163 24.9431C9.57163 25.7877 9.0086 26.1898 8.18417 26.1898C6.05272 26.1898 3.92125 26.1898 1.7898 26.1898C0.965374 26.1898 0.422452 25.7676 0.402344 24.9431C0.402344 24.0986 0.965374 23.7165 1.7898 23.6964C2.87564 23.6964 3.94136 23.6964 5.00709 23.6964Z" fill="#151515"/>
</svg>
