<svg width="61" height="60" viewBox="0 0 61 60" fill="none" xmlns="http://www.w3.org/2000/svg">
<path d="M52.4341 0C52.4341 15.8104 52.4341 31.4826 52.4341 47.1548C52.0807 47.2162 51.8964 46.9704 51.6659 46.8321C45.3509 43.0984 38.867 39.6874 31.9374 37.229C29.1103 36.2303 26.2524 35.416 23.2563 35.1241C22.826 35.078 22.7031 34.9243 22.7031 34.5095C22.7185 27.2573 22.7185 20.005 22.7031 12.7528C22.7031 12.3994 22.7492 12.1997 23.1794 12.1536C29.0027 11.4929 34.3343 9.31111 39.5737 6.88346C43.7222 4.96285 47.7325 2.78104 51.6659 0.430219C51.881 0.291935 52.0961 0.184378 52.4341 0Z" fill="#151515"/>
<path d="M19.9055 23.6921C19.9055 27.2107 19.8901 30.7446 19.9209 34.2631C19.9362 34.9853 19.675 35.0929 19.0451 35.0929C16.6021 35.0621 14.1437 35.0314 11.7007 35.0929C5.23207 35.2619 0.0541168 29.623 0.530427 22.9239C0.899184 17.6076 4.41773 13.4591 9.30376 12.4297C10.1027 12.2607 10.9171 12.2146 11.7468 12.2146C14.2512 12.2146 16.7557 12.2299 19.2448 12.1992C19.798 12.1992 19.9362 12.3682 19.9209 12.8906C19.8901 16.486 19.9055 20.0814 19.9055 23.6921Z" fill="#151515"/>
<path d="M17.4618 59.9853C15.7255 59.9853 13.9893 59.9699 12.2531 60.0006C11.7153 60.0006 11.4848 59.847 11.4541 59.2785C10.9778 52.3797 10.4861 45.4655 9.97909 38.5667C9.93299 37.9982 10.1327 37.8906 10.6398 37.8906C13.5437 37.906 16.4631 37.906 19.367 37.8906C19.9048 37.8906 20.0431 38.075 20.0738 38.582C20.3811 44.1134 20.7038 49.6447 21.0264 55.1761C21.0725 55.9443 21.303 56.6204 21.8254 57.1889C22.2863 57.6959 22.7012 58.2491 23.1314 58.7868C23.3311 59.0327 23.6384 59.2631 23.4541 59.6473C23.2697 60.0314 22.9163 59.9699 22.5936 59.9699C20.8881 59.9853 19.1673 59.9853 17.4618 59.9853Z" fill="#151515"/>
<path d="M55.4138 23.584C55.4138 21.5712 55.4292 19.5584 55.3984 17.5303C55.3984 16.9925 55.5521 16.9464 56.013 17.1001C58.6251 18.0066 60.4842 20.6801 60.5149 23.6148C60.5457 26.488 58.7787 29.1307 56.2128 30.0834C55.4292 30.3753 55.4138 30.3599 55.4138 29.5456C55.3984 27.5635 55.4138 25.5815 55.4138 23.584Z" fill="#151515"/>
</svg>
