<svg width="51" height="50" viewBox="0 0 51 50" fill="none" xmlns="http://www.w3.org/2000/svg">
<path d="M25.5 0C11.6914 0 0.5 11.1914 0.5 25V48.4375C0.5 49.3034 1.19661 50 2.0625 50H14.0417C16.3398 50 18.2083 48.1315 18.2083 45.8333V32.2917C18.2083 29.9935 16.3398 28.125 14.0417 28.125H5.1875V25C5.1875 13.7826 14.2826 4.6875 25.5 4.6875C36.7174 4.6875 45.8125 13.7826 45.8125 25V28.125H36.9583C34.6602 28.125 32.7917 29.9935 32.7917 32.2917V45.8333C32.7917 48.1315 34.6602 50 36.9583 50H48.9375C49.8034 50 50.5 49.3034 50.5 48.4375V25C50.5 11.1914 39.3086 0 25.5 0Z" fill="#151515"/>
</svg>
