<svg width="56" height="60" viewBox="0 0 56 60" fill="none" xmlns="http://www.w3.org/2000/svg">
<path fill-rule="evenodd" clip-rule="evenodd" d="M26.0229 41.6296C17.1758 41.6296 9.53511 49.1446 9.53511 58.3296C9.53511 59.1646 10.3394 59.9996 11.1437 59.9996H40.5001C41.3044 59.9996 42.1087 59.1646 42.1087 58.3296C41.7065 49.1446 34.8701 42.0471 26.0229 41.6296ZM26.0229 17.832H25.6208C20.393 17.832 15.9694 22.4245 15.9694 28.2696C15.9694 33.6971 20.393 38.2896 25.6208 38.2896C30.8487 38.2896 35.6744 34.1146 35.6744 28.2696C35.6744 22.842 31.6529 17.832 26.0229 17.832Z" fill="#151515"/>
<path d="M46.9992 31.168L44.1644 37.4132L38 40.2852L44.1644 43.1343L46.9992 49.4024L49.8114 43.1343L55.9984 40.2852L49.8114 37.4132" fill="#151515"/>
<path d="M4.46145 25.668L3.05609 28.7754L0 30.1879L3.05609 31.6117L4.46145 34.7079L5.85565 31.6117L8.92289 30.1879L5.85565 28.7754" fill="#151515"/>
<path d="M19.2945 0L17.2225 4.61819L12.6641 6.71736L17.2225 8.81654L19.2945 13.4347L21.3665 8.81654L25.9249 6.71736L21.3665 4.61819" fill="#151515"/>
</svg>
