<svg width="58" height="45" viewBox="0 0 58 45" fill="none" xmlns="http://www.w3.org/2000/svg">
<path d="M22.5307 0V3.88125C20.112 2.95313 17.5184 2.475 14.9248 2.475C9.70859 2.475 4.49233 4.3875 0.5 8.24062L10.204 17.6063H13.4387V20.7281C15.9448 23.1469 19.2086 24.4125 22.5015 24.5531V30.9375H13.7883V39.375C13.7883 42.4688 16.411 45 19.6166 45H48.7577C53.5951 45 57.5 41.2313 57.5 36.5625V0H22.5307ZM51.6718 36.5625C51.6718 38.1094 50.3604 39.375 48.7577 39.375C47.1549 39.375 45.8436 38.1094 45.8436 36.5625V30.9375H28.3589V23.6531C30.0199 23.0063 31.5644 22.05 32.9049 20.7562L33.4877 20.1938L41.7347 28.125H45.8436V24.1594L28.3589 7.36875V5.625H51.6718V36.5625Z" fill="#151515"/>
</svg>
