<svg width="71" height="71" viewBox="0 0 71 71" fill="none" xmlns="http://www.w3.org/2000/svg">
<path d="M35.9375 19.8516C38.6989 19.8516 40.9375 17.3891 40.9375 14.3516C40.9375 11.314 38.6989 8.85156 35.9375 8.85156C33.1761 8.85156 30.9375 11.314 30.9375 14.3516C30.9375 17.3891 33.1761 19.8516 35.9375 19.8516Z" fill="#151515"/>
<path d="M35.9375 51.8516H41.4375V38.6697H46.9375V28.1243C46.9375 25.2164 44.4708 22.8516 41.4375 22.8516H30.4375C27.4042 22.8516 24.9375 25.2164 24.9375 28.1243V38.6697H30.4375V51.8516H35.9375Z" fill="#151515"/>
<path d="M53.3417 33.8516L50.9306 38.7395C55.1291 40.857 57.5375 43.6712 57.5375 46.4581C57.5375 51.6275 48.668 57.3871 35.9375 57.3871C23.207 57.3871 14.3375 51.6275 14.3375 46.4581C14.3375 43.6712 16.7459 40.857 20.9417 38.7395L18.5306 33.8516C12.434 36.9281 8.9375 41.521 8.9375 46.4581C8.9375 55.6494 20.7986 62.8516 35.9375 62.8516C51.0764 62.8516 62.9375 55.6494 62.9375 46.4581C62.9375 41.521 59.441 36.9281 53.3417 33.8516Z" fill="#151515"/>
</svg>
