<svg width="71" height="71" viewBox="0 0 71 71" fill="none" xmlns="http://www.w3.org/2000/svg">
<path d="M35.9375 7.85156C14.1597 7.85156 7.9375 16.831 7.9375 27.9087C7.9375 38.9864 14.1597 47.9659 35.9375 47.9659C57.7153 47.9659 63.9375 38.9864 63.9375 27.9087C63.9375 16.831 57.7153 7.85156 35.9375 7.85156ZM49.9375 32.5373C47.3553 32.5373 45.2708 30.4698 45.2708 27.9087C45.2708 25.3476 47.3553 23.2801 49.9375 23.2801C52.5197 23.2801 54.6042 25.3476 54.6042 27.9087C54.6042 30.4698 52.5197 32.5373 49.9375 32.5373ZM35.9375 32.5373C33.3553 32.5373 31.2708 30.4698 31.2708 27.9087C31.2708 25.3476 33.3553 23.2801 35.9375 23.2801C38.5197 23.2801 40.6042 25.3476 40.6042 27.9087C40.6042 30.4698 38.5197 32.5373 35.9375 32.5373ZM21.9375 32.5373C19.3553 32.5373 17.2708 30.4698 17.2708 27.9087C17.2708 25.3476 19.3553 23.2801 21.9375 23.2801C24.5197 23.2801 26.6042 25.3476 26.6042 27.9087C26.6042 30.4698 24.5197 32.5373 21.9375 32.5373ZM48.3819 49.5087C45.7997 49.5087 43.7153 51.5761 43.7153 54.1373C43.7153 56.6984 45.7997 58.7659 48.3819 58.7659C50.9642 58.7659 53.0486 56.6984 53.0486 54.1373C53.0486 51.5761 50.9642 49.5087 48.3819 49.5087ZM57.7153 55.6801C56.0042 55.6801 54.6042 57.0687 54.6042 58.7659C54.6042 60.463 56.0042 61.8516 57.7153 61.8516C59.4264 61.8516 60.8264 60.463 60.8264 58.7659C60.8264 57.0687 59.4264 55.6801 57.7153 55.6801Z" fill="#151515"/>
</svg>
