<svg width="24" height="24" viewBox="0 0 24 24" fill="none" xmlns="http://www.w3.org/2000/svg">
<path d="M2 19.7778C2 20.3671 2.23413 20.9324 2.65087 21.3491C3.06762 21.7659 3.63285 22 4.22222 22H19.7778C20.3671 22 20.9324 21.7659 21.3491 21.3491C21.7659 20.9324 22 20.3671 22 19.7778V4.22222C22 3.63285 21.7659 3.06762 21.3491 2.65087C20.9324 2.23413 20.3671 2 19.7778 2H4.22222C3.63285 2 3.06762 2.23413 2.65087 2.65087C2.23413 3.06762 2 3.63285 2 4.22222V19.7778ZM12 5.33333H18.6667V12H16.4444V7.55556H12V5.33333ZM5.33333 12H7.55556V16.4444H12V18.6667H5.33333V12Z" fill="#151515"/>
</svg>
