<svg width="24" height="24" viewBox="0 0 24 24" fill="none" xmlns="http://www.w3.org/2000/svg">
<path d="M9.14286 16.2857C9.14286 16.6646 8.99235 17.028 8.72444 17.2959C8.45653 17.5638 8.09317 17.7143 7.71429 17.7143C7.33541 17.7143 6.97204 17.5638 6.70413 17.2959C6.43622 17.028 6.28571 16.6646 6.28571 16.2857C6.28571 15.9068 6.43622 15.5435 6.70413 15.2756C6.97204 15.0077 7.33541 14.8571 7.71429 14.8571C8.09317 14.8571 8.45653 15.0077 8.72444 15.2756C8.99235 15.5435 9.14286 15.9068 9.14286 16.2857ZM12 13.4286C12.3789 13.4286 12.7422 13.2781 13.0102 13.0102C13.2781 12.7422 13.4286 12.3789 13.4286 12C13.4286 11.6211 13.2781 11.2578 13.0102 10.9898C12.7422 10.7219 12.3789 10.5714 12 10.5714C11.6211 10.5714 11.2578 10.7219 10.9898 10.9898C10.7219 11.2578 10.5714 11.6211 10.5714 12C10.5714 12.3789 10.7219 12.7422 10.9898 13.0102C11.2578 13.2781 11.6211 13.4286 12 13.4286ZM13.4286 16.2857C13.4286 16.6646 13.2781 17.028 13.0102 17.2959C12.7422 17.5638 12.3789 17.7143 12 17.7143C11.6211 17.7143 11.2578 17.5638 10.9898 17.2959C10.7219 17.028 10.5714 16.6646 10.5714 16.2857C10.5714 15.9068 10.7219 15.5435 10.9898 15.2756C11.2578 15.0077 11.6211 14.8571 12 14.8571C12.3789 14.8571 12.7422 15.0077 13.0102 15.2756C13.2781 15.5435 13.4286 15.9068 13.4286 16.2857ZM16.2857 13.4286C16.6646 13.4286 17.028 13.2781 17.2959 13.0102C17.5638 12.7422 17.7143 12.3789 17.7143 12C17.7143 11.6211 17.5638 11.2578 17.2959 10.9898C17.028 10.7219 16.6646 10.5714 16.2857 10.5714C15.9068 10.5714 15.5435 10.7219 15.2756 10.9898C15.0077 11.2578 14.8571 11.6211 14.8571 12C14.8571 12.3789 15.0077 12.7422 15.2756 13.0102C15.5435 13.2781 15.9068 13.4286 16.2857 13.4286ZM22 5.57143C22 4.62423 21.6237 3.71582 20.954 3.04605C20.2842 2.37627 19.3758 2 18.4286 2H5.57143C4.62423 2 3.71582 2.37627 3.04605 3.04605C2.37627 3.71582 2 4.62423 2 5.57143V18.4286C2 19.3758 2.37627 20.2842 3.04605 20.954C3.71582 21.6237 4.62423 22 5.57143 22H18.4286C19.3758 22 20.2842 21.6237 20.954 20.954C21.6237 20.2842 22 19.3758 22 18.4286V5.57143ZM3.42857 7.71429H20.5714V18.4286C20.5714 18.9969 20.3457 19.5419 19.9438 19.9438C19.5419 20.3457 18.9969 20.5714 18.4286 20.5714H5.57143C5.00311 20.5714 4.45806 20.3457 4.0562 19.9438C3.65434 19.5419 3.42857 18.9969 3.42857 18.4286V7.71429ZM5.57143 3.42857H18.4286C18.9969 3.42857 19.5419 3.65434 19.9438 4.0562C20.3457 4.45806 20.5714 5.00311 20.5714 5.57143V6.28571H3.42857V5.57143C3.42857 5.00311 3.65434 4.45806 4.0562 4.0562C4.45806 3.65434 5.00311 3.42857 5.57143 3.42857Z" fill="#151515" stroke="#151515" stroke-width="0.4"/>
</svg>
