<svg width="24" height="24" viewBox="0 0 24 24" fill="none" xmlns="http://www.w3.org/2000/svg">
<path d="M11.9958 12.0004C14.8412 12.0004 17.1478 9.76174 17.1478 7.0002C17.1478 4.23867 14.8412 2 11.9958 2C9.15039 2 6.84375 4.23867 6.84375 7.0002C6.84375 9.76174 9.15039 12.0004 11.9958 12.0004Z" stroke="#151515" stroke-width="2"/>
<path d="M17.152 13.9995H17.5147C18.268 13.9997 18.9953 14.2669 19.56 14.7508C20.1246 15.2348 20.4878 15.9022 20.5812 16.6276L20.9841 19.7517C21.0203 20.0332 20.9945 20.3189 20.9083 20.5899C20.822 20.8609 20.6774 21.111 20.484 21.3236C20.2905 21.5362 20.0527 21.7065 19.7863 21.823C19.5199 21.9396 19.231 21.9999 18.9387 21.9998H5.06126C4.76902 21.9999 4.4801 21.9396 4.21369 21.823C3.94728 21.7065 3.70947 21.5362 3.51604 21.3236C3.3226 21.111 3.17797 20.8609 3.09175 20.5899C3.00552 20.3189 2.97967 20.0332 3.01591 19.7517L3.41776 16.6276C3.51122 15.9018 3.87466 15.2341 4.43975 14.7502C5.00484 14.2662 5.73265 13.9992 6.48631 13.9995H6.84798" stroke="#151515" stroke-width="2" stroke-linecap="round" stroke-linejoin="round"/>
</svg>
