<svg width="60" height="60" viewBox="0 0 60 60" fill="none" xmlns="http://www.w3.org/2000/svg">
<path d="M0 53.0039C1.97721 53.0039 3.9544 53.0039 5.93161 53.0039C19.0116 53.0039 32.1676 53.0039 45.2476 53.0039C50.0385 53.0039 54.8294 53.0039 59.6203 53.0039C59.8485 53.0039 59.8485 53.0799 59.8485 53.232C59.8485 54.829 59.8485 56.426 59.8485 58.023C59.8485 58.5553 59.6964 59.0116 59.3922 59.3918C59.012 59.772 58.5557 60.0002 58.0234 60.0002C57.9473 60.0002 57.8713 60.0002 57.7952 60.0002C39.3159 60.0002 20.8367 60.0002 2.35744 60.0002C1.90116 60.0002 1.44488 60.0002 1.06464 59.772C0.608366 59.5439 0.304181 59.2397 0.304181 58.7074C0.304181 58.6313 0.304176 58.5553 0.22813 58.4032C0.0760371 58.5553 0.152097 58.7834 0.076051 58.9355C4.64037e-06 56.9583 0 54.9811 0 53.0039Z" fill="#151515"/>
<path d="M0 27.1478C0.0760464 27.3759 0.076051 27.6041 0.076051 27.8322C0.076051 28.2885 0.0760324 28.7448 0.152079 29.2771C0.228125 28.5166 0.152083 27.7562 0.22813 26.9957C0.380223 25.0185 0.836505 23.0413 1.44488 21.1401C2.20534 18.7827 3.26999 16.6534 4.56278 14.5241C5.09511 13.6876 5.62742 12.9271 6.23579 12.0906C6.38788 11.9385 6.46393 11.9385 6.61602 12.0906C7.52858 12.775 8.44114 13.3834 9.35369 14.0678C11.1788 15.3606 12.9279 16.6534 14.753 17.8701C14.9051 18.0222 14.829 18.0983 14.753 18.1743C13.8404 19.315 13.08 20.5318 12.4716 21.8246C11.6351 23.6497 11.0267 25.5508 10.7986 27.528C10.6465 28.8208 10.6465 30.1896 10.6465 31.5585C10.6465 31.7866 10.5704 31.7866 10.4183 31.7866C6.99625 31.7866 3.49814 31.7866 0.076051 31.7866C4.64037e-06 30.2657 0 28.6687 0 27.1478Z" fill="#151515"/>
<path d="M28.2128 0.152344C28.1367 0.22839 28.1367 0.228399 28.1367 0.304446C28.1367 3.42235 28.1367 6.54024 28.1367 9.65814C28.1367 9.96233 28.1367 10.2665 28.1367 10.5707C28.1367 10.7228 28.1368 10.7228 27.9847 10.7228C25.6272 11.027 23.4219 11.5593 21.3686 12.7C20.9123 12.9281 20.38 13.2323 19.9237 13.4605C19.6195 13.6126 19.3914 13.7647 19.1633 13.9928C18.6309 14.4491 18.0225 14.7532 17.4902 15.2095C17.4142 15.2856 17.3381 15.2095 17.2621 15.2095C16.2735 14.5251 15.3609 13.8407 14.3723 13.1563C12.5472 11.8635 10.7982 10.5707 8.97304 9.35396C8.66886 9.12582 8.66885 9.12581 8.89699 8.82163C10.0377 7.68093 11.3305 6.61629 12.6993 5.62769C14.7526 4.18281 16.8819 3.04211 19.2393 2.12955C20.8363 1.52118 22.5093 0.988863 24.1823 0.684678C25.323 0.456538 26.5398 0.380492 27.6805 0.304446C27.3002 0.152353 26.844 0.22839 26.4637 0.152344C27.1481 0.152344 27.6805 0.152344 28.2128 0.152344Z" fill="#151515"/>
<path d="M33.386 0.152102C33.0818 0.228148 32.8537 0.228153 32.5495 0.228153C32.3974 0.228153 32.2453 0.228158 32.0932 0.304204C32.6255 0.304204 33.1579 0.380232 33.6902 0.380232C35.3632 0.532325 36.9602 0.91257 38.4811 1.36885C40.6865 2.05327 42.8158 2.96583 44.793 4.10652C46.9983 5.39931 49.0516 6.92022 50.8007 8.74533C51.1048 9.04952 51.1048 9.04953 50.7246 9.35372C48.5953 10.8746 46.542 12.3956 44.4127 13.8404C43.8044 14.2967 43.196 14.753 42.5876 15.1332C42.4355 15.2093 42.4355 15.2093 42.2835 15.1332C41.523 14.6009 40.8386 13.9925 40.0781 13.5363C37.8727 12.2435 35.5153 11.2549 33.0058 10.8746C32.6256 10.7986 32.3213 10.7986 31.9411 10.7225C31.789 10.7225 31.7891 10.6465 31.7891 10.4944C31.7891 10.0381 31.7891 9.58184 31.7891 9.12556C31.7891 6.38789 31.7891 3.65023 31.7891 0.836515C31.7891 0.532329 31.7891 0.304185 31.7891 0C32.3214 0.152093 32.8537 0.152102 33.386 0.152102Z" fill="#151515"/>
<path d="M0 35.3633C3.49813 35.3633 6.92021 35.3633 10.4183 35.3633C10.5704 35.3633 10.6465 35.4393 10.6465 35.5914C10.6465 40.0021 10.6465 44.4889 10.6465 48.8995C10.6465 49.3558 10.6465 49.3558 10.1902 49.3558C6.92022 49.3558 3.65023 49.3558 0.380232 49.3558C0.228139 49.3558 0.152093 49.3558 0 49.2798C0 44.717 0 40.0021 0 35.3633Z" fill="#151515"/>
<path d="M25.932 36.4997C26.1602 36.2715 26.3883 36.1955 26.6164 36.1194C28.2894 35.435 30.0385 35.2069 31.7876 35.6632C33.7648 36.1194 35.4378 37.1081 36.7306 38.705C37.8713 40.0739 38.4797 41.5948 38.6318 43.3438C38.6318 43.7241 38.7078 44.0283 38.7078 44.4085C38.9359 45.4732 39.6964 46.0055 40.5329 45.9294C41.5215 45.8534 42.2059 45.0929 42.2059 44.1043C42.2059 43.0396 42.0539 42.0511 41.7497 40.9864C41.5976 40.5301 41.5215 40.1499 41.2934 39.6936C41.2934 39.6176 41.2174 39.5415 41.2934 39.5415C41.3695 39.4655 41.4455 39.5415 41.5215 39.5415C42.7383 40.1499 43.8029 40.9864 44.5634 42.1271C45.1718 43.1157 45.552 44.1043 45.628 45.245C45.7041 46.3096 45.628 47.3743 45.1718 48.3629C45.0197 48.6671 44.8676 48.9713 44.7915 49.2755C44.7155 49.3515 44.7155 49.4275 44.5634 49.4275C44.4113 49.4275 44.3353 49.4275 44.1832 49.4275C34.6774 49.4275 25.1716 49.4275 15.6658 49.4275C15.2855 49.4275 15.0574 49.3515 14.9053 48.8952C14.6011 48.1348 14.2969 47.4504 14.2209 46.6138C14.1448 45.0929 14.373 43.7241 15.1334 42.4313C15.8179 41.2906 16.7304 40.378 17.9472 39.7697C19.4681 39.0092 21.1411 38.705 22.8141 39.1613C25.0194 39.7697 26.6164 41.0625 27.529 43.1918C27.6811 43.572 27.9092 44.0283 28.2134 44.3325C28.8218 44.9408 29.8864 44.9408 30.4948 44.4085C31.1032 43.8762 31.3313 43.0397 31.0271 42.2792C30.5709 41.1385 29.9625 39.9978 29.126 39.0853C28.4416 38.3248 27.6811 37.6404 26.7685 37.108C26.5404 36.8039 26.3123 36.6518 25.932 36.4997Z" fill="#151515"/>
<path d="M54.6026 31.7866C52.9296 31.7866 51.2566 31.7866 49.5075 31.7866C49.2794 31.7866 49.2794 31.7106 49.2794 31.5585C49.2794 30.4938 49.2794 29.3531 49.2033 28.2885C48.9752 26.3873 48.5949 24.5622 47.8345 22.8132C47.1501 21.1401 46.2375 19.6192 45.0968 18.1743C45.0208 18.0222 45.0208 17.9462 45.1729 17.8701C47.7584 16.045 50.344 14.1439 52.9296 12.3188C53.0056 12.2427 53.1577 12.1667 53.2338 12.0906C53.3858 11.9385 53.4619 11.9385 53.614 12.0906C55.211 14.2199 56.5798 16.5013 57.5684 19.0108C58.0247 20.2276 58.481 21.4443 58.7852 22.6611C59.0894 23.8018 59.3175 25.0185 59.4696 26.1592C59.7738 27.9083 59.7738 29.6573 59.7738 31.4825C59.7738 31.7106 59.6977 31.7106 59.5456 31.7106C57.9487 31.7866 56.2756 31.7866 54.6026 31.7866Z" fill="#151515"/>
<path d="M49.2773 42.3577C49.2773 40.1524 49.2773 37.871 49.2773 35.6657C49.2773 35.4375 49.3534 35.4375 49.5055 35.4375C52.9276 35.4375 56.2736 35.4375 59.6957 35.4375C59.9238 35.4375 59.9238 35.5136 59.9238 35.6657C59.9238 39.9242 59.9238 44.1828 59.9238 48.4414C59.9238 48.6696 59.9238 48.8977 59.9238 49.2019C59.9238 49.354 59.8478 49.43 59.6957 49.43C58.7831 49.43 57.8706 49.43 56.958 49.43C54.5245 49.43 52.1671 49.43 49.7336 49.43C49.2773 49.43 49.2773 49.43 49.2773 48.9738C49.2773 46.6924 49.2773 44.5631 49.2773 42.3577Z" fill="#151515"/>
<path d="M31.7109 28.4391C31.787 26.8421 32.2433 25.6254 33.1558 24.5607C33.46 24.1805 33.9163 23.8003 34.2965 23.4961C34.5247 23.344 34.7528 23.1158 34.9049 22.8877C35.6654 21.8991 35.5893 20.4542 34.6768 19.6177C34.4486 19.4656 34.2965 19.2375 34.0684 19.0854C33.3079 18.3249 33.5361 17.3363 33.9923 16.804C34.6007 16.1196 35.5893 15.9675 36.3498 16.4998C37.3384 17.1842 38.0988 18.0968 38.5551 19.2375C38.8593 20.074 39.0114 20.9105 38.9353 21.823C38.8593 22.6595 38.6312 23.42 38.251 24.1805C37.9468 24.7128 37.6426 25.1691 37.1863 25.5493C36.8061 25.9295 36.3498 26.2337 35.9696 26.614C35.4372 27.1463 35.057 28.1349 35.3612 29.1235C35.5132 29.5798 35.7414 29.96 36.1216 30.2642C36.4258 30.4923 36.73 30.7965 36.8821 31.1767C37.2623 31.9372 36.9581 32.6977 36.4258 33.1539C35.8935 33.6102 34.9809 33.6863 34.3726 33.306C33.384 32.6216 32.6235 31.7091 32.1672 30.5684C31.8631 29.884 31.787 29.1235 31.7109 28.4391Z" fill="#151515"/>
<path d="M30.1124 21.3688C30.1124 22.6616 29.7321 23.8023 28.9717 24.867C28.5154 25.5514 27.907 26.0077 27.2987 26.4639C26.0819 27.4525 26.0819 29.2777 27.2226 30.2663C27.6029 30.5704 27.9831 30.8746 28.1351 31.407C28.4393 32.3956 27.831 33.4602 26.7663 33.6123C26.234 33.6883 25.7777 33.5363 25.3215 33.2321C24.6371 32.6997 24.1047 32.0914 23.6484 31.3309C23.3443 30.7225 23.04 30.0381 22.964 29.3537C22.888 28.5932 22.888 27.9088 23.0401 27.1484C23.1161 26.616 23.3443 26.0837 23.6484 25.5514C24.0287 24.943 24.4089 24.3347 25.0173 23.8784C25.3975 23.5742 25.7017 23.346 26.0059 23.0419C26.8424 22.2053 26.8424 20.4563 25.8538 19.6198C25.6256 19.4677 25.4735 19.2395 25.2454 19.0874C24.561 18.327 24.7131 17.4144 25.0933 16.8821C25.7017 16.1977 26.6142 16.0456 27.3747 16.5779C28.3633 17.2623 29.0477 18.0988 29.504 19.2395C29.9603 19.924 30.1124 20.6844 30.1124 21.3688Z" fill="#151515"/>
</svg>
