<svg width="51" height="60" viewBox="0 0 51 60" fill="none" xmlns="http://www.w3.org/2000/svg">
<path d="M31.2453 38.1928C27.0647 35.7637 24.3257 31.841 23.7228 27.4867C23.6506 26.9655 23.2185 26.5569 22.6923 26.5569H20.3822C19.8523 26.5569 19.4159 26.9669 19.3715 27.495C19.1143 30.5531 18.1756 37.2772 14.7053 40.3398C14.2844 40.7112 13.6068 40.7202 13.1754 40.3487C12.7546 39.9773 12.7444 39.3792 13.1652 38.9984C16.0294 36.4704 16.915 30.5469 17.1814 27.6153C17.2335 27.0418 16.7758 26.5566 16.1999 26.5566H15.2707C14.7446 26.5566 14.3124 26.9653 14.2403 27.4865C13.6373 31.8413 10.8983 35.7722 6.71776 38.2018C2.81622 40.4673 0.578125 43.7116 0.578125 47.0915C0.578125 53.6706 8.83313 59.0348 18.9772 59.0348C29.1213 59.0348 37.3763 53.6701 37.3763 47.0915C37.386 43.7027 35.1478 40.4583 31.2463 38.1928L31.2453 38.1928ZM28.699 48.5416C28.2369 48.8676 27.5593 48.8042 27.19 48.3968C22.9394 44.2283 21.7584 38.5102 21.7075 38.2746C21.6046 37.7489 22.0051 37.2597 22.5905 37.1688C23.186 37.078 23.7403 37.4314 23.8433 37.9481C23.8534 38.0025 24.9728 43.3761 28.7714 47.1372C28.8019 47.1642 28.8228 47.1916 28.8534 47.2186C29.233 47.6174 29.1611 48.2156 28.699 48.5416Z" fill="#151515"/>
<path d="M44.3587 32.5149C40.1781 30.0857 37.4391 26.163 36.8362 21.8087C36.764 21.2875 36.3319 20.8789 35.8057 20.8789H28.3639C27.8459 20.8789 27.4187 21.2757 27.3281 21.7857C27.0774 23.1962 26.5383 24.5608 25.7344 25.8087C25.8062 30.1494 28.3011 34.182 32.4181 36.5744C36.9357 39.2022 39.5228 43.0173 39.5228 47.0499C39.5126 49.0527 38.8865 51.0102 37.7158 52.7225V52.7495C45.2315 51.1455 50.5086 46.5872 50.4985 41.4038C50.4985 38.0245 48.2602 34.7804 44.3587 32.5149ZM40.6421 36.2486C40.2727 36.6564 39.5946 36.7198 39.1331 36.3934C32.2847 31.5544 32.9012 23.879 32.9012 23.5521C32.9425 23.0265 33.4657 22.637 34.0511 22.682C34.6467 22.7184 35.0879 23.1802 35.0369 23.6969C35.0268 23.7693 34.5341 30.711 40.4787 34.9158H40.4685C40.9296 35.2423 41.0115 35.8407 40.6421 36.2486Z" fill="#151515"/>
<path d="M7.77009 22.2072C8.36567 22.2072 8.83795 21.7813 8.84814 21.2647C8.84814 21.047 8.76611 20.8478 8.62244 20.6756C3.28361 14.7219 9.18693 10.1181 9.44371 9.91899C9.89561 9.58353 9.94656 8.98546 9.55681 8.58709C9.17674 8.18823 8.49914 8.14326 8.04779 8.48726C7.96577 8.54167 0.306406 14.4589 6.92848 21.8534C7.13329 22.0796 7.44149 22.2072 7.77009 22.2072Z" fill="#151515"/>
<path d="M15.062 9.52788C13.3579 10.8692 11.2425 12.5367 11.674 15.7716C12.2384 19.9854 16.3866 21.1181 18.4913 21.1271C19.0868 21.1271 19.5591 20.7013 19.5591 20.1846C19.5591 19.6679 19.0767 19.2421 18.4913 19.2421C18.3165 19.2421 14.2611 19.1697 13.7786 15.5539C13.4811 13.2974 14.8669 12.2101 16.4686 10.9412C17.8956 9.79045 19.5795 8.4855 19.5795 6.25604C19.5795 2.65865 15.6678 1.20841 13.604 0.98186C13.0084 0.909462 12.4643 1.27189 12.3823 1.79756C12.3002 2.32323 12.7109 2.80349 13.3064 2.87588C13.4812 2.87588 17.4338 3.41054 17.4338 6.2831C17.4648 7.58898 16.5507 8.37706 15.062 9.52788Z" fill="#151515"/>
</svg>
