<svg width="43" height="64" viewBox="0 0 43 64" fill="none" xmlns="http://www.w3.org/2000/svg">
<path d="M13.3955 16C16.6195 16.8 19.8437 22.3999 19.8438 28.7998V60.7998C19.8438 61.6485 19.504 62.4624 18.8994 63.0625C18.2949 63.6626 17.4751 63.9999 16.6201 64H3.72363C2.86871 63.9999 2.04887 63.6625 1.44434 63.0625C0.839782 62.4624 0.5 61.6485 0.5 60.7998V28.7998C0.500066 22.3999 3.72429 16.8 6.94824 16V8.44629H13.3955V16ZM11.7842 0C12.2116 6.47889e-05 12.6216 0.168749 12.9238 0.46875C13.226 0.768708 13.3954 1.17544 13.3955 1.59961V5.75781H6.94824V1.59961C6.94835 1.17547 7.1178 0.768702 7.41992 0.46875C7.72214 0.168781 8.13218 0.000100368 8.55957 0H11.7842Z" fill="#151515"/>
<path d="M41.2484 40.6089C41.4169 44.9526 37.7854 49.0638 32.0676 49.1141C29.4238 48.8974 25.9971 47.6707 24.3043 43.3151C24.2823 43.2586 23.8949 42.034 23.8594 40.6086C30.8179 35.3764 34.6427 42.8233 41.2484 40.6089Z" fill="#151515"/>
<path d="M32.557 49.1704C32.961 49.1704 33.2859 49.4948 33.2859 49.8979V59.4026C33.2859 59.8057 32.9609 60.1302 32.557 60.1302C32.1531 60.1302 31.8281 59.8057 31.8281 59.4026V49.8979C31.8281 49.4949 32.1531 49.1704 32.557 49.1704Z" fill="#151515"/>
<path d="M32.5528 57.2016C30.385 57.2016 28.4222 57.5043 26.9372 58.0269C26.1947 58.2881 25.5689 58.601 25.0844 59.0041C24.5996 59.4072 24.2266 59.9537 24.2266 60.5986C24.2266 61.2435 24.5996 61.7909 25.0844 62.194C25.5692 62.5971 26.1947 62.91 26.9372 63.1712C28.4222 63.6938 30.385 63.9956 32.5528 63.9956C34.7206 63.9956 36.6835 63.6935 38.1684 63.1712C38.9109 62.91 39.5367 62.5971 40.0213 62.194C40.506 61.7909 40.8791 61.2435 40.8791 60.5986C40.8791 59.9537 40.5061 59.4072 40.0213 59.0041C39.5365 58.601 38.9109 58.2881 38.1684 58.0269C36.6835 57.5043 34.7206 57.2016 32.5528 57.2016Z" fill="#151515"/>
<path d="M27.3729 30.7316C26.1391 30.7556 25.3153 30.8102 24.623 31.1535C23.9309 31.4965 23.5576 32.199 23.4085 32.9382C23.2596 33.6776 23.2189 34.5604 23.0705 35.7826L22.704 38.7997C22.5692 39.9096 22.5814 40.9621 22.7219 41.9473C23.4774 47.2454 27.9515 50.4856 32.5562 50.4856C38.0175 50.4856 43.2689 45.8789 42.4085 38.7993L42.042 35.7822C41.8931 34.5573 41.8461 33.6704 41.6869 32.9287C41.5277 32.1866 41.1405 31.4909 40.4455 31.151C39.7505 30.8112 38.9237 30.7552 37.6951 30.7313C36.4666 30.7073 34.8242 30.7439 32.5564 30.7439C30.2614 30.7439 28.6067 30.7076 27.3729 30.7316ZM27.4014 32.1786C28.5795 32.1557 30.2462 32.1912 32.5564 32.1912C34.8397 32.1912 36.4928 32.1557 37.6658 32.1786C38.8388 32.2014 39.5199 32.3113 39.8021 32.4492C40.0839 32.587 40.1431 32.6802 40.2611 33.2305C40.3791 33.7809 40.4412 34.6897 40.595 35.9557L40.9615 38.9727C41.73 45.2981 37.2095 49.0385 32.5564 49.0385C28.6327 49.0385 24.8215 46.3438 24.1653 41.7444C24.0432 40.8892 24.0304 39.9644 24.1512 38.9727L24.5177 35.9556C24.6717 34.6872 24.7265 33.7752 24.838 33.2221C24.9495 32.6691 25.003 32.5824 25.2745 32.4478C25.5461 32.3132 26.2232 32.2014 27.4014 32.1786Z" fill="#151515"/>
</svg>
