<svg width="50" height="36" viewBox="0 0 50 36" fill="none" xmlns="http://www.w3.org/2000/svg">
<path d="M47.9688 30H2.03125C1.61654 30 1.25765 29.8516 0.95459 29.5547C0.65153 29.2578 0.5 28.9062 0.5 28.5C0.5 22.625 2.35824 17.6172 6.07471 13.4766C9.79118 9.33594 14.5684 6.84375 20.4062 6C20.821 6 21.1799 5.85156 21.4829 5.55469C21.786 5.25781 21.9375 4.90625 21.9375 4.5C21.9375 4.09375 21.786 3.74219 21.4829 3.44531C21.1799 3.14844 20.821 3 20.4062 3C19.9915 3 19.6327 2.85156 19.3296 2.55469C19.0265 2.25781 18.875 1.90625 18.875 1.5C18.875 1.09375 19.0265 0.742188 19.3296 0.445312C19.6327 0.148438 19.9915 0 20.4062 0H29.5938C30.0085 0 30.3673 0.148438 30.6704 0.445312C30.9735 0.742188 31.125 1.09375 31.125 1.5C31.125 1.90625 30.9735 2.25781 30.6704 2.55469C30.3673 2.85156 30.0085 3 29.5938 3C29.179 3 28.8201 3.14844 28.5171 3.44531C28.214 3.74219 28.0625 4.09375 28.0625 4.5C28.0625 4.90625 28.214 5.25781 28.5171 5.55469C28.8201 5.85156 29.179 6 29.5938 6C35.4316 6.84375 40.2088 9.33594 43.9253 13.4766C47.6418 17.6172 49.5 22.625 49.5 28.5C49.5 28.9062 49.3485 29.2578 49.0454 29.5547C48.7424 29.8516 48.3835 30 47.9688 30ZM2.03125 33H47.9688C48.3835 33 48.7424 33.1484 49.0454 33.4453C49.3485 33.7422 49.5 34.0938 49.5 34.5C49.5 34.9062 49.3485 35.2578 49.0454 35.5547C48.7424 35.8516 48.3835 36 47.9688 36H2.03125C1.61654 36 1.25765 35.8516 0.95459 35.5547C0.65153 35.2578 0.5 34.9062 0.5 34.5C0.5 34.0938 0.65153 33.7422 0.95459 33.4453C1.25765 33.1484 1.61654 33 2.03125 33Z" fill="#151515"/>
</svg>
