<svg width="71" height="70" viewBox="0 0 71 70" fill="none" xmlns="http://www.w3.org/2000/svg">
<path d="M57.9688 47H12.0312C11.6165 47 11.2576 46.8516 10.9546 46.5547C10.6515 46.2578 10.5 45.9062 10.5 45.5C10.5 39.625 12.3582 34.6172 16.0747 30.4766C19.7912 26.3359 24.5684 23.8438 30.4062 23C30.821 23 31.1799 22.8516 31.4829 22.5547C31.786 22.2578 31.9375 21.9062 31.9375 21.5C31.9375 21.0938 31.786 20.7422 31.4829 20.4453C31.1799 20.1484 30.821 20 30.4062 20C29.9915 20 29.6327 19.8516 29.3296 19.5547C29.0265 19.2578 28.875 18.9062 28.875 18.5C28.875 18.0938 29.0265 17.7422 29.3296 17.4453C29.6327 17.1484 29.9915 17 30.4062 17H39.5938C40.0085 17 40.3673 17.1484 40.6704 17.4453C40.9735 17.7422 41.125 18.0938 41.125 18.5C41.125 18.9062 40.9735 19.2578 40.6704 19.5547C40.3673 19.8516 40.0085 20 39.5938 20C39.179 20 38.8201 20.1484 38.5171 20.4453C38.214 20.7422 38.0625 21.0938 38.0625 21.5C38.0625 21.9062 38.214 22.2578 38.5171 22.5547C38.8201 22.8516 39.179 23 39.5938 23C45.4316 23.8438 50.2088 26.3359 53.9253 30.4766C57.6418 34.6172 59.5 39.625 59.5 45.5C59.5 45.9062 59.3485 46.2578 59.0454 46.5547C58.7424 46.8516 58.3835 47 57.9688 47ZM12.0312 50H57.9688C58.3835 50 58.7424 50.1484 59.0454 50.4453C59.3485 50.7422 59.5 51.0938 59.5 51.5C59.5 51.9062 59.3485 52.2578 59.0454 52.5547C58.7424 52.8516 58.3835 53 57.9688 53H12.0312C11.6165 53 11.2576 52.8516 10.9546 52.5547C10.6515 52.2578 10.5 51.9062 10.5 51.5C10.5 51.0938 10.6515 50.7422 10.9546 50.4453C11.2576 50.1484 11.6165 50 12.0312 50Z" fill="#151515"/>
</svg>
