<svg width="71" height="70" viewBox="0 0 71 70" fill="none" xmlns="http://www.w3.org/2000/svg">
<path d="M27.3955 19C30.6195 19.8 33.8437 25.3999 33.8438 31.7998V63.7998C33.8438 64.6485 33.504 65.4624 32.8994 66.0625C32.2949 66.6626 31.4751 66.9999 30.6201 67H17.7236C16.8687 66.9999 16.0489 66.6625 15.4443 66.0625C14.8398 65.4624 14.5 64.6485 14.5 63.7998V31.7998C14.5001 25.3999 17.7243 19.8 20.9482 19V11.4463H27.3955V19ZM25.7842 3C26.2116 3.00006 26.6216 3.16875 26.9238 3.46875C27.226 3.76871 27.3954 4.17544 27.3955 4.59961V8.75781H20.9482V4.59961C20.9483 4.17547 21.1178 3.7687 21.4199 3.46875C21.7221 3.16878 22.1322 3.0001 22.5596 3H25.7842Z" fill="#151515"/>
<path d="M55.2484 43.6089C55.4169 47.9526 51.7854 52.0638 46.0676 52.1141C43.4238 51.8974 39.9971 50.6707 38.3043 46.3151C38.2823 46.2586 37.8949 45.034 37.8594 43.6086C44.8179 38.3764 48.6427 45.8233 55.2484 43.6089Z" fill="#151515"/>
<path d="M46.557 52.1704C46.961 52.1704 47.2859 52.4948 47.2859 52.8979V62.4026C47.2859 62.8057 46.9609 63.1302 46.557 63.1302C46.1531 63.1302 45.8281 62.8057 45.8281 62.4026V52.8979C45.8281 52.4949 46.1531 52.1704 46.557 52.1704Z" fill="#151515"/>
<path d="M46.5528 60.2016C44.385 60.2016 42.4222 60.5043 40.9372 61.0269C40.1947 61.2881 39.5689 61.601 39.0844 62.0041C38.5996 62.4072 38.2266 62.9537 38.2266 63.5986C38.2266 64.2435 38.5996 64.7909 39.0844 65.194C39.5692 65.5971 40.1947 65.91 40.9372 66.1712C42.4222 66.6938 44.385 66.9956 46.5528 66.9956C48.7206 66.9956 50.6835 66.6935 52.1684 66.1712C52.9109 65.91 53.5367 65.5971 54.0213 65.194C54.506 64.7909 54.8791 64.2435 54.8791 63.5986C54.8791 62.9537 54.5061 62.4072 54.0213 62.0041C53.5365 61.601 52.9109 61.2881 52.1684 61.0269C50.6835 60.5043 48.7206 60.2016 46.5528 60.2016Z" fill="#151515"/>
<path d="M41.3729 33.7316C40.1391 33.7556 39.3153 33.8102 38.623 34.1535C37.9309 34.4965 37.5576 35.199 37.4085 35.9382C37.2596 36.6776 37.2189 37.5604 37.0705 38.7826L36.704 41.7997C36.5692 42.9096 36.5814 43.9621 36.7219 44.9473C37.4774 50.2454 41.9515 53.4856 46.5562 53.4856C52.0175 53.4856 57.2689 48.8789 56.4085 41.7993L56.042 38.7822C55.8931 37.5573 55.8461 36.6704 55.6869 35.9287C55.5277 35.1866 55.1405 34.4909 54.4455 34.151C53.7505 33.8112 52.9237 33.7552 51.6951 33.7313C50.4666 33.7073 48.8242 33.7439 46.5564 33.7439C44.2614 33.7439 42.6067 33.7076 41.3729 33.7316ZM41.4014 35.1786C42.5795 35.1557 44.2462 35.1912 46.5564 35.1912C48.8397 35.1912 50.4928 35.1557 51.6658 35.1786C52.8388 35.2014 53.5199 35.3113 53.8021 35.4492C54.0839 35.587 54.1431 35.6802 54.2611 36.2305C54.3791 36.7809 54.4412 37.6897 54.595 38.9557L54.9615 41.9727C55.73 48.2981 51.2095 52.0385 46.5564 52.0385C42.6327 52.0385 38.8215 49.3438 38.1653 44.7444C38.0432 43.8892 38.0304 42.9644 38.1512 41.9727L38.5177 38.9556C38.6717 37.6872 38.7265 36.7752 38.838 36.2221C38.9495 35.6691 39.003 35.5824 39.2745 35.4478C39.5461 35.3132 40.2232 35.2014 41.4014 35.1786Z" fill="#151515"/>
</svg>
