<svg width="71" height="70" viewBox="0 0 71 70" fill="none" xmlns="http://www.w3.org/2000/svg">
<path d="M41.2453 43.1928C37.0647 40.7637 34.3257 36.841 33.7228 32.4867C33.6506 31.9655 33.2185 31.5569 32.6923 31.5569H30.3822C29.8523 31.5569 29.4159 31.9669 29.3715 32.495C29.1143 35.5531 28.1756 42.2772 24.7053 45.3398C24.2844 45.7112 23.6068 45.7202 23.1754 45.3487C22.7546 44.9773 22.7444 44.3792 23.1652 43.9984C26.0294 41.4704 26.915 35.5469 27.1814 32.6153C27.2335 32.0418 26.7758 31.5566 26.1999 31.5566H25.2707C24.7446 31.5566 24.3124 31.9653 24.2403 32.4865C23.6373 36.8413 20.8983 40.7722 16.7178 43.2018C12.8162 45.4673 10.5781 48.7116 10.5781 52.0915C10.5781 58.6706 18.8331 64.0348 28.9772 64.0348C39.1213 64.0348 47.3763 58.6701 47.3763 52.0915C47.386 48.7027 45.1478 45.4583 41.2463 43.1928L41.2453 43.1928ZM38.699 53.5416C38.2369 53.8676 37.5593 53.8042 37.19 53.3968C32.9394 49.2283 31.7584 43.5102 31.7075 43.2746C31.6046 42.7489 32.0051 42.2597 32.5905 42.1688C33.186 42.078 33.7403 42.4314 33.8433 42.9481C33.8534 43.0025 34.9728 48.3761 38.7714 52.1372C38.8019 52.1642 38.8228 52.1916 38.8534 52.2186C39.233 52.6174 39.1611 53.2156 38.699 53.5416Z" fill="#151515"/>
<path d="M54.3587 37.5149C50.1781 35.0857 47.4391 31.163 46.8362 26.8087C46.764 26.2875 46.3319 25.8789 45.8057 25.8789H38.3639C37.8459 25.8789 37.4187 26.2757 37.3281 26.7857C37.0774 28.1962 36.5383 29.5608 35.7344 30.8087C35.8062 35.1494 38.3011 39.182 42.4181 41.5744C46.9357 44.2022 49.5228 48.0173 49.5228 52.0499C49.5126 54.0527 48.8865 56.0102 47.7158 57.7225V57.7495C55.2315 56.1455 60.5086 51.5872 60.4985 46.4038C60.4985 43.0245 58.2602 39.7804 54.3587 37.5149ZM50.6421 41.2486C50.2727 41.6564 49.5946 41.7198 49.1331 41.3934C42.2847 36.5544 42.9012 28.879 42.9012 28.5521C42.9425 28.0265 43.4657 27.637 44.0511 27.682C44.6467 27.7184 45.0879 28.1802 45.0369 28.6969C45.0268 28.7693 44.5341 35.711 50.4787 39.9158H50.4685C50.9296 40.2423 51.0115 40.8407 50.6421 41.2486Z" fill="#151515"/>
<path d="M17.7701 27.2072C18.3657 27.2072 18.8379 26.7813 18.8481 26.2647C18.8481 26.047 18.7661 25.8478 18.6224 25.6756C13.2836 19.7219 19.1869 15.1181 19.4437 14.919C19.8956 14.5835 19.9466 13.9855 19.5568 13.5871C19.1767 13.1882 18.4991 13.1433 18.0478 13.4873C17.9658 13.5417 10.3064 19.4589 16.9285 26.8534C17.1333 27.0796 17.4415 27.2072 17.7701 27.2072Z" fill="#151515"/>
<path d="M25.062 14.5279C23.3579 15.8692 21.2425 17.5367 21.674 20.7716C22.2384 24.9854 26.3866 26.1181 28.4913 26.1271C29.0868 26.1271 29.5591 25.7013 29.5591 25.1846C29.5591 24.6679 29.0767 24.2421 28.4913 24.2421C28.3165 24.2421 24.2611 24.1697 23.7786 20.5539C23.4811 18.2974 24.8669 17.2101 26.4686 15.9412C27.8956 14.7904 29.5795 13.4855 29.5795 11.256C29.5795 7.65865 25.6678 6.20841 23.604 5.98186C23.0084 5.90946 22.4643 6.27189 22.3823 6.79756C22.3002 7.32323 22.7109 7.80349 23.3064 7.87588C23.4812 7.87588 27.4338 8.41054 27.4338 11.2831C27.4648 12.589 26.5507 13.3771 25.062 14.5279Z" fill="#151515"/>
</svg>
