<svg width="66" height="60" viewBox="0 0 66 60" fill="none" xmlns="http://www.w3.org/2000/svg">
<path d="M65.3275 21.0093C65.3439 22.4039 64.9009 23.5196 63.9986 24.4384C61.7016 26.7681 59.4046 29.0979 57.0584 31.3785C55.0896 33.2817 52.2676 33.1833 50.2495 31.1652C45.1469 26.0791 40.0608 20.9929 34.9746 15.8903C33.2027 14.1184 31.4307 12.33 29.6424 10.5745C28.2642 9.21269 27.7227 7.60481 28.297 5.73441C28.8712 3.8312 30.2002 2.74835 32.1362 2.35458C35.6637 1.63267 39.1748 0.877954 42.7023 0.139641C44.6383 -0.270534 46.279 0.221671 47.7064 1.63267C53.0223 6.99775 58.371 12.33 63.7196 17.6623C64.6712 18.6139 65.3439 19.6968 65.3275 21.0093Z" fill="#151515"/>
<path d="M11.3649 58.2381C10.364 58.2381 9.51089 57.8772 8.80539 57.1553C7.72253 56.0724 6.63966 55.006 5.57321 53.9067C3.9161 52.2332 3.8997 50.2315 5.57321 48.558C9.65854 44.4727 13.7439 40.3874 17.8292 36.302C23.4404 30.6909 29.0516 25.0961 34.6464 19.4685C35.1222 18.9927 35.3519 18.9763 35.8277 19.4685C38.2723 21.9624 40.7333 24.4234 43.2272 26.868C43.6702 27.2946 43.6702 27.5079 43.2272 27.9509C33.5307 37.6146 23.867 47.2947 14.1869 56.9748C13.3993 57.7624 12.4805 58.2217 11.3649 58.2381Z" fill="#151515"/>
<path d="M52.7773 55.1689C52.7773 54.2173 52.7609 53.2657 52.7937 52.2977C52.8101 51.8383 52.6953 51.543 52.2851 51.2968C51.1202 50.5913 49.9717 49.853 48.856 49.0819C48.4458 48.803 48.1505 48.8522 47.7732 49.1147C46.6903 49.853 45.591 50.5749 44.4754 51.2476C44.0324 51.5265 43.8519 51.8219 43.8683 52.3633C43.9011 54.2501 43.8683 56.1205 43.8847 58.0073C43.9011 58.8605 43.5894 59.4839 42.8018 59.8449C42.0471 60.1894 41.4401 59.9269 40.8658 59.4019C37.7321 56.5143 36.3703 52.9868 37.0922 48.7209C37.1743 48.2615 37.0922 47.9662 36.7641 47.6381C35.1398 46.0466 33.5647 44.4223 31.9404 42.8473C31.5303 42.4535 31.5303 42.2238 31.9404 41.83C34.4343 39.3854 36.8953 36.9079 39.34 34.4305C39.7009 34.0531 39.9142 34.0203 40.2916 34.4141C41.8503 36.022 43.4581 37.5806 45.0168 39.1721C45.3941 39.5495 45.7223 39.6971 46.2965 39.5823C51.3991 38.565 56.1735 41.0097 58.4377 45.7677C60.7511 50.6242 59.6026 56.1369 55.6321 59.4511C55.0907 59.9105 54.5164 60.1238 53.8273 59.8285C53.1218 59.5167 52.8101 58.9753 52.8101 58.2042C52.7937 57.1869 52.7773 56.1861 52.7773 55.1689Z" fill="#151515"/>
<path d="M7.47662 10.015C7.47662 10.9666 7.49302 11.9182 7.4602 12.8698C7.44379 13.3292 7.55866 13.6245 7.98524 13.8706C9.16654 14.5597 10.315 15.2816 11.4635 16.02C11.8245 16.2497 12.0706 16.2332 12.4151 16.0035C13.5308 15.2816 14.6629 14.5761 15.8278 13.9035C16.2707 13.6409 16.3856 13.3292 16.3856 12.8534C16.3692 10.9502 16.3856 9.03057 16.3692 7.12737C16.3692 6.48749 16.5497 5.96247 17.0911 5.5687C17.6982 5.12572 18.2232 5.10931 18.8466 5.63434C22.3249 8.58759 23.7031 12.312 23.014 16.7911C22.9484 17.2341 23.1617 17.4474 23.4078 17.6935C24.9664 19.2521 26.5251 20.8272 28.1002 22.3694C28.4939 22.7468 28.4775 22.9601 28.1002 23.3375C25.5899 25.8149 23.1125 28.2924 20.635 30.8026C20.2248 31.2292 20.0279 31.1143 19.6834 30.7534C18.1575 29.1947 16.5989 27.6689 15.073 26.1102C14.7121 25.7329 14.3839 25.6344 13.8589 25.7329C9.06808 26.586 3.8835 23.9117 1.66856 19.4982C-0.529978 15.0683 0.438037 9.57201 4.03116 6.19218C4.39212 5.86404 4.72025 5.48669 5.21246 5.33902C6.32813 5.01088 7.37817 5.74919 7.4602 6.93049C7.4602 6.97971 7.4602 7.04534 7.4602 7.09456C7.47661 8.04616 7.47662 9.03059 7.47662 10.015Z" fill="#151515"/>
</svg>
