<svg width="57" height="60" viewBox="0 0 57 60" fill="none" xmlns="http://www.w3.org/2000/svg">
<path d="M27.1313 0.03125C27.1464 0.287109 27.1615 0.527918 27.1615 0.783777C27.1615 10.07 27.1615 19.3561 27.1615 28.6273C27.1615 28.853 27.1615 29.0637 27.1615 29.4851C26.8905 29.139 26.725 28.9283 26.5594 28.7176C23.8503 24.9399 21.1412 21.1622 18.4622 17.3544C18.0408 16.7524 17.8903 16.8427 17.5291 17.3845C12.1711 25.6021 6.79808 33.8047 1.42504 42.0072C1.34979 42.1276 1.25949 42.248 1.18423 42.3684C0.883222 42.2781 1.01867 42.0674 1.01867 41.9319C1.01867 32.1491 1.01868 22.3662 1.00362 12.5834C1.00362 12.0115 1.22938 11.8158 1.6809 11.6051C9.89849 7.87258 18.1161 4.14005 26.3337 0.407513C26.5594 0.30216 26.8303 0.272059 26.9658 0.03125C27.026 0.03125 27.0862 0.03125 27.1313 0.03125ZM7.82152 15.4731C6.0606 15.4731 6.0606 15.4731 6.0606 17.2039C6.0606 17.234 6.0606 17.2491 6.0606 17.2792C6.0606 18.9799 6.0606 18.9799 7.77637 18.9799C9.56738 18.9799 9.56738 18.9799 9.56738 17.2039C9.56738 15.4731 9.56738 15.4731 7.82152 15.4731Z" fill="#151515"/>
<path d="M30.8796 0.0300937C31.0301 0.255852 31.286 0.301007 31.5118 0.39131C39.6993 4.12384 47.9018 7.85638 56.0893 11.5588C56.6462 11.8147 56.8418 12.1006 56.8418 12.7177C56.8268 21.4771 56.8268 30.2215 56.8268 38.9809C56.8268 39.0862 56.8117 39.1765 56.6612 39.327C54.0575 33.066 51.4537 26.7899 48.7747 20.3784C47.9169 21.8082 47.1041 23.1477 46.2312 24.5926C44.1392 20.2129 42.0923 15.9536 39.9702 11.5438C36.8698 17.0974 33.8446 22.5306 30.8194 27.9488C30.5786 27.8585 30.6689 27.6779 30.6689 27.5425C30.6689 18.5423 30.6689 9.52699 30.6689 0.526769C30.6689 0.346162 30.684 0.180606 30.699 0C30.7893 0.0301011 30.8345 0.0300937 30.8796 0.0300937Z" fill="#151515"/>
<path d="M3.5625 48.5213C4.55584 48.0698 5.41372 47.6784 6.2716 47.2871C13.6163 43.9459 20.976 40.6047 28.3206 37.2484C28.6969 37.0678 29.013 37.0076 29.4344 37.2033C37.5466 40.9057 45.6739 44.6081 53.8012 48.2955C53.9065 48.3407 54.0119 48.4009 54.1323 48.4611C54.1022 48.747 53.8614 48.747 53.6958 48.8223C45.5986 52.5097 37.4864 56.197 29.3892 59.8694C29.1033 59.9898 28.8775 60.065 28.5614 59.9145C20.3739 56.182 12.1714 52.4495 3.98391 48.732C3.89361 48.7019 3.81836 48.6417 3.5625 48.5213ZM29.028 42.4559C26.7704 42.5011 24.5881 42.8773 22.6917 44.2319C19.6365 46.4142 19.6365 50.1467 22.6917 52.3441C26.0028 54.7371 31.9779 54.692 35.2439 52.2538C38.2239 50.0414 38.2239 46.5196 35.2439 44.3222C33.4077 42.9526 31.2856 42.486 29.028 42.4559Z" fill="#151515"/>
<path d="M39.8336 19.3398C41.8503 23.5389 43.8521 27.7079 45.914 32.0274C46.7117 30.703 47.4341 29.514 48.2318 28.1896C50.5797 33.8335 52.8673 39.357 55.1701 44.8956C54.854 45.016 54.6885 44.8204 54.4928 44.7301C47.0277 41.3437 39.5627 37.9423 32.0826 34.571C31.5106 34.3151 31.4354 34.1195 31.7514 33.5626C34.31 29.0324 36.8235 24.4871 39.367 19.9419C39.4874 19.7462 39.5326 19.5054 39.8336 19.3398Z" fill="#151515"/>
<path d="M4.16406 44.265C5.74437 41.8569 7.26447 39.5241 8.79963 37.1762C11.7646 32.6309 14.7446 28.1007 17.7095 23.5555C18.0407 23.0437 18.1912 23.0287 18.5524 23.5404C20.9755 26.9719 23.4287 30.3884 25.882 33.7898C26.1228 34.136 26.3034 34.3316 25.7465 34.5875C18.6427 37.7933 11.5388 41.0291 4.43497 44.265C4.38982 44.28 4.32962 44.265 4.16406 44.265Z" fill="#151515"/>
<path d="M28.9358 50.6136C27.5511 50.5534 26.1966 50.3728 24.9925 49.6353C23.5928 48.7774 23.5477 47.769 24.9624 46.9864C27.5812 45.5566 30.2903 45.5566 32.9091 46.9864C34.354 47.7841 34.3088 48.7323 32.8941 49.6203C31.675 50.3577 30.3204 50.5684 28.9358 50.6136Z" fill="#151515"/>
</svg>
