<svg width="71" height="70" viewBox="0 0 71 70" fill="none" xmlns="http://www.w3.org/2000/svg">
<path d="M28.5307 13V16.8813C26.112 15.9531 23.5184 15.475 20.9248 15.475C15.7086 15.475 10.4923 17.3875 6.5 21.2406L16.204 30.6063H19.4387V33.7281C21.9448 36.1469 25.2086 37.4125 28.5015 37.5531V43.9375H19.7883V52.375C19.7883 55.4688 22.411 58 25.6166 58H54.7577C59.5951 58 63.5 54.2313 63.5 49.5625V13H28.5307ZM57.6718 49.5625C57.6718 51.1094 56.3604 52.375 54.7577 52.375C53.1549 52.375 51.8436 51.1094 51.8436 49.5625V43.9375H34.3589V36.6531C36.0199 36.0063 37.5644 35.05 38.9049 33.7562L39.4877 33.1938L47.7347 41.125H51.8436V37.1594L34.3589 20.3687V18.625H57.6718V49.5625Z" fill="#151515"/>
</svg>
