<svg width="70" height="70" viewBox="0 0 70 70" fill="none" xmlns="http://www.w3.org/2000/svg">
<path fill-rule="evenodd" clip-rule="evenodd" d="M33.0229 46.6296C24.1758 46.6296 16.5351 54.1446 16.5351 63.3296C16.5351 64.1646 17.3394 64.9996 18.1437 64.9996H47.5001C48.3044 64.9996 49.1087 64.1646 49.1087 63.3296C48.7065 54.1446 41.8701 47.0471 33.0229 46.6296ZM33.0229 22.832H32.6208C27.393 22.832 22.9694 27.4245 22.9694 33.2696C22.9694 38.6971 27.393 43.2896 32.6208 43.2896C37.8487 43.2896 42.6744 39.1146 42.6744 33.2696C42.6744 27.842 38.6529 22.832 33.0229 22.832Z" fill="#151515"/>
<path d="M53.9992 36.168L51.1644 42.4132L45 45.2852L51.1644 48.1343L53.9992 54.4024L56.8114 48.1343L62.9984 45.2852L56.8114 42.4132" fill="#151515"/>
<path d="M11.4614 30.668L10.0561 33.7754L7 35.1879L10.0561 36.6117L11.4614 39.7079L12.8556 36.6117L15.9229 35.1879L12.8556 33.7754" fill="#151515"/>
<path d="M26.2945 5L24.2225 9.61819L19.6641 11.7174L24.2225 13.8165L26.2945 18.4347L28.3665 13.8165L32.9249 11.7174L28.3665 9.61819" fill="#151515"/>
</svg>
