<svg width="240" height="70" viewBox="0 0 240 70" fill="none" xmlns="http://www.w3.org/2000/svg">
<path d="M28.5307 13V16.8813C26.112 15.9531 23.5184 15.475 20.9248 15.475C15.7086 15.475 10.4923 17.3875 6.5 21.2406L16.204 30.6063H19.4387V33.7281C21.9448 36.1469 25.2086 37.4125 28.5015 37.5531V43.9375H19.7883V52.375C19.7883 55.4688 22.411 58 25.6166 58H54.7577C59.5951 58 63.5 54.2313 63.5 49.5625V13H28.5307ZM57.6718 49.5625C57.6718 51.1094 56.3604 52.375 54.7577 52.375C53.1549 52.375 51.8436 51.1094 51.8436 49.5625V43.9375H34.3589V36.6531C36.0199 36.0063 37.5644 35.05 38.9049 33.7562L39.4877 33.1938L47.7347 41.125H51.8436V37.1594L34.3589 20.3687V18.625H57.6718V49.5625Z" fill="#151515"/>
<path d="M82.6136 11.5455H84.6932V25.2841H84.8636L94.4091 11.5455H96.4545V29H94.3409V15.2955H94.1705L84.6591 29H82.6136V11.5455ZM105.729 29.2727C104.502 29.2727 103.445 28.983 102.559 28.4034C101.673 27.8239 100.991 27.0256 100.513 26.0085C100.036 24.9915 99.7976 23.8295 99.7976 22.5227C99.7976 21.1932 100.042 20.0199 100.531 19.0028C101.025 17.9801 101.712 17.1818 102.593 16.608C103.479 16.0284 104.513 15.7386 105.695 15.7386C106.616 15.7386 107.445 15.9091 108.184 16.25C108.923 16.5909 109.528 17.0682 109.999 17.6818C110.471 18.2955 110.763 19.0114 110.877 19.8295H108.866C108.712 19.233 108.371 18.7045 107.843 18.2443C107.32 17.7784 106.616 17.5455 105.729 17.5455C104.945 17.5455 104.258 17.75 103.667 18.1591C103.082 18.5625 102.624 19.1335 102.295 19.8722C101.971 20.6051 101.809 21.4659 101.809 22.4545C101.809 23.4659 101.968 24.3466 102.286 25.0966C102.61 25.8466 103.065 26.429 103.65 26.8438C104.241 27.2585 104.934 27.4659 105.729 27.4659C106.252 27.4659 106.727 27.375 107.153 27.1932C107.579 27.0114 107.94 26.75 108.235 26.4091C108.531 26.0682 108.741 25.6591 108.866 25.1818H110.877C110.763 25.9545 110.482 26.6506 110.033 27.2699C109.59 27.8835 109.002 28.3722 108.269 28.7358C107.542 29.0938 106.695 29.2727 105.729 29.2727ZM112.786 17.7841V15.9091H123.423V17.7841H119.127V29H117.116V17.7841H112.786ZM130.995 29.2727C129.813 29.2727 128.776 28.9915 127.884 28.429C126.998 27.8665 126.305 27.0795 125.805 26.0682C125.31 25.0568 125.063 23.875 125.063 22.5227C125.063 21.1591 125.31 19.9687 125.805 18.9517C126.305 17.9347 126.998 17.1449 127.884 16.5824C128.776 16.0199 129.813 15.7386 130.995 15.7386C132.177 15.7386 133.211 16.0199 134.097 16.5824C134.989 17.1449 135.683 17.9347 136.177 18.9517C136.677 19.9687 136.927 21.1591 136.927 22.5227C136.927 23.875 136.677 25.0568 136.177 26.0682C135.683 27.0795 134.989 27.8665 134.097 28.429C133.211 28.9915 132.177 29.2727 130.995 29.2727ZM130.995 27.4659C131.893 27.4659 132.631 27.2358 133.211 26.7756C133.79 26.3153 134.219 25.7102 134.498 24.9602C134.776 24.2102 134.915 23.3977 134.915 22.5227C134.915 21.6477 134.776 20.8324 134.498 20.0767C134.219 19.321 133.79 18.7102 133.211 18.2443C132.631 17.7784 131.893 17.5455 130.995 17.5455C130.097 17.5455 129.359 17.7784 128.779 18.2443C128.2 18.7102 127.771 19.321 127.492 20.0767C127.214 20.8324 127.075 21.6477 127.075 22.5227C127.075 23.3977 127.214 24.2102 127.492 24.9602C127.771 25.7102 128.2 26.3153 128.779 26.7756C129.359 27.2358 130.097 27.4659 130.995 27.4659ZM139.997 33.9091V15.9091H141.94V17.9886H142.179C142.327 17.7614 142.531 17.4716 142.793 17.1193C143.06 16.7614 143.44 16.4432 143.935 16.1648C144.435 15.8807 145.111 15.7386 145.963 15.7386C147.065 15.7386 148.037 16.0142 148.878 16.5653C149.719 17.1165 150.375 17.8977 150.847 18.9091C151.318 19.9205 151.554 21.1136 151.554 22.4886C151.554 23.875 151.318 25.0767 150.847 26.0938C150.375 27.1051 149.722 27.8892 148.886 28.446C148.051 28.9972 147.088 29.2727 145.997 29.2727C145.156 29.2727 144.483 29.1335 143.977 28.8551C143.472 28.571 143.082 28.25 142.81 27.892C142.537 27.5284 142.327 27.2273 142.179 26.9886H142.009V33.9091H139.997ZM141.974 22.4545C141.974 23.4432 142.119 24.3153 142.409 25.071C142.699 25.821 143.122 26.4091 143.679 26.8352C144.236 27.2557 144.918 27.4659 145.724 27.4659C146.565 27.4659 147.267 27.2443 147.83 26.8011C148.398 26.3523 148.824 25.75 149.108 24.9943C149.398 24.233 149.543 23.3864 149.543 22.4545C149.543 21.5341 149.401 20.7045 149.116 19.9659C148.838 19.2216 148.415 18.6335 147.847 18.2017C147.284 17.7642 146.577 17.5455 145.724 17.5455C144.906 17.5455 144.219 17.7528 143.662 18.1676C143.105 18.5767 142.685 19.1506 142.401 19.8892C142.116 20.6222 141.974 21.4773 141.974 22.4545ZM156.634 26.0341L162.94 15.9091H165.259V29H163.247V18.875L156.974 29H154.622V15.9091H156.634V26.0341ZM170.954 26.0341L177.261 15.9091H179.579V29H177.567V18.875L171.295 29H168.942V15.9091H170.954V26.0341ZM81.5227 54.6591H83.6705C83.7159 55.25 83.983 55.6989 84.4716 56.0057C84.9659 56.3125 85.608 56.4659 86.3977 56.4659C87.2045 56.4659 87.8949 56.3011 88.4688 55.9716C89.0426 55.6364 89.3295 55.0966 89.3295 54.3523C89.3295 53.9148 89.2216 53.5341 89.0057 53.2102C88.7898 52.8807 88.4858 52.625 88.0938 52.4432C87.7017 52.2614 87.2386 52.1705 86.7045 52.1705H84.4545V50.3636H86.7045C87.5057 50.3636 88.0966 50.1818 88.4773 49.8182C88.8636 49.4545 89.0568 49 89.0568 48.4545C89.0568 47.8693 88.8494 47.4006 88.4347 47.0483C88.0199 46.6903 87.4318 46.5114 86.6705 46.5114C85.9034 46.5114 85.2642 46.6847 84.7528 47.0312C84.2415 47.3722 83.9716 47.8125 83.9432 48.3523H81.8295C81.8523 47.6477 82.0682 47.0256 82.4773 46.4858C82.8864 45.9403 83.4432 45.5142 84.1477 45.2074C84.8523 44.8949 85.6591 44.7386 86.5682 44.7386C87.4886 44.7386 88.2869 44.9006 88.9631 45.2244C89.6449 45.5426 90.1705 45.9773 90.5398 46.5284C90.9148 47.0739 91.1023 47.6932 91.1023 48.3864C91.1023 49.125 90.8949 49.7216 90.4801 50.1761C90.0653 50.6307 89.5455 50.9545 88.9205 51.1477V51.2841C89.4148 51.3182 89.8438 51.4773 90.2074 51.7614C90.5767 52.0398 90.8636 52.4062 91.0682 52.8608C91.2727 53.3097 91.375 53.8068 91.375 54.3523C91.375 55.1477 91.1619 55.8409 90.7358 56.4318C90.3097 57.017 89.7244 57.4716 88.9801 57.7955C88.2358 58.1136 87.3864 58.2727 86.4318 58.2727C85.5057 58.2727 84.6761 58.1222 83.9432 57.821C83.2102 57.5142 82.6278 57.0909 82.196 56.5511C81.7699 56.0057 81.5455 55.375 81.5227 54.6591ZM98.0526 58.3068C97.223 58.3068 96.4702 58.1506 95.794 57.8381C95.1179 57.5199 94.581 57.0625 94.1832 56.4659C93.7855 55.8636 93.5866 55.1364 93.5866 54.2841C93.5866 53.5341 93.7344 52.9261 94.0298 52.4602C94.3253 51.9886 94.7202 51.6193 95.2145 51.3523C95.7088 51.0852 96.2543 50.8864 96.8509 50.7557C97.4531 50.6193 98.0582 50.5114 98.6662 50.4318C99.4616 50.3295 100.107 50.2528 100.601 50.2017C101.101 50.1449 101.464 50.0511 101.692 49.9205C101.925 49.7898 102.041 49.5625 102.041 49.2386V49.1705C102.041 48.3295 101.811 47.6761 101.351 47.2102C100.896 46.7443 100.206 46.5114 99.2798 46.5114C98.3196 46.5114 97.5668 46.7216 97.0213 47.142C96.4759 47.5625 96.0923 48.0114 95.8707 48.4886L93.9616 47.8068C94.3026 47.0114 94.7571 46.392 95.3253 45.9489C95.8991 45.5 96.5241 45.1875 97.2003 45.0114C97.8821 44.8295 98.5526 44.7386 99.2116 44.7386C99.6321 44.7386 100.115 44.7898 100.661 44.892C101.212 44.9886 101.743 45.1903 102.254 45.4972C102.771 45.804 103.2 46.267 103.541 46.8864C103.882 47.5057 104.053 48.3352 104.053 49.375V58H102.041V56.2273H101.939C101.803 56.5114 101.575 56.8153 101.257 57.1392C100.939 57.4631 100.516 57.7386 99.9872 57.9659C99.4588 58.1932 98.8139 58.3068 98.0526 58.3068ZM98.3594 56.5C99.1548 56.5 99.8253 56.3438 100.371 56.0312C100.922 55.7188 101.337 55.3153 101.615 54.821C101.899 54.3267 102.041 53.8068 102.041 53.2614V51.4205C101.956 51.5227 101.768 51.6165 101.479 51.7017C101.195 51.7812 100.865 51.8523 100.49 51.9148C100.121 51.9716 99.7599 52.0227 99.4077 52.0682C99.0611 52.108 98.7798 52.142 98.5639 52.1705C98.0412 52.2386 97.5526 52.3494 97.098 52.5028C96.6491 52.6506 96.2855 52.875 96.0071 53.1761C95.7344 53.4716 95.598 53.875 95.598 54.3864C95.598 55.0852 95.8565 55.6136 96.3736 55.9716C96.8963 56.3239 97.5582 56.5 98.3594 56.5ZM107.724 58V44.9091H109.735V50.6023H111.065L115.769 44.9091H118.36L113.076 51.2159L118.428 58H115.837L111.542 52.4773H109.735V58H107.724ZM119.455 58V56.125H119.933C120.325 56.125 120.651 56.0483 120.913 55.8949C121.174 55.7358 121.384 55.4602 121.543 55.0682C121.708 54.6705 121.833 54.1193 121.918 53.4148C122.009 52.7045 122.075 51.8011 122.114 50.7045L122.353 44.9091H131.08V58H129.069V46.7841H124.262L124.058 51.4545C124.012 52.5284 123.915 53.4744 123.768 54.2926C123.626 55.1051 123.407 55.7869 123.112 56.3381C122.822 56.8892 122.435 57.304 121.952 57.5824C121.469 57.8608 120.864 58 120.137 58H119.455ZM141.043 50.6364V52.5114H134.123V50.6364H141.043ZM135.827 44.9091V58H133.816V44.9091H135.827ZM145.066 58.2727C143.884 58.2727 142.847 57.9915 141.955 57.429C141.069 56.8665 140.376 56.0795 139.876 55.0682C139.381 54.0568 139.134 52.875 139.134 51.5227C139.134 50.1591 139.381 48.9687 139.876 47.9517C140.376 46.9347 141.069 46.1449 141.955 45.5824C142.847 45.0199 143.884 44.7386 145.066 44.7386C146.248 44.7386 147.282 45.0199 148.168 45.5824C149.06 46.1449 149.754 46.9347 150.248 47.9517C150.748 48.9687 150.998 50.1591 150.998 51.5227C150.998 52.875 150.748 54.0568 150.248 55.0682C149.754 56.0795 149.06 56.8665 148.168 57.429C147.282 57.9915 146.248 58.2727 145.066 58.2727ZM145.066 56.4659C145.964 56.4659 146.702 56.2358 147.282 55.7756C147.862 55.3153 148.29 54.7102 148.569 53.9602C148.847 53.2102 148.987 52.3977 148.987 51.5227C148.987 50.6477 148.847 49.8324 148.569 49.0767C148.29 48.321 147.862 47.7102 147.282 47.2443C146.702 46.7784 145.964 46.5455 145.066 46.5455C144.168 46.5455 143.43 46.7784 142.85 47.2443C142.271 47.7102 141.842 48.321 141.563 49.0767C141.285 49.8324 141.146 50.6477 141.146 51.5227C141.146 52.3977 141.285 53.2102 141.563 53.9602C141.842 54.7102 142.271 55.3153 142.85 55.7756C143.43 56.2358 144.168 56.4659 145.066 56.4659ZM164.362 44.9091V58H162.35V44.9091H164.362ZM163.577 51.1477V53.0227C163.123 53.1932 162.671 53.3438 162.222 53.4744C161.773 53.5994 161.302 53.6989 160.808 53.7727C160.313 53.8409 159.771 53.875 159.18 53.875C157.697 53.875 156.506 53.4744 155.609 52.6733C154.717 51.8722 154.271 50.6705 154.271 49.0682V44.875H156.282V49.0682C156.282 49.7386 156.41 50.2898 156.665 50.7216C156.921 51.1534 157.268 51.4744 157.705 51.6847C158.143 51.8949 158.634 52 159.18 52C160.032 52 160.802 51.9233 161.489 51.7699C162.183 51.6108 162.879 51.4034 163.577 51.1477ZM173.54 58.2727C172.279 58.2727 171.191 57.9943 170.276 57.4375C169.367 56.875 168.665 56.0909 168.171 55.0852C167.683 54.0739 167.438 52.8977 167.438 51.5568C167.438 50.2159 167.683 49.0341 168.171 48.0114C168.665 46.983 169.353 46.1818 170.234 45.608C171.12 45.0284 172.154 44.7386 173.336 44.7386C174.018 44.7386 174.691 44.8523 175.356 45.0795C176.021 45.3068 176.626 45.6761 177.171 46.1875C177.717 46.6932 178.151 47.3636 178.475 48.1989C178.799 49.0341 178.961 50.0625 178.961 51.2841V52.1364H168.87V50.3977H176.915C176.915 49.6591 176.768 49 176.472 48.4205C176.183 47.8409 175.768 47.3835 175.228 47.0483C174.694 46.7131 174.063 46.5455 173.336 46.5455C172.535 46.5455 171.842 46.7443 171.256 47.142C170.677 47.5341 170.231 48.0455 169.918 48.6761C169.606 49.3068 169.45 49.983 169.45 50.7045V51.8636C169.45 52.8523 169.62 53.6903 169.961 54.3778C170.308 55.0597 170.788 55.5795 171.401 55.9375C172.015 56.2898 172.728 56.4659 173.54 56.4659C174.069 56.4659 174.546 56.392 174.972 56.2443C175.404 56.0909 175.776 55.8636 176.089 55.5625C176.401 55.2557 176.643 54.875 176.813 54.4205L178.756 54.9659C178.552 55.625 178.208 56.2045 177.725 56.7045C177.242 57.1989 176.646 57.5852 175.935 57.8636C175.225 58.1364 174.427 58.2727 173.54 58.2727ZM190.782 50.5341V52.4091H183.555V50.5341H190.782ZM184.032 44.9091V58H182.021V44.9091H184.032ZM192.316 44.9091V58H190.305V44.9091H192.316ZM204.751 50.5341V52.4091H197.523V50.5341H204.751ZM198.001 44.9091V58H195.989V44.9091H198.001ZM206.285 44.9091V58H204.273V44.9091H206.285ZM211.697 49.6477H215.447C216.981 49.6477 218.154 50.0369 218.967 50.8153C219.779 51.5937 220.185 52.5795 220.185 53.7727C220.185 54.5568 220.004 55.2699 219.64 55.9119C219.276 56.5483 218.742 57.0568 218.038 57.4375C217.333 57.8125 216.469 58 215.447 58H209.958V44.9091H211.969V56.125H215.447C216.242 56.125 216.896 55.9148 217.407 55.4943C217.918 55.0739 218.174 54.5341 218.174 53.875C218.174 53.1818 217.918 52.6165 217.407 52.179C216.896 51.7415 216.242 51.5227 215.447 51.5227H211.697V49.6477ZM222.265 58V44.9091H224.276V58H222.265ZM229.458 44.9091L232.594 50.2614L235.731 44.9091H238.049L233.822 51.4545L238.049 58H235.731L232.594 52.9205L229.458 58H227.14L231.299 51.4545L227.14 44.9091H229.458Z" fill="#151515"/>
</svg>
