<svg width="71" height="70" viewBox="0 0 71 70" fill="none" xmlns="http://www.w3.org/2000/svg">
<path d="M35.5 10C21.6914 10 10.5 21.1914 10.5 35V58.4375C10.5 59.3034 11.1966 60 12.0625 60H24.0417C26.3398 60 28.2083 58.1315 28.2083 55.8333V42.2917C28.2083 39.9935 26.3398 38.125 24.0417 38.125H15.1875V35C15.1875 23.7826 24.2826 14.6875 35.5 14.6875C46.7174 14.6875 55.8125 23.7826 55.8125 35V38.125H46.9583C44.6602 38.125 42.7917 39.9935 42.7917 42.2917V55.8333C42.7917 58.1315 44.6602 60 46.9583 60H58.9375C59.8034 60 60.5 59.3034 60.5 58.4375V35C60.5 21.1914 49.3086 10 35.5 10Z" fill="#151515"/>
</svg>
