<svg width="24" height="24" viewBox="0 0 24 24" fill="none" xmlns="http://www.w3.org/2000/svg">
<path d="M10.8214 12C10.8214 12.3126 10.9456 12.6123 11.1666 12.8334C11.3877 13.0544 11.6874 13.1786 12 13.1786C12.3126 13.1786 12.6123 13.0544 12.8334 12.8334C13.0544 12.6123 13.1786 12.3126 13.1786 12C13.1786 11.6874 13.0544 11.3876 12.8334 11.1666C12.6123 10.9456 12.3126 10.8214 12 10.8214C11.6874 10.8214 11.3877 10.9456 11.1666 11.1666C10.9456 11.3876 10.8214 11.6874 10.8214 12ZM15.7321 12C15.7321 12.3126 15.8563 12.6123 16.0773 12.8334C16.2983 13.0544 16.5981 13.1786 16.9107 13.1786C17.2232 13.1786 17.523 13.0544 17.744 12.8334C17.965 12.6123 18.0892 12.3126 18.0892 12C18.0892 11.6874 17.965 11.3876 17.744 11.1666C17.523 10.9456 17.2232 10.8214 16.9107 10.8214C16.5981 10.8214 16.2983 10.9456 16.0773 11.1666C15.8563 11.3876 15.7321 11.6874 15.7321 12ZM5.91079 12C5.91079 12.3126 6.03496 12.6123 6.25598 12.8334C6.47701 13.0544 6.77678 13.1786 7.08935 13.1786C7.40192 13.1786 7.70169 13.0544 7.92271 12.8334C8.14374 12.6123 8.26791 12.3126 8.26791 12C8.26791 11.6874 8.14374 11.3876 7.92271 11.1666C7.70169 10.9456 7.40192 10.8214 7.08935 10.8214C6.77678 10.8214 6.47701 10.9456 6.25598 11.1666C6.03496 11.3876 5.91079 11.6874 5.91079 12ZM22.1454 7.7375C21.5905 6.41897 20.795 5.23549 19.7809 4.21897C18.774 3.20834 17.5786 2.40501 16.2624 1.85446C14.912 1.28728 13.4781 1 12 1H11.9509C10.463 1.00737 9.02169 1.30201 7.66635 1.88147C6.36149 2.43766 5.1773 3.24242 4.17979 4.25089C3.17556 5.26496 2.3874 6.44353 1.84232 7.75714C1.27759 9.11741 0.992773 10.5636 1.00014 12.0516C1.00847 13.7567 1.41188 15.4368 2.1787 16.9598V20.692C2.1787 20.9915 2.29769 21.2788 2.5095 21.4906C2.72132 21.7024 3.0086 21.8214 3.30815 21.8214H7.0427C8.56572 22.5883 10.2457 22.9917 11.9509 23H12.0025C13.4732 23 14.8997 22.7152 16.2428 22.1578C17.5523 21.6138 18.7432 20.8199 19.749 19.8203C20.7631 18.8161 21.561 17.6424 22.1184 16.3337C22.6979 14.9783 22.9925 13.5371 22.9999 12.0491C23.0072 10.5538 22.7175 9.10268 22.1454 7.7375ZM18.4354 18.492C16.7142 20.196 14.4308 21.1339 12 21.1339H11.9583C10.4777 21.1266 9.00696 20.7583 7.70809 20.0658L7.50184 19.9554H4.04474V16.4982L3.93425 16.292C3.24185 14.9931 2.87355 13.5223 2.86619 12.0417C2.85637 9.59375 3.79185 7.29554 5.50812 5.56451C7.22194 3.83348 9.51276 2.87589 11.9607 2.86607H12.0025C13.2301 2.86607 14.421 3.10424 15.543 3.57567C16.6381 4.03482 17.6202 4.69531 18.4649 5.53996C19.3071 6.38214 19.97 7.36674 20.4291 8.46183C20.9055 9.5962 21.1436 10.7993 21.1387 12.0417C21.124 14.4873 20.164 16.7781 18.4354 18.492Z" fill="#151515"/>
</svg>
