<svg width="69" height="60" viewBox="0 0 69 60" fill="none" xmlns="http://www.w3.org/2000/svg">
<path d="M68.4332 43.9386C67.6524 43.9386 66.8716 43.9387 66.0907 44.0096C65.4519 44.0096 65.026 44.4355 64.742 44.9324C64.5291 45.2874 64.4581 45.6423 64.4581 46.0682C64.4581 47.4169 64.4581 48.7656 64.4581 50.1143C64.4581 51.463 64.1032 52.7408 63.5353 54.0185C62.5415 56.219 60.9089 57.8517 58.7083 58.9165C57.5016 59.4844 56.2238 59.8393 54.8751 59.9102C51.8228 60.0522 48.7704 59.9812 45.7181 59.9812C37.6968 59.9812 29.6755 59.9812 21.6542 59.9812C19.6666 59.9812 17.679 59.9812 15.6914 59.9812C14.5557 59.9812 13.4199 59.9812 12.2842 59.6973C10.0127 59.1294 8.16704 57.9936 6.67635 56.219C6.25044 55.7221 5.89552 55.1543 5.5406 54.5154C5.04371 53.5216 4.68877 52.5278 4.5468 51.392C4.47582 50.8952 4.40484 50.3273 4.40484 49.8304C4.40484 48.5526 4.40484 47.2749 4.40484 46.0682C4.40484 45.3583 4.1209 44.7905 3.55302 44.3646C3.12711 44.0096 2.63022 44.0806 2.13332 44.0096C1.63643 44.0096 1.13953 44.0096 0.642634 44.0096C0.500664 44.0096 0.429688 43.9386 0.429688 43.7967C0.429688 42.5899 0.429688 41.3832 0.429688 40.1764V40.1055C0.500672 40.1055 0.571655 40.1055 0.571655 40.1055C9.72871 40.1055 18.8858 40.1055 27.9718 40.1055C40.9621 40.1055 53.8813 40.1055 66.8716 40.1055C67.3685 40.1055 67.8654 40.1055 68.3623 40.1055C68.4332 41.3122 68.4332 42.5899 68.4332 43.9386ZM44.3694 49.9014C44.5823 49.9014 44.8662 49.9014 45.0792 49.9014C47.2797 49.9014 49.4803 49.9014 51.6808 49.9014C51.8937 49.9014 52.0357 49.9014 52.2487 49.9014C52.3907 49.9014 52.4616 49.8304 52.3906 49.6884C52.3906 48.5527 52.3906 47.4879 52.3906 46.3521C52.3906 45.9262 52.3907 45.9262 51.9648 45.9262C49.5513 45.9262 47.1378 45.9262 44.7243 45.9262C44.6533 45.9262 44.5823 45.9262 44.5823 45.9262C44.4403 45.9262 44.3694 45.9972 44.3694 46.1392C44.3694 46.5651 44.3694 46.92 44.3694 47.3459C44.3694 48.1267 44.3694 48.9786 44.3694 49.9014ZM16.5433 49.8304C19.1697 49.8304 21.8671 49.8304 24.5646 49.8304C24.5646 48.6236 24.5646 47.4169 24.5646 46.2811C24.5646 45.9262 24.5646 45.9262 24.2096 45.9262C21.7962 45.9262 19.3117 45.9262 16.8982 45.9262C16.8272 45.9262 16.7562 45.9262 16.6852 45.9262C16.5433 45.9262 16.4723 45.9972 16.4723 46.1392C16.4723 46.6361 16.4723 47.062 16.4723 47.5589C16.5433 48.2687 16.5433 49.0495 16.5433 49.8304ZM30.4563 53.8765C33.1537 53.8765 35.7802 53.8765 38.4776 53.8765C38.4776 53.6636 38.4776 53.5216 38.4776 53.3796C38.4776 52.3858 38.4776 51.3921 38.4776 50.4693C38.4776 49.9724 38.4776 49.9723 37.9807 49.9723C35.5672 49.9723 33.2247 49.9723 30.8112 49.9723C30.5983 49.9723 30.5273 50.0434 30.5273 50.2563C30.5273 51.3921 30.5273 52.4568 30.5273 53.5926C30.4563 53.5926 30.4563 53.7345 30.4563 53.8765Z" fill="#151515"/>
<path d="M51.9605 35.9893C52.0315 35.6344 52.1025 35.2795 52.1735 34.8536C52.2444 34.2857 52.3154 33.7888 52.3154 33.2209C52.3864 32.5821 52.3864 31.8722 52.3864 31.2334C52.3864 30.0266 52.1735 28.8199 51.8895 27.6841C51.3216 25.3416 50.3278 23.2121 48.8372 21.2955C47.4175 19.5209 45.6428 18.0302 43.5133 17.1074C42.8744 16.8234 42.2356 16.6105 41.5257 16.3975C41.2418 16.3265 40.9578 16.2555 40.6739 16.1846C40.4609 16.1136 40.4609 16.0426 40.4609 15.8296C40.6029 12.9902 41.8096 10.7897 44.1522 9.22804C44.791 8.80213 45.4299 8.51816 46.1397 8.3052C46.2107 8.3052 46.2817 8.30522 46.4237 8.23423C46.4237 8.16325 46.4237 8.09227 46.4237 8.02129C46.4237 6.74356 46.4237 5.46581 46.4237 4.18809C46.4237 3.97513 46.3527 3.90417 46.1397 3.90417C44.933 3.97516 43.6553 3.97514 42.4485 3.97514C42.4485 2.62643 42.4485 1.34871 42.4485 0C49.1211 0 55.7937 0 62.4663 0C62.4663 0.28394 62.4663 0.496877 62.4663 0.780817C62.4663 1.77461 62.4663 2.69739 62.4663 3.69118C62.4663 3.90414 62.3953 3.97514 62.1823 3.97514C61.1885 3.97514 60.1947 3.97514 59.13 3.97514C58.988 3.97514 58.7751 3.97514 58.6331 3.97514C58.5621 3.97514 58.4201 4.1171 58.4201 4.18809C58.4201 5.39483 58.4201 6.67257 58.4201 7.87931C58.4201 8.30522 58.4911 8.23424 58.846 8.37621C59.3429 8.51818 59.8398 8.73111 60.3367 9.01505C62.5373 10.2928 63.815 12.1384 64.3119 14.6229C64.3829 15.0488 64.4538 15.5457 64.4538 15.9716C64.4538 22.2183 64.4538 28.394 64.4538 34.6406C64.4538 34.9956 64.4538 35.3505 64.4538 35.7054C64.4538 35.8474 64.3829 35.9184 64.2409 35.9184C63.957 35.9184 63.673 35.9184 63.3181 35.9184C60.7626 35.9184 58.1362 35.9184 55.5807 35.9184C54.5159 35.9184 53.3802 35.9184 52.3154 35.9184C52.1735 35.9184 52.1025 35.9893 51.9605 35.9893Z" fill="#151515"/>
<path d="M16.9699 35.9905C16.615 35.9905 16.2601 35.9905 15.9051 35.9905C12.7818 35.9905 9.58748 35.9905 6.46414 35.9905C6.03823 35.9905 5.61231 35.9196 5.25739 35.9196C5.11542 35.9196 5.04444 35.8486 5.04444 35.7066C5.04444 35.2097 4.97345 34.6418 4.90247 34.1449C4.83148 33.5061 4.7605 32.8672 4.68952 32.1574C4.68952 31.9444 4.7605 31.9444 4.90247 31.9444C6.67709 31.9444 8.45171 31.9444 10.2263 31.9444C10.4393 31.9444 10.4393 31.8734 10.4393 31.7314C10.4393 30.5247 10.4393 29.3889 10.4393 28.1822C10.4393 27.8983 10.4393 27.8983 10.1554 27.8983C8.80664 27.8983 7.45793 27.9692 6.10922 27.9692C5.61232 27.9692 5.18641 27.9693 4.68952 27.8983C4.54755 27.8983 4.47656 27.8273 4.47656 27.6853C4.54755 26.4786 4.54755 25.3428 4.61853 24.1361C4.61853 23.9941 4.68951 23.9941 4.7605 23.9941C4.90247 23.9941 5.11542 23.9941 5.25739 23.9941C6.96103 23.9941 8.59369 23.9941 10.2973 23.9941C10.2973 23.9941 10.3683 23.9941 10.4393 23.9941C10.4393 23.9231 10.4393 23.8521 10.4393 23.7101C10.4393 22.5744 10.4393 21.3677 10.4393 20.2319C10.4393 19.948 10.4393 19.948 10.1554 19.948C9.0196 19.948 7.81285 20.0189 6.67709 20.0189C6.18019 20.0189 5.61232 19.948 5.11542 19.948C4.97345 19.948 4.97345 19.877 4.97345 19.806C5.11542 18.7412 5.25739 17.7474 5.47035 16.6827C5.47035 16.5407 5.54133 16.3277 5.61231 16.1858C5.61231 16.1148 5.75429 16.0438 5.82527 16.0438C6.03823 16.0438 6.25118 16.0438 6.39315 16.0438C7.74187 16.0438 9.0196 16.0438 10.3683 16.0438C10.3683 16.0438 10.4393 16.0438 10.5103 16.0438C10.5103 15.9728 10.5103 15.8308 10.5103 15.7598C10.5103 14.6241 10.5103 13.4883 10.5103 12.3526C10.5103 11.9976 10.5103 11.9976 10.1554 11.9976C9.0196 11.9976 7.81285 11.9976 6.60611 11.9976C6.6771 11.7137 6.74808 11.5008 6.81907 11.2168C7.24498 10.0811 7.5999 8.94529 8.02581 7.88052C8.59369 6.46082 9.30354 5.11212 10.1554 3.90538C11.0072 2.69864 12.0719 1.56284 13.4207 0.852994C14.9113 0.00117439 16.544 -0.140761 18.1767 0.356134C19.7383 0.853028 20.9451 1.84681 21.9389 3.05355C22.8617 4.11833 23.6425 5.32505 24.2104 6.67377C24.6363 7.59657 25.0622 8.59039 25.4171 9.58418C25.772 10.578 26.056 11.6427 26.3399 12.6365C26.6239 13.7013 26.8368 14.837 27.1208 15.9018C27.1208 16.0438 27.1917 16.1858 27.2627 16.3277C27.0498 16.3987 26.8368 16.5407 26.6239 16.6117C25.843 16.8246 25.0622 17.1795 24.3523 17.5345C22.1518 18.7412 20.4482 20.3739 19.0995 22.4324C18.3896 23.4972 17.8927 24.633 17.3958 25.8397C16.9699 27.0464 16.615 28.2532 16.473 29.46C16.331 30.8797 16.1891 32.2283 16.402 33.648C16.473 34.2159 16.544 34.8548 16.686 35.4227C16.8989 35.6356 16.9699 35.7776 16.9699 35.9905Z" fill="#151515"/>
<path d="M34.0731 12.9922C34.7119 14.1279 35.2798 15.2637 35.6347 16.4704C35.9897 17.6772 36.2736 18.9549 36.2736 20.2327C36.6285 20.1617 36.9125 20.1617 37.1964 20.0907C39.7519 19.7358 42.0234 20.4456 44.011 22.0782C45.5016 23.356 46.5664 24.9176 47.3473 26.6923C47.6312 27.4021 47.8442 28.183 48.0571 28.9638C48.412 30.5255 48.483 32.0871 48.2701 33.7198C48.1991 34.2877 48.0571 34.9265 47.9861 35.4944C47.9151 35.8493 47.8441 35.9203 47.4892 35.9203C45.3597 35.9203 43.3011 35.9203 41.1716 35.9913C35.0669 35.9913 28.8912 35.9913 22.7865 35.9913C22.3606 35.9913 21.9347 35.9913 21.5087 35.9203C21.1538 35.9203 21.0828 35.8493 21.0119 35.4944C20.7989 34.4296 20.5859 33.3649 20.5859 32.3001C20.5859 31.0934 20.6569 29.9576 20.9409 28.8218C21.2958 27.1892 21.9347 25.6275 22.9284 24.2788C24.2772 22.2912 26.1228 20.9425 28.4653 20.3036C29.4591 20.0197 30.4528 20.0197 31.4466 20.0907C31.8016 20.1617 32.0855 20.1617 32.4404 20.2327C32.4404 19.9487 32.3694 19.7358 32.3694 19.5228C32.2275 18.1031 31.7306 16.7544 31.0207 15.5476L30.9497 15.4767C30.8078 15.2637 30.8078 15.1217 31.0207 14.9798C31.9435 14.4119 32.8663 13.844 33.8601 13.2051C33.9311 13.1341 34.0021 13.0632 34.0731 12.9922Z" fill="#151515"/>
</svg>
