<svg width="43" height="60" viewBox="0 0 43 60" fill="none" xmlns="http://www.w3.org/2000/svg">
<path d="M18.56 11.988C20.59 11.988 22.48 11.988 24.58 11.988C24.58 11.6375 24.58 11.3572 24.58 11.0067C24.58 8.41339 24.58 5.89013 24.58 3.29678C24.58 1.33424 25.84 -0.0675749 27.59 0.00251566C29.34 0.00251566 30.53 1.33424 30.53 3.29678C30.53 4.97895 30.67 6.59102 30.53 8.27319C30.25 11.4974 31.09 14.5813 32.21 17.5252C33.26 20.3288 34.59 22.9922 36.41 25.3052C37.6 26.8472 39 28.1789 40.75 29.1602C42.01 29.8611 42.5 30.8424 42.5 32.2442C42.5 40.3747 42.5 48.5052 42.5 56.6357C42.5 58.8085 41.31 60 39.14 60C27.38 60 15.62 60 3.86003 60C1.69003 60 0.5 58.8085 0.5 56.6357C0.5 48.5052 0.5 40.3747 0.5 32.2442C0.5 31.0526 0.85 30.0013 1.9 29.4405C5.61 27.4079 7.92 24.1137 9.6 20.3288C10.72 17.8756 11.42 15.2822 12.33 12.6889C12.47 12.1983 12.47 11.7076 12.47 11.217C12.47 8.48347 12.47 5.67986 12.47 2.94633C12.47 1.47443 13.45 0.352951 14.78 0.0725891C16.11 -0.207773 17.51 0.42305 18.07 1.61459C18.28 2.10522 18.42 2.73606 18.42 3.29678C18.49 5.82004 18.42 8.34329 18.42 10.8665C18.56 11.2871 18.56 11.5674 18.56 11.988ZM21.57 39.043C18.56 39.043 15.55 39.043 12.61 39.043C10.86 39.043 9.6 40.3747 9.6 41.9868C9.6 43.5989 10.86 45.0007 12.54 45.0007C18.56 45.0007 24.58 45.0007 30.6 45.0007C32.07 45.0007 33.19 44.0194 33.47 42.6176C33.89 40.655 32.49 38.9728 30.39 38.9728C27.45 39.0429 24.51 39.043 21.57 39.043Z" fill="#151515"/>
</svg>
