<svg width="60" height="60" viewBox="0 0 60 60" fill="none" xmlns="http://www.w3.org/2000/svg">
<path d="M35.8106 1.87985e-10C36.2467 0.225564 36.7279 0.195474 37.1941 0.2857C40.6377 0.947354 43.1339 2.81203 44.4723 6.09023C45.4196 8.40601 45.0287 10.5113 43.2241 12.2707C42.6527 12.827 42.3971 13.3835 42.4121 14.1654C42.4271 15.1579 42.352 16.1654 42.2768 17.1579C42.2467 17.5639 42.352 17.7744 42.7129 17.9849C44.1114 18.7669 44.788 20 44.6377 21.594C44.4873 23.2331 44.2467 24.8722 44.0362 26.5113C43.961 27.1278 43.585 27.5038 42.9835 27.6391C41.3895 28.015 40.4723 29.0376 40.0061 30.5865C39.3745 32.6616 38.6828 34.7218 38.0061 36.797C37.6602 37.8346 37.3595 38.0601 36.2617 38.0601C34.0061 38.0601 31.7655 38.0601 29.5098 38.0601C27.6001 38.0601 26.2316 38.9925 25.6903 40.6165C25.1339 42.2707 25.7053 43.8496 27.2692 44.9925C29.0888 46.3158 30.9083 47.6391 32.7279 48.9624C33.6753 49.6541 33.7805 49.9549 33.4347 51.0526C32.8031 53.1278 32.1565 55.203 31.5249 57.2932C31.3896 57.7293 31.2993 58.1654 31.2693 58.6165C31.1941 59.594 30.758 60 29.7805 60C26.5324 60 23.2843 60 20.0362 60C13.9309 60 7.84068 60 1.73542 60C0.427147 60 0.0361582 59.594 0.0511958 58.3007C0.0812709 55.9398 0.336914 53.609 1.16398 51.3834C2.38203 48.1353 4.65271 46.0301 8.03617 45.1579C11.0437 44.391 14.0512 43.6391 17.0587 42.9023C17.555 42.782 17.8256 42.5865 17.9309 42.0601C18.0963 41.1729 18.5474 40.3008 18.5023 39.4436C18.4723 38.5714 17.5249 38.0752 17.0286 37.3534C15.6151 35.2782 14.5926 33.0526 14.1414 30.5865C14.0662 30.1504 13.9008 29.9248 13.4497 29.7594C12.0662 29.2631 11.2392 28.2406 11.0286 26.7819C10.788 25.0977 10.5926 23.4135 10.3971 21.7293C10.2166 20.1203 10.9685 18.6616 12.4121 17.9549C12.9083 17.7143 12.9535 17.4586 12.9083 16.9774C12.6677 14.7218 12.367 12.4662 12.6828 10.1804C13.1189 7.05262 14.773 4.90225 17.6903 3.71428C19.6001 2.94736 21.6001 2.66163 23.6302 2.57141C24.2768 2.54133 24.8332 2.40601 25.3895 2.06014C27.164 0.992474 29.1339 0.421031 31.1941 0.165392C31.4347 0.135316 31.7053 0.165392 31.9159 0.0150156C33.2091 -2.20279e-05 34.5174 1.87985e-10 35.8106 1.87985e-10Z" fill="#151515"/>
<path d="M34.218 40.5424C35.7217 40.5424 37.2104 40.5124 38.7142 40.5575C39.2556 40.5725 39.4962 40.4071 39.6616 39.8808C40.5638 37.0236 41.5112 34.1816 42.4135 31.3244C42.624 30.6477 42.9247 30.1214 43.7217 30.1214C44.5638 30.1064 44.8796 30.6477 45.1052 31.3394C45.9774 34.1063 46.9247 36.8432 47.7518 39.6101C47.9924 40.4071 48.3533 40.5725 49.1202 40.5575C52.0225 40.5124 54.9247 40.5424 57.8119 40.5274C58.5338 40.5274 59.1804 40.6477 59.436 41.4297C59.6766 42.1815 59.2104 42.6327 58.654 43.0387C56.1879 44.8282 53.7217 46.6327 51.2555 48.4071C50.8646 48.6928 50.7743 48.9334 50.9247 49.3996C51.842 52.2868 52.7142 55.174 53.6014 58.0612C53.8721 58.9334 53.7067 59.4748 53.0901 59.8206C52.5187 60.1515 52.0375 59.9409 51.5713 59.5951C49.1804 57.8357 46.7593 56.0913 44.3984 54.3018C43.9022 53.9259 43.6014 53.956 43.1202 54.3169C40.8044 56.0612 38.4586 57.7605 36.1127 59.4748C35.7518 59.7455 35.4059 60.0312 34.8947 59.971C34.0225 59.8808 33.6014 59.0988 33.9022 58.0913C34.7744 55.2492 35.6315 52.4071 36.5338 49.565C36.7443 48.9184 36.6089 48.6026 36.0676 48.2266C33.6465 46.5124 31.2555 44.7379 28.8345 42.9936C28.2631 42.5875 27.827 42.1214 28.0676 41.3695C28.3082 40.6326 28.9097 40.4672 29.6315 40.4823C31.1653 40.5575 32.6992 40.5424 34.218 40.5424Z" fill="#151515"/>
</svg>
