<svg width="69" height="60" viewBox="0 0 69 60" fill="none" xmlns="http://www.w3.org/2000/svg">
<path d="M0.541368 41.5013C0.831011 41.0462 1.03791 40.5496 1.53444 40.3014C1.90684 40.0945 2.27922 40.0117 2.65162 40.0117C23.9611 40.0117 45.2705 40.0117 66.58 40.0117C67.8627 40.0117 68.6903 40.8393 68.6903 42.122C68.6903 43.4047 68.6903 44.6874 68.6903 45.9287C68.6903 47.1287 67.8214 47.9976 66.6628 47.9976C65.0904 47.9976 63.5181 47.9976 61.9457 47.9976C61.532 47.9976 61.4906 48.0804 61.6147 48.4528C62.6078 51.3492 63.5595 54.2456 64.5111 57.1421C65.0077 58.6317 64.056 60.0385 62.5664 59.9557C61.6975 59.9144 61.0354 59.3764 60.7044 58.4248C59.7114 55.4456 58.7183 52.4664 57.7252 49.4872C57.5597 48.9907 57.5597 48.37 57.1459 48.0804C56.7735 47.8321 56.1942 47.9976 55.6977 47.9976C41.2983 47.9976 26.9403 47.9976 12.5409 47.9976C12.0857 47.9976 11.8788 48.1217 11.7133 48.5769C10.6375 51.8457 9.56168 55.1559 8.44448 58.4248C7.90657 60.0385 6.12734 60.535 5.01014 59.3351C4.43086 58.7144 4.34812 57.9696 4.63776 57.1834C5.58945 54.3284 6.54112 51.5147 7.4928 48.6596C7.53418 48.5769 7.53418 48.4941 7.57556 48.4114C7.74107 48.0804 7.65831 47.9976 7.28591 47.9976C5.92045 47.9976 4.51361 47.9562 3.14815 48.039C1.90682 48.0804 0.955154 47.708 0.5 46.4666C0.541378 44.8115 0.541368 43.1564 0.541368 41.5013Z" fill="#151515"/>
<path d="M56.8967 24.0419C58.0967 24.0419 59.1311 24.0419 60.2069 24.0419C60.9931 24.0419 61.7793 24.0419 62.5655 24.0419C63.724 24.0419 64.593 24.9108 64.593 26.0694C64.5516 29.8347 63.2275 33.0622 60.6621 35.7517C60.4552 36 60.2069 36 59.9173 36C53.9175 36 47.9592 36 41.9594 36C39.1043 36 36.2079 36 33.3529 36C33.0632 36 32.8563 35.9173 32.6081 35.7104C30.084 33.0208 28.76 29.8761 28.6772 26.1935C28.6358 24.8281 29.5048 24.0005 30.8288 24.0005C37.5734 24.0005 44.3593 24.0005 51.1039 24.0005C51.5176 24.0005 51.8073 23.8764 52.0555 23.5453C54.9934 19.9869 57.9725 16.4284 60.9517 12.8699C61.9862 11.6286 63.7654 11.7527 64.3861 13.1596C64.7585 13.9871 64.593 14.7319 64.0137 15.4353C61.7379 18.1663 59.4208 20.9385 57.145 23.6695C57.1036 23.7522 57.0209 23.835 56.8967 24.0419Z" fill="#151515"/>
<path d="M14.6529 24.043C17.5493 24.043 20.4458 24.043 23.3008 24.043C23.6732 24.043 23.8387 24.0843 23.7974 24.4981C23.4663 28.1393 23.1767 31.7806 22.887 35.4632C22.8457 35.9597 22.6802 36.0425 22.225 36.0425C17.1769 36.0425 12.1289 36.0425 7.03943 36.0425C6.58427 36.0425 6.46014 35.9183 6.41876 35.5046C6.12912 31.822 5.83947 28.1394 5.50845 24.4567C5.46707 24.043 5.71533 24.0843 5.96359 24.0843C8.86003 24.043 11.7565 24.043 14.6529 24.043Z" fill="#151515"/>
<path d="M36.8291 8.06863C36.1256 8.06863 35.3808 8.06863 34.6774 8.06863C33.5188 8.11001 32.6499 8.97893 32.6499 10.0961C32.6499 11.1719 33.5602 12.0409 34.6774 12.0409C37.367 12.0409 40.0565 11.9995 42.7461 12.0409C45.9735 12.0823 48.6217 14.7718 48.6217 17.9579C48.6217 19.0751 47.7941 19.944 46.7183 19.9854C45.6011 20.0268 44.7322 19.1992 44.6494 18.0406C44.5667 16.7579 43.7805 15.9717 42.4978 15.9717C39.9324 15.9717 37.3256 15.9717 34.7602 15.9717C31.2431 15.9304 28.5949 13.1581 28.719 9.72374C28.8432 6.66179 31.4086 4.09636 34.4292 4.01361C35.7532 3.97223 37.0773 4.01361 38.4014 4.01361C39.8082 4.01361 40.553 3.3102 40.6772 1.90336C40.7599 0.827542 41.6702 0 42.7461 0C43.8219 0.0413776 44.6494 0.95167 44.6494 2.02749C44.6494 5.17219 42.0426 7.86173 38.8979 7.94448C38.1531 8.06861 37.4911 8.06863 36.8291 8.06863Z" fill="#151515"/>
<path d="M14.5695 20.0288C11.6316 20.0288 8.69381 20.0288 5.756 20.0288C5.25947 20.0288 5.13535 19.8633 5.09397 19.4082C4.96984 17.7531 4.80433 16.098 4.68019 14.4015C4.55606 12.9533 5.38361 12.043 6.8732 12.043C12.0868 12.043 17.259 12.043 22.4726 12.043C23.8794 12.043 24.707 12.9119 24.6242 14.3601C24.5001 16.098 24.3346 17.8772 24.2104 19.6151C24.1691 20.0288 23.9622 20.0702 23.6311 20.0702C20.6106 20.0289 17.59 20.0288 14.5695 20.0288Z" fill="#151515"/>
</svg>
