<svg width="41" height="60" viewBox="0 0 41 60" fill="none" xmlns="http://www.w3.org/2000/svg">
<path d="M39.5125 0.0727758C40.3517 0.509404 40.6072 0.946026 40.4612 1.60097C40.3518 2.07398 40.0233 2.40145 39.549 2.51061C39.33 2.547 39.0746 2.58339 38.8191 2.58339C35.1701 2.58339 31.4845 2.58339 27.8354 2.58339C26.0473 2.58339 25.1716 3.3111 24.8796 5.05761C24.7702 5.78532 24.6607 6.51304 24.5147 7.24075C24.4417 7.53184 24.5512 7.60461 24.8431 7.60461C25.427 7.60461 26.0108 7.60461 26.5582 7.60461C27.507 7.60461 27.9449 8.04124 27.9449 8.98727C27.9449 10.6246 27.9449 12.2984 27.9814 13.9357C28.0543 17.2468 28.4557 20.5579 29.0396 23.7962C29.441 26.0522 29.9154 28.2717 30.2803 30.5276C30.6817 33.0382 30.3897 35.4761 29.4775 37.8411C28.1273 41.2978 25.8284 43.9539 22.5442 45.7368C21.2305 46.4281 19.8439 46.9375 18.4208 47.1922C18.0558 47.265 17.9464 47.3742 17.9464 47.738C17.9464 49.9939 17.9464 52.2862 17.9464 54.5421C17.9464 54.9424 18.0558 55.0152 18.4572 55.0152C19.479 54.9788 20.5007 55.0152 21.5225 55.0152C22.5077 55.0152 22.9821 55.4882 22.9821 56.4706C22.9821 57.1619 22.9821 57.8532 22.9821 58.5446C22.9821 59.527 22.4712 60 21.5225 60C17.5085 60 13.4945 60 9.44401 60C8.45876 60 7.98438 59.527 7.98438 58.5446C7.98438 57.8532 7.98438 57.1619 7.98438 56.4706C7.98438 55.4882 8.45876 55.0152 9.44401 55.0152C10.5022 55.0152 11.5605 55.0152 12.6187 55.0152C12.9106 55.0152 13.0201 54.906 13.0201 54.6149C13.0201 52.2862 13.0201 49.9939 13.0201 47.6653C13.0201 47.3378 12.9106 47.265 12.6187 47.1922C6.88964 46.1734 2.10935 41.5525 0.868665 35.9491C0.284811 33.3657 0.430775 30.8187 1.05112 28.2717C1.9269 24.7423 2.47424 21.1765 2.76617 17.5743C2.98512 14.7726 2.98513 11.9345 2.98513 9.13281C2.98513 8.80534 2.98513 8.47786 3.16758 8.15039C3.45951 7.71376 3.8609 7.56823 4.37178 7.56823C6.34228 7.56823 8.31279 7.56823 10.2833 7.56823C14.0054 7.56823 17.7639 7.56823 21.486 7.56823C21.8509 7.56823 21.9604 7.45907 22.0334 7.09521C22.2158 5.96725 22.3253 4.8393 22.6172 3.74773C23.1281 1.85568 24.3688 0.691328 26.2663 0.181928C26.4487 0.145543 26.6312 0.145543 26.7772 0C31.0101 0.0727714 35.2795 0.0727758 39.5125 0.0727758ZM13.0201 15.0637C15.4285 15.0637 17.8369 15.0637 20.2453 15.0637C20.5007 15.0637 20.6832 15.0273 20.7562 14.6998C20.9751 13.2808 21.2306 11.8617 21.486 10.4427C21.559 10.1152 21.4495 10.0425 21.1211 10.0425C16.0489 10.0425 10.9401 10.0425 5.86789 10.0425C5.53947 10.0425 5.4665 10.1152 5.4665 10.4427C5.50299 11.8254 5.4665 13.208 5.39352 14.5543C5.35703 14.9909 5.503 15.0637 5.9044 15.0637C8.23981 15.0637 10.6482 15.0637 13.0201 15.0637ZM25.5 12.262C25.5 11.7526 25.5 11.4251 25.5 11.0612C25.5 10.0788 25.5 10.0788 24.4782 10.0788C24.1498 10.0788 24.0038 10.188 23.9309 10.5155C23.7119 11.9345 23.4565 13.3535 23.2375 14.7726C23.2011 15.0637 23.274 15.1364 23.5295 15.1001C24.0768 15.1001 24.6242 15.0637 25.1716 15.1001C25.5 15.1001 25.6094 15.0273 25.5729 14.6998C25.5365 13.8266 25.4635 12.9533 25.5 12.262Z" fill="#151515"/>
</svg>
