<svg width="68" height="50" viewBox="0 0 68 50" fill="none" xmlns="http://www.w3.org/2000/svg">
<path d="M0.5 34.943C0.613636 30.9089 0.215909 26.8748 1.29545 22.8975C3.79545 13.977 12.0909 7.55646 21.2954 7.49965C29.8749 7.44283 38.4545 7.44283 47.034 7.49965C57.8294 7.55646 66.9203 15.852 67.8294 26.6475C68.0567 29.3748 67.8862 32.1021 67.8862 34.943C45.5567 34.943 23.1136 34.943 0.5 34.943ZM34.3068 29.9999C33.6249 29.9999 33.0568 30.568 33.0568 31.2498C33.0568 31.8748 33.6249 32.443 34.2499 32.4999C34.9318 32.4999 35.5568 31.9885 35.5568 31.3067C35.5568 30.6249 34.9886 29.9999 34.3068 29.9999ZM40.5567 31.2498C40.5567 30.568 39.9886 29.9999 39.3067 29.9999C38.6249 29.9999 38.0568 30.568 38.0568 31.2498C38.0568 31.8748 38.6249 32.443 39.2499 32.4999C39.9317 32.4999 40.4999 31.9317 40.5567 31.2498ZM29.2499 32.4999C29.9318 32.4999 30.4999 31.9317 30.4999 31.2498C30.4999 30.568 29.9318 29.9999 29.2499 29.9999C28.6249 29.9999 28.0568 30.568 27.9999 31.193C27.9999 31.8749 28.5681 32.4999 29.2499 32.4999Z" fill="#151515"/>
<path d="M34.3063 50C24.0222 50 13.7381 50 3.45405 50C2.82906 50 2.14724 49.8296 1.57906 49.4887C0.66997 48.9773 0.329061 47.8409 0.613151 46.875C0.897242 45.7955 1.74951 45.1136 2.82906 45C2.99951 45 3.16997 45 3.34042 45C23.9654 45 44.5335 45 65.1585 45C66.2948 45 67.2039 45.3409 67.7153 46.4205C68.5107 47.9546 67.488 49.8296 65.7267 50C65.4426 50 65.1585 50 64.8744 50C54.704 50 44.4767 50 34.3063 50Z" fill="#151515"/>
<path d="M57.9996 42.5018C42.2041 42.5018 26.4655 42.5018 10.6133 42.5018C10.6133 40.8541 10.6133 39.2063 10.6133 37.5586C26.4087 37.5586 42.1473 37.5586 57.9996 37.5586C57.9996 39.1495 57.9996 40.7973 57.9996 42.5018Z" fill="#151515"/>
<path d="M34.3086 0C35.8995 0 37.4904 0 39.0813 0C39.9336 0 40.5018 0.45457 40.5586 1.19321C40.5586 1.93185 39.9904 2.50003 39.0813 2.50003C35.8995 2.50003 32.7177 2.50003 29.5359 2.50003C28.6268 2.50003 28.0586 1.98867 28.0586 1.19321C28.0586 0.45457 28.6268 0 29.5359 0C31.1268 0 32.7177 0 34.3086 0Z" fill="#151515"/>
</svg>
