<svg width="58" height="60" viewBox="0 0 58 60" fill="none" xmlns="http://www.w3.org/2000/svg">
<path d="M28.92 47.7674C20.9311 47.7674 12.9422 47.7674 4.9533 47.7674C4.39463 47.7674 4.45047 47.4881 4.50634 47.1529C4.61807 42.6836 5.84719 38.5495 8.19357 34.7506C11.378 29.6667 15.9031 26.1472 21.6015 24.3594C34.0597 20.5047 46.9089 26.8734 51.6017 38.6053C52.719 41.3428 53.2777 44.192 53.3335 47.1529C53.3335 47.5439 53.3335 47.7115 52.8307 47.7115C44.8977 47.7674 36.9088 47.7674 28.92 47.7674Z" fill="#151515"/>
<path d="M28.863 59.9997C21.0976 59.9997 13.3322 59.9997 5.51087 59.9997C2.49409 59.9997 0.259467 57.6533 0.371199 54.6924C0.427066 52.1226 2.54999 49.9438 5.11984 49.832C5.28744 49.832 5.5109 49.832 5.6785 49.832C21.1535 49.832 36.6284 49.832 52.1593 49.832C54.338 49.832 55.9581 50.7259 56.9637 52.6812C58.6397 56.0332 56.1816 59.9997 52.3827 59.9997C44.5614 59.9997 36.7402 59.9997 28.863 59.9997Z" fill="#151515"/>
<path d="M25.3418 2.90506C26.4592 2.90506 26.4592 2.90504 26.7943 1.84358C26.9061 1.56425 26.9619 1.28494 27.0737 1.06147C27.4647 0.391078 28.0234 0 28.8055 0C29.5877 0 30.2022 0.335191 30.5933 1.00559C30.705 1.17319 30.7609 1.39665 30.8726 1.56425C31.4313 3.18437 30.9844 2.90506 32.7721 2.90506C33.8335 2.90506 34.6156 3.40784 34.895 4.35757C35.1743 5.19556 34.8391 6.08943 34.0011 6.70396C32.8838 7.54195 32.8838 7.54197 33.2748 8.88276C33.61 10.0001 33.3866 10.8381 32.5486 11.3967C31.7665 11.9554 30.9285 11.8995 29.9788 11.1733C29.867 11.0615 29.6994 11.0057 29.5877 10.8939C29.1407 10.447 28.6938 10.447 28.191 10.8939C27.9117 11.1174 27.5765 11.3409 27.2972 11.5085C26.515 11.8995 25.7329 11.8437 25.1184 11.2292C24.448 10.6705 24.2245 9.9442 24.448 9.1062C24.8949 7.54195 24.8949 7.54196 23.6658 6.53637C22.9396 5.9777 22.6602 5.08384 22.8837 4.30171C23.163 3.40785 23.8893 2.8492 24.8949 2.8492C25.0625 2.90507 25.1742 2.90506 25.3418 2.90506Z" fill="#151515"/>
<path d="M43.724 11.0622C45.1207 11.0622 44.7855 11.1739 45.2324 9.83314C45.7352 8.43648 46.7408 7.82192 47.9699 8.26885C48.6402 8.49232 49.0313 8.99512 49.2548 9.66551C49.3665 9.94484 49.4783 10.2242 49.5341 10.5035C49.6459 10.9504 49.9251 11.118 50.3162 11.0622C50.6514 11.0622 50.9866 11.0622 51.3777 11.0622C52.2715 11.118 52.942 11.6208 53.2772 12.4588C53.5565 13.1851 53.2772 14.079 52.6626 14.6376C52.3833 14.917 52.0481 15.1404 51.7129 15.3639C51.3218 15.5873 51.2659 15.9226 51.4335 16.3136C51.5453 16.6488 51.6571 16.984 51.7688 17.3192C51.9923 18.1572 51.7688 18.9393 51.0425 19.498C50.3721 20.0567 49.4224 20.2243 48.8078 19.6097C47.7464 18.6042 46.8525 18.66 45.7911 19.6097C45.1207 20.1684 44.2268 20.0008 43.5564 19.4421C42.8301 18.8835 42.6067 18.1013 42.886 17.2075C43.333 15.6991 43.3329 15.6991 42.1039 14.7494C41.3218 14.1907 41.0424 13.2968 41.2659 12.4588C41.5452 11.565 42.2715 11.0063 43.2771 11.0063C43.3888 11.0622 43.5564 11.0622 43.724 11.0622Z" fill="#151515"/>
<path d="M16.6848 13.0724C16.6848 13.6869 16.4614 14.1897 16.0145 14.6367C15.8469 14.8043 15.6793 14.916 15.4558 15.0836C14.562 15.754 14.4502 15.5305 14.8412 16.8155C15.344 18.3797 14.8971 19.4412 13.6122 19.8881C12.9977 20.1116 12.439 19.944 11.8804 19.6088C11.5452 19.3853 11.2099 19.1618 10.9306 18.9384C10.6513 18.7149 10.4278 18.7149 10.0926 18.9384C9.7574 19.2177 9.36639 19.497 9.03119 19.7205C8.24906 20.1674 7.46688 20.1115 6.74062 19.5529C6.01435 18.9942 5.79092 18.2121 6.07025 17.3182C6.51718 15.8098 6.51718 15.8098 5.23225 14.8042C4.50599 14.2456 4.22665 13.3517 4.45011 12.5696C4.72944 11.6757 5.45569 11.1171 6.46129 11.1171C8.02554 11.0612 8.02558 11.0612 8.52838 9.60869C8.86358 8.65896 9.64569 8.10031 10.5396 8.15617C11.4334 8.15617 12.1597 8.77068 12.4949 9.66454C12.9977 11.0612 12.9977 11.0612 14.4502 11.1171C15.791 11.1171 16.6848 11.8992 16.6848 13.0724Z" fill="#151515"/>
<path d="M35.0082 21.1152C35.0082 21.9532 35.0082 21.9532 34.226 21.7856C30.5947 21.0594 26.9634 21.0594 23.388 21.8415C22.8293 21.9533 22.7734 21.7857 22.7734 21.2829C22.7734 17.9309 25.455 15.1376 28.7511 15.1376C32.2148 15.0817 34.9523 17.7633 35.0082 21.1152Z" fill="#151515"/>
</svg>
