<svg width="51" height="60" viewBox="0 0 51 60" fill="none" xmlns="http://www.w3.org/2000/svg">
<path d="M34.419 60.0001C24.8446 60.0001 15.2702 60.0001 5.75424 60.0001C5.69586 59.9417 5.5791 59.8833 5.52072 59.8833C2.19303 59.0076 0.5 56.7892 0.5 53.3447C0.5 42.0189 0.5 30.7515 0.5 19.4257C0.5 18.7251 0.616763 18.0246 0.675143 17.2656C0.908665 17.2656 1.0838 17.2656 1.20057 17.2656C14.9783 17.2656 28.7561 17.2656 42.5339 17.2656C46.9708 17.2656 50.3569 20.7101 50.3569 25.147C50.3569 31.9775 50.3569 38.808 50.3569 45.5801C50.3569 50.1338 46.9708 53.4615 42.4172 53.5199C41.5414 53.5199 40.6074 53.5199 39.7317 53.5199C39.6733 53.7534 39.6733 53.8701 39.6733 53.9869C39.4397 56.9643 37.7467 59.0076 34.8277 59.8249C34.6526 59.8833 34.5358 59.9417 34.419 60.0001ZM39.6733 49.9587C40.549 49.9587 41.3079 49.9587 42.1252 49.9587C45.0443 49.9587 46.7957 48.2073 46.7957 45.2882C46.7957 41.4351 46.7957 37.6404 46.7957 33.7873C46.7957 30.9266 46.7957 28.0076 46.7957 25.147C46.7957 23.1037 45.5697 21.4106 43.6431 21.002C42.3588 20.7684 41.016 20.8268 39.6733 20.7685C39.6733 30.518 39.6733 40.1508 39.6733 49.9587ZM21.4586 24.9134C18.4228 24.9134 16.0292 25.7891 14.0443 27.5989C12.8767 28.6498 12.8767 29.5839 13.9859 30.6931C17.839 34.5462 21.6921 38.3993 25.4868 42.194C26.5961 43.3033 27.5885 43.2449 28.581 42.0773C31.4416 38.7496 32.1422 35.0133 30.3908 31.0434C28.6978 27.1319 25.4284 25.147 21.4586 24.9134ZM8.73164 43.3616C8.90678 47.2731 10.8917 50.6008 14.9783 52.2939C19.0066 54.0453 22.7429 53.2863 26.0706 50.4257C27.1215 49.4916 27.1215 48.4991 26.129 47.4483C22.2175 43.5368 18.3644 39.6837 14.4529 35.7722C13.4605 34.7797 12.468 34.7797 11.4755 35.8306C9.66573 37.8155 8.73164 40.1507 8.73164 43.3616ZM8.14784 24.7383C7.21375 24.7383 6.33804 25.5556 6.33804 26.4313C6.33804 27.4238 7.15537 28.2411 8.08946 28.2411C9.02354 28.2411 9.84087 27.4238 9.89925 26.5481C9.89925 25.614 9.08192 24.7383 8.14784 24.7383ZM32.4341 43.1865C31.5 43.1865 30.6243 44.0038 30.6243 44.9379C30.6243 45.9304 31.5 46.7477 32.4341 46.7477C33.3682 46.7477 34.1855 45.9304 34.1855 45.0547C34.1855 44.0622 33.4266 43.1865 32.4341 43.1865ZM28.6978 50.776C28.6978 51.7684 29.5151 52.5858 30.4492 52.5858C31.3832 52.5858 32.259 51.7685 32.2006 50.8344C32.2006 49.8419 31.3832 49.0829 30.4492 49.0246C29.5151 49.0246 28.6978 49.8419 28.6978 50.776Z" fill="#151515"/>
<path d="M27.3573 8.80078C27.3573 9.0343 27.4157 9.20943 27.3573 9.44295C27.1238 10.6106 26.8319 11.8365 26.6568 13.0041C26.54 13.5879 26.3065 13.7047 25.7811 13.7047C21.5193 13.7047 17.2575 13.7047 12.9958 13.7047C9.37617 13.7047 5.6982 13.7047 2.07862 13.7047C1.8451 13.7047 1.55319 13.7047 1.14453 13.7047C1.37805 12.4203 1.49481 11.2527 1.72834 10.0851C1.90348 9.38456 2.48728 9.0343 3.18785 8.97592C3.47975 8.91753 3.71327 8.97592 4.00517 8.97592C11.4779 8.97592 19.0089 8.97592 26.4816 8.97592C26.7735 8.91753 27.0654 8.85916 27.3573 8.80078Z" fill="#151515"/>
<path d="M31.032 8.85547C32.725 8.85547 34.4764 8.85547 36.1694 8.85547C37.6873 8.85547 38.2711 9.38091 38.5046 10.8404C38.6214 11.7161 38.7382 12.5918 38.9133 13.5843C35.9943 13.5843 33.1337 13.5843 30.1562 13.5843C30.4482 12.008 30.7401 10.4317 31.032 8.85547Z" fill="#151515"/>
<path d="M27.3555 8.79986C27.4138 8.56634 27.589 8.39118 27.589 8.15765C28.056 5.9392 28.4647 3.72075 28.9317 1.56067C29.2236 0.159543 30.5664 -0.424247 31.6756 0.334698C32.2594 0.743361 32.5513 1.26878 32.4346 1.96934C31.9675 4.30456 31.5005 6.58138 30.9751 8.91659C29.8074 8.85821 28.5815 8.79986 27.3555 8.79986Z" fill="#151515"/>
<path d="M24.6092 29.4102C25.3682 30.1691 26.1271 30.928 26.9444 31.8037C25.6601 32.154 24.6676 32.4459 23.5 32.7378C23.7919 31.5702 24.0838 30.5778 24.3757 29.5853C24.4341 29.5269 24.5508 29.4685 24.6092 29.4102Z" fill="#151515"/>
<path d="M27.0653 38.5738C26.1896 37.6981 25.4306 36.9391 24.6133 36.1218C25.6057 35.8299 26.5982 35.5964 27.941 35.2461C27.5907 36.4137 27.2988 37.4646 27.0653 38.5738Z" fill="#151515"/>
<path d="M20.1165 31.6252C19.3575 30.8663 18.5986 30.1073 17.7812 29.29C18.7153 28.7646 19.7662 28.4727 20.9922 28.4727C20.7003 29.6403 20.4084 30.6327 20.1165 31.6252Z" fill="#151515"/>
<path d="M16.4952 45.4062C16.2033 46.5739 15.9114 47.6247 15.5611 48.8507C14.6854 47.975 13.9265 47.2161 13.0508 46.3404C14.3352 45.9901 15.3276 45.6982 16.4952 45.4062Z" fill="#151515"/>
<path d="M19.0664 49.6102C19.3583 48.501 19.6502 47.5085 19.8837 46.6328C20.5843 47.3334 21.3432 48.0923 22.1022 48.8513C21.3432 49.3183 20.2924 49.6102 19.0664 49.6102Z" fill="#151515"/>
<path d="M12.1758 42.6606C12.4677 41.6097 12.7012 40.6173 12.9931 39.5664C13.8688 40.4421 14.6278 41.2011 15.4451 42.0184C14.3942 42.3103 13.4018 42.6022 12.3509 42.8357C12.3509 42.7774 12.2342 42.719 12.1758 42.6606Z" fill="#151515"/>
</svg>
