<svg width="69" height="60" viewBox="0 0 69 60" fill="none" xmlns="http://www.w3.org/2000/svg">
<path d="M68.4293 43.9386C67.6485 43.9386 66.8677 43.9387 66.0868 44.0096C65.448 44.0096 65.0221 44.4355 64.7381 44.9324C64.5252 45.2874 64.4542 45.6423 64.4542 46.0682C64.4542 47.4169 64.4542 48.7656 64.4542 50.1143C64.4542 51.463 64.0993 52.7408 63.5314 54.0185C62.5376 56.219 60.9049 57.8517 58.7044 58.9165C57.4977 59.4844 56.2199 59.8393 54.8712 59.9102C51.8189 60.0522 48.7665 59.9812 45.7142 59.9812C37.6929 59.9812 29.6716 59.9812 21.6503 59.9812C19.6627 59.9812 17.6751 59.9812 15.6875 59.9812C14.5518 59.9812 13.416 59.9812 12.2803 59.6973C10.0087 59.1294 8.16313 57.9936 6.67245 56.219C6.24654 55.7221 5.89162 55.1543 5.53669 54.5154C5.0398 53.5216 4.68487 52.5278 4.5429 51.392C4.47191 50.8952 4.40093 50.3273 4.40093 49.8304C4.40093 48.5526 4.40093 47.2749 4.40093 46.0682C4.40093 45.3583 4.11699 44.7905 3.54911 44.3646C3.1232 44.0096 2.62631 44.0806 2.12942 44.0096C1.63252 44.0096 1.13562 44.0096 0.638727 44.0096C0.496758 44.0096 0.425781 43.9386 0.425781 43.7967C0.425781 42.5899 0.425781 41.3832 0.425781 40.1764V40.1055C0.496766 40.1055 0.567749 40.1055 0.567749 40.1055C9.7248 40.1055 18.8819 40.1055 27.9679 40.1055C40.9582 40.1055 53.8774 40.1055 66.8677 40.1055C67.3646 40.1055 67.8615 40.1055 68.3583 40.1055C68.4293 41.3122 68.4293 42.5899 68.4293 43.9386ZM44.3654 49.9014C44.5784 49.9014 44.8623 49.9014 45.0753 49.9014C47.2758 49.9014 49.4764 49.9014 51.6769 49.9014C51.8898 49.9014 52.0318 49.9014 52.2448 49.9014C52.3867 49.9014 52.4577 49.8304 52.3867 49.6884C52.3867 48.5527 52.3867 47.4879 52.3867 46.3521C52.3867 45.9262 52.3868 45.9262 51.9608 45.9262C49.5474 45.9262 47.1339 45.9262 44.7204 45.9262C44.6494 45.9262 44.5784 45.9262 44.5784 45.9262C44.4364 45.9262 44.3654 45.9972 44.3654 46.1392C44.3654 46.5651 44.3654 46.92 44.3654 47.3459C44.3654 48.1267 44.3654 48.9786 44.3654 49.9014ZM16.5394 49.8304C19.1658 49.8304 21.8632 49.8304 24.5607 49.8304C24.5607 48.6236 24.5607 47.4169 24.5607 46.2811C24.5607 45.9262 24.5607 45.9262 24.2057 45.9262C21.7922 45.9262 19.3078 45.9262 16.8943 45.9262C16.8233 45.9262 16.7523 45.9262 16.6813 45.9262C16.5394 45.9262 16.4684 45.9972 16.4684 46.1392C16.4684 46.6361 16.4684 47.062 16.4684 47.5589C16.5394 48.2687 16.5394 49.0495 16.5394 49.8304ZM30.4524 53.8765C33.1498 53.8765 35.7763 53.8765 38.4737 53.8765C38.4737 53.6636 38.4737 53.5216 38.4737 53.3796C38.4737 52.3858 38.4737 51.3921 38.4737 50.4693C38.4737 49.9724 38.4737 49.9723 37.9768 49.9723C35.5633 49.9723 33.2208 49.9723 30.8073 49.9723C30.5944 49.9723 30.5234 50.0434 30.5234 50.2563C30.5234 51.3921 30.5234 52.4568 30.5234 53.5926C30.4524 53.5926 30.4524 53.7345 30.4524 53.8765Z" fill="#151515"/>
<path d="M51.9605 35.9893C52.0315 35.6344 52.1025 35.2795 52.1735 34.8536C52.2444 34.2857 52.3154 33.7888 52.3154 33.2209C52.3864 32.5821 52.3864 31.8722 52.3864 31.2334C52.3864 30.0266 52.1735 28.8199 51.8895 27.6841C51.3216 25.3416 50.3278 23.2121 48.8372 21.2955C47.4175 19.5209 45.6428 18.0302 43.5133 17.1074C42.8744 16.8234 42.2356 16.6105 41.5257 16.3975C41.2418 16.3265 40.9578 16.2555 40.6739 16.1846C40.4609 16.1136 40.4609 16.0426 40.4609 15.8296C40.6029 12.9902 41.8096 10.7897 44.1522 9.22804C44.791 8.80213 45.4299 8.51816 46.1397 8.3052C46.2107 8.3052 46.2817 8.30522 46.4237 8.23423C46.4237 8.16325 46.4237 8.09227 46.4237 8.02129C46.4237 6.74356 46.4237 5.46581 46.4237 4.18809C46.4237 3.97513 46.3527 3.90417 46.1397 3.90417C44.933 3.97516 43.6553 3.97514 42.4485 3.97514C42.4485 2.62643 42.4485 1.34871 42.4485 0C49.1211 0 55.7937 0 62.4663 0C62.4663 0.28394 62.4663 0.496877 62.4663 0.780817C62.4663 1.77461 62.4663 2.69739 62.4663 3.69118C62.4663 3.90414 62.3953 3.97514 62.1823 3.97514C61.1885 3.97514 60.1947 3.97514 59.13 3.97514C58.988 3.97514 58.7751 3.97514 58.6331 3.97514C58.5621 3.97514 58.4201 4.1171 58.4201 4.18809C58.4201 5.39483 58.4201 6.67257 58.4201 7.87931C58.4201 8.30522 58.4911 8.23424 58.846 8.37621C59.3429 8.51818 59.8398 8.73111 60.3367 9.01505C62.5373 10.2928 63.815 12.1384 64.3119 14.6229C64.3829 15.0488 64.4538 15.5457 64.4538 15.9716C64.4538 22.2183 64.4538 28.394 64.4538 34.6406C64.4538 34.9956 64.4538 35.3505 64.4538 35.7054C64.4538 35.8474 64.3829 35.9184 64.2409 35.9184C63.957 35.9184 63.673 35.9184 63.3181 35.9184C60.7626 35.9184 58.1362 35.9184 55.5807 35.9184C54.5159 35.9184 53.3802 35.9184 52.3154 35.9184C52.1735 35.9184 52.1025 35.9893 51.9605 35.9893Z" fill="#151515"/>
<path d="M16.966 35.9905C16.6111 35.9905 16.2561 35.9905 15.9012 35.9905C12.7779 35.9905 9.58357 35.9905 6.46024 35.9905C6.03433 35.9905 5.60841 35.9196 5.25348 35.9196C5.11151 35.9196 5.04054 35.8486 5.04054 35.7066C5.04054 35.2097 4.96954 34.6418 4.89856 34.1449C4.82757 33.5061 4.7566 32.8672 4.68561 32.1574C4.68561 31.9444 4.75659 31.9444 4.89856 31.9444C6.67318 31.9444 8.44781 31.9444 10.2224 31.9444C10.4354 31.9444 10.4354 31.8734 10.4354 31.7314C10.4354 30.5247 10.4354 29.3889 10.4354 28.1822C10.4354 27.8983 10.4354 27.8983 10.1515 27.8983C8.80274 27.8983 7.45403 27.9692 6.10531 27.9692C5.60842 27.9692 5.18251 27.9693 4.68561 27.8983C4.54364 27.8983 4.47266 27.8273 4.47266 27.6853C4.54364 26.4786 4.54364 25.3428 4.61462 24.1361C4.61462 23.9941 4.68561 23.9941 4.75659 23.9941C4.89856 23.9941 5.11151 23.9941 5.25348 23.9941C6.95712 23.9941 8.58978 23.9941 10.2934 23.9941C10.2934 23.9941 10.3644 23.9941 10.4354 23.9941C10.4354 23.9231 10.4354 23.8521 10.4354 23.7101C10.4354 22.5744 10.4354 21.3677 10.4354 20.2319C10.4354 19.948 10.4354 19.948 10.1515 19.948C9.01569 19.948 7.80894 20.0189 6.67318 20.0189C6.17629 20.0189 5.60841 19.948 5.11152 19.948C4.96955 19.948 4.96955 19.877 4.96955 19.806C5.11152 18.7412 5.25349 17.7474 5.46644 16.6827C5.46644 16.5407 5.53742 16.3277 5.60841 16.1858C5.60841 16.1148 5.75038 16.0438 5.82137 16.0438C6.03432 16.0438 6.24728 16.0438 6.38925 16.0438C7.73796 16.0438 9.01569 16.0438 10.3644 16.0438C10.3644 16.0438 10.4354 16.0438 10.5064 16.0438C10.5064 15.9728 10.5064 15.8308 10.5064 15.7598C10.5064 14.6241 10.5064 13.4883 10.5064 12.3526C10.5064 11.9976 10.5064 11.9976 10.1515 11.9976C9.01569 11.9976 7.80895 11.9976 6.6022 11.9976C6.67319 11.7137 6.74418 11.5008 6.81516 11.2168C7.24107 10.0811 7.59599 8.94529 8.0219 7.88052C8.58978 6.46082 9.29963 5.11212 10.1515 3.90538C11.0033 2.69864 12.068 1.56284 13.4168 0.852994C14.9074 0.00117439 16.5401 -0.140761 18.1728 0.356134C19.7344 0.853028 20.9412 1.84681 21.9349 3.05355C22.8577 4.11833 23.6386 5.32505 24.2065 6.67377C24.6324 7.59657 25.0583 8.59039 25.4132 9.58418C25.7681 10.578 26.0521 11.6427 26.336 12.6365C26.62 13.7013 26.8329 14.837 27.1168 15.9018C27.1168 16.0438 27.1878 16.1858 27.2588 16.3277C27.0459 16.3987 26.8329 16.5407 26.62 16.6117C25.8391 16.8246 25.0583 17.1795 24.3484 17.5345C22.1479 18.7412 20.4443 20.3739 19.0955 22.4324C18.3857 23.4972 17.8888 24.633 17.3919 25.8397C16.966 27.0464 16.6111 28.2532 16.4691 29.46C16.3271 30.8797 16.1852 32.2283 16.3981 33.648C16.4691 34.2159 16.5401 34.8548 16.6821 35.4227C16.895 35.6356 16.966 35.7776 16.966 35.9905Z" fill="#151515"/>
<path d="M34.0731 12.9922C34.7119 14.1279 35.2798 15.2637 35.6347 16.4704C35.9897 17.6772 36.2736 18.9549 36.2736 20.2327C36.6285 20.1617 36.9125 20.1617 37.1964 20.0907C39.7519 19.7358 42.0234 20.4456 44.011 22.0782C45.5016 23.356 46.5664 24.9176 47.3473 26.6923C47.6312 27.4021 47.8442 28.183 48.0571 28.9638C48.412 30.5255 48.483 32.0871 48.2701 33.7198C48.1991 34.2877 48.0571 34.9265 47.9861 35.4944C47.9151 35.8493 47.8441 35.9203 47.4892 35.9203C45.3597 35.9203 43.3011 35.9203 41.1716 35.9913C35.0669 35.9913 28.8912 35.9913 22.7865 35.9913C22.3606 35.9913 21.9347 35.9913 21.5087 35.9203C21.1538 35.9203 21.0828 35.8493 21.0119 35.4944C20.7989 34.4296 20.5859 33.3649 20.5859 32.3001C20.5859 31.0934 20.6569 29.9576 20.9409 28.8218C21.2958 27.1892 21.9347 25.6275 22.9284 24.2788C24.2772 22.2912 26.1228 20.9425 28.4653 20.3036C29.4591 20.0197 30.4528 20.0197 31.4466 20.0907C31.8016 20.1617 32.0855 20.1617 32.4404 20.2327C32.4404 19.9487 32.3694 19.7358 32.3694 19.5228C32.2275 18.1031 31.7306 16.7544 31.0207 15.5476L30.9497 15.4767C30.8078 15.2637 30.8078 15.1217 31.0207 14.9798C31.9435 14.4119 32.8663 13.844 33.8601 13.2051C33.9311 13.1341 34.0021 13.0632 34.0731 12.9922Z" fill="#151515"/>
</svg>
