<svg width="71" height="70" viewBox="0 0 71 70" fill="none" xmlns="http://www.w3.org/2000/svg">
<path d="M48.2 34.9492C46.0344 37.2174 44.393 39.2741 43.2758 41.1191C42.1586 42.9642 41.6 44.7161 41.6 46.375C41.6 46.8151 41.4367 47.196 41.1102 47.5176C40.7836 47.8392 40.3969 48 39.95 48H30.05C29.6031 48 29.2164 47.8392 28.8898 47.5176C28.5633 47.196 28.4 46.8151 28.4 46.375C28.4 44.7161 27.8414 42.9642 26.7242 41.1191C25.607 39.2741 23.9656 37.2174 21.8 34.9492C19.6 32.0716 18.5 28.8385 18.5 25.25C18.5 22.3047 19.2391 19.5879 20.7172 17.0996C22.1953 14.6113 24.1977 12.6393 26.7242 11.1836C29.2508 9.72786 32.0094 9 35 9C37.9906 9 40.7492 9.72786 43.2758 11.1836C45.8023 12.6393 47.8047 14.6113 49.2828 17.0996C50.7609 19.5879 51.5 22.3047 51.5 25.25C51.5 28.8385 50.4 32.0716 48.2 34.9492ZM30.05 51.25H39.95C40.3969 51.25 40.7836 51.4108 41.1102 51.7324C41.4367 52.054 41.6 52.4349 41.6 52.875C41.6 53.3151 41.4367 53.696 41.1102 54.0176C40.7836 54.3392 40.3969 54.5 39.95 54.5H30.05C29.6031 54.5 29.2164 54.3392 28.8898 54.0176C28.5633 53.696 28.4 53.3151 28.4 52.875C28.4 52.4349 28.5633 52.054 28.8898 51.7324C29.2164 51.4108 29.6031 51.25 30.05 51.25ZM35 61C33.1781 61 31.6227 60.6784 30.3336 60.0352C29.0445 59.3919 28.4 58.6302 28.4 57.75H41.6C41.6 58.6302 40.9555 59.3919 39.6664 60.0352C38.3773 60.6784 36.8219 61 35 61Z" fill="#151515"/>
</svg>
