<svg width="61" height="52" viewBox="0 0 61 52" fill="none" xmlns="http://www.w3.org/2000/svg">
<path d="M27.8574 24.0614C25.0707 26.8178 27.4326 29.6598 23.7283 33.8544C22.0631 35.7548 30.5932 35.1727 34.8072 30.9781C36.5914 29.1976 36.0987 26.5952 34.1785 24.6948C32.2584 22.7944 29.6416 22.2808 27.8574 24.0614ZM58.6304 0.109545C57.203 -1.31147 41.4172 11.4777 36.7274 16.1516C34.3994 18.48 33.6178 19.7127 32.9041 20.6372C32.5983 21.0481 33.0061 21.168 33.193 21.2536C34.1106 21.7329 34.7563 22.1781 35.6059 22.9999C36.4385 23.8217 36.8803 24.4722 37.3731 25.3968C37.475 25.5851 37.594 25.9789 38.0018 25.6707C38.9364 24.9516 40.1938 24.1812 42.5217 21.8699C47.1946 17.2302 60.0577 1.53056 58.6304 0.109545Z" fill="#151515"/>
<path d="M36.2838 32.9617C36.2838 32.9617 38.068 34.7765 39.0195 35.4442C44.2362 39.0909 45.3067 31.4551 51.4069 34.5368C52.8682 35.273 63.1485 41.1454 59.852 45.6481C56.0627 50.8186 48.2803 52.1711 42.2141 51.9828C40.277 51.8801 38.3059 51.8287 36.3688 51.6232C35.1963 51.5034 33.4801 51.2808 32.4435 50.5618C31.8828 50.1851 31.543 49.5859 30.9992 49.175C30.2855 48.6442 29.249 48.3703 28.4164 48.182C26.4453 47.7026 24.4402 47.4972 22.4351 47.2746C19.3595 46.9151 16.3009 46.5726 13.3613 45.5796C11.3562 44.8948 9.18117 44.0217 7.60089 42.5322C6.32647 41.3337 5.52783 39.5703 5.57881 37.824C5.5958 37.0707 5.40889 36.2318 4.9501 35.6325C3.98154 34.3656 2.01044 34.3142 0.939931 33.1672C0.396179 32.5679 0.413171 31.2668 0.685047 30.6162C1.33075 29.0411 2.89404 28.5275 4.38935 27.8426C6.29249 26.9695 8.60343 26.2504 10.7105 26.1991C12.5286 26.1648 14.3808 26.1648 16.182 26.3531C17.6093 26.5072 19.0197 26.6271 20.43 26.9352C21.6025 27.192 23.5906 27.7399 24.7291 28.1508C24.7291 28.1508 24.2193 31.2154 21.8744 32.9104C20.498 33.9034 21.6195 38.3376 26.8021 37.0022C31.9848 35.6668 35.0264 35.0504 36.2498 32.9617H36.2838Z" fill="#151515"/>
</svg>
