<svg width="24" height="24" viewBox="0 0 24 24" fill="none" xmlns="http://www.w3.org/2000/svg">
<path fill-rule="evenodd" clip-rule="evenodd" d="M12 22C6.47708 22 2 17.5229 2 12C2 6.47708 6.47708 2 12 2C17.5229 2 22 6.47708 22 12C22 17.5229 17.5229 22 12 22ZM10.8417 8.59625H12.2333C13.5121 8.59625 14.1546 9.26583 14.1546 10.3258C14.1546 11.3925 13.5121 12.0688 12.2262 12.0688H10.8417V8.59625ZM12.5908 13.2617C14.4329 13.2617 15.6458 12.0158 15.6458 10.3192C15.6458 8.61625 14.4596 7.35708 12.6375 7.35708H9.37708V12.5062H8.07083V13.2617H9.37667V14.5471H8.07083V15.2958H9.37667V16.7404H10.8408V15.2958H13.4983V14.5471H10.8408V13.2617H12.5908Z" fill="#151515"/>
</svg>
