<svg width="61" height="60" viewBox="0 0 61 60" fill="none" xmlns="http://www.w3.org/2000/svg">
<path d="M46.9192 45.8627C51.4416 45.8943 55.964 45.8853 60.485 45.8913C60.485 30.8236 60.482 15.756 60.5 0.688377C60.5 0.126253 60.3738 0 59.8116 0C40.0461 0.0165331 20.2821 0.0135271 0.516533 0.0135271C0.516533 15.0045 0.522545 29.9955 0.5 44.9865C0.5 45.7019 0.660818 45.9018 1.39577 45.8943C5.61761 45.8567 9.83945 45.8868 14.0628 45.8642C14.682 45.8612 14.8143 45.9754 14.6159 46.6037C13.2948 50.7956 12.0308 55.0055 10.7037 59.1944C10.4752 59.9143 10.6526 60.0045 11.3244 59.997C14.3964 59.9654 17.47 59.9684 20.5421 59.997C21.0651 60.0015 21.2755 59.8407 21.4183 59.3477C21.9849 57.4058 22.6087 55.482 23.1843 53.5416C23.3166 53.0922 23.5089 52.9133 24.0079 52.9148C28.329 52.9374 32.6515 52.9404 36.974 52.9148C37.5226 52.9118 37.6955 53.1252 37.8352 53.5957C38.3989 55.5105 39.0151 57.4118 39.5802 59.3282C39.7185 59.7986 39.8928 60.006 40.4384 60.0015C43.5616 59.9684 46.6847 59.9699 49.8079 59.9985C50.4286 60.0045 50.4977 59.8617 50.3189 59.2906C48.9963 55.0731 47.7158 50.8422 46.3946 46.6247C46.2143 46.0521 46.2383 45.8567 46.9192 45.8627ZM21.7324 46.3813C20.7285 49.5977 19.7395 52.8186 18.7596 56.0426C18.6498 56.4033 18.4484 56.501 18.1043 56.4815C17.8285 56.4659 17.5513 56.4697 17.2742 56.4735C17.151 56.4752 17.0279 56.477 16.9049 56.477C15.7927 56.477 15.3979 55.9524 15.7206 54.9033C15.9536 54.1469 16.1872 53.3909 16.4209 52.6349C17.0568 50.5772 17.6926 48.52 18.3147 46.4579C18.4424 46.0341 18.6138 45.8387 19.0857 45.8642C19.8327 45.9063 20.5842 45.8898 21.3326 45.8702C21.7294 45.8612 21.8677 45.9469 21.7324 46.3813ZM35.8288 49.4278C34.0327 49.3873 32.2367 49.4143 30.4406 49.4143C28.6446 49.4143 26.9477 49.3948 25.2013 49.4248C24.6392 49.4339 24.4288 49.3497 24.6602 48.738C24.9503 47.9684 25.1742 47.1733 25.3937 46.3813C25.4959 46.007 25.6732 45.8657 26.0715 45.8672C29.0158 45.8838 31.9601 45.8853 34.9029 45.8657C35.3418 45.8627 35.5147 46.0296 35.6229 46.4264C35.8303 47.1974 36.0587 47.9639 36.3323 48.7124C36.5307 49.255 36.4705 49.4429 35.8288 49.4278ZM45.1893 56.4815C44.9154 56.4629 44.6402 56.4677 44.365 56.4725C44.2399 56.4748 44.1148 56.477 43.9899 56.477C42.9168 56.477 42.2234 55.9634 41.9098 54.9364C41.6948 54.2368 41.4807 53.537 41.2667 52.8372C40.6264 50.7439 39.9863 48.6512 39.3217 46.5661C39.1308 45.9679 39.26 45.8282 39.8537 45.8657C40.5496 45.9093 41.2515 45.9003 41.9504 45.8672C42.3817 45.8462 42.5546 46.0145 42.6763 46.4173C43.6397 49.5932 44.6196 52.766 45.6116 55.9329C45.7529 56.3823 45.6371 56.513 45.1893 56.4815ZM4.84057 42.3727C4.18828 42.3742 4.00793 42.2285 4.00793 41.5551C4.03047 29.1628 4.03047 16.772 4.01093 4.38126C4.00943 3.71393 4.15372 3.502 4.86312 3.50351C13.4075 3.53056 21.9504 3.52004 30.4947 3.52004C39.0391 3.52004 47.582 3.52906 56.1249 3.50501C56.8072 3.50351 56.9951 3.67335 56.9936 4.36773C56.9725 16.7585 56.9725 29.1493 56.9921 41.5401C56.9936 42.1909 56.8523 42.3757 56.176 42.3742C39.0647 42.3547 21.9519 42.3547 4.84057 42.3727Z" fill="#151515"/>
<path d="M41.6745 27.3338C40.926 26.9325 40.2076 26.4786 39.4606 26.0773C39.1029 25.8849 38.9632 25.676 39.0593 25.2476C39.402 23.7161 39.4035 22.1725 39.0593 20.6409C38.9647 20.2186 39.0849 20.0082 39.4516 19.8143C40.2016 19.416 40.9185 18.9591 41.6655 18.5563C42.0052 18.3729 42.0683 18.2076 41.8534 17.8664C41.4145 17.169 40.9982 16.4566 40.6149 15.7276C40.406 15.3293 40.2287 15.2376 39.8229 15.5037C39.1781 15.929 38.4717 16.2597 37.8239 16.682C37.385 16.9691 37.0859 16.9961 36.6711 16.5978C35.8565 15.8148 34.9217 15.0768 33.8425 14.8183C32.3516 14.4636 32.1788 13.5843 32.2539 12.2902C32.3531 10.5903 32.278 10.5858 30.5706 10.5858C29.3412 10.5858 28.7259 11.2091 28.7249 12.4556C28.7249 12.8794 28.7024 13.3063 28.7324 13.7286C28.7595 14.0998 28.5942 14.2577 28.262 14.3629C26.7155 14.8544 25.3433 15.6555 24.1499 16.7511C23.9034 16.9781 23.7125 16.9916 23.4315 16.8188C22.6845 16.3649 21.9105 15.9561 21.1695 15.4946C20.8208 15.2782 20.6269 15.2797 20.4195 15.675C20.0242 16.4265 19.6004 17.163 19.1435 17.8784C18.9121 18.2406 19.0308 18.3834 19.3539 18.5593C20.0994 18.9636 20.8178 19.419 21.5678 19.8143C21.9465 20.0142 22.0322 20.2426 21.9405 20.6529C21.6039 22.1605 21.6024 23.6785 21.9315 25.186C22.0247 25.6204 21.9526 25.8744 21.5392 26.0878C20.7878 26.4786 20.0693 26.9355 19.3269 27.3458C19.0413 27.5036 18.9136 27.6359 19.124 27.9726C19.5854 28.7136 20.0227 29.4711 20.4376 30.2391C20.6284 30.5938 20.8028 30.6164 21.1319 30.4105C21.8519 29.9626 22.6094 29.5718 23.3278 29.1224C23.681 28.9014 23.9139 28.909 24.2356 29.2051C25.3913 30.2647 26.7275 31.0402 28.2244 31.5077C28.6498 31.6399 28.746 31.8639 28.734 32.2652C28.7084 33.1144 28.7385 33.9636 28.7204 34.8128C28.7144 35.166 28.8377 35.3058 29.1969 35.2982C30.0445 35.2832 30.8952 35.2742 31.7429 35.3027C32.1863 35.3163 32.2975 35.1344 32.2855 34.7271C32.2614 33.9034 32.299 33.0783 32.2689 32.2547C32.2539 31.8398 32.3786 31.6339 32.792 31.5047C34.2889 31.0357 35.6236 30.2587 36.7793 29.1975C37.1025 28.8999 37.3415 28.9075 37.6886 29.1239C38.4101 29.5733 39.1676 29.9611 39.883 30.415C40.2287 30.6329 40.388 30.5683 40.5713 30.2286C40.9756 29.4831 41.398 28.7451 41.8489 28.0267C42.0578 27.693 42.0232 27.5217 41.6745 27.3338ZM30.5105 28.2206C27.5872 28.2251 25.226 25.8594 25.2305 22.933C25.235 20.0021 27.5992 17.656 30.5315 17.671C33.4623 17.6875 35.7934 20.0517 35.7739 22.9901C35.7528 25.8819 33.4052 28.2161 30.5105 28.2206Z" fill="#151515"/>
<path fill-rule="evenodd" clip-rule="evenodd" d="M44.7889 25.3085C44.3096 25.0257 43.8304 24.7431 43.321 24.5249C42.4313 24.1416 42.045 23.6171 42.1532 22.6431C42.2058 22.1697 42.3216 21.9112 42.7439 21.6902C43.3342 21.3815 43.9152 21.0535 44.4961 20.7255C44.8766 20.5107 45.2571 20.2959 45.6401 20.0865C45.9076 19.9392 46.0234 19.8205 45.834 19.5079C44.295 16.9543 42.7664 14.3946 41.253 11.826C41.0485 11.4833 40.8742 11.5269 40.5856 11.6968C40.32 11.8532 40.0452 11.9973 39.7705 12.1415C39.2929 12.392 38.8158 12.6423 38.3883 12.9563C37.5556 13.568 36.8432 13.6041 36.0106 12.9758C35.6799 12.7263 35.4785 12.5475 35.4906 12.1191C35.508 11.5259 35.5057 10.9322 35.5035 10.3383C35.5017 9.85481 35.4998 9.37122 35.5086 8.88763C35.5146 8.50888 35.4034 8.36609 34.9886 8.3691C32.0052 8.38413 29.0218 8.38713 26.0369 8.3691C25.5785 8.36609 25.4793 8.53743 25.4928 8.93272C25.5014 9.22931 25.4935 9.52721 25.4855 9.82475C25.4726 10.3098 25.4597 10.7939 25.5184 11.2699C25.6461 12.316 25.323 12.9923 24.2724 13.3861C23.9222 13.5169 23.7043 13.562 23.3842 13.3726C22.8774 13.0753 22.3633 12.789 21.849 12.5027C21.378 12.2404 20.9069 11.9782 20.4413 11.7073C20.1182 11.5209 19.9394 11.5044 19.7274 11.8651C18.2275 14.4142 16.7095 16.9528 15.184 19.4868C15.0126 19.7709 15.0397 19.9137 15.3403 20.073C15.6319 20.228 15.9169 20.3959 16.2018 20.5637C16.6877 20.8499 17.173 21.1358 17.6894 21.3566C18.5867 21.7413 18.9534 22.2779 18.8482 23.2428C18.7956 23.7148 18.6829 23.9763 18.2605 24.1988C17.6857 24.499 17.1212 24.8184 16.5568 25.1378C16.1605 25.3621 15.7642 25.5864 15.3643 25.804C15.0923 25.9513 14.9811 26.0655 15.1704 26.3781C16.7095 28.9317 18.238 31.4913 19.7515 34.06C19.9544 34.4027 20.1302 34.3606 20.4173 34.1907C20.6804 34.0367 20.9518 33.8942 21.2231 33.7518C21.7035 33.4997 22.1833 33.2478 22.6146 32.9327C23.4458 32.327 24.1597 32.2714 24.9968 32.9072C25.326 33.1582 25.5244 33.3385 25.5109 33.7654C25.4948 34.2672 25.4983 34.7694 25.5017 35.2716C25.5054 35.8012 25.5091 36.3309 25.4898 36.8601C25.4718 37.3636 25.6055 37.5379 26.1556 37.5229C27.186 37.4961 28.2277 37.5014 29.2565 37.5067C29.6698 37.5088 30.0811 37.5109 30.4887 37.5109C30.8985 37.5109 31.3081 37.5088 31.7176 37.5066C32.7292 37.5014 33.7401 37.4962 34.7511 37.5229C35.3207 37.5379 35.5597 37.4147 35.5161 36.815C35.4915 36.4829 35.5011 36.148 35.5107 35.8134C35.5221 35.412 35.5336 35.0112 35.4861 34.6161C35.3673 33.6136 35.6394 32.9357 36.6704 32.5359C37.0672 32.3826 37.3182 32.3255 37.6864 32.5449C38.1869 32.8437 38.6975 33.126 39.2082 33.4084C39.6637 33.6603 40.1191 33.9121 40.5676 34.1757C40.8952 34.3666 41.0696 34.3741 41.2785 34.0194C42.7785 31.4703 44.292 28.9302 45.822 26.3977C46.0324 26.0505 45.8941 25.9317 45.6055 25.7754C45.3297 25.6274 45.0593 25.468 44.7889 25.3085ZM40.5601 26.7015C40.1959 26.4891 39.8318 26.2767 39.4606 26.0773C39.1029 25.8849 38.9632 25.676 39.0593 25.2476C39.402 23.7161 39.4035 22.1725 39.0593 20.6409C38.9647 20.2186 39.0849 20.0082 39.4516 19.8143C39.8423 19.6068 40.224 19.3834 40.6057 19.16C40.9567 18.9546 41.3076 18.7492 41.6655 18.5563C42.0052 18.3729 42.0683 18.2076 41.8534 17.8664C41.4145 17.169 40.9982 16.4566 40.6149 15.7276C40.406 15.3293 40.2287 15.2376 39.8229 15.5037C39.4945 15.7203 39.1502 15.9123 38.8058 16.1044C38.4738 16.2895 38.1418 16.4747 37.8239 16.682C37.385 16.9691 37.0859 16.9961 36.6711 16.5978C35.8565 15.8148 34.9217 15.0768 33.8425 14.8183C32.3516 14.4636 32.1788 13.5843 32.2539 12.2902C32.3531 10.5903 32.278 10.5858 30.5706 10.5858C29.3412 10.5858 28.7259 11.2091 28.7249 12.4556C28.7249 12.5826 28.7229 12.71 28.7209 12.8374C28.7161 13.135 28.7114 13.4329 28.7324 13.7286C28.7595 14.0998 28.5942 14.2577 28.262 14.3629C26.7155 14.8544 25.3433 15.6555 24.1499 16.7511C23.9034 16.9781 23.7125 16.9916 23.4315 16.8188C23.089 16.6106 22.7408 16.412 22.3927 16.2134C21.9816 15.9789 21.5707 15.7445 21.1695 15.4946C20.8208 15.2782 20.6269 15.2797 20.4195 15.675C20.0242 16.4265 19.6004 17.163 19.1435 17.8784C18.9121 18.2406 19.0308 18.3834 19.3539 18.5593C19.6968 18.7452 20.034 18.942 20.3711 19.1388C20.7669 19.3698 21.1628 19.6008 21.5678 19.8143C21.9465 20.0142 22.0322 20.2426 21.9405 20.6529C21.6039 22.1605 21.6024 23.6785 21.9315 25.186C22.0247 25.6204 21.9526 25.8744 21.5392 26.0878C21.0997 26.3164 20.6715 26.5676 20.2431 26.8188C19.9391 26.9972 19.6351 27.1755 19.3269 27.3458C19.0413 27.5036 18.9136 27.6359 19.124 27.9726C19.5854 28.7136 20.0227 29.4711 20.4376 30.2391C20.6284 30.5938 20.8028 30.6164 21.1319 30.4105C21.4866 30.1898 21.8503 29.9831 22.214 29.7763C22.5887 29.5633 22.9632 29.3504 23.3278 29.1224C23.681 28.9014 23.9139 28.909 24.2356 29.2051C25.3913 30.2647 26.7275 31.0402 28.2244 31.5077C28.6498 31.6399 28.746 31.8639 28.734 32.2652C28.7203 32.7205 28.7225 33.1759 28.7248 33.6313C28.7268 34.0251 28.7288 34.4189 28.7204 34.8128C28.7144 35.166 28.8377 35.3058 29.1969 35.2982C30.0445 35.2832 30.8952 35.2742 31.7429 35.3027C32.1863 35.3163 32.2975 35.1344 32.2855 34.7271C32.274 34.3344 32.2765 33.9414 32.2791 33.5484C32.2819 33.117 32.2847 32.6856 32.2689 32.2547C32.2539 31.8398 32.3786 31.6339 32.792 31.5047C34.2889 31.0357 35.6236 30.2587 36.7793 29.1975C37.1025 28.8999 37.3415 28.9075 37.6886 29.1239C38.0327 29.3382 38.385 29.5386 38.7371 29.7387C39.1231 29.9582 39.5088 30.1776 39.883 30.415C40.2287 30.6329 40.388 30.5683 40.5713 30.2286C40.9756 29.4831 41.398 28.7451 41.8489 28.0267C42.0578 27.693 42.0232 27.5217 41.6745 27.3338C41.2979 27.1319 40.9289 26.9167 40.5601 26.7015Z" fill="#151515"/>
<path fill-rule="evenodd" clip-rule="evenodd" d="M48.9061 10.0074C48.9061 11.1156 49.4827 11.6697 50.636 11.6697C51.7031 11.6697 52.2366 11.1642 52.2366 10.1532C52.2366 9.0189 51.646 8.45176 50.4646 8.45176C49.4256 8.45176 48.9061 8.9703 48.9061 10.0074Z" fill="#151515"/>
<path fill-rule="evenodd" clip-rule="evenodd" d="M8.76779 35.7914C8.76779 36.9357 9.34844 37.5079 10.5097 37.5079C11.5688 37.5079 12.0984 37.0024 12.0984 35.9913C12.0984 34.8461 11.5197 34.2734 10.3624 34.2734C9.29935 34.2734 8.76779 34.7794 8.76779 35.7914Z" fill="#151515"/>
<path d="M32.2785 22.92C32.292 23.8654 31.4759 24.7026 30.5275 24.7161C29.5852 24.7296 28.7465 23.909 28.7345 22.9621C28.7225 22.0077 29.5296 21.184 30.4855 21.172C31.4414 21.16 32.2665 21.9641 32.2785 22.92Z" fill="#151515"/>
</svg>
