<svg width="57" height="60" viewBox="0 0 57 60" fill="none" xmlns="http://www.w3.org/2000/svg">
<path d="M27.1274 0.03125C27.1425 0.287109 27.1575 0.527918 27.1575 0.783777C27.1575 10.07 27.1575 19.3561 27.1575 28.6273C27.1575 28.853 27.1575 29.0637 27.1575 29.4851C26.8866 29.139 26.7211 28.9283 26.5555 28.7176C23.8464 24.9399 21.1373 21.1622 18.4583 17.3544C18.0369 16.7524 17.8864 16.8427 17.5252 17.3845C12.1672 25.6021 6.79417 33.8047 1.42113 42.0072C1.34588 42.1276 1.25558 42.248 1.18033 42.3684C0.879316 42.2781 1.01477 42.0674 1.01477 41.9319C1.01477 32.1491 1.01477 22.3662 0.999719 12.5834C0.999719 12.0115 1.22548 11.8158 1.67699 11.6051C9.89458 7.87258 18.1122 4.14005 26.3298 0.407513C26.5555 0.30216 26.8264 0.272059 26.9619 0.03125C27.0221 0.03125 27.0823 0.03125 27.1274 0.03125ZM7.81761 15.4731C6.0567 15.4731 6.05669 15.4731 6.05669 17.2039C6.05669 17.234 6.05669 17.2491 6.05669 17.2792C6.05669 18.9799 6.0567 18.9799 7.77246 18.9799C9.56347 18.9799 9.56348 18.9799 9.56348 17.2039C9.56348 15.4731 9.56347 15.4731 7.81761 15.4731Z" fill="#151515"/>
<path d="M30.8757 0.0300937C31.0262 0.255852 31.2821 0.301007 31.5079 0.39131C39.6954 4.12384 47.8979 7.85638 56.0854 11.5588C56.6423 11.8147 56.8379 12.1006 56.8379 12.7177C56.8229 21.4771 56.8229 30.2215 56.8229 38.9809C56.8229 39.0862 56.8078 39.1765 56.6573 39.327C54.0536 33.066 51.4498 26.7899 48.7708 20.3784C47.9129 21.8082 47.1002 23.1477 46.2273 24.5926C44.1353 20.2129 42.0884 15.9536 39.9663 11.5438C36.8659 17.0974 33.8407 22.5306 30.8155 27.9488C30.5747 27.8585 30.665 27.6779 30.665 27.5425C30.665 18.5423 30.665 9.52699 30.665 0.526769C30.665 0.346162 30.6801 0.180606 30.6951 0C30.7854 0.0301011 30.8306 0.0300937 30.8757 0.0300937Z" fill="#151515"/>
<path d="M3.55469 48.5213C4.54802 48.0698 5.4059 47.6784 6.26378 47.2871C13.6084 43.9459 20.9682 40.6047 28.3128 37.2484C28.6891 37.0678 29.0051 37.0076 29.4266 37.2033C37.5388 40.9057 45.6661 44.6081 53.7934 48.2955C53.8987 48.3407 54.0041 48.4009 54.1245 48.4611C54.0944 48.747 53.8536 48.747 53.688 48.8223C45.5908 52.5097 37.4786 56.197 29.3814 59.8694C29.0954 59.9898 28.8697 60.065 28.5536 59.9145C20.3661 56.182 12.1636 52.4495 3.9761 48.732C3.8858 48.7019 3.81055 48.6417 3.55469 48.5213ZM29.0202 42.4559C26.7626 42.5011 24.5803 42.8773 22.6839 44.2319C19.6287 46.4142 19.6287 50.1467 22.6839 52.3441C25.995 54.7371 31.9701 54.692 35.2361 52.2538C38.2161 50.0414 38.2161 46.5196 35.2361 44.3222C33.3999 42.9526 31.2778 42.486 29.0202 42.4559Z" fill="#151515"/>
<path d="M39.8297 19.3398C41.8464 23.5389 43.8482 27.7079 45.9101 32.0274C46.7078 30.703 47.4302 29.514 48.2279 28.1896C50.5758 33.8335 52.8634 39.357 55.1662 44.8956C54.8501 45.016 54.6846 44.8204 54.4889 44.7301C47.0238 41.3437 39.5588 37.9423 32.0786 34.571C31.5067 34.3151 31.4315 34.1195 31.7475 33.5626C34.3061 29.0324 36.8196 24.4871 39.3631 19.9419C39.4835 19.7462 39.5287 19.5054 39.8297 19.3398Z" fill="#151515"/>
<path d="M4.16406 44.265C5.74437 41.8569 7.26447 39.5241 8.79963 37.1762C11.7646 32.6309 14.7446 28.1007 17.7095 23.5555C18.0407 23.0437 18.1912 23.0287 18.5524 23.5404C20.9755 26.9719 23.4287 30.3884 25.882 33.7898C26.1228 34.136 26.3034 34.3316 25.7465 34.5875C18.6427 37.7933 11.5388 41.0291 4.43497 44.265C4.38982 44.28 4.32962 44.265 4.16406 44.265Z" fill="#151515"/>
<path d="M28.9358 50.6136C27.5511 50.5534 26.1966 50.3728 24.9925 49.6353C23.5928 48.7774 23.5477 47.769 24.9624 46.9864C27.5812 45.5566 30.2903 45.5566 32.9091 46.9864C34.354 47.7841 34.3088 48.7323 32.8941 49.6203C31.675 50.3577 30.3204 50.5684 28.9358 50.6136Z" fill="#151515"/>
</svg>
