<svg width="61" height="60" viewBox="0 0 61 60" fill="none" xmlns="http://www.w3.org/2000/svg">
<path d="M54.5483 26.8328C54.1937 28.4826 54.9183 29.5156 56.1055 30.6874C60.3301 34.8349 61.5019 39.9537 59.6517 45.5351C57.8632 50.9469 53.9932 54.2464 48.3039 55.1098C40.7336 56.2662 33.4716 50.4843 32.639 42.7444C32.0686 37.4251 33.8262 33.0155 38.0046 29.6235C38.2975 29.3923 38.4209 29.161 38.4209 28.7909C38.4054 27.6192 38.39 26.432 38.4209 25.2602C38.4671 22.3461 40.3173 20.5422 43.2313 20.5268C43.3393 20.5268 43.4318 20.5268 43.5397 20.5268C45.3745 20.5268 45.3745 20.5114 45.1124 18.6766C45.0661 18.3837 44.9119 18.2911 44.6807 18.2141C43.0309 17.6898 41.9054 16.6414 41.3966 14.9454C41.2732 14.5137 41.0111 14.0974 40.7336 13.7274C39.6852 12.3551 39.5618 10.8596 40.1323 9.28692C40.3173 8.79354 40.194 8.5006 39.7931 8.30016C39.4693 8.13056 39.1764 7.96096 38.7601 8.36183C37.6037 9.50278 36.2161 9.93449 34.5972 9.37943C33.7646 9.1019 32.9011 8.94772 32.0377 8.88605C30.3726 8.77812 29.2625 7.88387 28.5995 6.43456C28.3682 5.91034 28.0444 5.77157 27.551 5.83325C27.0731 5.89492 26.8572 6.14161 26.7801 6.68125C26.5488 8.20765 25.7779 9.39485 24.3132 10.0578C23.496 10.4279 22.7406 10.9058 22.0005 11.4146C20.7208 12.2781 19.3331 12.4168 17.8992 11.8772C17.5446 11.7384 17.2671 11.6767 17.0821 12.0622C16.9125 12.4168 16.6349 12.756 17.0667 13.1415C18.2539 14.2207 18.6856 15.5775 18.5622 17.1656C18.4851 18.137 18.5468 19.1083 18.5468 20.0797C18.5314 21.899 17.6834 23.2096 16.0491 23.9805C15.5557 24.2117 15.4323 24.4738 15.4632 24.9672C15.4786 25.3527 15.5865 25.5223 15.9874 25.5069C16.5424 25.476 17.1129 25.4914 17.6834 25.5069C20.1811 25.5531 22.0776 27.3108 22.2472 29.7931C22.3243 31.0112 22.2934 32.26 22.278 33.4781C22.278 33.8789 22.4014 34.1102 22.7251 34.3723C27.5356 38.3194 29.1237 43.4074 27.6744 49.3742C26.3022 55.0481 21.6613 59.0414 15.8949 59.874C8.86418 60.8762 1.87973 55.7882 0.553766 48.5417C-0.494671 42.8523 1.20133 38.0727 5.71886 34.3569C6.04264 34.0948 6.15057 33.8481 6.15057 33.4627C6.13515 32.3371 6.13515 31.2116 6.15057 30.0861C6.18141 27.0795 8.01618 25.2602 11.0227 25.2448C11.5161 25.2448 11.9941 25.2602 12.4875 25.2448C12.7187 25.2293 13.0888 25.3681 13.0579 24.9518C13.0425 24.5818 13.32 24.0884 12.7804 23.8725C10.591 23.0091 9.88178 21.2977 9.98971 19.0775C10.0514 17.952 9.95887 16.811 10.036 15.7009C10.1593 13.9124 10.9919 12.5402 12.6725 11.7538C12.9192 11.6305 13.2429 11.4917 13.4742 11.5534C14.6923 11.8309 14.9389 10.8287 15.4477 10.1658C15.6173 9.93448 15.5403 9.76489 15.4477 9.53361C14.6768 7.71427 15.0315 5.97201 16.4653 4.64604C17.9455 3.27382 19.7032 2.30248 21.5842 1.57782C23.3573 0.899423 24.9454 1.43906 26.148 2.96546C26.5797 3.5051 28.0444 3.28924 28.3219 2.64168C29.1237 0.729822 30.8197 -0.241522 32.8703 0.0514233C34.3967 0.267278 35.9231 0.452296 37.3724 0.976515C39.346 1.68575 40.4406 3.28924 40.4098 5.38612C40.3944 5.91033 41.5662 6.71208 42.075 6.52707C44.4956 5.61739 46.0837 6.07994 47.6409 8.14598C48.7819 9.65696 49.5836 11.3375 50.1233 13.1415C50.6629 14.9608 49.8612 16.9189 48.2114 17.8132C47.7951 18.0445 47.7026 18.2603 47.7335 18.7074C47.8722 20.388 47.8568 20.4651 49.5374 20.3726C52.5131 20.1876 54.7487 22.4695 54.5946 25.4452C54.5329 25.9077 54.5483 26.3703 54.5483 26.8328ZM37.5112 40.8634C37.4804 45.9977 41.4274 50.0989 46.4075 50.1297C51.3567 50.1606 55.4117 46.0285 55.4271 40.9559C55.4426 35.8833 51.4955 31.8437 46.5 31.8129C41.4737 31.7975 37.542 35.7446 37.5112 40.8634ZM23.1414 45.8897C23.1414 40.8171 19.1481 36.7776 14.168 36.793C9.1417 36.8084 5.22548 40.7863 5.22548 45.9051C5.22548 51.0394 9.18796 55.1098 14.1835 55.1252C19.1019 55.1252 23.1414 50.9623 23.1414 45.8897ZM15.6328 15.2383C15.1548 16.4872 14.9852 16.626 13.3355 16.0555C12.3179 15.7009 13.4125 14.8375 13.1813 14.2516C12.0403 14.9608 11.7782 20.2647 12.8267 20.9431C13.2429 20.5576 12.3179 19.5709 13.4742 19.5092C14.0909 19.4783 14.7693 19.3704 15.2936 19.5863C15.7253 19.7867 15.309 20.5268 15.5248 20.9893C16.2957 20.3726 16.3883 15.9938 15.6328 15.2383ZM31.0972 5.72532C31.606 6.32663 36.0002 7.20546 36.5398 6.80459C36.2469 6.44997 35.2447 6.75834 35.6147 5.78699C35.8152 5.26277 35.7689 4.56895 36.1081 4.19892C36.5398 3.73637 37.1257 4.50728 37.7116 4.39935C36.9407 3.07339 31.9298 2.05579 30.9739 2.98088C31.3747 3.53594 32.5157 2.59543 32.5774 3.75179C32.6082 4.38394 32.5465 5.06233 32.2998 5.63281C32.1457 5.95659 31.4981 5.50946 31.0972 5.72532ZM23.5731 4.06015C21.7846 3.78263 17.9301 6.11077 17.6217 7.60634C18.1768 7.60634 18.4235 6.44997 19.1019 7.11296C19.5644 7.56008 19.9499 8.1614 20.1966 8.7627C20.3353 9.11732 19.6107 9.16358 19.5182 9.56445C19.9344 9.62612 23.9123 7.31339 24.1436 6.88168C23.789 6.66583 23.3573 7.29797 23.1106 6.86626C22.7406 6.23412 22.3088 5.5403 22.2626 4.84648C22.2318 4.39935 23.126 4.49186 23.5115 4.1835C23.5423 4.1835 23.5423 4.15266 23.5731 4.06015ZM44.9273 15.5775C44.2027 14.3287 44.989 14.1437 45.7291 13.9124C45.9449 13.8353 46.1762 13.7736 46.3767 13.6657C46.8084 13.419 46.9471 13.6349 47.0859 14.0203C47.2247 14.4058 47.163 14.8683 47.4713 15.2383C48.1806 13.7119 45.5595 8.7627 44.141 8.85521C45.2203 10.1195 45.2203 10.1195 43.8789 11.1371C43.8327 11.1679 43.7864 11.1988 43.7556 11.2296C43.4009 11.5688 43.0772 11.7693 42.7534 11.1834C42.6763 11.0446 42.5221 10.8442 42.3371 10.9367C42.1058 11.0446 42.1983 11.2913 42.2446 11.4917C42.2908 11.6613 42.3833 11.8309 42.5067 11.9543C43.1851 12.7098 43.6168 13.604 43.9252 14.5599C44.0639 14.9454 44.2798 15.2692 44.9273 15.5775Z" fill="#151515"/>
</svg>
