<svg width="82" height="46" viewBox="0 0 82 46" fill="none" xmlns="http://www.w3.org/2000/svg">
<path d="M45.6697 3.67938C47.5025 4.07778 48.904 4.98838 49.8743 6.58197C51.0602 8.46013 51.3297 10.6228 51.4375 12.8425C51.5453 16.7126 50.8985 20.5259 50.1438 24.2822C50.036 24.6806 50.0899 25.2497 50.3055 25.5912C50.5211 25.8758 51.0063 26.0465 51.3836 26.0465C51.9227 26.0465 52.2461 25.5343 52.3539 25.022C52.7313 22.9732 53.0547 20.8673 53.432 18.8184C53.432 18.7046 53.4859 18.5339 53.6476 18.3062C54.1328 18.9323 54.7257 19.4445 55.1031 20.1275C55.696 21.2657 56.1273 22.5178 56.5046 23.7699C56.7741 24.6806 57.2054 25.1359 57.96 25.022C58.6608 24.9082 59.0382 24.2253 58.8225 23.2577C58.3913 20.7535 57.3132 18.5908 55.5882 16.8834C55.2648 16.5988 54.9953 16.2573 54.6179 16.0297C53.8633 15.6313 53.7554 15.0621 53.7554 14.2653C53.7554 12.6717 53.5937 11.1351 53.4859 9.37076C54.0789 9.48459 54.7257 9.5984 55.3187 9.76915C57.8522 10.6229 59.9006 12.3303 61.6256 14.4361C63.3506 16.4281 64.6982 18.7046 65.6685 21.2657C65.9919 22.0625 66.4231 22.3471 67.0161 22.2902C67.8247 22.1763 68.2559 21.3226 67.8786 20.5258C67.0161 18.7615 66.1536 17.0541 65.2372 15.3467C65.1294 15.176 65.0755 15.0052 64.8599 14.7207C65.6146 14.8914 66.2075 15.0621 66.8005 15.2329C70.466 16.2573 74.0777 17.3956 77.4198 19.4445C78.3901 20.0136 79.3064 20.7535 80.0611 21.6072C81.7861 23.4285 81.7861 25.4204 80.115 27.2986C78.7674 28.8353 77.0963 29.8028 75.3175 30.6565C71.1668 32.6485 66.7466 33.7868 62.2724 34.6405C52.1922 36.5755 42.0042 36.9739 31.7622 36.1771C25.8865 35.7218 20.0648 34.8681 14.2969 33.3314C11.1166 32.4777 7.99006 31.4533 5.13309 29.689C4.00109 29.006 2.92298 28.2092 2.0066 27.2417C0.335542 25.5343 0.389447 23.4284 2.0066 21.6641C3.24641 20.2413 4.80966 19.3307 6.42681 18.5339C9.39159 17.0541 12.572 16.0297 15.7524 15.176C15.8063 15.176 15.8063 15.176 15.9141 15.2329C15.429 16.4281 14.9438 17.6232 14.4587 18.8754C14.243 19.3876 14.1352 19.8998 13.9735 20.412C13.704 21.3796 13.9735 22.0625 14.6743 22.2333C15.3751 22.4609 15.9141 22.0625 16.1836 21.1519C16.8305 18.8754 17.7469 16.7696 18.9328 14.7776C21.4663 10.6798 24.7545 7.54951 29.3365 6.12667C31.5466 5.4437 33.8106 5.15913 36.0746 6.01283C36.7754 6.2974 37.4222 6.75273 38.0691 7.09421C38.0691 7.15112 38.0152 7.20803 38.0152 7.32186C37.3144 7.4926 36.6136 7.66334 35.9129 7.83408C29.7677 9.54149 25.5092 13.6393 22.76 19.6152C22.221 20.7535 21.8437 21.9487 21.4124 23.087C21.1429 23.8838 21.4663 24.6236 22.1132 24.7944C22.8139 25.022 23.353 24.6236 23.6225 23.7699C25.8326 16.3711 30.5763 11.7611 37.6917 9.9399C37.9074 9.88298 38.1769 9.82606 38.4464 9.82606C39.794 9.59841 39.8479 9.59841 40.0636 11.0213C40.2253 11.9319 40.1714 12.8425 40.2253 13.7531C40.2253 14.2653 40.0097 14.4361 39.5245 14.493C36.2363 14.6068 33.3793 15.9728 31.1153 18.477C29.606 20.1844 28.5818 22.1763 28.0966 24.5098C27.9349 25.3066 28.2584 25.9327 28.9591 26.1034C29.5521 26.2741 30.1989 25.8757 30.3607 25.0789C31.0614 21.9487 32.7325 19.5583 35.4816 18.0786C36.7215 17.3956 38.0691 16.9972 39.7401 16.9972C39.0933 18.6477 38.6081 20.1844 37.9613 21.6072C37.4761 22.6886 36.8293 23.713 36.2363 24.7375C35.8051 25.4774 35.859 26.2172 36.5058 26.6156C37.0449 26.9571 37.6917 26.8433 38.123 26.2741C40.5487 22.5747 42.1659 18.5339 42.651 14.0377C43.4596 6.75272 37.8535 2.42726 31.87 3.16714C31.5466 3.22406 31.277 3.22406 30.7919 3.28098C31.7622 1.91505 32.9481 1.11825 34.3496 0.719858C36.6136 0.0938064 38.6081 0.890592 40.4948 2.02887C44.2143 4.30542 45.7236 7.9479 45.8853 12.2733C46.047 16.5988 44.915 20.5828 43.1362 24.4529C43.0283 24.6806 42.9205 24.8513 42.8127 25.0789C42.5432 25.7619 42.7588 26.4449 43.3518 26.7295C43.9447 27.014 44.5916 26.8433 44.915 26.1603C45.3463 25.2497 45.7236 24.3391 46.047 23.4285C47.2329 20.412 48.0954 17.2818 48.2571 13.9808C48.4188 10.5659 47.7181 7.37877 46.047 4.47617C45.8853 4.07777 45.7775 3.90704 45.6697 3.67938ZM41.0339 31.7379C43.9986 31.5671 47.0173 31.4533 49.9821 31.1687C54.8335 30.7134 59.5772 29.9166 64.213 28.323C66.6388 27.4693 69.0106 26.5018 71.0051 24.7375C72.191 23.713 73.1074 22.4609 73.2691 20.7535C73.323 19.8429 72.9996 19.2737 72.2988 19.1599C71.5441 19.0461 71.1129 19.5583 70.9512 20.4689C70.8434 20.9812 70.6816 21.6641 70.3043 22.0056C69.4418 22.8593 68.4715 23.713 67.4473 24.2822C63.8357 26.2741 59.9545 27.1848 55.9656 27.9246C50.629 28.8922 45.2385 29.2337 39.8479 29.1198C33.3254 29.006 26.8568 28.38 20.5499 26.6156C18.232 25.9327 15.9141 25.1359 13.8118 23.7699C12.5181 22.9162 11.2783 21.9487 11.1166 20.1275C11.0626 19.4445 10.4158 19.103 9.82283 19.2168C9.22988 19.3307 8.79863 19.8429 8.90644 20.4689C9.06816 21.3796 9.28378 22.2902 9.71502 23.0301C10.4158 24.2822 11.5478 25.1359 12.7337 25.8758C15.8063 27.7539 19.1484 28.8353 22.5444 29.5752C28.6357 31.0549 34.7809 31.624 41.0339 31.7379Z" fill="#151515"/>
<path d="M11.4375 35.0391C31.2207 40.1044 50.9499 40.1044 70.7331 35.0391C70.5174 35.4375 70.3018 35.8928 70.0323 36.2912C68.4151 38.6816 66.1511 40.1044 63.6715 41.2996C59.3052 43.3485 54.6154 44.316 49.9257 44.9421C44.4813 45.625 39.0369 45.6819 33.5925 45.1128C27.8785 44.4868 22.2185 43.4623 17.0436 40.6166C14.8874 39.4214 12.9468 37.9417 11.707 35.6651C11.5992 35.4375 11.5453 35.2667 11.4375 35.0391Z" fill="#151515"/>
</svg>
