<svg width="56" height="46" viewBox="0 0 56 46" fill="none" xmlns="http://www.w3.org/2000/svg">
<path d="M0.921875 45.5014C0.921875 43.3561 0.921875 41.3537 0.921875 39.3513C4.85503 38.7077 6.4998 35.7042 6.4998 33.2013C6.4998 30.3408 4.49747 27.5518 0.921875 27.0512C0.921875 23.9047 0.921875 20.7582 0.921875 17.6116C19.1574 16.0384 37.4645 14.4651 55.7715 12.8203C55.7715 17.7547 55.7715 22.6175 55.7715 27.4803C54.0552 27.9809 52.9825 29.0536 53.0541 30.8414C53.0541 32.6292 54.1267 33.7019 55.7715 34.131C55.7715 36.3478 55.7715 38.4932 55.7715 40.7816C37.4645 42.3549 19.2289 43.9282 0.921875 45.5014ZM42.1843 29.6257C45.5453 29.6257 48.2628 26.8367 48.2628 23.4756C48.2628 20.1145 45.5453 17.3971 42.1843 17.3971C38.8232 17.3971 36.1057 20.1861 36.1057 23.5472C36.1057 26.8367 38.8232 29.6257 42.1843 29.6257ZM15.0812 26.1216C16.9405 26.1216 18.3708 24.6198 18.4423 22.832C18.4423 21.0442 16.9405 19.4709 15.1527 19.4709C13.3649 19.4709 11.8632 20.9727 11.8632 22.7605C11.7917 24.6198 13.2219 26.1216 15.0812 26.1216ZM27.7388 34.0595C25.8795 34.0595 24.4493 35.5612 24.4493 37.4205C24.4493 39.2083 25.951 40.7101 27.7388 40.7101C29.5266 40.7101 31.0284 39.2083 31.0284 37.349C31.0284 35.5612 29.5982 34.0595 27.7388 34.0595Z" fill="#151515"/>
<path d="M3.35156 16.2506C5.49692 15.1779 7.71379 14.1767 9.85915 13.104C18.226 9.02782 26.6645 5.02313 35.0314 0.946935C35.818 0.589374 36.6046 0.446367 37.4628 0.517879C40.5378 0.875441 43.5413 1.44752 46.3302 2.73474C50.4064 4.59406 53.3384 7.59761 55.3407 11.5308C55.3407 11.6023 55.3407 11.6738 55.4123 11.8168C38.0349 13.3186 20.6574 14.8203 3.35156 16.3221V16.2506ZM37.6773 8.45572C37.6773 6.5964 36.1755 5.16618 34.3877 5.16618C32.5999 5.16618 31.1697 6.66792 31.0982 8.45572C31.0982 10.315 32.5284 11.8168 34.3877 11.8168C36.247 11.8168 37.6773 10.315 37.6773 8.45572ZM48.6901 8.02667C48.6901 6.16735 47.1884 4.66561 45.4006 4.73712C43.6128 4.73712 42.1826 6.23886 42.1826 8.02667C42.1826 9.88598 43.6128 11.3162 45.4721 11.3162C47.2599 11.3162 48.7616 9.88598 48.6901 8.02667Z" fill="#151515"/>
</svg>
