<svg width="30" height="30" viewBox="0 0 30 30" fill="none" xmlns="http://www.w3.org/2000/svg">
<rect width="30" height="30" rx="15" fill="#780513"/>
<path d="M24 14.8222C24 14.7322 23.9269 14.6577 23.8369 14.6534C20.6077 14.5311 18.6425 14.1192 17.2676 12.7442C15.8899 11.3664 15.4794 9.39951 15.3571 6.16308C15.3542 6.0731 15.2797 6 15.1883 6H14.8116C14.7216 6 14.6471 6.0731 14.6429 6.16308C14.5206 9.3981 14.1101 11.3664 12.7324 12.7442C11.3561 14.1206 9.3922 14.5311 6.16307 14.6534C6.0731 14.6563 6 14.7308 6 14.8222V15.1989C6 15.2889 6.0731 15.3634 6.16307 15.3677C9.3922 15.49 11.3575 15.9019 12.7324 17.2769C14.1073 18.6519 14.5178 20.6132 14.6415 23.8369C14.6443 23.9269 14.7188 24 14.8102 24H15.1883C15.2783 24 15.3528 23.9269 15.3571 23.8369C15.4808 20.6132 15.8913 18.6519 17.2662 17.2769C18.6425 15.9005 20.6063 15.49 23.8355 15.3677C23.9255 15.3648 23.9986 15.2903 23.9986 15.1989V14.8222H24Z" fill="#F2ECE4"/>
</svg>
