<svg width="15" height="19" viewBox="0 0 15 19" fill="none" xmlns="http://www.w3.org/2000/svg">
<path fill-rule="evenodd" clip-rule="evenodd" d="M3.28125 8.1319C3.28125 7.03191 3.71822 5.97697 4.49603 5.19916C5.27384 4.42135 6.32878 3.98438 7.42878 3.98438C8.52877 3.98438 9.58371 4.42135 10.3615 5.19916C11.1393 5.97697 11.5763 7.03191 11.5763 8.1319C11.5763 9.23189 11.1393 10.2868 10.3615 11.0646C9.58371 11.8425 8.52877 12.2794 7.42878 12.2794C6.32878 12.2794 5.27384 11.8425 4.49603 11.0646C3.71822 10.2868 3.28125 9.23189 3.28125 8.1319ZM7.42878 5.29412C6.67615 5.29412 5.95435 5.5931 5.42216 6.12529C4.88997 6.65747 4.591 7.37927 4.591 8.1319C4.591 8.88453 4.88997 9.60633 5.42216 10.1385C5.95435 10.6707 6.67615 10.9697 7.42878 10.9697C8.1814 10.9697 8.9032 10.6707 9.43539 10.1385C9.96758 9.60633 10.2666 8.88453 10.2666 8.1319C10.2666 7.37927 9.96758 6.65747 9.43539 6.12529C8.9032 5.5931 8.1814 5.29412 7.42878 5.29412Z" fill="#F2ECE4"/>
<path fill-rule="evenodd" clip-rule="evenodd" d="M0.0264007 7.12653C0.175647 5.31629 1.00018 3.62837 2.33628 2.39789C3.67238 1.16741 5.42235 0.484369 7.23873 0.484375H7.61594C9.43232 0.484369 11.1823 1.16741 12.5184 2.39789C13.8545 3.62837 14.679 5.31629 14.8283 7.12653C14.9943 9.14291 14.3714 11.1451 13.0907 12.7113L8.9056 17.8289C8.7265 18.0479 8.50096 18.2244 8.24531 18.3456C7.98965 18.4668 7.71026 18.5296 7.42733 18.5296C7.14441 18.5296 6.86502 18.4668 6.60936 18.3456C6.3537 18.2244 6.12817 18.0479 5.94907 17.8289L1.764 12.7113C0.483167 11.1451 -0.139775 9.14292 0.0264007 7.12653ZM7.23873 1.79412C5.75128 1.79434 4.31829 2.35384 3.22421 3.36155C2.13012 4.36926 1.45493 5.75151 1.33265 7.23393C1.19434 8.91203 1.71273 10.5783 2.77861 11.8818L6.96368 17.0003C7.01994 17.0691 7.09081 17.1246 7.17115 17.1627C7.25148 17.2008 7.33929 17.2206 7.42821 17.2206C7.51712 17.2206 7.60493 17.2008 7.68527 17.1627C7.76561 17.1246 7.83647 17.0691 7.89273 17.0003L12.0778 11.8818C13.1431 10.578 13.6608 8.91179 13.522 7.23393C13.3997 5.75136 12.7244 4.36899 11.6301 3.36126C10.5359 2.35352 9.10266 1.79413 7.61506 1.79412H7.23873Z" fill="#F2ECE4"/>
</svg>
