<svg width="17" height="17" viewBox="0 0 17 17" fill="none" xmlns="http://www.w3.org/2000/svg">
<g clip-path="url(#clip0_1042_845)">
<path d="M16.4279 0.152206C16.4761 0.200332 16.5144 0.257503 16.5405 0.320445C16.5666 0.383387 16.5801 0.450864 16.5801 0.519009C16.5801 0.587155 16.5666 0.654632 16.5405 0.717574C16.5144 0.780516 16.4761 0.837687 16.4279 0.885813L12.1309 5.18176H15.0249C15.1623 5.18176 15.2941 5.23634 15.3912 5.3335C15.4884 5.43066 15.543 5.56244 15.543 5.69984C15.543 5.83725 15.4884 5.96902 15.3912 6.06618C15.2941 6.16334 15.1623 6.21793 15.0249 6.21793H10.8802C10.7428 6.21793 10.6111 6.16334 10.5139 6.06618C10.4167 5.96902 10.3622 5.83725 10.3622 5.69984V1.55518C10.3622 1.41777 10.4167 1.286 10.5139 1.18884C10.6111 1.09168 10.7428 1.03709 10.8802 1.03709C11.0176 1.03709 11.1494 1.09168 11.2466 1.18884C11.3437 1.286 11.3983 1.41777 11.3983 1.55518V4.44919L15.6943 0.152206C15.7424 0.103959 15.7996 0.0656802 15.8625 0.0395621C15.9255 0.0134441 15.9929 0 16.0611 0C16.1292 0 16.1967 0.0134441 16.2596 0.0395621C16.3226 0.0656802 16.3798 0.103959 16.4279 0.152206ZM3.78664 1.37696C3.72547 1.29827 3.64826 1.2335 3.56014 1.18695C3.47201 1.1404 3.37499 1.11313 3.27552 1.10695C3.17605 1.10078 3.0764 1.11584 2.98319 1.15114C2.88999 1.18644 2.80536 1.24116 2.73493 1.31168L1.66354 2.38411C1.16307 2.88561 0.978629 3.59539 1.19726 4.21812C2.1057 6.79518 3.58164 9.13516 5.516 11.0651C7.44596 12.9995 9.78594 14.4754 12.363 15.3839C12.9857 15.6025 13.6955 15.4181 14.197 14.9176L15.2684 13.8462C15.3389 13.7758 15.3936 13.6911 15.4289 13.5979C15.4642 13.5047 15.4793 13.4051 15.4731 13.3056C15.467 13.2061 15.4397 13.1091 15.3931 13.021C15.3466 12.9329 15.2818 12.8556 15.2031 12.7945L12.8127 10.9356C12.7286 10.8705 12.6308 10.8254 12.5267 10.8035C12.4226 10.7816 12.3149 10.7835 12.2117 10.8092L9.94251 11.376C9.63959 11.4512 9.32239 11.4469 9.02161 11.3636C8.72082 11.2802 8.44664 11.1207 8.22558 10.9004L5.68076 8.3545C5.46024 8.13355 5.3005 7.85941 5.217 7.55862C5.13349 7.25783 5.12906 6.94058 5.20412 6.63757L5.77194 4.36837C5.79759 4.26515 5.79955 4.15746 5.77765 4.05338C5.75576 3.9493 5.71059 3.85153 5.64553 3.76739L3.78664 1.37696ZM1.95263 0.530407C2.13395 0.349026 2.35179 0.208295 2.59167 0.117558C2.83156 0.0268221 3.088 -0.0118428 3.34397 0.00413103C3.59995 0.0201049 3.84959 0.090352 4.07633 0.210208C4.30308 0.330063 4.50173 0.496785 4.65909 0.699303L6.51798 3.0887C6.85888 3.527 6.97907 4.09793 6.84437 4.63674L6.27759 6.90594C6.24849 7.02348 6.25017 7.14654 6.28248 7.26324C6.31479 7.37995 6.37662 7.48635 6.46203 7.5722L9.00789 10.1181C9.09383 10.2036 9.20042 10.2656 9.31732 10.2979C9.43422 10.3302 9.55748 10.3318 9.67518 10.3025L11.9433 9.73571C12.2093 9.66962 12.4867 9.66465 12.7548 9.72118C13.023 9.77771 13.2748 9.89427 13.4914 10.0621L15.8808 11.921C16.7398 12.5893 16.8185 13.8586 16.0497 14.6264L14.9783 15.6978C14.2115 16.4646 13.0655 16.8013 11.9972 16.4252C9.26244 15.4642 6.77965 13.8988 4.7337 11.8453C2.6804 9.79969 1.11494 7.31727 0.153841 4.58286C-0.221252 3.5156 0.115502 2.36857 0.882266 1.6018L1.95263 0.530407Z" fill="#F2ECE4"/>
</g>
<defs>
<clipPath id="clip0_1042_845">
<rect width="16.5787" height="16.5787" fill="white"/>
</clipPath>
</defs>
</svg>
