<svg width="77" height="60" viewBox="0 0 77 60" fill="none" xmlns="http://www.w3.org/2000/svg">
<path d="M76.5028 48.9872C75.8768 48.9872 75.2508 48.9872 74.75 48.9872C50.3365 48.9872 26.0481 48.9872 1.63459 48.9872C1.259 48.9872 0.883406 48.9872 0.507812 48.9872C0.507812 48.862 0.507812 48.7368 0.507812 48.7368C0.507812 47.4848 0.507812 46.2328 0.507812 45.1061C0.507812 44.7305 0.633009 44.7305 0.883405 44.7305C13.1528 44.7305 25.4221 44.7305 37.8167 44.7305C50.2113 44.7305 62.731 44.7305 75.1256 44.7305C75.6264 44.7305 76.1272 44.7305 76.5028 44.7305C76.5028 46.1076 76.5028 47.4848 76.5028 48.9872Z" fill="#151515"/>
<path d="M6.64062 53.6133C27.799 53.6133 48.9574 53.6133 70.1158 53.6133C69.9906 53.8637 69.8654 54.2393 69.7402 54.4897C68.8639 56.2424 67.9875 57.87 67.1111 59.6228C66.9859 59.8732 66.7355 59.9984 66.3599 59.9984C48.707 59.9984 31.0542 59.9984 13.4013 59.9984C12.3997 59.9984 11.2729 59.9984 10.2714 59.9984C10.021 59.9984 9.77056 59.8732 9.64537 59.6228C8.64378 57.7448 7.64221 55.7416 6.64062 53.8637C6.76582 53.7385 6.76582 53.7385 6.64062 53.6133Z" fill="#151515"/>
<path d="M32.1867 25.3231C30.1835 25.3231 28.1803 25.3231 26.1772 25.3231C23.548 25.1979 21.4197 23.4451 20.7937 20.816C20.1677 18.4372 21.1693 15.9332 23.2976 14.5561C24.174 13.9301 25.1756 13.6797 26.1772 13.6797C30.1835 13.6797 34.1898 13.6797 38.1962 13.6797C41.0757 13.6797 43.4545 16.0584 43.7049 18.938C43.9552 21.6923 42.0773 24.4467 39.3229 25.0727C38.6969 25.1979 38.1962 25.3231 37.5702 25.3231C35.8174 25.4483 33.9394 25.4483 32.1867 25.3231Z" fill="#151515"/>
<path d="M19.7886 40.2164C16.7839 40.2164 13.9043 40.2164 10.8996 40.2164C10.3988 40.2164 10.0232 40.0912 9.77283 39.7156C8.14526 37.8376 7.76966 35.7093 8.77124 33.4557C9.77282 31.2021 11.5256 29.9502 14.0295 29.9502C17.9107 29.825 21.7918 29.9502 25.5477 29.9502C28.4273 29.9502 30.806 31.9533 31.3068 34.7077C31.6824 36.7108 31.1816 38.4636 29.6792 39.966C29.4289 40.2164 29.1785 40.3416 28.8029 40.3416C25.7981 40.2164 22.7934 40.2164 19.7886 40.2164Z" fill="#151515"/>
<path d="M46.4531 25.3231C47.5799 23.5703 48.2059 21.5671 48.2059 19.4388C48.2059 17.3104 47.5799 15.4325 46.4531 13.6797C46.5783 13.6797 46.7035 13.6797 46.7035 13.6797C48.2059 13.6797 49.5831 13.6797 51.0854 13.6797C53.965 13.6797 56.3437 15.6829 56.8445 18.5624C57.4705 21.9427 54.8414 25.1979 51.461 25.3231C49.8335 25.4483 48.2059 25.3231 46.5783 25.3231C46.5783 25.4483 46.5783 25.3231 46.4531 25.3231Z" fill="#151515"/>
<path d="M61.3527 40.2164C62.2291 38.4636 62.4795 36.836 62.3543 34.9581C62.2291 33.0801 61.6031 31.4525 60.6016 29.9502C60.7268 29.9502 60.852 29.9502 60.852 29.9502C62.3543 29.9502 63.8567 29.825 65.3591 29.9502C67.7378 30.0754 69.4906 31.3273 70.4922 33.4557C71.4938 35.5841 70.993 37.7124 69.6158 39.4652C69.2402 39.966 68.7394 40.2164 68.1134 40.0912C65.9851 40.0912 63.9819 40.0912 61.8535 40.0912C61.7283 40.2164 61.6031 40.2164 61.3527 40.2164Z" fill="#151515"/>
<path d="M48.2043 40.0916C48.9555 38.464 49.3311 36.7113 49.2059 34.8333C49.0807 33.0805 48.4547 31.3278 47.4531 29.8254C47.5783 29.8254 47.7035 29.7002 47.7035 29.7002C49.2059 29.7002 50.8335 29.575 52.3358 29.7002C54.7146 29.8254 56.5926 31.0773 57.4689 33.4561C58.3453 35.7097 57.9697 37.7128 56.3422 39.4656C55.9666 39.8412 55.591 39.9664 55.0902 39.9664C52.8366 39.9664 50.7083 39.9664 48.4547 39.9664C48.3295 40.2168 48.3295 40.2168 48.2043 40.0916Z" fill="#151515"/>
<path d="M34.9387 40.2193C36.4411 36.5886 36.3159 33.2083 34.1875 29.9531C34.3127 29.9531 34.4379 29.9531 34.5631 29.9531C35.9403 29.9531 37.3174 29.9531 38.5694 29.9531C41.449 29.9531 43.9529 31.8311 44.4537 34.5854C44.8293 36.5886 44.3285 38.3414 42.9513 39.8437C42.7009 40.0941 42.3253 40.2193 41.9498 40.2193C39.8214 40.2193 37.8182 40.2193 35.6899 40.2193C35.4395 40.2193 35.3143 40.2193 34.9387 40.2193Z" fill="#151515"/>
<path d="M43.4531 0.03125C43.7035 0.03125 43.8287 0.03125 43.9539 0.03125C45.2059 0.03125 46.3327 0.03125 47.5847 0.03125C47.9602 0.03125 47.9602 0.15645 47.9602 0.532043C47.9602 2.7856 47.9602 5.03916 47.9602 7.29271C47.9602 7.7935 47.9602 8.2943 47.9602 8.79509C47.9602 9.04548 47.9602 9.17068 47.5847 9.17068C46.3327 9.17068 45.2059 9.17068 43.9539 9.17068C43.7035 9.17068 43.5783 9.04548 43.5783 8.79509C43.5783 6.91712 43.5783 5.16435 43.5783 3.28639C43.4531 2.15961 43.4531 1.15803 43.4531 0.03125Z" fill="#151515"/>
<path d="M34.0618 0.0313004C34.0618 0.281696 34.0618 0.406893 34.0618 0.657289C34.0618 3.41164 34.0618 6.04079 34.0618 8.79514C34.0618 9.17073 34.0618 9.29593 33.6862 9.29593C32.4342 9.29593 31.1823 9.29593 29.9303 9.29593C29.6799 9.29593 29.5547 9.17073 29.5547 8.92033C29.5547 6.16598 29.5547 3.28644 29.5547 0.532093C29.5547 0.281698 29.6799 0.156496 29.9303 0.156496C31.0571 0.156496 32.309 0.156496 33.4358 0.156496C33.6862 -0.0938992 33.9366 0.0313004 34.0618 0.0313004Z" fill="#151515"/>
</svg>
