<svg width="47" height="60" viewBox="0 0 47 60" fill="none" xmlns="http://www.w3.org/2000/svg">
<path d="M28.6873 0V0.0771248C28.7644 0.0771248 28.8415 0.154238 28.9187 0.154238C29.3043 0.308478 29.4585 0.462718 29.3814 0.925439C29.2271 1.69664 29.0729 2.46784 28.9187 3.23904C28.9187 3.39328 28.8415 3.47041 28.6873 3.47041C25.3711 3.47041 22.1321 3.47041 18.8159 3.47041C18.5846 3.47041 18.2761 3.54753 18.1219 3.39329C17.9676 3.23905 17.9676 2.93056 17.8905 2.6992C17.7362 2.08224 17.6591 1.46529 17.5049 0.848326C17.4278 0.616966 17.582 0.462721 17.7363 0.385601C17.9676 0.30848 18.199 0.231363 18.4303 0.231363C18.3532 0.231363 18.199 0.154245 18.0447 0.0771248C21.5923 4.70589e-06 25.1398 0 28.6873 0Z" fill="#151515"/>
<path d="M13.2658 46.7348C13.5743 47.6603 13.8057 48.5857 14.037 49.434C14.5769 50.8993 15.2709 52.3646 16.0421 53.7527C16.4277 54.3697 16.8133 54.9867 17.1218 55.6036C17.2761 55.835 17.4303 55.9121 17.6617 55.9121C18.1244 55.9121 18.51 55.9121 18.9727 55.9121C23.3685 55.9121 27.7644 55.9121 32.1602 55.9121C32.2374 55.9121 32.3145 55.9121 32.3916 55.9121C32.7001 55.9121 32.8543 55.835 33.0086 55.5265C33.5484 54.6011 34.0882 53.6756 34.6281 52.6731C35.3993 51.2078 36.0163 49.6654 36.479 48.0459C37.1731 45.6551 37.2502 43.1873 36.479 40.7966C35.9391 39.0999 35.1679 37.4804 34.3196 35.938C33.7798 35.0126 33.2399 34.0871 32.7772 33.1617C32.623 32.8532 32.3145 32.7761 32.006 32.699C30.6178 32.4676 29.3068 32.4676 27.9186 32.7761C26.9932 33.0074 26.0678 33.2388 25.1423 33.4702C23.677 33.8558 22.1346 33.9329 20.5922 33.7015C19.8981 33.6244 19.2041 33.3159 18.51 33.1617C18.2786 33.0846 18.1244 33.0074 17.893 33.0074C17.6617 32.9303 17.4303 33.0846 17.2761 33.3159C16.8905 34.01 16.4277 34.7041 16.0421 35.4753C15.4252 36.7863 14.8082 38.0202 14.1141 39.3313C14.037 39.5626 13.8828 39.6398 13.5743 39.7169C13.1116 39.794 12.6489 39.9482 12.1861 40.1025C12.109 40.1025 11.9548 40.1796 11.8777 40.1796C11.8005 40.1796 11.7234 40.1025 11.7234 40.0254C11.4921 39.1771 11.1065 38.4058 10.6437 37.6346C10.5666 37.4804 10.4895 37.3262 10.6437 37.1719C11.5692 35.4753 12.4175 33.7015 13.3429 32.0049C14.1913 30.4625 15.0396 28.9972 15.8108 27.4548C16.8133 25.5268 17.6617 23.5988 18.2786 21.5165C18.5871 20.5911 18.8956 19.6657 19.127 18.6631C19.5126 17.1207 19.821 15.5783 19.8982 13.9588C19.8982 13.6503 19.9753 13.2647 19.9753 12.9562C20.0524 12.4164 19.8982 11.9537 19.5126 11.6452C18.5871 10.7197 17.6617 9.87141 16.8133 8.94597C16.1964 8.32901 15.6565 7.78916 15.1167 7.1722C14.5769 6.63236 14.8853 5.6298 15.6565 5.47556C15.8879 5.39844 16.1193 5.39844 16.4277 5.39844C20.9007 5.39844 25.3737 5.39844 29.8466 5.39844C30.078 5.39844 30.3865 5.39844 30.6178 5.39844C31.3119 5.39844 31.9289 6.01541 31.7746 6.86373C31.6204 7.55781 31.3119 8.17477 30.9263 8.79173C30.5407 9.40869 30.1551 10.0256 30.0009 10.7968C29.9238 11.4138 29.9238 12.0308 29.9238 12.6477C30.078 14.8842 30.3865 17.0436 30.9263 19.2029C31.6975 22.2106 32.8543 25.0641 34.3196 27.7633C35.3222 29.6913 36.4018 31.5422 37.4815 33.4702C38.0985 34.627 38.7155 35.7838 39.2553 36.9406C39.9494 38.3287 40.4121 39.794 40.7206 41.2593C41.0291 42.6475 41.1062 44.1127 41.0291 45.578C40.8748 47.4289 40.4892 49.2027 39.8723 50.8993C38.8697 53.5985 37.5587 56.0664 36.0163 58.4571C35.862 58.6884 35.7849 58.8427 35.6307 59.074C35.2451 59.691 34.6281 59.9995 33.8569 59.9995C28.0729 59.9995 22.2118 59.9995 16.4277 59.9995C15.5023 59.9995 14.8082 59.6139 14.3455 58.8427C13.9599 58.1486 13.4972 57.4545 13.0345 56.7604C12.9573 56.6062 12.9573 56.452 13.0345 56.2206C13.2658 55.6036 13.4201 55.0638 13.5743 54.4468C13.9599 52.2875 13.7285 50.2052 12.726 48.2772C12.6489 48.123 12.5717 48.0459 12.4946 47.8916C12.3404 47.6603 12.4175 47.5831 12.5717 47.4289C12.8031 47.1975 13.0345 46.9662 13.2658 46.7348Z" fill="#151515"/>
<path d="M8.71366 44.8071C7.47974 44.5758 6.47717 44.1131 5.47461 43.4961C3.62372 42.3393 2.31269 40.7198 1.38725 38.7918C0.693169 37.3265 0.384684 35.8612 0.538924 34.2417C0.616045 33.7018 1.00165 33.2391 1.54149 33.3934C2.23557 33.4705 2.92964 33.6247 3.5466 33.8561C4.85765 34.3188 6.01445 35.09 7.01701 36.0154C8.86789 37.7892 10.1018 39.9486 10.4103 42.5706C10.4103 42.6478 10.4103 42.7249 10.4103 42.8791C10.4103 42.9563 10.4103 43.0334 10.4103 43.1876C10.6417 43.0334 10.7959 42.9563 10.873 42.8791C11.6442 42.3393 12.4925 41.9537 13.418 41.7223C14.3434 41.4138 15.2689 41.4138 16.2714 41.491C16.8884 41.491 17.3511 41.9537 17.4282 42.4935C17.5053 43.1876 17.1969 43.7274 16.5799 43.9588C16.4257 44.0359 16.1943 44.0359 15.9629 44.0359C15.4231 44.0359 14.8833 44.0359 14.3434 44.113C13.1095 44.3444 12.1069 44.9614 11.2586 45.8868C10.7188 46.4267 10.2561 47.0436 9.71621 47.7377C9.87045 47.8919 10.0247 47.9691 10.1789 48.1233C10.9501 48.9716 11.49 50.0513 11.6442 51.2081C12.1069 54.37 11.1044 56.9921 8.55941 58.9972C7.71109 59.6142 6.70854 59.9998 5.62886 59.9998C4.16357 59.9998 2.92964 59.3828 2.0042 58.226C1.15588 57.2235 0.770282 56.0667 0.693162 54.7556C0.538922 52.5963 1.07876 50.6683 2.3898 48.9716C3.161 47.9691 4.16357 47.1207 5.47461 46.7351C6.09157 46.5038 6.70853 46.4267 7.40261 46.5809C7.47973 46.5809 7.63397 46.5809 7.63397 46.5038C7.94245 46.0411 8.32806 45.5783 8.63654 45.1156C8.63654 45.0385 8.63654 44.9614 8.71366 44.8071ZM6.9399 56.6836C6.9399 56.2209 6.70853 55.8353 6.24581 55.7582C5.93733 55.6811 5.55174 55.5268 5.24326 55.4497C5.08902 55.3726 4.85765 55.3726 4.70341 55.3726C4.31781 55.3726 3.93221 55.8353 3.85509 56.1438C3.77797 56.6065 3.93221 57.0692 4.39493 57.2235C4.85765 57.3777 5.39749 57.5319 5.93733 57.6862C6.40005 57.7633 6.9399 57.3006 6.9399 56.6836Z" fill="#151515"/>
<path d="M32.4639 16.504C32.3868 15.5786 32.2325 14.7303 32.1554 13.8048C32.1554 13.7277 32.1554 13.6506 32.1554 13.6506C32.0783 13.1879 32.0783 13.1879 32.541 13.0336C35.8572 12.1082 38.942 12.648 41.7183 14.7303C43.415 16.0413 44.5718 17.6608 45.2658 19.6659C46.7311 23.8304 46.1913 27.7636 43.8006 31.3882C42.9522 32.6221 41.9497 33.7018 40.7158 34.5501C40.6386 34.5501 40.6386 34.6273 40.5615 34.6273C40.0217 33.6247 39.4818 32.6993 39.0191 31.6967C39.4047 31.3111 39.7903 30.9255 40.1759 30.5399C41.0242 29.6916 41.6412 28.6119 42.0268 27.5322C42.5666 26.2212 42.7209 24.9101 42.7209 23.5991C42.6438 21.5168 41.9497 19.6659 40.5615 18.1235C39.2505 16.7354 37.6309 15.9642 35.6258 15.8871C34.7004 15.8871 33.7749 15.9642 32.9266 16.3498C32.7724 16.4269 32.6181 16.4269 32.4639 16.504Z" fill="#151515"/>
</svg>
