<svg width="46" height="60" viewBox="0 0 46 60" fill="none" xmlns="http://www.w3.org/2000/svg">
<path d="M4.81014 0C16.7049 0 28.6147 0 40.5094 0C40.5996 0.0451128 40.6748 0.105267 40.765 0.135342C43.7124 1.0376 45.156 2.97743 45.156 6.06014C45.156 22.0601 45.156 38.0602 45.156 54.0602C45.156 57.609 42.765 60 39.2312 60C28.1786 60 17.1259 60 6.08833 60C5.69735 60 5.29134 60 4.90036 59.9248C2.05826 59.3985 0.178558 57.1729 0.178558 54.2857C0.163521 38.0902 0.178558 21.8947 0.178558 5.6842C0.178558 5.5639 0.178559 5.42856 0.193597 5.30826C0.313898 3.0827 1.78758 1.09773 3.86277 0.345854C4.14848 0.225553 4.52442 0.240602 4.81014 0ZM13.7425 20.3459C13.6522 23.7143 15.171 26.2857 17.9831 27.8346C18.8252 28.3007 19.8628 28.5113 20.6147 29.0827C22.0432 30.1654 23.2913 30.1654 24.7199 29.0827C25.4417 28.5414 26.4041 28.3459 27.2162 27.9098C30.6147 26.0752 32.1034 22.9323 31.4267 19.1278C31.2613 18.1654 31.0056 17.218 30.6748 16.3158C30.4793 15.7744 30.5395 15.3383 30.8252 14.8421C31.4868 13.7293 31.3214 12.6466 30.4192 11.6992C29.968 11.2331 29.5019 10.782 29.0507 10.3158C28.2688 9.48872 27.3365 9.24811 26.2537 9.59397C25.3816 9.87969 24.6147 9.75939 23.8929 9.12781C23.1861 8.49623 22.1936 8.46617 21.4868 9.08271C20.7049 9.77444 19.8778 9.8797 18.9154 9.56391C17.953 9.24812 17.0959 9.48873 16.3741 10.2105C15.8928 10.6917 15.4267 11.1579 14.9455 11.6541C13.968 12.6617 13.8177 13.7293 14.5244 14.9173C14.7951 15.3684 14.8252 15.7744 14.6598 16.2556C14.1786 17.6992 13.7575 19.188 13.7425 20.3459ZM22.6447 37.5038C26.8402 37.5038 31.0357 37.5038 35.2462 37.5038C35.5019 37.5038 35.7425 37.5188 35.9981 37.4887C36.9605 37.3684 37.6823 36.5414 37.6673 35.5789C37.6372 34.6466 36.9304 33.8647 35.9831 33.7594C35.7575 33.7293 35.5319 33.7444 35.3064 33.7444C26.8853 33.7444 18.4643 33.7444 10.0432 33.7444C9.81766 33.7444 9.59209 33.7293 9.36653 33.7594C8.38909 33.8647 7.66728 34.6617 7.66728 35.6241C7.66728 36.5714 8.40413 37.3834 9.38157 37.4887C9.60713 37.5037 9.8327 37.5038 10.0583 37.5038C14.2537 37.5038 18.4492 37.5038 22.6447 37.5038ZM22.6147 45.0075C26.765 45.0075 30.9154 45.0075 35.0658 45.0075C35.3365 45.0075 35.6222 45.0226 35.8928 44.9925C36.9004 44.9173 37.6673 44.0902 37.6523 43.1128C37.6372 42.1203 36.8703 41.3233 35.8477 41.2632C35.6974 41.2481 35.547 41.2632 35.3966 41.2632C26.9004 41.2632 18.4041 41.2632 9.90788 41.2632C9.7124 41.2632 9.50187 41.2481 9.30638 41.2782C8.37405 41.3985 7.66728 42.1804 7.65225 43.1128C7.63721 44.0451 8.34397 44.8571 9.26127 44.9925C9.50187 45.0226 9.75751 45.0226 10.0131 45.0226C14.2237 45.0075 18.4192 45.0075 22.6147 45.0075ZM22.6898 48.7519C18.735 48.7519 14.7951 48.7519 10.8402 48.7519C10.359 48.7519 9.89285 48.7368 9.41164 48.7669C8.38908 48.8421 7.63721 49.6541 7.65225 50.6466C7.66728 51.594 8.40413 52.406 9.38157 52.4962C9.60713 52.5113 9.8327 52.5113 10.0583 52.5113C18.4492 52.5113 26.8553 52.5113 35.2462 52.5113C35.5019 52.5113 35.7425 52.5263 35.9981 52.4962C36.9304 52.3759 37.6372 51.579 37.6523 50.6617C37.6673 49.6993 36.9304 48.8872 35.968 48.782C35.7274 48.7519 35.4718 48.7669 35.2162 48.7669C31.0357 48.7519 26.8703 48.7519 22.6898 48.7519Z" fill="#151515"/>
<path d="M17.4865 20.8406C17.4865 19.6526 17.8624 18.5248 18.2233 17.412C18.5993 16.2842 18.7497 15.1865 18.2835 14.0436C18.073 13.5323 18.3888 13.3067 18.8399 13.397C20.088 13.6225 21.276 13.4722 22.4188 12.9458C22.6594 12.8406 22.8399 12.9308 23.0504 13.021C24.103 13.4722 25.2008 13.6225 26.3436 13.427C26.9752 13.3218 27.2008 13.5774 26.9903 14.1639C26.6444 15.1263 26.6594 16.0586 26.9602 17.021C27.291 18.1188 27.6669 19.2015 27.7872 20.3594C27.9827 22.1338 27.276 23.4722 25.8023 24.4195C24.885 25.006 23.8474 25.2917 22.885 25.7729C22.7497 25.8481 22.5993 25.8631 22.4489 25.788C21.4113 25.2616 20.2534 24.9609 19.276 24.2692C18.1181 23.412 17.4414 22.3143 17.4865 20.8406Z" fill="#151515"/>
</svg>
