<svg width="48" height="60" viewBox="0 0 48 60" fill="none" xmlns="http://www.w3.org/2000/svg">
<path d="M12.5277 24.3856C12.5277 16.6473 12.5494 8.90888 12.5061 1.14883C12.5061 0.260111 12.7011 0 13.6333 0C24.0383 0.0433523 34.4434 0.0216708 44.8701 0.0216708C46.8861 0.0216708 47.493 0.650276 47.493 2.68783C47.493 17.1025 47.493 31.4954 47.493 45.91C47.493 48.0126 46.9077 48.5979 44.7834 48.5979C34.4434 48.5979 24.1033 48.5762 13.7633 48.6195C12.8095 48.6195 12.4844 48.4461 12.4844 47.4057C12.5494 39.7323 12.5277 32.059 12.5277 24.3856ZM32.6658 17.4059C33.2728 17.3626 33.728 17.1025 33.8798 16.4955C34.0532 15.7802 33.7063 15.3033 33.0777 15.0432C30.1513 13.8294 27.2249 12.6155 24.2768 11.4233C23.6264 11.1632 23.0412 11.3149 22.6943 11.9435C22.3692 12.5721 22.5426 13.1791 23.1712 13.5259C23.6048 13.7643 23.7348 13.9594 23.5181 14.4363C22.5643 16.6906 21.6321 18.9666 20.7 21.2209C20.57 21.5027 20.5266 21.8712 20.028 21.6978C19.2043 21.3943 18.5757 21.6761 18.3589 22.5215C18.1421 23.3452 18.7274 23.7354 19.4211 24.0171C21.914 25.0359 24.4068 26.0764 26.8997 27.1168C27.3332 27.2902 27.7668 27.507 28.2003 27.6154C28.7856 27.7671 29.2625 27.5287 29.5443 26.9868C29.8478 26.4232 29.6961 25.8163 29.1758 25.5778C28.3304 25.166 28.6122 24.7108 28.8723 24.1255C29.6527 22.2614 29.6527 22.2614 31.5169 23.0417C35.2454 24.5807 38.9739 26.0981 42.7024 27.6371C43.4611 27.9405 44.0897 27.8105 44.4149 27.0735C44.7617 26.2931 44.3715 25.7512 43.6345 25.4478C43.396 25.3394 43.1793 25.2527 42.9408 25.1443C39.2123 23.6053 35.5055 22.0229 31.7337 20.5706C30.6932 20.1588 30.4331 19.7036 31.0617 18.8365C31.5169 18.2079 31.1918 16.7773 32.6658 17.4059ZM26.0976 34.9636C23.0845 34.9636 20.0497 34.9636 17.0366 34.9636C16.1695 34.9636 15.4758 35.202 15.4758 36.1774C15.4758 37.1529 16.1912 37.3913 17.0583 37.3913C23.0628 37.3913 29.0891 37.3913 35.0937 37.3913C36.1992 37.3913 36.8062 36.9144 36.7195 36.1341C36.6111 35.1587 35.9174 34.9853 35.072 34.9853C32.0806 34.9636 29.0891 34.9636 26.0976 34.9636ZM25.9459 32.9911C27.9185 32.9911 29.9128 32.9911 31.8855 32.9911C32.7309 32.9911 33.4462 32.7526 33.4462 31.7772C33.4462 30.7801 32.7092 30.585 31.8638 30.585C28.0052 30.585 24.1684 30.585 20.3098 30.585C19.4644 30.585 18.7708 30.7584 18.6841 31.7338C18.619 32.5142 19.226 32.9694 20.3315 32.9911C22.1958 32.9911 24.06 32.9911 25.9459 32.9911Z" fill="#151515"/>
<path d="M0.828125 50.3332C0.828125 49.6829 0.828125 49.3578 0.828125 49.0326C0.828125 34.4446 0.828125 19.8566 0.828125 5.29021C0.828125 1.757 2.54062 0.0445926 6.05233 0.0229165C7.13619 0.0229165 8.22005 0.066274 9.28223 0.00124566C9.95422 -0.0204305 10.1927 0.239683 10.1276 0.868291C10.106 1.02002 10.1276 1.15008 10.1276 1.30181C10.1276 16.6485 10.106 31.9735 10.1493 47.3202C10.1493 48.3607 9.91087 48.7509 8.84868 48.5991C8.32843 48.5124 7.76482 48.5991 7.2229 48.5774C5.0335 48.5341 2.8441 48.5774 0.828125 50.3332Z" fill="#151515"/>
<path d="M24.5874 59.9778C18.3661 59.9778 12.1231 59.9778 5.9017 59.9778C3.32212 59.9778 1.54459 58.7206 1.00266 56.5747C0.330665 53.9518 2.08652 51.4591 4.92623 51.0689C5.42481 51.0039 5.92338 51.0039 6.44363 51.0039C18.7996 51.0039 31.1556 51.0039 43.5116 51.0039C45.1157 51.0039 45.1157 51.0039 44.7039 52.5429C44.1619 54.6021 44.2053 56.683 44.7906 58.7423C45.1157 59.8694 45.029 59.9995 43.8585 59.9995C37.4203 59.9778 31.0039 59.9778 24.5874 59.9778Z" fill="#151515"/>
<path d="M29.4669 16.4517C29.3802 16.6685 29.2935 16.8636 29.2068 17.0587C28.3614 19.1179 27.4943 21.1555 26.6706 23.2364C26.3888 23.9734 26.107 24.3202 25.3049 23.8433C24.6979 23.4965 24.0043 23.2581 23.3106 23.0196C22.7687 22.8245 22.7036 22.5644 22.9204 22.0442C23.8525 19.8332 24.763 17.6006 25.6734 15.3679C25.8685 14.8694 26.107 14.696 26.6272 14.9561C27.4076 15.3246 28.2096 15.6064 29.0117 15.9532C29.2718 16.0616 29.5536 16.1266 29.4669 16.4517Z" fill="#151515"/>
</svg>
